<svg width="416" height="240" viewBox="0 0 416 240" fill="none" xmlns="http://www.w3.org/2000/svg">
<g filter="url(#filter0_ddd_1057_1035)">
<rect x="12" y="48" width="392" height="180" rx="8" fill="#F8FDF5" shape-rendering="crispEdges"/>
<path d="M148.607 130.93H139.517V135.46H147.977V139.66H139.517V148H134.717V126.7H148.607V130.93ZM157.621 132.49C160.001 132.49 161.861 133.17 163.201 134.53C164.561 135.89 165.241 137.73 165.241 140.05C165.241 141.63 164.901 143.04 164.221 144.28C163.541 145.52 162.581 146.5 161.341 147.22C160.101 147.94 158.641 148.3 156.961 148.3C154.601 148.3 152.741 147.62 151.381 146.26C150.041 144.9 149.371 143.07 149.371 140.77C149.371 139.17 149.711 137.75 150.391 136.51C151.071 135.27 152.031 134.29 153.271 133.57C154.511 132.85 155.961 132.49 157.621 132.49ZM157.171 144.31C158.191 144.31 159.001 143.93 159.601 143.17C160.221 142.39 160.531 141.35 160.531 140.05C160.531 138.93 160.261 138.06 159.721 137.44C159.181 136.8 158.441 136.48 157.501 136.48C156.461 136.48 155.631 136.87 155.011 137.65C154.411 138.41 154.111 139.44 154.111 140.74C154.111 141.86 154.371 142.74 154.891 143.38C155.431 144 156.191 144.31 157.171 144.31ZM178.492 137.17C178.092 137.01 177.552 136.93 176.872 136.93C175.832 136.93 175.002 137.3 174.382 138.04C173.762 138.76 173.312 139.94 173.032 141.58C172.752 143.2 172.612 145.34 172.612 148H168.052V138.1L167.992 132.73H172.582L172.372 136.54C172.912 135.08 173.632 134.04 174.532 133.42C175.452 132.8 176.432 132.49 177.472 132.49C177.812 132.49 178.122 132.51 178.402 132.55C178.702 132.59 179.002 132.66 179.302 132.76L178.492 137.17ZM195.373 148.3C193.793 148.3 192.423 148 191.263 147.4C190.103 146.78 189.203 145.9 188.563 144.76C187.923 143.62 187.603 142.26 187.603 140.68C187.603 139.06 187.943 137.64 188.623 136.42C189.323 135.18 190.283 134.22 191.503 133.54C192.723 132.84 194.143 132.49 195.763 132.49C197.083 132.49 198.253 132.75 199.273 133.27C200.293 133.79 201.113 134.6 201.733 135.7L198.493 138.16C198.173 137.58 197.793 137.16 197.353 136.9C196.933 136.64 196.403 136.51 195.763 136.51C194.783 136.51 193.973 136.89 193.333 137.65C192.693 138.39 192.373 139.37 192.373 140.59C192.373 141.77 192.653 142.68 193.213 143.32C193.793 143.96 194.623 144.28 195.703 144.28C196.283 144.28 196.813 144.15 197.293 143.89C197.793 143.61 198.213 143.18 198.553 142.6L201.703 145.12C201.023 146.28 200.123 147.1 199.003 147.58C197.903 148.06 196.693 148.3 195.373 148.3ZM217.709 132.79V148H213.089L213.239 145.72C212.139 147.44 210.509 148.3 208.349 148.3C206.989 148.3 205.829 147.99 204.869 147.37C203.909 146.75 203.179 145.89 202.679 144.79C202.179 143.69 201.929 142.43 201.929 141.01C201.929 139.31 202.279 137.82 202.979 136.54C203.679 135.26 204.619 134.27 205.799 133.57C206.979 132.85 208.299 132.49 209.759 132.49C210.719 132.49 211.569 132.69 212.309 133.09C213.049 133.47 213.619 133.98 214.019 134.62L214.409 132.79H217.709ZM210.209 136.48C209.109 136.48 208.239 136.89 207.599 137.71C206.979 138.53 206.669 139.58 206.669 140.86C206.669 141.96 206.909 142.81 207.389 143.41C207.889 144.01 208.559 144.31 209.399 144.31C210.419 144.31 211.289 143.89 212.009 143.05C212.749 142.21 213.119 141.11 213.119 139.75C213.119 138.73 212.859 137.93 212.339 137.35C211.819 136.77 211.109 136.48 210.209 136.48ZM226.054 148.3C224.514 148.3 223.324 147.88 222.484 147.04C221.664 146.18 221.254 144.94 221.254 143.32V125.8H225.844V142.99C225.844 143.91 226.274 144.37 227.134 144.37C227.594 144.37 227.984 144.26 228.304 144.04L229.414 147.31C229.074 147.59 228.604 147.82 228.004 148C227.404 148.2 226.754 148.3 226.054 148.3ZM235.166 148.3C233.626 148.3 232.436 147.88 231.596 147.04C230.776 146.18 230.366 144.94 230.366 143.32V125.8H234.956V142.99C234.956 143.91 235.386 144.37 236.246 144.37C236.706 144.37 237.096 144.26 237.416 144.04L238.526 147.31C238.186 147.59 237.716 147.82 237.116 148C236.516 148.2 235.866 148.3 235.166 148.3ZM244.214 132.73V148H239.624V132.73H244.214ZM241.904 130.93C241.024 130.93 240.324 130.66 239.804 130.12C239.284 129.58 239.024 128.94 239.024 128.2C239.024 127.46 239.274 126.82 239.774 126.28C240.294 125.74 241.004 125.47 241.904 125.47C242.784 125.47 243.484 125.74 244.004 126.28C244.524 126.82 244.784 127.46 244.784 128.2C244.784 128.94 244.524 129.58 244.004 130.12C243.484 130.66 242.784 130.93 241.904 130.93ZM247.709 148V132.73H252.269L252.059 136C252.679 134.88 253.469 134.02 254.429 133.42C255.409 132.8 256.499 132.49 257.699 132.49C259.519 132.49 260.879 133.11 261.779 134.35C262.679 135.57 263.119 137.33 263.099 139.63L263.039 148H258.449L258.509 139.96C258.529 138.92 258.369 138.13 258.029 137.59C257.709 137.03 257.189 136.75 256.469 136.75C255.869 136.75 255.319 136.93 254.819 137.29C254.319 137.63 253.879 138.22 253.499 139.06C253.139 139.9 252.849 141.05 252.629 142.51C252.409 143.97 252.289 145.8 252.269 148H247.709ZM271.951 154.3C271.351 154.3 270.691 154.25 269.971 154.15C269.271 154.07 268.601 153.94 267.961 153.76C267.321 153.58 266.771 153.34 266.311 153.04L267.421 149.14C268.081 149.48 268.801 149.75 269.581 149.95C270.381 150.17 271.261 150.28 272.221 150.28C273.901 150.28 275.091 149.9 275.791 149.14C276.491 148.38 276.891 147.19 276.991 145.57L277.021 145.3C275.941 146.9 274.341 147.7 272.221 147.7C270.821 147.7 269.631 147.41 268.651 146.83C267.671 146.25 266.921 145.44 266.401 144.4C265.881 143.36 265.621 142.16 265.621 140.8C265.621 139.16 265.961 137.72 266.641 136.48C267.341 135.24 268.281 134.27 269.461 133.57C270.641 132.85 271.981 132.49 273.481 132.49C274.481 132.49 275.351 132.69 276.091 133.09C276.851 133.47 277.431 133.98 277.831 134.62L278.221 132.79H281.521V145.03C281.521 147.11 281.121 148.83 280.321 150.19C279.541 151.57 278.431 152.6 276.991 153.28C275.571 153.96 273.891 154.3 271.951 154.3ZM273.961 136.48C272.841 136.48 271.961 136.86 271.321 137.62C270.681 138.38 270.361 139.34 270.361 140.5C270.361 141.52 270.611 142.31 271.111 142.87C271.631 143.43 272.331 143.71 273.211 143.71C273.911 143.71 274.541 143.53 275.101 143.17C275.661 142.81 276.101 142.31 276.421 141.67C276.761 141.03 276.931 140.3 276.931 139.48C276.931 138.56 276.661 137.83 276.121 137.29C275.581 136.75 274.861 136.48 273.961 136.48Z" fill="#073404"/>
<path d="M119.443 175.676C119.56 175.676 119.626 175.705 119.641 175.764C119.67 175.823 119.663 175.874 119.619 175.918C118.9 177.355 118.306 178.917 117.837 180.604C117.382 182.291 117.155 184.007 117.155 185.752C117.155 187.409 117.353 189.008 117.749 190.548C118.16 192.088 118.746 193.687 119.509 195.344C119.553 195.417 119.56 195.483 119.531 195.542C119.502 195.601 119.436 195.63 119.333 195.63H117.881C117.749 195.63 117.639 195.557 117.551 195.41C116.95 194.369 116.422 193.349 115.967 192.352C115.512 191.355 115.16 190.313 114.911 189.228C114.676 188.143 114.559 186.977 114.559 185.73C114.559 183.897 114.838 182.144 115.395 180.472C115.967 178.8 116.708 177.275 117.617 175.896C117.749 175.749 117.903 175.676 118.079 175.676H119.443ZM133.583 175.676C133.803 175.676 133.935 175.705 133.979 175.764C134.023 175.823 134.037 175.94 134.023 176.116L133.935 177.964C133.92 178.096 133.883 178.191 133.825 178.25C133.781 178.294 133.671 178.316 133.495 178.316H126.367C126.147 178.316 126.037 178.411 126.037 178.602L125.729 182.078C125.714 182.195 125.736 182.283 125.795 182.342C125.868 182.386 125.941 182.386 126.015 182.342C126.587 182.122 127.115 181.939 127.599 181.792C128.083 181.631 128.662 181.55 129.337 181.55C130.393 181.55 131.353 181.741 132.219 182.122C133.084 182.489 133.773 183.053 134.287 183.816C134.815 184.564 135.079 185.517 135.079 186.676C135.079 187.835 134.8 188.832 134.243 189.668C133.685 190.489 132.915 191.12 131.933 191.56C130.965 192 129.843 192.22 128.567 192.22C127.247 192.22 126.044 192 124.959 191.56C123.873 191.105 123.015 190.482 122.385 189.69C122.297 189.573 122.245 189.463 122.231 189.36C122.216 189.257 122.275 189.155 122.407 189.052L123.925 187.952C124.101 187.82 124.269 187.849 124.431 188.04C124.797 188.392 125.157 188.715 125.509 189.008C125.861 189.287 126.249 189.507 126.675 189.668C127.1 189.829 127.606 189.91 128.193 189.91C128.97 189.91 129.63 189.778 130.173 189.514C130.73 189.235 131.148 188.861 131.427 188.392C131.72 187.908 131.867 187.365 131.867 186.764C131.867 186.163 131.727 185.649 131.449 185.224C131.185 184.784 130.811 184.454 130.327 184.234C129.843 183.999 129.285 183.882 128.655 183.882C128.053 183.882 127.503 183.985 127.005 184.19C126.506 184.395 126 184.63 125.487 184.894C125.369 184.953 125.289 184.982 125.245 184.982C125.201 184.967 125.113 184.931 124.981 184.872L123.309 183.948C123.162 183.86 123.081 183.779 123.067 183.706C123.067 183.633 123.074 183.501 123.089 183.31L123.705 176.116C123.719 175.94 123.763 175.823 123.837 175.764C123.925 175.705 124.108 175.676 124.387 175.676H133.583ZM144.779 175.456C145.909 175.456 146.906 175.654 147.771 176.05C148.651 176.431 149.341 176.959 149.839 177.634C150.338 178.309 150.587 179.093 150.587 179.988C150.587 180.619 150.411 181.198 150.059 181.726C149.707 182.239 149.165 182.723 148.431 183.178C148.197 183.31 148.189 183.435 148.409 183.552C149.113 183.889 149.678 184.256 150.103 184.652C150.529 185.048 150.837 185.481 151.027 185.95C151.218 186.419 151.313 186.933 151.313 187.49C151.313 188.458 151.035 189.301 150.477 190.02C149.92 190.739 149.143 191.289 148.145 191.67C147.148 192.037 145.989 192.22 144.669 192.22C143.423 192.22 142.33 192.059 141.391 191.736C140.453 191.399 139.727 190.915 139.213 190.284C138.7 189.639 138.443 188.869 138.443 187.974C138.443 187.226 138.627 186.559 138.993 185.972C139.375 185.371 140.035 184.799 140.973 184.256C141.12 184.183 141.201 184.117 141.215 184.058C141.23 183.999 141.157 183.926 140.995 183.838C140.614 183.589 140.262 183.31 139.939 183.002C139.617 182.679 139.36 182.305 139.169 181.88C138.979 181.455 138.883 180.949 138.883 180.362C138.883 179.467 139.118 178.653 139.587 177.92C140.071 177.172 140.753 176.578 141.633 176.138C142.513 175.683 143.562 175.456 144.779 175.456ZM144.823 177.656C144.281 177.656 143.789 177.759 143.349 177.964C142.909 178.155 142.565 178.426 142.315 178.778C142.066 179.13 141.941 179.541 141.941 180.01C141.941 181.051 142.535 181.726 143.723 182.034L145.637 182.562C145.843 182.621 146.07 182.584 146.319 182.452C146.569 182.32 146.803 182.129 147.023 181.88C147.258 181.631 147.449 181.345 147.595 181.022C147.742 180.685 147.815 180.355 147.815 180.032C147.815 179.357 147.551 178.793 147.023 178.338C146.495 177.883 145.762 177.656 144.823 177.656ZM144.867 190.02C145.865 190.02 146.649 189.815 147.221 189.404C147.793 188.979 148.079 188.407 148.079 187.688C148.079 187.175 147.933 186.742 147.639 186.39C147.361 186.023 146.855 185.745 146.121 185.554L143.767 184.916C143.547 184.857 143.291 184.879 142.997 184.982C142.719 185.085 142.44 185.253 142.161 185.488C141.897 185.723 141.677 186.016 141.501 186.368C141.325 186.72 141.237 187.101 141.237 187.512C141.237 188.289 141.531 188.905 142.117 189.36C142.719 189.8 143.635 190.02 144.867 190.02ZM165.761 175.676C165.937 175.676 166.069 175.72 166.157 175.808C166.245 175.881 166.282 175.969 166.267 176.072L166.223 177.15C166.223 177.267 166.172 177.436 166.069 177.656C165.967 177.861 165.864 178.052 165.761 178.228C165.204 179.049 164.676 179.937 164.177 180.89C163.679 181.843 163.217 182.819 162.791 183.816C162.381 184.799 162.014 185.767 161.691 186.72C161.369 187.659 161.097 188.531 160.877 189.338C160.672 190.145 160.54 190.849 160.481 191.45C160.452 191.817 160.313 192 160.063 192H157.159C156.851 192 156.741 191.839 156.829 191.516C157.049 190.695 157.321 189.822 157.643 188.898C157.966 187.974 158.355 186.977 158.809 185.906C159.279 184.835 159.836 183.699 160.481 182.496C161.141 181.293 161.904 180.01 162.769 178.646C162.828 178.543 162.85 178.463 162.835 178.404C162.821 178.345 162.74 178.316 162.593 178.316H154.783C154.519 178.316 154.395 178.184 154.409 177.92L154.607 175.962C154.637 175.771 154.791 175.676 155.069 175.676H165.761ZM169.002 175.676H170.366C170.557 175.676 170.711 175.749 170.828 175.896C171.738 177.275 172.471 178.8 173.028 180.472C173.6 182.144 173.886 183.897 173.886 185.73C173.886 186.977 173.762 188.143 173.512 189.228C173.278 190.313 172.933 191.355 172.478 192.352C172.024 193.349 171.496 194.369 170.894 195.41C170.806 195.557 170.696 195.63 170.564 195.63H169.112C169.01 195.63 168.944 195.601 168.914 195.542C168.885 195.483 168.892 195.417 168.936 195.344C169.714 193.687 170.3 192.088 170.696 190.548C171.092 189.008 171.29 187.409 171.29 185.752C171.29 184.007 171.063 182.291 170.608 180.604C170.154 178.917 169.56 177.355 168.826 175.918C168.797 175.874 168.79 175.823 168.804 175.764C168.834 175.705 168.9 175.676 169.002 175.676ZM183.845 178.14C183.728 178.008 183.728 177.861 183.845 177.7C184.271 177.216 184.769 176.813 185.341 176.49C185.913 176.153 186.537 175.896 187.211 175.72C187.901 175.544 188.612 175.456 189.345 175.456C190.577 175.456 191.633 175.639 192.513 176.006C193.393 176.358 194.068 176.849 194.537 177.48C195.021 178.111 195.263 178.844 195.263 179.68C195.263 180.399 195.036 181.081 194.581 181.726C194.127 182.357 193.467 182.811 192.601 183.09C192.44 183.149 192.359 183.215 192.359 183.288C192.359 183.361 192.44 183.42 192.601 183.464C193.203 183.64 193.745 183.919 194.229 184.3C194.713 184.667 195.087 185.107 195.351 185.62C195.63 186.133 195.769 186.713 195.769 187.358C195.769 188.341 195.52 189.199 195.021 189.932C194.523 190.665 193.775 191.23 192.777 191.626C191.795 192.022 190.555 192.22 189.059 192.22C188.267 192.22 187.497 192.117 186.749 191.912C186.016 191.707 185.341 191.413 184.725 191.032C184.124 190.636 183.611 190.167 183.185 189.624C183.097 189.521 183.061 189.426 183.075 189.338C183.105 189.235 183.171 189.147 183.273 189.074L184.725 188.018C184.843 187.945 184.931 187.915 184.989 187.93C185.063 187.93 185.121 187.959 185.165 188.018C185.62 188.473 186.053 188.839 186.463 189.118C186.874 189.382 187.307 189.58 187.761 189.712C188.216 189.829 188.715 189.888 189.257 189.888C190.313 189.888 191.127 189.661 191.699 189.206C192.286 188.751 192.579 188.157 192.579 187.424C192.579 186.852 192.418 186.368 192.095 185.972C191.773 185.576 191.347 185.275 190.819 185.07C190.306 184.85 189.749 184.74 189.147 184.74L187.233 184.718C186.999 184.718 186.881 184.623 186.881 184.432V182.694C186.881 182.533 186.999 182.437 187.233 182.408L188.773 182.364C189.419 182.349 189.991 182.232 190.489 182.012C190.988 181.792 191.377 181.499 191.655 181.132C191.949 180.751 192.095 180.325 192.095 179.856C192.095 179.46 191.971 179.101 191.721 178.778C191.487 178.455 191.157 178.206 190.731 178.03C190.321 177.839 189.844 177.744 189.301 177.744C188.597 177.744 187.952 177.876 187.365 178.14C186.779 178.404 186.199 178.815 185.627 179.372C185.539 179.46 185.466 179.511 185.407 179.526C185.349 179.526 185.268 179.482 185.165 179.394L183.845 178.14ZM206.29 175.478C206.95 175.478 207.544 175.566 208.072 175.742C208.615 175.903 209.091 176.116 209.502 176.38C209.927 176.644 210.279 176.937 210.558 177.26C210.851 177.568 211.057 177.869 211.174 178.162C211.203 178.25 211.218 178.338 211.218 178.426C211.218 178.499 211.159 178.558 211.042 178.602L209.04 179.306C208.937 179.335 208.849 179.321 208.776 179.262C208.717 179.203 208.673 179.145 208.644 179.086C208.365 178.705 208.05 178.397 207.698 178.162C207.346 177.913 206.877 177.788 206.29 177.788C205.454 177.788 204.75 177.993 204.178 178.404C203.621 178.815 203.203 179.379 202.924 180.098C202.645 180.817 202.506 181.638 202.506 182.562C202.506 182.826 202.528 182.987 202.572 183.046C202.631 183.105 202.755 183.09 202.946 183.002C203.474 182.782 204.009 182.577 204.552 182.386C205.095 182.195 205.755 182.1 206.532 182.1C207.661 182.1 208.637 182.305 209.458 182.716C210.294 183.127 210.939 183.699 211.394 184.432C211.849 185.151 212.076 185.979 212.076 186.918C212.076 187.945 211.797 188.861 211.24 189.668C210.697 190.46 209.964 191.083 209.04 191.538C208.116 191.978 207.082 192.198 205.938 192.198C204.574 192.198 203.393 191.875 202.396 191.23C201.399 190.57 200.629 189.639 200.086 188.436C199.543 187.233 199.272 185.803 199.272 184.146C199.272 182.342 199.558 180.795 200.13 179.504C200.717 178.213 201.531 177.223 202.572 176.534C203.628 175.83 204.867 175.478 206.29 175.478ZM205.916 184.278C205.593 184.278 205.234 184.322 204.838 184.41C204.457 184.483 204.09 184.586 203.738 184.718C203.401 184.835 203.122 184.967 202.902 185.114C202.755 185.217 202.66 185.319 202.616 185.422C202.572 185.525 202.55 185.693 202.55 185.928C202.55 186.427 202.616 186.918 202.748 187.402C202.895 187.871 203.107 188.304 203.386 188.7C203.665 189.096 204.009 189.411 204.42 189.646C204.831 189.881 205.315 189.998 205.872 189.998C206.429 189.998 206.935 189.873 207.39 189.624C207.845 189.36 208.204 189.008 208.468 188.568C208.732 188.113 208.864 187.6 208.864 187.028C208.864 186.485 208.739 186.009 208.49 185.598C208.241 185.187 207.896 184.865 207.456 184.63C207.016 184.395 206.503 184.278 205.916 184.278ZM222.499 176.028C222.616 175.881 222.726 175.786 222.829 175.742C222.931 175.698 223.078 175.676 223.269 175.676H225.601C225.806 175.676 225.909 175.793 225.909 176.028V185.466C225.909 185.627 225.982 185.708 226.129 185.708H228.021C228.27 185.708 228.395 185.803 228.395 185.994V187.6C228.395 187.849 228.263 187.974 227.999 187.974H226.151C225.989 187.974 225.909 188.055 225.909 188.216V191.56C225.909 191.853 225.747 192 225.425 192H223.027C222.748 192 222.609 191.868 222.609 191.604L222.631 188.15C222.631 188.033 222.55 187.974 222.389 187.974H215.591C215.327 187.974 215.195 187.849 215.195 187.6V186.016C215.195 185.899 215.231 185.767 215.305 185.62C215.378 185.473 215.503 185.29 215.679 185.07L222.499 176.028ZM222.433 185.708C222.565 185.708 222.631 185.657 222.631 185.554V179.438C222.631 179.247 222.601 179.152 222.543 179.152C222.499 179.137 222.425 179.203 222.323 179.35L217.879 185.422C217.732 185.613 217.783 185.708 218.033 185.708H222.433ZM243.614 186.83C243.614 187.109 243.445 187.248 243.108 187.248H238.004C237.857 187.248 237.755 187.219 237.696 187.16C237.637 187.101 237.608 187.006 237.608 186.874V185.488C237.608 185.253 237.703 185.136 237.894 185.136H243.328C243.519 185.136 243.614 185.231 243.614 185.422V186.83ZM259.759 175.434C260.698 175.434 261.563 175.632 262.355 176.028C263.147 176.409 263.836 176.967 264.423 177.7C265.024 178.433 265.486 179.321 265.809 180.362C266.132 181.403 266.293 182.577 266.293 183.882C266.293 185.613 266.007 187.101 265.435 188.348C264.878 189.58 264.108 190.533 263.125 191.208C262.142 191.868 261.013 192.198 259.737 192.198C258.476 192.198 257.346 191.868 256.349 191.208C255.352 190.533 254.567 189.58 253.995 188.348C253.438 187.116 253.159 185.635 253.159 183.904C253.159 182.584 253.32 181.411 253.643 180.384C253.98 179.343 254.442 178.455 255.029 177.722C255.63 176.974 256.327 176.409 257.119 176.028C257.926 175.632 258.806 175.434 259.759 175.434ZM259.737 189.866C260.441 189.866 261.035 189.668 261.519 189.272C262.003 188.861 262.37 188.223 262.619 187.358C262.868 186.478 262.993 185.327 262.993 183.904C262.993 182.437 262.861 181.257 262.597 180.362C262.348 179.453 261.981 178.793 261.497 178.382C261.013 177.957 260.426 177.744 259.737 177.744C259.048 177.744 258.461 177.957 257.977 178.382C257.493 178.793 257.119 179.453 256.855 180.362C256.591 181.271 256.459 182.452 256.459 183.904C256.459 185.312 256.591 186.456 256.855 187.336C257.119 188.216 257.493 188.861 257.977 189.272C258.461 189.668 259.048 189.866 259.737 189.866ZM276.505 175.434C277.443 175.434 278.309 175.632 279.101 176.028C279.893 176.409 280.582 176.967 281.169 177.7C281.77 178.433 282.232 179.321 282.555 180.362C282.877 181.403 283.039 182.577 283.039 183.882C283.039 185.613 282.753 187.101 282.181 188.348C281.623 189.58 280.853 190.533 279.871 191.208C278.888 191.868 277.759 192.198 276.483 192.198C275.221 192.198 274.092 191.868 273.095 191.208C272.097 190.533 271.313 189.58 270.741 188.348C270.183 187.116 269.905 185.635 269.905 183.904C269.905 182.584 270.066 181.411 270.389 180.384C270.726 179.343 271.188 178.455 271.775 177.722C272.376 176.974 273.073 176.409 273.865 176.028C274.671 175.632 275.551 175.434 276.505 175.434ZM276.483 189.866C277.187 189.866 277.781 189.668 278.265 189.272C278.749 188.861 279.115 188.223 279.365 187.358C279.614 186.478 279.739 185.327 279.739 183.904C279.739 182.437 279.607 181.257 279.343 180.362C279.093 179.453 278.727 178.793 278.243 178.382C277.759 177.957 277.172 177.744 276.483 177.744C275.793 177.744 275.207 177.957 274.723 178.382C274.239 178.793 273.865 179.453 273.601 180.362C273.337 181.271 273.205 182.452 273.205 183.904C273.205 185.312 273.337 186.456 273.601 187.336C273.865 188.216 274.239 188.861 274.723 189.272C275.207 189.668 275.793 189.866 276.483 189.866ZM295.209 189.558C295.443 189.558 295.561 189.661 295.561 189.866V191.67C295.561 191.743 295.531 191.817 295.473 191.89C295.414 191.963 295.319 192 295.187 192H286.827C286.592 192 286.475 191.897 286.475 191.692V189.866C286.475 189.661 286.585 189.558 286.805 189.558H289.269C289.401 189.558 289.467 189.514 289.467 189.426V179.196C289.467 179.005 289.379 178.932 289.203 178.976L286.871 179.746C286.592 179.819 286.453 179.702 286.453 179.394V178.118C286.453 177.986 286.475 177.898 286.519 177.854C286.563 177.795 286.636 177.737 286.739 177.678L290.281 175.896C290.457 175.808 290.596 175.749 290.699 175.72C290.816 175.691 290.955 175.676 291.117 175.676H292.437C292.627 175.676 292.723 175.793 292.723 176.028V189.36C292.723 189.492 292.789 189.558 292.921 189.558H295.209ZM307.4 189.558C307.634 189.558 307.752 189.661 307.752 189.866V191.67C307.752 191.743 307.722 191.817 307.664 191.89C307.605 191.963 307.51 192 307.378 192H299.018C298.783 192 298.666 191.897 298.666 191.692V189.866C298.666 189.661 298.776 189.558 298.996 189.558H301.46C301.592 189.558 301.658 189.514 301.658 189.426V179.196C301.658 179.005 301.57 178.932 301.394 178.976L299.062 179.746C298.783 179.819 298.644 179.702 298.644 179.394V178.118C298.644 177.986 298.666 177.898 298.71 177.854C298.754 177.795 298.827 177.737 298.93 177.678L302.472 175.896C302.648 175.808 302.787 175.749 302.89 175.72C303.007 175.691 303.146 175.676 303.308 175.676H304.628C304.818 175.676 304.914 175.793 304.914 176.028V189.36C304.914 189.492 304.98 189.558 305.112 189.558H307.4Z" fill="black" fill-opacity="0.8"/>
<rect x="169" y="12" width="75" height="74" rx="37" fill="#7BA567"/>
<rect x="180.5" y="23.5" width="52" height="51" rx="25.5" stroke="white" stroke-width="3" stroke-dasharray="6 6"/>
<path d="M202.511 38.1171C203.12 37.9356 203.774 37.9658 204.364 38.2025C204.953 38.4392 205.443 38.8683 205.751 39.4182L205.854 39.6231L206.776 41.6463C207.055 42.2604 207.146 42.9421 207.036 43.6066C206.927 44.2711 206.623 44.8893 206.161 45.3845L205.975 45.566L204.523 46.9042C204.261 47.1491 204.458 48.0967 205.405 49.7168C206.257 51.1747 206.95 51.8555 207.291 51.8926H207.351L207.425 51.8789L210.279 51.0165C210.663 50.9003 211.072 50.8957 211.459 51.0033C211.845 51.1109 212.191 51.326 212.457 51.6231L212.584 51.7812L214.473 54.3669C214.844 54.8737 215.028 55.49 214.997 56.1142C214.965 56.7384 214.719 57.3334 214.299 57.8012L214.129 57.9745L213.375 58.6814C212.697 59.3153 211.849 59.7437 210.932 59.9156C210.015 60.0875 209.068 59.9957 208.202 59.651C205.508 58.5782 203.06 56.1274 200.836 52.3231C198.608 48.5093 197.682 45.185 198.096 42.3381C198.221 41.4775 198.58 40.6664 199.134 39.991C199.688 39.3156 200.418 38.8011 201.244 38.5022L201.513 38.4142L202.511 38.1171Z" fill="white"/>
</g>
<defs>
<filter id="filter0_ddd_1057_1035" x="0" y="0" width="416" height="240" filterUnits="userSpaceOnUse" color-interpolation-filters="sRGB">
<feFlood flood-opacity="0" result="BackgroundImageFix"/>
<feColorMatrix in="SourceAlpha" type="matrix" values="0 0 0 0 0 0 0 0 0 0 0 0 0 0 0 0 0 0 127 0" result="hardAlpha"/>
<feOffset dx="2" dy="2"/>
<feGaussianBlur stdDeviation="5"/>
<feComposite in2="hardAlpha" operator="out"/>
<feColorMatrix type="matrix" values="0 0 0 0 0 0 0 0 0 0 0 0 0 0 0 0 0 0 0.1 0"/>
<feBlend mode="normal" in2="BackgroundImageFix" result="effect1_dropShadow_1057_1035"/>
<feColorMatrix in="SourceAlpha" type="matrix" values="0 0 0 0 0 0 0 0 0 0 0 0 0 0 0 0 0 0 127 0" result="hardAlpha"/>
<feOffset dx="-2" dy="-2"/>
<feGaussianBlur stdDeviation="5"/>
<feComposite in2="hardAlpha" operator="out"/>
<feColorMatrix type="matrix" values="0 0 0 0 0 0 0 0 0 0 0 0 0 0 0 0 0 0 0.1 0"/>
<feBlend mode="normal" in2="effect1_dropShadow_1057_1035" result="effect2_dropShadow_1057_1035"/>
<feColorMatrix in="SourceAlpha" type="matrix" values="0 0 0 0 0 0 0 0 0 0 0 0 0 0 0 0 0 0 127 0" result="hardAlpha"/>
<feOffset dx="3" dy="3"/>
<feComposite in2="hardAlpha" operator="out"/>
<feColorMatrix type="matrix" values="0 0 0 0 0.482353 0 0 0 0 0.647059 0 0 0 0 0.403922 0 0 0 1 0"/>
<feBlend mode="normal" in2="effect2_dropShadow_1057_1035" result="effect3_dropShadow_1057_1035"/>
<feBlend mode="normal" in="SourceGraphic" in2="effect3_dropShadow_1057_1035" result="shape"/>
</filter>
</defs>
</svg>
