<svg width="416" height="238" viewBox="0 0 416 238" fill="none" xmlns="http://www.w3.org/2000/svg">
<g filter="url(#filter0_ddd_1057_1073)">
<rect x="12" y="48" width="392" height="178" rx="8" fill="#FDF5F5" shape-rendering="crispEdges"/>
<path d="M155.799 130.93H146.709V135.46H155.169V139.66H146.709V148H141.909V126.7H155.799V130.93ZM164.813 132.49C167.193 132.49 169.053 133.17 170.393 134.53C171.753 135.89 172.433 137.73 172.433 140.05C172.433 141.63 172.093 143.04 171.413 144.28C170.733 145.52 169.773 146.5 168.533 147.22C167.293 147.94 165.833 148.3 164.153 148.3C161.793 148.3 159.933 147.62 158.573 146.26C157.233 144.9 156.563 143.07 156.563 140.77C156.563 139.17 156.903 137.75 157.583 136.51C158.263 135.27 159.223 134.29 160.463 133.57C161.703 132.85 163.153 132.49 164.813 132.49ZM164.363 144.31C165.383 144.31 166.193 143.93 166.793 143.17C167.413 142.39 167.723 141.35 167.723 140.05C167.723 138.93 167.453 138.06 166.913 137.44C166.373 136.8 165.633 136.48 164.693 136.48C163.653 136.48 162.823 136.87 162.203 137.65C161.603 138.41 161.303 139.44 161.303 140.74C161.303 141.86 161.563 142.74 162.083 143.38C162.623 144 163.383 144.31 164.363 144.31ZM185.684 137.17C185.284 137.01 184.744 136.93 184.064 136.93C183.024 136.93 182.194 137.3 181.574 138.04C180.954 138.76 180.504 139.94 180.224 141.58C179.944 143.2 179.804 145.34 179.804 148H175.244V138.1L175.184 132.73H179.774L179.564 136.54C180.104 135.08 180.824 134.04 181.724 133.42C182.644 132.8 183.624 132.49 184.664 132.49C185.004 132.49 185.314 132.51 185.594 132.55C185.894 132.59 186.194 132.66 186.494 132.76L185.684 137.17ZM210.396 130.93H200.616V135.16H209.766V139.39H200.616V143.77H210.696L210.396 148H195.816V126.7H210.396V130.93ZM212.949 148V132.73H217.509L217.329 135.88C217.969 134.7 218.769 133.84 219.729 133.3C220.689 132.76 221.709 132.49 222.789 132.49C223.849 132.49 224.799 132.76 225.639 133.3C226.479 133.82 227.119 134.67 227.559 135.85C228.239 134.71 229.099 133.87 230.139 133.33C231.199 132.77 232.269 132.49 233.349 132.49C235.149 132.49 236.499 133.11 237.399 134.35C238.299 135.57 238.739 137.33 238.719 139.63L238.659 148H234.069L234.129 139.72C234.129 138.8 233.959 138.08 233.619 137.56C233.279 137.02 232.759 136.75 232.059 136.75C231.519 136.75 231.009 136.92 230.529 137.26C230.069 137.6 229.659 138.19 229.299 139.03C228.939 139.87 228.649 141.02 228.429 142.48C228.229 143.94 228.109 145.78 228.069 148H223.509V139.72C223.509 138.8 223.349 138.08 223.029 137.56C222.709 137.02 222.199 136.75 221.499 136.75C220.959 136.75 220.449 136.92 219.969 137.26C219.509 137.6 219.099 138.19 218.739 139.03C218.379 139.87 218.089 141.02 217.869 142.48C217.649 143.94 217.529 145.78 217.509 148H212.949ZM256.982 132.79V148H252.362L252.512 145.72C251.412 147.44 249.782 148.3 247.622 148.3C246.262 148.3 245.102 147.99 244.142 147.37C243.182 146.75 242.452 145.89 241.952 144.79C241.452 143.69 241.202 142.43 241.202 141.01C241.202 139.31 241.552 137.82 242.252 136.54C242.952 135.26 243.892 134.27 245.072 133.57C246.252 132.85 247.572 132.49 249.032 132.49C249.992 132.49 250.842 132.69 251.582 133.09C252.322 133.47 252.892 133.98 253.292 134.62L253.682 132.79H256.982ZM249.482 136.48C248.382 136.48 247.512 136.89 246.872 137.71C246.252 138.53 245.942 139.58 245.942 140.86C245.942 141.96 246.182 142.81 246.662 143.41C247.162 144.01 247.832 144.31 248.672 144.31C249.692 144.31 250.562 143.89 251.282 143.05C252.022 142.21 252.392 141.11 252.392 139.75C252.392 138.73 252.132 137.93 251.612 137.35C251.092 136.77 250.382 136.48 249.482 136.48ZM265.117 132.73V148H260.527V132.73H265.117ZM262.807 130.93C261.927 130.93 261.227 130.66 260.707 130.12C260.187 129.58 259.927 128.94 259.927 128.2C259.927 127.46 260.177 126.82 260.677 126.28C261.197 125.74 261.907 125.47 262.807 125.47C263.687 125.47 264.387 125.74 264.907 126.28C265.427 126.82 265.687 127.46 265.687 128.2C265.687 128.94 265.427 129.58 264.907 130.12C264.387 130.66 263.687 130.93 262.807 130.93ZM273.413 148.3C271.873 148.3 270.683 147.88 269.843 147.04C269.023 146.18 268.613 144.94 268.613 143.32V125.8H273.203V142.99C273.203 143.91 273.633 144.37 274.493 144.37C274.953 144.37 275.343 144.26 275.663 144.04L276.773 147.31C276.433 147.59 275.963 147.82 275.363 148C274.763 148.2 274.113 148.3 273.413 148.3Z" fill="#073404"/>
<path d="M56.7373 190.559C56.8073 190.657 56.8213 190.755 56.7793 190.853C56.7373 190.951 56.6393 191 56.4853 191H54.1753C54.0493 191 53.9443 190.972 53.8603 190.916C53.7903 190.846 53.7273 190.748 53.6713 190.622L51.1513 185.918C51.1093 185.82 51.0673 185.764 51.0253 185.75C50.9833 185.736 50.9203 185.771 50.8363 185.855L49.0933 187.577C49.0373 187.633 48.9883 187.696 48.9463 187.766C48.9183 187.836 48.9043 187.934 48.9043 188.06V190.538C48.9043 190.706 48.8693 190.825 48.7993 190.895C48.7293 190.965 48.6033 191 48.4213 191H46.5943C46.4263 191 46.3143 190.972 46.2583 190.916C46.2023 190.846 46.1743 190.748 46.1743 190.622V175.775C46.1743 175.537 46.2793 175.418 46.4893 175.418H48.6103C48.8063 175.418 48.9043 175.53 48.9043 175.754V184.763C48.9043 184.847 48.9253 184.903 48.9673 184.931C49.0093 184.959 49.0723 184.924 49.1563 184.826L53.5243 180.164C53.7203 179.968 53.8953 179.87 54.0493 179.87H55.9603C56.1423 179.87 56.2473 179.919 56.2753 180.017C56.3173 180.115 56.2753 180.227 56.1493 180.353L53.0623 183.461C53.0063 183.531 52.9713 183.601 52.9573 183.671C52.9433 183.741 52.9713 183.846 53.0413 183.986L56.7373 190.559ZM60.1991 191C59.9471 191 59.8211 190.874 59.8211 190.622V180.227C59.8211 179.989 59.9191 179.87 60.1151 179.87H62.2151C62.3971 179.87 62.4881 179.975 62.4881 180.185V181.277C62.4881 181.361 62.5091 181.417 62.5511 181.445C62.5931 181.459 62.6491 181.431 62.7191 181.361C63.1251 181.011 63.5171 180.71 63.8951 180.458C64.2731 180.206 64.6651 180.01 65.0711 179.87C65.4771 179.73 65.9181 179.66 66.3941 179.66C67.4301 179.66 68.2421 179.961 68.8301 180.563C69.4321 181.151 69.7331 181.935 69.7331 182.915V190.559C69.7331 190.853 69.5861 191 69.2921 191H67.3601C67.2341 191 67.1431 190.972 67.0871 190.916C67.0311 190.86 67.0031 190.762 67.0031 190.622V183.398C67.0031 182.852 66.8561 182.432 66.5621 182.138C66.2681 181.83 65.8271 181.676 65.2391 181.676C64.9031 181.676 64.5881 181.732 64.2941 181.844C64.0141 181.942 63.7341 182.096 63.4541 182.306C63.1741 182.516 62.8731 182.782 62.5511 183.104V190.58C62.5511 190.86 62.3901 191 62.0681 191H60.1991ZM78.4648 191.21C77.3728 191.21 76.4138 190.965 75.5878 190.475C74.7618 189.985 74.1108 189.313 73.6348 188.459C73.1728 187.591 72.9418 186.604 72.9418 185.498C72.9418 184.336 73.1798 183.321 73.6558 182.453C74.1458 181.571 74.8038 180.885 75.6298 180.395C76.4698 179.905 77.4218 179.66 78.4858 179.66C79.5918 179.66 80.5578 179.912 81.3838 180.416C82.2098 180.906 82.8538 181.592 83.3158 182.474C83.7778 183.342 84.0088 184.343 84.0088 185.477C84.0088 186.597 83.7708 187.591 83.2948 188.459C82.8328 189.313 82.1888 189.985 81.3628 190.475C80.5368 190.965 79.5708 191.21 78.4648 191.21ZM78.4858 189.341C79.0878 189.341 79.5918 189.194 79.9978 188.9C80.4038 188.592 80.7118 188.151 80.9218 187.577C81.1318 186.989 81.2368 186.275 81.2368 185.435C81.2368 184.581 81.1248 183.86 80.9008 183.272C80.6908 182.684 80.3828 182.236 79.9768 181.928C79.5708 181.62 79.0738 181.466 78.4858 181.466C77.9118 181.466 77.4148 181.62 76.9948 181.928C76.5748 182.236 76.2528 182.684 76.0288 183.272C75.8188 183.86 75.7138 184.581 75.7138 185.435C75.7138 186.275 75.8188 186.989 76.0288 187.577C76.2528 188.151 76.5748 188.592 76.9948 188.9C77.4148 189.194 77.9118 189.341 78.4858 189.341ZM91.0859 181.781C90.9459 181.781 90.8759 181.858 90.8759 182.012V187.619C90.8759 188.165 90.9879 188.543 91.2119 188.753C91.4359 188.963 91.7859 189.068 92.262 189.068H93.5009C93.5849 189.068 93.655 189.096 93.711 189.152C93.7669 189.208 93.7949 189.278 93.7949 189.362L93.774 190.454C93.774 190.678 93.641 190.818 93.375 190.874C93.1649 190.902 92.9199 190.93 92.64 190.958C92.36 190.972 92.0799 190.986 91.7999 191C91.5339 191 91.2889 191 91.0649 191C90.1269 191 89.4059 190.783 88.9019 190.349C88.3979 189.901 88.1459 189.229 88.1459 188.333V182.054C88.1459 181.872 88.0619 181.781 87.8939 181.781H86.4869C86.2629 181.781 86.1509 181.676 86.1509 181.466V180.143C86.1509 179.961 86.2559 179.87 86.4659 179.87H88.0199C88.1459 179.87 88.2089 179.8 88.2089 179.66L88.4819 176.426C88.4959 176.202 88.5939 176.09 88.7759 176.09H90.6449C90.8409 176.09 90.9389 176.209 90.9389 176.447V179.66C90.9389 179.786 91.0019 179.849 91.1279 179.849H93.5009C93.7109 179.849 93.816 179.947 93.816 180.143V181.466C93.816 181.676 93.6969 181.781 93.4589 181.781H91.0859ZM101.103 181.781C100.963 181.781 100.893 181.858 100.893 182.012V187.619C100.893 188.165 101.005 188.543 101.229 188.753C101.453 188.963 101.803 189.068 102.279 189.068H103.518C103.602 189.068 103.672 189.096 103.728 189.152C103.784 189.208 103.812 189.278 103.812 189.362L103.791 190.454C103.791 190.678 103.658 190.818 103.392 190.874C103.182 190.902 102.937 190.93 102.657 190.958C102.377 190.972 102.097 190.986 101.817 191C101.551 191 101.306 191 101.082 191C100.144 191 99.4228 190.783 98.9188 190.349C98.4148 189.901 98.1628 189.229 98.1628 188.333V182.054C98.1628 181.872 98.0788 181.781 97.9108 181.781H96.5038C96.2798 181.781 96.1678 181.676 96.1678 181.466V180.143C96.1678 179.961 96.2728 179.87 96.4828 179.87H98.0368C98.1628 179.87 98.2258 179.8 98.2258 179.66L98.4988 176.426C98.5128 176.202 98.6108 176.09 98.7928 176.09H100.662C100.858 176.09 100.956 176.209 100.956 176.447V179.66C100.956 179.786 101.019 179.849 101.145 179.849H103.518C103.728 179.849 103.833 179.947 103.833 180.143V181.466C103.833 181.676 103.714 181.781 103.476 181.781H101.103ZM109.776 190.538C109.776 190.706 109.734 190.825 109.65 190.895C109.58 190.965 109.454 191 109.272 191H107.445C107.291 191 107.186 190.972 107.13 190.916C107.074 190.846 107.046 190.748 107.046 190.622V180.227C107.046 179.989 107.151 179.87 107.361 179.87H109.482C109.678 179.87 109.776 179.982 109.776 180.206V190.538ZM109.818 177.812C109.818 178.134 109.65 178.295 109.314 178.295H107.403C107.249 178.295 107.144 178.26 107.088 178.19C107.032 178.12 107.004 178.015 107.004 177.875V175.817C107.004 175.551 107.116 175.418 107.34 175.418H109.503C109.713 175.418 109.818 175.537 109.818 175.775V177.812ZM114.057 191C113.805 191 113.679 190.874 113.679 190.622V180.227C113.679 179.989 113.777 179.87 113.973 179.87H116.073C116.255 179.87 116.346 179.975 116.346 180.185V181.277C116.346 181.361 116.367 181.417 116.409 181.445C116.451 181.459 116.507 181.431 116.577 181.361C116.983 181.011 117.375 180.71 117.753 180.458C118.131 180.206 118.523 180.01 118.929 179.87C119.335 179.73 119.776 179.66 120.252 179.66C121.288 179.66 122.1 179.961 122.688 180.563C123.29 181.151 123.591 181.935 123.591 182.915V190.559C123.591 190.853 123.444 191 123.15 191H121.218C121.092 191 121.001 190.972 120.945 190.916C120.889 190.86 120.861 190.762 120.861 190.622V183.398C120.861 182.852 120.714 182.432 120.42 182.138C120.126 181.83 119.685 181.676 119.097 181.676C118.761 181.676 118.446 181.732 118.152 181.844C117.872 181.942 117.592 182.096 117.312 182.306C117.032 182.516 116.731 182.782 116.409 183.104V190.58C116.409 190.86 116.248 191 115.926 191H114.057ZM136.165 193.415C136.165 193.681 136.004 193.814 135.682 193.814L127.534 193.835C127.394 193.835 127.296 193.807 127.24 193.751C127.184 193.695 127.156 193.597 127.156 193.457V192.134C127.156 191.91 127.247 191.798 127.429 191.798H135.892C136.074 191.798 136.165 191.896 136.165 192.092V193.415ZM146.669 182.621C146.403 182.271 146.053 181.977 145.619 181.739C145.185 181.501 144.653 181.382 144.023 181.382C143.421 181.382 142.917 181.501 142.511 181.739C142.105 181.977 141.902 182.313 141.902 182.747C141.902 182.957 141.986 183.16 142.154 183.356C142.322 183.552 142.693 183.727 143.267 183.881L145.766 184.553C146.858 184.819 147.635 185.239 148.097 185.813C148.573 186.373 148.811 187.01 148.811 187.724C148.811 188.452 148.601 189.075 148.181 189.593C147.775 190.111 147.201 190.51 146.459 190.79C145.731 191.07 144.898 191.21 143.96 191.21C142.756 191.21 141.727 190.993 140.873 190.559C140.019 190.111 139.417 189.558 139.067 188.9C139.025 188.816 139.004 188.739 139.004 188.669C139.004 188.585 139.039 188.515 139.109 188.459L140.348 187.829C140.46 187.759 140.551 187.731 140.621 187.745C140.691 187.759 140.747 187.794 140.789 187.85C140.999 188.144 141.237 188.41 141.503 188.648C141.783 188.886 142.119 189.075 142.511 189.215C142.917 189.355 143.407 189.418 143.981 189.404C144.415 189.404 144.807 189.348 145.157 189.236C145.521 189.124 145.808 188.97 146.018 188.774C146.228 188.564 146.333 188.312 146.333 188.018C146.333 187.738 146.214 187.493 145.976 187.283C145.738 187.073 145.311 186.891 144.695 186.737L142.553 186.233C141.489 185.981 140.705 185.603 140.201 185.099C139.711 184.595 139.466 183.965 139.466 183.209C139.466 182.509 139.648 181.893 140.012 181.361C140.39 180.829 140.922 180.416 141.608 180.122C142.294 179.814 143.106 179.66 144.044 179.66C145.08 179.66 145.976 179.849 146.732 180.227C147.488 180.605 148.041 181.074 148.391 181.634C148.447 181.704 148.482 181.781 148.496 181.865C148.524 181.949 148.489 182.019 148.391 182.075L147.089 182.726C147.005 182.768 146.928 182.782 146.858 182.768C146.788 182.74 146.725 182.691 146.669 182.621ZM157.051 179.66C157.891 179.66 158.619 179.807 159.235 180.101C159.851 180.381 160.355 180.752 160.747 181.214C161.153 181.662 161.461 182.138 161.671 182.642C161.755 182.894 161.685 183.027 161.461 183.041L159.613 183.272C159.473 183.3 159.375 183.237 159.319 183.083C159.137 182.775 158.948 182.502 158.752 182.264C158.556 182.026 158.332 181.837 158.08 181.697C157.828 181.557 157.52 181.487 157.156 181.487C156.596 181.487 156.099 181.641 155.665 181.949C155.245 182.243 154.916 182.684 154.678 183.272C154.454 183.86 154.342 184.581 154.342 185.435C154.342 186.303 154.461 187.031 154.699 187.619C154.951 188.207 155.294 188.655 155.728 188.963C156.162 189.257 156.68 189.404 157.282 189.404C157.912 189.404 158.43 189.243 158.836 188.921C159.242 188.585 159.62 188.123 159.97 187.535C160.012 187.479 160.054 187.444 160.096 187.43C160.138 187.416 160.208 187.423 160.306 187.451L161.629 187.808C161.769 187.85 161.811 187.969 161.755 188.165C161.615 188.487 161.412 188.83 161.146 189.194C160.894 189.558 160.579 189.894 160.201 190.202C159.823 190.496 159.368 190.741 158.836 190.937C158.318 191.119 157.723 191.21 157.051 191.21C155.987 191.21 155.042 190.972 154.216 190.496C153.39 190.006 152.739 189.334 152.263 188.48C151.801 187.612 151.57 186.611 151.57 185.477C151.57 184.329 151.808 183.321 152.284 182.453C152.76 181.571 153.411 180.885 154.237 180.395C155.063 179.905 156.001 179.66 157.051 179.66ZM165.301 191C165.035 191 164.902 190.874 164.902 190.622V175.775C164.902 175.537 165.007 175.418 165.217 175.418H167.296C167.478 175.418 167.569 175.523 167.569 175.733V181.193C167.569 181.277 167.59 181.326 167.632 181.34C167.674 181.354 167.73 181.333 167.8 181.277C168.262 180.885 168.689 180.577 169.081 180.353C169.473 180.115 169.865 179.94 170.257 179.828C170.649 179.716 171.055 179.66 171.475 179.66C172.553 179.66 173.379 179.954 173.953 180.542C174.527 181.13 174.814 181.935 174.814 182.957V190.559C174.814 190.853 174.667 191 174.373 191H172.441C172.315 191 172.224 190.972 172.168 190.916C172.112 190.86 172.084 190.762 172.084 190.622V183.398C172.084 182.852 171.937 182.432 171.643 182.138C171.363 181.83 170.929 181.676 170.341 181.676C170.005 181.676 169.69 181.732 169.396 181.844C169.116 181.942 168.836 182.096 168.556 182.306C168.276 182.516 167.968 182.782 167.632 183.104V190.58C167.632 190.86 167.478 191 167.17 191H165.301ZM183.546 191.21C182.454 191.21 181.495 190.965 180.669 190.475C179.843 189.985 179.192 189.313 178.716 188.459C178.254 187.591 178.023 186.604 178.023 185.498C178.023 184.336 178.261 183.321 178.737 182.453C179.227 181.571 179.885 180.885 180.711 180.395C181.551 179.905 182.503 179.66 183.567 179.66C184.673 179.66 185.639 179.912 186.465 180.416C187.291 180.906 187.935 181.592 188.397 182.474C188.859 183.342 189.09 184.343 189.09 185.477C189.09 186.597 188.852 187.591 188.376 188.459C187.914 189.313 187.27 189.985 186.444 190.475C185.618 190.965 184.652 191.21 183.546 191.21ZM183.567 189.341C184.169 189.341 184.673 189.194 185.079 188.9C185.485 188.592 185.793 188.151 186.003 187.577C186.213 186.989 186.318 186.275 186.318 185.435C186.318 184.581 186.206 183.86 185.982 183.272C185.772 182.684 185.464 182.236 185.058 181.928C184.652 181.62 184.155 181.466 183.567 181.466C182.993 181.466 182.496 181.62 182.076 181.928C181.656 182.236 181.334 182.684 181.11 183.272C180.9 183.86 180.795 184.581 180.795 185.435C180.795 186.275 180.9 186.989 181.11 187.577C181.334 188.151 181.656 188.592 182.076 188.9C182.496 189.194 182.993 189.341 183.567 189.341ZM197.377 191.21C196.285 191.21 195.326 190.965 194.5 190.475C193.674 189.985 193.023 189.313 192.547 188.459C192.085 187.591 191.854 186.604 191.854 185.498C191.854 184.336 192.092 183.321 192.568 182.453C193.058 181.571 193.716 180.885 194.542 180.395C195.382 179.905 196.334 179.66 197.398 179.66C198.504 179.66 199.47 179.912 200.296 180.416C201.122 180.906 201.766 181.592 202.228 182.474C202.69 183.342 202.921 184.343 202.921 185.477C202.921 186.597 202.683 187.591 202.207 188.459C201.745 189.313 201.101 189.985 200.275 190.475C199.449 190.965 198.483 191.21 197.377 191.21ZM197.398 189.341C198 189.341 198.504 189.194 198.91 188.9C199.316 188.592 199.624 188.151 199.834 187.577C200.044 186.989 200.149 186.275 200.149 185.435C200.149 184.581 200.037 183.86 199.813 183.272C199.603 182.684 199.295 182.236 198.889 181.928C198.483 181.62 197.986 181.466 197.398 181.466C196.824 181.466 196.327 181.62 195.907 181.928C195.487 182.236 195.165 182.684 194.941 183.272C194.731 183.86 194.626 184.581 194.626 185.435C194.626 186.275 194.731 186.989 194.941 187.577C195.165 188.151 195.487 188.592 195.907 188.9C196.327 189.194 196.824 189.341 197.398 189.341ZM208.983 190.538C208.983 190.706 208.948 190.825 208.878 190.895C208.808 190.965 208.682 191 208.5 191H206.652C206.372 191 206.232 190.874 206.232 190.622L206.295 175.775C206.295 175.537 206.4 175.418 206.61 175.418H208.689C208.885 175.418 208.983 175.53 208.983 175.754V190.538ZM217.82 179.66C218.66 179.66 219.388 179.807 220.004 180.101C220.62 180.381 221.124 180.752 221.516 181.214C221.922 181.662 222.23 182.138 222.44 182.642C222.524 182.894 222.454 183.027 222.23 183.041L220.382 183.272C220.242 183.3 220.144 183.237 220.088 183.083C219.906 182.775 219.717 182.502 219.521 182.264C219.325 182.026 219.101 181.837 218.849 181.697C218.597 181.557 218.289 181.487 217.925 181.487C217.365 181.487 216.868 181.641 216.434 181.949C216.014 182.243 215.685 182.684 215.447 183.272C215.223 183.86 215.111 184.581 215.111 185.435C215.111 186.303 215.23 187.031 215.468 187.619C215.72 188.207 216.063 188.655 216.497 188.963C216.931 189.257 217.449 189.404 218.051 189.404C218.681 189.404 219.199 189.243 219.605 188.921C220.011 188.585 220.389 188.123 220.739 187.535C220.781 187.479 220.823 187.444 220.865 187.43C220.907 187.416 220.977 187.423 221.075 187.451L222.398 187.808C222.538 187.85 222.58 187.969 222.524 188.165C222.384 188.487 222.181 188.83 221.915 189.194C221.663 189.558 221.348 189.894 220.97 190.202C220.592 190.496 220.137 190.741 219.605 190.937C219.087 191.119 218.492 191.21 217.82 191.21C216.756 191.21 215.811 190.972 214.985 190.496C214.159 190.006 213.508 189.334 213.032 188.48C212.57 187.612 212.339 186.611 212.339 185.477C212.339 184.329 212.577 183.321 213.053 182.453C213.529 181.571 214.18 180.885 215.006 180.395C215.832 179.905 216.77 179.66 217.82 179.66ZM231.803 189.845C231.327 190.265 230.809 190.601 230.249 190.853C229.689 191.091 229.052 191.21 228.338 191.21C227.26 191.21 226.413 190.93 225.797 190.37C225.195 189.796 224.894 189.054 224.894 188.144C224.894 187.374 225.125 186.709 225.587 186.149C226.049 185.575 226.721 185.127 227.603 184.805C228.485 184.483 229.542 184.294 230.774 184.238L231.824 184.175C231.908 184.161 231.985 184.133 232.055 184.091C232.125 184.049 232.16 183.972 232.16 183.86V183.377C232.16 182.761 231.978 182.285 231.614 181.949C231.25 181.599 230.746 181.424 230.102 181.424C229.612 181.424 229.15 181.536 228.716 181.76C228.296 181.97 227.932 182.32 227.624 182.81C227.582 182.894 227.533 182.95 227.477 182.978C227.435 183.006 227.351 183.006 227.225 182.978L225.461 182.537C225.391 182.509 225.335 182.467 225.293 182.411C225.265 182.355 225.293 182.243 225.377 182.075C225.755 181.277 226.35 180.675 227.162 180.269C227.988 179.863 229.01 179.66 230.228 179.66C231.306 179.66 232.174 179.807 232.832 180.101C233.504 180.395 233.994 180.808 234.302 181.34C234.61 181.858 234.764 182.474 234.764 183.188V190.58C234.764 190.734 234.736 190.846 234.68 190.916C234.638 190.972 234.547 191 234.407 191H232.622C232.496 191 232.405 190.951 232.349 190.853C232.293 190.755 232.258 190.636 232.244 190.496L232.202 189.866C232.174 189.628 232.041 189.621 231.803 189.845ZM232.16 185.918C232.16 185.666 232.055 185.547 231.845 185.561L230.984 185.624C230.536 185.652 230.102 185.722 229.682 185.834C229.276 185.932 228.912 186.072 228.59 186.254C228.282 186.422 228.03 186.639 227.834 186.905C227.652 187.157 227.561 187.458 227.561 187.808C227.561 188.284 227.729 188.662 228.065 188.942C228.415 189.222 228.884 189.362 229.472 189.362C229.85 189.362 230.2 189.299 230.522 189.173C230.844 189.047 231.124 188.886 231.362 188.69C231.6 188.494 231.789 188.291 231.929 188.081C232.083 187.857 232.16 187.633 232.16 187.409V185.918ZM239.019 191C238.879 191 238.781 190.972 238.725 190.916C238.669 190.846 238.641 190.748 238.641 190.622V180.227C238.641 179.989 238.739 179.87 238.935 179.87H240.972C241.168 179.87 241.266 179.975 241.266 180.185V181.466C241.266 181.55 241.294 181.606 241.35 181.634C241.406 181.648 241.469 181.613 241.539 181.529C241.847 181.123 242.176 180.787 242.526 180.521C242.89 180.241 243.254 180.031 243.618 179.891C243.996 179.737 244.36 179.66 244.71 179.66C245.214 179.66 245.466 179.772 245.466 179.996V182.012C245.466 182.208 245.375 182.292 245.193 182.264C244.983 182.208 244.759 182.173 244.521 182.159C244.297 182.131 244.087 182.117 243.891 182.117C243.625 182.117 243.338 182.173 243.03 182.285C242.736 182.397 242.463 182.558 242.211 182.768C241.959 182.964 241.756 183.181 241.602 183.419C241.448 183.657 241.371 183.902 241.371 184.154V190.58C241.371 190.86 241.21 191 240.888 191H239.019ZM250.475 186.296C250.475 186.87 250.608 187.388 250.874 187.85C251.14 188.298 251.504 188.655 251.966 188.921C252.442 189.173 252.96 189.299 253.52 189.299C254.094 189.299 254.612 189.18 255.074 188.942C255.55 188.704 255.998 188.319 256.418 187.787C256.474 187.717 256.523 187.682 256.565 187.682C256.607 187.668 256.677 187.689 256.775 187.745L258.056 188.312C258.238 188.396 258.259 188.522 258.119 188.69C257.699 189.306 257.244 189.803 256.754 190.181C256.278 190.545 255.746 190.811 255.158 190.979C254.584 191.133 253.933 191.21 253.205 191.21C252.141 191.21 251.189 190.972 250.349 190.496C249.509 190.02 248.844 189.362 248.354 188.522C247.878 187.668 247.64 186.688 247.64 185.582C247.64 184.364 247.885 183.314 248.375 182.432C248.879 181.55 249.551 180.871 250.391 180.395C251.231 179.905 252.155 179.66 253.163 179.66C254.227 179.66 255.151 179.891 255.935 180.353C256.733 180.815 257.356 181.48 257.804 182.348C258.252 183.202 258.476 184.245 258.476 185.477C258.476 185.617 258.462 185.729 258.434 185.813C258.42 185.897 258.322 185.946 258.14 185.96H250.706C250.622 185.96 250.559 185.988 250.517 186.044C250.489 186.1 250.475 186.184 250.475 186.296ZM255.452 184.406C255.592 184.406 255.683 184.392 255.725 184.364C255.781 184.322 255.809 184.238 255.809 184.112C255.809 183.678 255.711 183.251 255.515 182.831C255.319 182.411 255.032 182.068 254.654 181.802C254.276 181.522 253.814 181.382 253.268 181.382C252.708 181.382 252.218 181.522 251.798 181.802C251.378 182.068 251.056 182.432 250.832 182.894C250.622 183.342 250.517 183.846 250.517 184.406H255.452ZM274.288 191.966C273.77 192.358 273.091 192.687 272.251 192.953C271.425 193.233 270.501 193.373 269.479 193.373C268.191 193.373 267.043 193.17 266.035 192.764C265.027 192.358 264.166 191.791 263.452 191.063C262.738 190.349 262.199 189.516 261.835 188.564C261.471 187.612 261.289 186.59 261.289 185.498C261.289 184.364 261.485 183.293 261.877 182.285C262.283 181.277 262.857 180.388 263.599 179.618C264.355 178.834 265.258 178.225 266.308 177.791C267.372 177.343 268.555 177.119 269.857 177.119C270.795 177.119 271.705 177.252 272.587 177.518C273.483 177.77 274.295 178.169 275.023 178.715C275.751 179.261 276.325 179.968 276.745 180.836C277.165 181.69 277.375 182.705 277.375 183.881C277.375 184.945 277.2 185.883 276.85 186.695C276.5 187.507 276.017 188.144 275.401 188.606C274.785 189.068 274.071 189.299 273.259 189.299C272.671 189.299 272.223 189.201 271.915 189.005C271.607 188.795 271.397 188.55 271.285 188.27C271.243 188.186 271.208 188.144 271.18 188.144C271.152 188.144 271.103 188.186 271.033 188.27C270.725 188.648 270.333 188.963 269.857 189.215C269.381 189.467 268.821 189.593 268.177 189.593C267.603 189.593 267.078 189.439 266.602 189.131C266.126 188.823 265.748 188.396 265.468 187.85C265.202 187.29 265.069 186.632 265.069 185.876C265.069 185.008 265.237 184.21 265.573 183.482C265.923 182.74 266.413 182.145 267.043 181.697C267.673 181.249 268.415 181.025 269.269 181.025C269.843 181.025 270.312 181.137 270.676 181.361C271.04 181.585 271.341 181.858 271.579 182.18C271.607 182.208 271.635 182.222 271.663 182.222C271.705 182.208 271.733 182.173 271.747 182.117L271.852 181.697C271.866 181.613 271.929 181.571 272.041 181.571H273.343C273.469 181.571 273.518 181.62 273.49 181.718L272.734 186.254C272.65 186.786 272.671 187.157 272.797 187.367C272.937 187.577 273.154 187.682 273.448 187.682C273.826 187.682 274.176 187.542 274.498 187.262C274.834 186.982 275.107 186.569 275.317 186.023C275.527 185.477 275.632 184.805 275.632 184.007C275.632 183.027 275.464 182.201 275.128 181.529C274.806 180.843 274.365 180.297 273.805 179.891C273.259 179.471 272.643 179.17 271.957 178.988C271.271 178.806 270.564 178.715 269.836 178.715C268.702 178.715 267.708 178.897 266.854 179.261C266.014 179.611 265.307 180.101 264.733 180.731C264.173 181.347 263.753 182.068 263.473 182.894C263.207 183.706 263.074 184.574 263.074 185.498C263.074 186.464 263.221 187.339 263.515 188.123C263.823 188.893 264.264 189.565 264.838 190.139C265.412 190.699 266.112 191.126 266.938 191.42C267.778 191.728 268.73 191.882 269.794 191.882C270.396 191.882 270.907 191.833 271.327 191.735C271.747 191.637 272.118 191.497 272.44 191.315C272.776 191.133 273.105 190.944 273.427 190.748C273.623 190.622 273.77 190.629 273.868 190.769L274.435 191.546C274.505 191.63 274.519 191.707 274.477 191.777C274.435 191.847 274.372 191.91 274.288 191.966ZM267.085 185.708C267.085 186.338 267.218 186.856 267.484 187.262C267.75 187.668 268.135 187.871 268.639 187.871C269.073 187.871 269.465 187.745 269.815 187.493C270.165 187.241 270.452 186.912 270.676 186.506C270.9 186.1 271.033 185.666 271.075 185.204C271.131 184.7 271.089 184.266 270.949 183.902C270.809 183.524 270.599 183.237 270.319 183.041C270.053 182.845 269.745 182.747 269.395 182.747C268.961 182.747 268.569 182.88 268.219 183.146C267.869 183.412 267.589 183.769 267.379 184.217C267.183 184.651 267.085 185.148 267.085 185.708ZM283.234 190.538C283.234 190.706 283.199 190.825 283.129 190.895C283.059 190.965 282.933 191 282.751 191H280.903C280.623 191 280.483 190.874 280.483 190.622L280.546 175.775C280.546 175.537 280.651 175.418 280.861 175.418H282.94C283.136 175.418 283.234 175.53 283.234 175.754V190.538ZM289.888 190.538C289.888 190.706 289.846 190.825 289.762 190.895C289.692 190.965 289.566 191 289.384 191H287.557C287.403 191 287.298 190.972 287.242 190.916C287.186 190.846 287.158 190.748 287.158 190.622V180.227C287.158 179.989 287.263 179.87 287.473 179.87H289.594C289.79 179.87 289.888 179.982 289.888 180.206V190.538ZM289.93 177.812C289.93 178.134 289.762 178.295 289.426 178.295H287.515C287.361 178.295 287.256 178.26 287.2 178.19C287.144 178.12 287.116 178.015 287.116 177.875V175.817C287.116 175.551 287.228 175.418 287.452 175.418H289.615C289.825 175.418 289.93 175.537 289.93 175.775V177.812ZM303.556 179.87C303.682 179.87 303.766 179.912 303.808 179.996C303.85 180.08 303.85 180.178 303.808 180.29L299.629 190.601C299.517 190.867 299.314 191 299.02 191H297.781C297.473 191 297.263 190.874 297.151 190.622L292.972 180.311C292.93 180.185 292.937 180.08 292.993 179.996C293.049 179.912 293.14 179.87 293.266 179.87H295.471C295.569 179.87 295.653 179.898 295.723 179.954C295.807 180.01 295.863 180.087 295.891 180.185L298.6 187.073C298.698 187.339 298.81 187.332 298.936 187.052L301.624 180.164C301.666 180.08 301.715 180.01 301.771 179.954C301.841 179.898 301.925 179.87 302.023 179.87H303.556ZM308.516 186.296C308.516 186.87 308.649 187.388 308.915 187.85C309.181 188.298 309.545 188.655 310.007 188.921C310.483 189.173 311.001 189.299 311.561 189.299C312.135 189.299 312.653 189.18 313.115 188.942C313.591 188.704 314.039 188.319 314.459 187.787C314.515 187.717 314.564 187.682 314.606 187.682C314.648 187.668 314.718 187.689 314.816 187.745L316.097 188.312C316.279 188.396 316.3 188.522 316.16 188.69C315.74 189.306 315.285 189.803 314.795 190.181C314.319 190.545 313.787 190.811 313.199 190.979C312.625 191.133 311.974 191.21 311.246 191.21C310.182 191.21 309.23 190.972 308.39 190.496C307.55 190.02 306.885 189.362 306.395 188.522C305.919 187.668 305.681 186.688 305.681 185.582C305.681 184.364 305.926 183.314 306.416 182.432C306.92 181.55 307.592 180.871 308.432 180.395C309.272 179.905 310.196 179.66 311.204 179.66C312.268 179.66 313.192 179.891 313.976 180.353C314.774 180.815 315.397 181.48 315.845 182.348C316.293 183.202 316.517 184.245 316.517 185.477C316.517 185.617 316.503 185.729 316.475 185.813C316.461 185.897 316.363 185.946 316.181 185.96H308.747C308.663 185.96 308.6 185.988 308.558 186.044C308.53 186.1 308.516 186.184 308.516 186.296ZM313.493 184.406C313.633 184.406 313.724 184.392 313.766 184.364C313.822 184.322 313.85 184.238 313.85 184.112C313.85 183.678 313.752 183.251 313.556 182.831C313.36 182.411 313.073 182.068 312.695 181.802C312.317 181.522 311.855 181.382 311.309 181.382C310.749 181.382 310.259 181.522 309.839 181.802C309.419 182.068 309.097 182.432 308.873 182.894C308.663 183.342 308.558 183.846 308.558 184.406H313.493ZM322.439 190.559C322.439 190.853 322.264 191 321.914 191H319.793C319.513 191 319.373 190.874 319.373 190.622V188.249C319.373 188.011 319.471 187.892 319.667 187.892H322.145C322.341 187.892 322.439 187.997 322.439 188.207V190.559ZM330.416 179.66C331.256 179.66 331.984 179.807 332.6 180.101C333.216 180.381 333.72 180.752 334.112 181.214C334.518 181.662 334.826 182.138 335.036 182.642C335.12 182.894 335.05 183.027 334.826 183.041L332.978 183.272C332.838 183.3 332.74 183.237 332.684 183.083C332.502 182.775 332.313 182.502 332.117 182.264C331.921 182.026 331.697 181.837 331.445 181.697C331.193 181.557 330.885 181.487 330.521 181.487C329.961 181.487 329.464 181.641 329.03 181.949C328.61 182.243 328.281 182.684 328.043 183.272C327.819 183.86 327.707 184.581 327.707 185.435C327.707 186.303 327.826 187.031 328.064 187.619C328.316 188.207 328.659 188.655 329.093 188.963C329.527 189.257 330.045 189.404 330.647 189.404C331.277 189.404 331.795 189.243 332.201 188.921C332.607 188.585 332.985 188.123 333.335 187.535C333.377 187.479 333.419 187.444 333.461 187.43C333.503 187.416 333.573 187.423 333.671 187.451L334.994 187.808C335.134 187.85 335.176 187.969 335.12 188.165C334.98 188.487 334.777 188.83 334.511 189.194C334.259 189.558 333.944 189.894 333.566 190.202C333.188 190.496 332.733 190.741 332.201 190.937C331.683 191.119 331.088 191.21 330.416 191.21C329.352 191.21 328.407 190.972 327.581 190.496C326.755 190.006 326.104 189.334 325.628 188.48C325.166 187.612 324.935 186.611 324.935 185.477C324.935 184.329 325.173 183.321 325.649 182.453C326.125 181.571 326.776 180.885 327.602 180.395C328.428 179.905 329.366 179.66 330.416 179.66ZM343.141 191.21C342.049 191.21 341.09 190.965 340.264 190.475C339.438 189.985 338.787 189.313 338.311 188.459C337.849 187.591 337.618 186.604 337.618 185.498C337.618 184.336 337.856 183.321 338.332 182.453C338.822 181.571 339.48 180.885 340.306 180.395C341.146 179.905 342.098 179.66 343.162 179.66C344.268 179.66 345.234 179.912 346.06 180.416C346.886 180.906 347.53 181.592 347.992 182.474C348.454 183.342 348.685 184.343 348.685 185.477C348.685 186.597 348.447 187.591 347.971 188.459C347.509 189.313 346.865 189.985 346.039 190.475C345.213 190.965 344.247 191.21 343.141 191.21ZM343.162 189.341C343.764 189.341 344.268 189.194 344.674 188.9C345.08 188.592 345.388 188.151 345.598 187.577C345.808 186.989 345.913 186.275 345.913 185.435C345.913 184.581 345.801 183.86 345.577 183.272C345.367 182.684 345.059 182.236 344.653 181.928C344.247 181.62 343.75 181.466 343.162 181.466C342.588 181.466 342.091 181.62 341.671 181.928C341.251 182.236 340.929 182.684 340.705 183.272C340.495 183.86 340.39 184.581 340.39 185.435C340.39 186.275 340.495 186.989 340.705 187.577C340.929 188.151 341.251 188.592 341.671 188.9C342.091 189.194 342.588 189.341 343.162 189.341ZM352.394 191C352.142 191 352.016 190.874 352.016 190.622V180.227C352.016 179.989 352.114 179.87 352.31 179.87H354.389C354.585 179.87 354.683 179.975 354.683 180.185V181.277C354.683 181.361 354.704 181.417 354.746 181.445C354.788 181.459 354.844 181.431 354.914 181.361C355.306 181.011 355.684 180.71 356.048 180.458C356.426 180.206 356.811 180.01 357.203 179.87C357.609 179.716 358.036 179.639 358.484 179.639C359.268 179.639 359.912 179.821 360.416 180.185C360.92 180.549 361.27 181.011 361.466 181.571C361.494 181.627 361.536 181.648 361.592 181.634C361.648 181.62 361.704 181.585 361.76 181.529C362.124 181.165 362.509 180.843 362.915 180.563C363.321 180.283 363.741 180.066 364.175 179.912C364.609 179.744 365.043 179.66 365.477 179.66C366.471 179.66 367.255 179.961 367.829 180.563C368.403 181.151 368.69 181.956 368.69 182.978V190.559C368.69 190.853 368.543 191 368.249 191H366.317C366.191 191 366.1 190.972 366.044 190.916C365.988 190.86 365.96 190.762 365.96 190.622V183.398C365.96 182.852 365.82 182.432 365.54 182.138C365.274 181.83 364.868 181.676 364.322 181.676C364 181.676 363.692 181.739 363.398 181.865C363.104 181.977 362.838 182.124 362.6 182.306C362.362 182.488 362.152 182.67 361.97 182.852C361.872 182.95 361.802 183.048 361.76 183.146C361.732 183.23 361.718 183.335 361.718 183.461V190.559C361.718 190.853 361.571 191 361.277 191H359.345C359.233 191 359.142 190.972 359.072 190.916C359.016 190.86 358.988 190.762 358.988 190.622V183.398C358.988 182.852 358.855 182.432 358.589 182.138C358.323 181.83 357.91 181.676 357.35 181.676C356.874 181.676 356.433 181.795 356.027 182.033C355.635 182.271 355.208 182.628 354.746 183.104V190.58C354.746 190.86 354.585 191 354.263 191H352.394Z" fill="black" fill-opacity="0.8"/>
<rect x="169" y="12" width="78" height="74" rx="37" fill="#EA0B44"/>
<rect x="180.5" y="23.5" width="55" height="51" rx="25.5" stroke="white" stroke-width="3" stroke-dasharray="6 6"/>
<path d="M216 41H200C198.9 41 198.01 41.9 198.01 43L198 55C198 56.1 198.9 57 200 57H216C217.1 57 218 56.1 218 55V43C218 41.9 217.1 41 216 41ZM215.6 45.25L208.53 49.67C208.21 49.87 207.79 49.87 207.47 49.67L200.4 45.25C200.3 45.1937 200.212 45.1177 200.142 45.0265C200.072 44.9352 200.021 44.8308 199.993 44.7194C199.964 44.608 199.959 44.4919 199.976 44.3783C199.994 44.2647 200.034 44.1558 200.095 44.0583C200.156 43.9608 200.236 43.8767 200.331 43.811C200.425 43.7453 200.532 43.6995 200.644 43.6763C200.757 43.6531 200.873 43.653 200.986 43.6759C201.099 43.6989 201.205 43.7445 201.3 43.81L208 48L214.7 43.81C214.795 43.7445 214.901 43.6989 215.014 43.6759C215.127 43.653 215.243 43.6531 215.356 43.6763C215.468 43.6995 215.575 43.7453 215.669 43.811C215.764 43.8767 215.844 43.9608 215.905 44.0583C215.966 44.1558 216.006 44.2647 216.024 44.3783C216.041 44.4919 216.036 44.608 216.007 44.7194C215.979 44.8308 215.928 44.9352 215.858 45.0265C215.788 45.1177 215.7 45.1937 215.6 45.25Z" fill="white"/>
</g>
<defs>
<filter id="filter0_ddd_1057_1073" x="0" y="0" width="416" height="238" filterUnits="userSpaceOnUse" color-interpolation-filters="sRGB">
<feFlood flood-opacity="0" result="BackgroundImageFix"/>
<feColorMatrix in="SourceAlpha" type="matrix" values="0 0 0 0 0 0 0 0 0 0 0 0 0 0 0 0 0 0 127 0" result="hardAlpha"/>
<feOffset dx="2" dy="2"/>
<feGaussianBlur stdDeviation="5"/>
<feComposite in2="hardAlpha" operator="out"/>
<feColorMatrix type="matrix" values="0 0 0 0 0 0 0 0 0 0 0 0 0 0 0 0 0 0 0.1 0"/>
<feBlend mode="normal" in2="BackgroundImageFix" result="effect1_dropShadow_1057_1073"/>
<feColorMatrix in="SourceAlpha" type="matrix" values="0 0 0 0 0 0 0 0 0 0 0 0 0 0 0 0 0 0 127 0" result="hardAlpha"/>
<feOffset dx="-2" dy="-2"/>
<feGaussianBlur stdDeviation="5"/>
<feComposite in2="hardAlpha" operator="out"/>
<feColorMatrix type="matrix" values="0 0 0 0 0 0 0 0 0 0 0 0 0 0 0 0 0 0 0.1 0"/>
<feBlend mode="normal" in2="effect1_dropShadow_1057_1073" result="effect2_dropShadow_1057_1073"/>
<feColorMatrix in="SourceAlpha" type="matrix" values="0 0 0 0 0 0 0 0 0 0 0 0 0 0 0 0 0 0 127 0" result="hardAlpha"/>
<feOffset dx="3" dy="3"/>
<feComposite in2="hardAlpha" operator="out"/>
<feColorMatrix type="matrix" values="0 0 0 0 0.917647 0 0 0 0 0.0431373 0 0 0 0 0.266667 0 0 0 1 0"/>
<feBlend mode="normal" in2="effect2_dropShadow_1057_1073" result="effect3_dropShadow_1057_1073"/>
<feBlend mode="normal" in="SourceGraphic" in2="effect3_dropShadow_1057_1073" result="shape"/>
</filter>
</defs>
</svg>
