<svg width="392" height="368" viewBox="0 0 392 368" fill="none" xmlns="http://www.w3.org/2000/svg">
<g filter="url(#filter0_ddd_978_15801)">
<rect x="12" y="53" width="368" height="303" rx="8" fill="#FDF5F5" shape-rendering="crispEdges"/>
<path d="M138.763 154.65C138.583 156.25 137.963 157.42 136.903 158.16C135.863 158.92 134.583 159.3 133.063 159.3C131.003 159.3 129.393 158.74 128.233 157.62C127.073 156.52 126.463 155.02 126.403 153.12C123.823 152.68 121.813 151.56 120.373 149.76C118.933 147.96 118.213 145.62 118.213 142.74C118.213 140.52 118.663 138.56 119.563 136.86C120.483 135.14 121.773 133.8 123.433 132.84C125.093 131.88 127.063 131.4 129.343 131.4C131.363 131.4 133.133 131.84 134.653 132.72C136.173 133.6 137.353 134.83 138.193 136.41C139.053 137.99 139.483 139.83 139.483 141.93C139.483 143.93 139.133 145.71 138.433 147.27C137.733 148.81 136.763 150.08 135.523 151.08C134.283 152.08 132.843 152.74 131.203 153.06V153.15C131.203 154.67 131.843 155.43 133.123 155.43C133.583 155.43 133.963 155.32 134.263 155.1C134.563 154.9 134.733 154.59 134.773 154.17L138.763 154.65ZM128.773 148.95C130.473 148.95 131.853 148.34 132.913 147.12C133.973 145.88 134.503 144.17 134.503 141.99C134.503 140.09 134.023 138.58 133.063 137.46C132.103 136.32 130.813 135.75 129.193 135.75C128.013 135.75 126.973 136.04 126.073 136.62C125.173 137.2 124.463 138.01 123.943 139.05C123.443 140.07 123.193 141.27 123.193 142.65C123.193 144.65 123.683 146.2 124.663 147.3C125.663 148.4 127.033 148.95 128.773 148.95ZM147.38 153.3C145.62 153.3 144.29 152.7 143.39 151.5C142.49 150.3 142.05 148.63 142.07 146.49L142.13 137.73H146.72L146.66 146.13C146.66 147.03 146.82 147.74 147.14 148.26C147.46 148.78 147.96 149.04 148.64 149.04C149.22 149.04 149.75 148.86 150.23 148.5C150.71 148.14 151.13 147.54 151.49 146.7C151.85 145.86 152.13 144.71 152.33 143.25C152.55 141.79 152.67 139.95 152.69 137.73H157.13V153H152.54L152.75 150.06C152.15 151.1 151.39 151.9 150.47 152.46C149.55 153.02 148.52 153.3 147.38 153.3ZM165.241 137.73V153H160.651V137.73H165.241ZM162.931 135.93C162.051 135.93 161.351 135.66 160.831 135.12C160.311 134.58 160.051 133.94 160.051 133.2C160.051 132.46 160.301 131.82 160.801 131.28C161.321 130.74 162.031 130.47 162.931 130.47C163.811 130.47 164.511 130.74 165.031 131.28C165.551 131.82 165.811 132.46 165.811 133.2C165.811 133.94 165.551 134.58 165.031 135.12C164.511 135.66 163.811 135.93 162.931 135.93ZM175.607 153.3C173.727 153.3 172.237 152.78 171.137 151.74C170.037 150.68 169.497 149.29 169.517 147.57L169.637 141.54H167.117V137.73H169.697L169.727 134.61H174.287L174.257 137.73H179.027V141.54H174.197L174.107 147.06C174.107 147.78 174.297 148.34 174.677 148.74C175.057 149.14 175.627 149.34 176.387 149.34C176.827 149.34 177.247 149.29 177.647 149.19C178.067 149.07 178.497 148.85 178.937 148.53L180.257 152.04C179.237 152.88 177.687 153.3 175.607 153.3ZM188.806 153.3C187.106 153.3 185.636 152.99 184.396 152.37C183.156 151.73 182.196 150.84 181.516 149.7C180.836 148.54 180.496 147.17 180.496 145.59C180.496 143.99 180.836 142.58 181.516 141.36C182.216 140.14 183.146 139.19 184.306 138.51C185.486 137.83 186.816 137.49 188.296 137.49C189.976 137.49 191.346 137.87 192.406 138.63C193.466 139.39 194.196 140.47 194.596 141.87C195.016 143.25 195.106 144.86 194.866 146.7H185.176C185.296 147.46 185.696 148.1 186.376 148.62C187.056 149.12 187.986 149.37 189.166 149.37C189.706 149.37 190.276 149.26 190.876 149.04C191.476 148.8 191.986 148.45 192.406 147.99L194.956 150.69C194.296 151.49 193.476 152.13 192.496 152.61C191.536 153.07 190.306 153.3 188.806 153.3ZM188.386 140.82C187.586 140.82 186.906 141.06 186.346 141.54C185.806 142.02 185.446 142.69 185.266 143.55H190.996C191.016 142.61 190.786 141.92 190.306 141.48C189.846 141.04 189.206 140.82 188.386 140.82ZM221.891 131.7L221.261 135.99H214.811V153H209.891V135.99H203.141V131.7H221.891ZM227.702 137.73V153H223.112V137.73H227.702ZM225.392 135.93C224.512 135.93 223.812 135.66 223.292 135.12C222.772 134.58 222.512 133.94 222.512 133.2C222.512 132.46 222.762 131.82 223.262 131.28C223.782 130.74 224.492 130.47 225.392 130.47C226.272 130.47 226.972 130.74 227.492 131.28C228.012 131.82 228.272 132.46 228.272 133.2C228.272 133.94 228.012 134.58 227.492 135.12C226.972 135.66 226.272 135.93 225.392 135.93ZM231.198 153V137.73H235.758L235.578 140.88C236.218 139.7 237.018 138.84 237.978 138.3C238.938 137.76 239.958 137.49 241.038 137.49C242.098 137.49 243.048 137.76 243.888 138.3C244.728 138.82 245.368 139.67 245.808 140.85C246.488 139.71 247.348 138.87 248.388 138.33C249.448 137.77 250.518 137.49 251.598 137.49C253.398 137.49 254.748 138.11 255.648 139.35C256.548 140.57 256.988 142.33 256.968 144.63L256.908 153H252.318L252.378 144.72C252.378 143.8 252.208 143.08 251.868 142.56C251.528 142.02 251.008 141.75 250.308 141.75C249.768 141.75 249.258 141.92 248.778 142.26C248.318 142.6 247.908 143.19 247.548 144.03C247.188 144.87 246.898 146.02 246.678 147.48C246.478 148.94 246.358 150.78 246.318 153H241.758V144.72C241.758 143.8 241.598 143.08 241.278 142.56C240.958 142.02 240.448 141.75 239.748 141.75C239.208 141.75 238.698 141.92 238.218 142.26C237.758 142.6 237.348 143.19 236.988 144.03C236.628 144.87 236.338 146.02 236.118 147.48C235.898 148.94 235.778 150.78 235.758 153H231.198ZM267.761 153.3C266.061 153.3 264.591 152.99 263.351 152.37C262.111 151.73 261.151 150.84 260.471 149.7C259.791 148.54 259.451 147.17 259.451 145.59C259.451 143.99 259.791 142.58 260.471 141.36C261.171 140.14 262.101 139.19 263.261 138.51C264.441 137.83 265.771 137.49 267.251 137.49C268.931 137.49 270.301 137.87 271.361 138.63C272.421 139.39 273.151 140.47 273.551 141.87C273.971 143.25 274.061 144.86 273.821 146.7H264.131C264.251 147.46 264.651 148.1 265.331 148.62C266.011 149.12 266.941 149.37 268.121 149.37C268.661 149.37 269.231 149.26 269.831 149.04C270.431 148.8 270.941 148.45 271.361 147.99L273.911 150.69C273.251 151.49 272.431 152.13 271.451 152.61C270.491 153.07 269.261 153.3 267.761 153.3ZM267.341 140.82C266.541 140.82 265.861 141.06 265.301 141.54C264.761 142.02 264.401 142.69 264.221 143.55H269.951C269.971 142.61 269.741 141.92 269.261 141.48C268.801 141.04 268.161 140.82 267.341 140.82Z" fill="#073404"/>
<path d="M32.048 200L39.224 182.96H41.288L48.176 200H45.704L44.048 195.752H36.248L34.52 200H32.048ZM37.088 193.688H43.256L40.232 185.936L37.088 193.688ZM75.9327 190.184C75.6287 190.088 75.2607 190.04 74.8287 190.04C73.9327 190.04 73.1967 190.384 72.6207 191.072C72.0607 191.744 71.6447 192.816 71.3727 194.288C71.1167 195.744 70.9887 197.648 70.9887 200H68.7087V192.272L68.6847 187.976H70.9887L70.8447 191.816C71.2447 190.36 71.8207 189.328 72.5727 188.72C73.3407 188.096 74.1567 187.784 75.0207 187.784C75.2767 187.784 75.5087 187.8 75.7167 187.832C75.9407 187.848 76.1327 187.888 76.2927 187.952L75.9327 190.184ZM82.9714 200.216C81.0834 200.216 79.5954 199.68 78.5074 198.608C77.4194 197.536 76.8754 196.056 76.8754 194.168C76.8754 192.92 77.1234 191.816 77.6194 190.856C78.1314 189.896 78.8274 189.144 79.7074 188.6C80.5874 188.056 81.5874 187.784 82.7074 187.784C84.4354 187.784 85.7474 188.384 86.6434 189.584C87.5394 190.768 87.8514 192.488 87.5794 194.744H79.2034C79.2514 195.832 79.6114 196.68 80.2834 197.288C80.9714 197.88 81.9234 198.176 83.1394 198.176C83.7314 198.176 84.2994 198.048 84.8434 197.792C85.4034 197.52 85.8834 197.12 86.2834 196.592L87.6754 197.936C87.1154 198.672 86.4514 199.24 85.6834 199.64C84.9154 200.024 84.0114 200.216 82.9714 200.216ZM82.7314 189.56C81.7554 189.56 80.9634 189.888 80.3554 190.544C79.7474 191.2 79.3794 192.024 79.2514 193.016H85.5874C85.6354 191.8 85.3874 190.92 84.8434 190.376C84.3154 189.832 83.6114 189.56 82.7314 189.56ZM94.3729 200.216C92.8049 200.216 91.5969 199.904 90.7489 199.28C89.9009 198.656 89.4129 197.776 89.2849 196.64L91.2529 196.16C91.3649 196.896 91.6689 197.448 92.1649 197.816C92.6609 198.184 93.3969 198.368 94.3729 198.368C95.1569 198.368 95.7569 198.224 96.1729 197.936C96.5889 197.632 96.7969 197.232 96.7969 196.736C96.7969 196.256 96.5729 195.904 96.1249 195.68C95.6929 195.44 95.0209 195.232 94.1089 195.056C93.2609 194.896 92.5249 194.688 91.9009 194.432C91.2929 194.16 90.8209 193.8 90.4849 193.352C90.1489 192.888 89.9809 192.28 89.9809 191.528C89.9809 190.808 90.1729 190.168 90.5569 189.608C90.9569 189.048 91.4929 188.608 92.1649 188.288C92.8529 187.952 93.6369 187.784 94.5169 187.784C95.7009 187.784 96.6689 188.072 97.4209 188.648C98.1889 189.208 98.6449 189.952 98.7889 190.88L96.8929 191.384C96.6369 190.216 95.8289 189.632 94.4689 189.632C93.7649 189.632 93.2129 189.8 92.8129 190.136C92.4129 190.456 92.2129 190.872 92.2129 191.384C92.2129 191.832 92.4049 192.2 92.7889 192.488C93.1729 192.76 93.8609 192.992 94.8529 193.184C95.7009 193.36 96.4369 193.576 97.0609 193.832C97.6849 194.072 98.1649 194.408 98.5009 194.84C98.8529 195.256 99.0369 195.832 99.0529 196.568C99.0529 197.272 98.8529 197.904 98.4529 198.464C98.0689 199.008 97.5249 199.44 96.8209 199.76C96.1169 200.064 95.3009 200.216 94.3729 200.216ZM106.017 200.216C104.593 200.216 103.505 199.84 102.753 199.088C102.017 198.32 101.657 197.304 101.673 196.04L101.769 189.92H99.6811V187.976H101.793L101.817 185.48H104.121L104.073 187.976H108.153V189.92H104.049L103.977 195.848C103.977 196.552 104.161 197.12 104.529 197.552C104.897 197.968 105.465 198.176 106.233 198.176C106.601 198.176 106.945 198.136 107.265 198.056C107.585 197.96 107.921 197.776 108.273 197.504L108.969 199.304C108.617 199.608 108.177 199.84 107.649 200C107.137 200.144 106.593 200.216 106.017 200.216ZM110.955 200V189.92H108.603V187.976H110.955V187.088C110.955 186.048 111.155 185.152 111.555 184.4C111.955 183.632 112.507 183.04 113.211 182.624C113.931 182.208 114.755 182 115.683 182C116.819 182 117.723 182.288 118.395 182.864C119.067 183.424 119.459 184.232 119.571 185.288L117.627 185.528C117.499 184.472 116.835 183.944 115.635 183.944C114.883 183.944 114.291 184.2 113.859 184.712C113.427 185.208 113.211 185.928 113.211 186.872V187.976H117.075V189.92H113.259V200H110.955ZM121.998 200.216C120.734 200.216 119.766 199.784 119.094 198.92C118.438 198.04 118.118 196.832 118.134 195.296L118.206 187.976H120.486L120.414 195.056C120.414 196 120.582 196.736 120.918 197.264C121.27 197.792 121.822 198.056 122.574 198.056C123.326 198.056 123.99 197.752 124.566 197.144C125.158 196.536 125.622 195.496 125.958 194.024C126.31 192.552 126.486 190.536 126.486 187.976H128.694V200H126.39L126.534 196.664C126.07 197.848 125.438 198.736 124.638 199.328C123.854 199.92 122.974 200.216 121.998 200.216ZM135.299 200.216C134.227 200.216 133.419 199.928 132.875 199.352C132.347 198.76 132.083 197.96 132.083 196.952V182.24H134.387V196.712C134.387 197.688 134.827 198.176 135.707 198.176C135.931 198.176 136.139 198.144 136.331 198.08C136.539 198.016 136.715 197.944 136.859 197.864L137.435 199.568C137.211 199.76 136.899 199.912 136.499 200.024C136.115 200.152 135.715 200.216 135.299 200.216ZM157.455 204.8V187.976H159.783L159.687 190.472C160.135 189.624 160.719 188.968 161.439 188.504C162.159 188.024 162.991 187.784 163.935 187.784C164.975 187.784 165.847 188.024 166.551 188.504C167.271 188.984 167.815 189.648 168.183 190.496C168.551 191.344 168.735 192.32 168.735 193.424C168.735 194.768 168.479 195.952 167.967 196.976C167.471 197.984 166.775 198.776 165.879 199.352C164.999 199.928 163.991 200.216 162.855 200.216C162.183 200.216 161.575 200.088 161.031 199.832C160.487 199.56 160.047 199.2 159.711 198.752L159.759 200V204.8H157.455ZM162.735 198.152C163.839 198.152 164.719 197.728 165.375 196.88C166.047 196.032 166.383 194.92 166.383 193.544C166.383 192.376 166.127 191.464 165.615 190.808C165.103 190.152 164.415 189.824 163.551 189.824C162.831 189.824 162.183 190.032 161.607 190.448C161.031 190.864 160.575 191.44 160.239 192.176C159.903 192.912 159.735 193.76 159.735 194.72C159.735 195.792 159.999 196.632 160.527 197.24C161.071 197.848 161.807 198.152 162.735 198.152ZM182.316 188V200H179.964L180.06 197.528C179.612 198.36 179.028 199.016 178.308 199.496C177.588 199.976 176.764 200.216 175.836 200.216C174.796 200.216 173.916 199.976 173.196 199.496C172.492 199 171.956 198.328 171.588 197.48C171.22 196.632 171.036 195.656 171.036 194.552C171.036 193.224 171.284 192.048 171.78 191.024C172.292 190 172.988 189.208 173.868 188.648C174.764 188.072 175.788 187.784 176.94 187.784C177.708 187.784 178.388 187.96 178.98 188.312C179.588 188.648 180.036 189.096 180.324 189.656L180.612 188H182.316ZM177.036 189.824C175.932 189.824 175.044 190.248 174.372 191.096C173.716 191.928 173.388 193.032 173.388 194.408C173.388 195.592 173.644 196.512 174.156 197.168C174.668 197.824 175.356 198.152 176.22 198.152C176.94 198.152 177.588 197.944 178.164 197.528C178.74 197.112 179.196 196.536 179.532 195.8C179.868 195.048 180.036 194.192 180.036 193.232C180.036 192.176 179.764 191.344 179.22 190.736C178.692 190.128 177.964 189.824 177.036 189.824ZM192.922 190.184C192.618 190.088 192.25 190.04 191.818 190.04C190.922 190.04 190.186 190.384 189.61 191.072C189.05 191.744 188.634 192.816 188.362 194.288C188.106 195.744 187.978 197.648 187.978 200H185.698V192.272L185.674 187.976H187.978L187.834 191.816C188.234 190.36 188.81 189.328 189.562 188.72C190.33 188.096 191.146 187.784 192.01 187.784C192.266 187.784 192.498 187.8 192.706 187.832C192.93 187.848 193.122 187.888 193.282 187.952L192.922 190.184ZM200.717 200.216C199.293 200.216 198.205 199.84 197.453 199.088C196.717 198.32 196.357 197.304 196.373 196.04L196.469 189.92H194.381V187.976H196.493L196.517 185.48H198.821L198.773 187.976H202.853V189.92H198.749L198.677 195.848C198.677 196.552 198.861 197.12 199.229 197.552C199.597 197.968 200.165 198.176 200.933 198.176C201.301 198.176 201.645 198.136 201.965 198.056C202.285 197.96 202.621 197.776 202.973 197.504L203.669 199.304C203.317 199.608 202.877 199.84 202.349 200C201.837 200.144 201.293 200.216 200.717 200.216ZM229.244 187.784C230.956 187.784 232.308 188.32 233.3 189.392C234.292 190.464 234.788 191.912 234.788 193.736C234.788 194.968 234.54 196.072 234.044 197.048C233.548 198.024 232.852 198.8 231.956 199.376C231.076 199.936 230.044 200.216 228.86 200.216C227.1 200.216 225.724 199.68 224.732 198.608C223.756 197.536 223.268 196.08 223.268 194.24C223.268 193.008 223.508 191.904 223.988 190.928C224.484 189.952 225.18 189.184 226.076 188.624C226.972 188.064 228.028 187.784 229.244 187.784ZM228.884 198.152C229.94 198.152 230.788 197.752 231.428 196.952C232.084 196.136 232.412 195.064 232.412 193.736C232.412 192.488 232.124 191.528 231.548 190.856C230.988 190.168 230.212 189.824 229.22 189.824C228.132 189.824 227.26 190.232 226.604 191.048C225.948 191.864 225.62 192.928 225.62 194.24C225.62 195.488 225.908 196.456 226.484 197.144C227.06 197.816 227.86 198.152 228.884 198.152ZM238.152 200V189.92H235.8V187.976H238.152V187.088C238.152 186.048 238.352 185.152 238.752 184.4C239.152 183.632 239.704 183.04 240.408 182.624C241.128 182.208 241.952 182 242.88 182C244.016 182 244.92 182.288 245.592 182.864C246.264 183.424 246.656 184.232 246.768 185.288L244.824 185.528C244.696 184.472 244.032 183.944 242.832 183.944C242.08 183.944 241.488 184.2 241.056 184.712C240.624 185.208 240.408 185.928 240.408 186.872V187.976H244.272V189.92H240.456V200H238.152ZM269.484 200.216C268.06 200.216 266.972 199.84 266.22 199.088C265.484 198.32 265.124 197.304 265.14 196.04L265.236 189.92H263.148V187.976H265.26L265.284 185.48H267.588L267.54 187.976H271.62V189.92H267.516L267.444 195.848C267.444 196.552 267.628 197.12 267.996 197.552C268.364 197.968 268.932 198.176 269.7 198.176C270.068 198.176 270.412 198.136 270.732 198.056C271.052 197.96 271.388 197.776 271.74 197.504L272.436 199.304C272.084 199.608 271.644 199.84 271.116 200C270.604 200.144 270.06 200.216 269.484 200.216ZM273.871 200V182.24H276.175L276.199 187.976L276.031 191.504C276.479 190.304 277.111 189.384 277.927 188.744C278.743 188.104 279.695 187.784 280.783 187.784C282.063 187.784 283.039 188.232 283.711 189.128C284.383 190.008 284.711 191.28 284.695 192.944L284.647 200H282.367L282.415 193.16C282.431 191 281.695 189.92 280.207 189.92C279.423 189.92 278.727 190.224 278.119 190.832C277.527 191.44 277.055 192.48 276.703 193.952C276.351 195.424 276.167 197.44 276.151 200H273.871ZM293.478 200.216C291.59 200.216 290.102 199.68 289.014 198.608C287.926 197.536 287.382 196.056 287.382 194.168C287.382 192.92 287.63 191.816 288.126 190.856C288.638 189.896 289.334 189.144 290.214 188.6C291.094 188.056 292.094 187.784 293.214 187.784C294.942 187.784 296.254 188.384 297.15 189.584C298.046 190.768 298.358 192.488 298.086 194.744H289.71C289.758 195.832 290.118 196.68 290.79 197.288C291.478 197.88 292.43 198.176 293.646 198.176C294.238 198.176 294.806 198.048 295.35 197.792C295.91 197.52 296.39 197.12 296.79 196.592L298.182 197.936C297.622 198.672 296.958 199.24 296.19 199.64C295.422 200.024 294.518 200.216 293.478 200.216ZM293.238 189.56C292.262 189.56 291.47 189.888 290.862 190.544C290.254 191.2 289.886 192.024 289.758 193.016H296.094C296.142 191.8 295.894 190.92 295.35 190.376C294.822 189.832 294.118 189.56 293.238 189.56ZM330.291 182.24V200H327.939L328.035 197.528C327.587 198.36 327.003 199.016 326.283 199.496C325.563 199.976 324.739 200.216 323.811 200.216C322.771 200.216 321.891 199.976 321.171 199.496C320.467 199 319.931 198.328 319.563 197.48C319.195 196.632 319.011 195.656 319.011 194.552C319.011 193.224 319.259 192.048 319.755 191.024C320.267 190 320.963 189.208 321.843 188.648C322.739 188.072 323.763 187.784 324.915 187.784C325.571 187.784 326.171 187.912 326.715 188.168C327.259 188.424 327.699 188.768 328.035 189.2L327.987 187.976V182.24H330.291ZM325.011 189.824C323.907 189.824 323.019 190.248 322.347 191.096C321.691 191.928 321.363 193.032 321.363 194.408C321.363 195.592 321.619 196.512 322.131 197.168C322.643 197.824 323.331 198.152 324.195 198.152C324.915 198.152 325.563 197.944 326.139 197.528C326.715 197.112 327.171 196.536 327.507 195.8C327.843 195.048 328.011 194.192 328.011 193.232C328.011 192.176 327.739 191.344 327.195 190.736C326.667 190.128 325.939 189.824 325.011 189.824ZM344.401 188V200H342.049L342.145 197.528C341.697 198.36 341.113 199.016 340.393 199.496C339.673 199.976 338.849 200.216 337.921 200.216C336.881 200.216 336.001 199.976 335.281 199.496C334.577 199 334.041 198.328 333.673 197.48C333.305 196.632 333.121 195.656 333.121 194.552C333.121 193.224 333.369 192.048 333.865 191.024C334.377 190 335.073 189.208 335.953 188.648C336.849 188.072 337.873 187.784 339.025 187.784C339.793 187.784 340.473 187.96 341.065 188.312C341.673 188.648 342.121 189.096 342.409 189.656L342.697 188H344.401ZM339.121 189.824C338.017 189.824 337.129 190.248 336.457 191.096C335.801 191.928 335.473 193.032 335.473 194.408C335.473 195.592 335.729 196.512 336.241 197.168C336.753 197.824 337.441 198.152 338.305 198.152C339.025 198.152 339.673 197.944 340.249 197.528C340.825 197.112 341.281 196.536 341.617 195.8C341.953 195.048 342.121 194.192 342.121 193.232C342.121 192.176 341.849 191.344 341.305 190.736C340.777 190.128 340.049 189.824 339.121 189.824ZM351.862 205.04C351.174 205.04 350.446 204.968 349.678 204.824C348.926 204.68 348.294 204.456 347.782 204.152L348.358 202.136C348.902 202.408 349.478 202.616 350.086 202.76C350.694 202.904 351.318 202.976 351.958 202.976C353.43 202.976 354.478 202.616 355.102 201.896C355.726 201.192 356.062 200.056 356.11 198.488L356.206 196.232C355.742 197.464 355.102 198.384 354.286 198.992C353.47 199.6 352.542 199.904 351.502 199.904C350.222 199.904 349.246 199.472 348.574 198.608C347.918 197.744 347.598 196.536 347.614 194.984L347.686 187.976H349.966L349.894 194.768C349.894 195.712 350.062 196.448 350.398 196.976C350.75 197.504 351.31 197.768 352.078 197.768C352.862 197.768 353.55 197.464 354.142 196.856C354.75 196.248 355.222 195.232 355.558 193.808C355.894 192.384 356.07 190.44 356.086 187.976H358.294V198.176C358.294 200.48 357.742 202.2 356.638 203.336C355.55 204.472 353.958 205.04 351.862 205.04ZM50.072 217.976H52.352L47.984 230H45.224L42.488 221.048L39.2 230H36.44L32.648 217.976H35.048L37.904 227.696L41.384 217.976H43.712L46.616 227.768L50.072 217.976ZM54.0472 230V212.24H56.3512L56.3752 217.976L56.2072 221.504C56.6552 220.304 57.2872 219.384 58.1032 218.744C58.9192 218.104 59.8712 217.784 60.9592 217.784C62.2392 217.784 63.2152 218.232 63.8872 219.128C64.5592 220.008 64.8872 221.28 64.8712 222.944L64.8232 230H62.5432L62.5912 223.16C62.6072 221 61.8712 219.92 60.3832 219.92C59.5992 219.92 58.9032 220.224 58.2952 220.832C57.7032 221.44 57.2312 222.48 56.8792 223.952C56.5272 225.424 56.3432 227.44 56.3272 230H54.0472ZM73.6543 230.216C71.7663 230.216 70.2783 229.68 69.1903 228.608C68.1023 227.536 67.5583 226.056 67.5583 224.168C67.5583 222.92 67.8063 221.816 68.3023 220.856C68.8143 219.896 69.5103 219.144 70.3903 218.6C71.2703 218.056 72.2703 217.784 73.3903 217.784C75.1183 217.784 76.4303 218.384 77.3263 219.584C78.2223 220.768 78.5343 222.488 78.2623 224.744H69.8863C69.9343 225.832 70.2943 226.68 70.9663 227.288C71.6543 227.88 72.6063 228.176 73.8223 228.176C74.4143 228.176 74.9823 228.048 75.5263 227.792C76.0863 227.52 76.5663 227.12 76.9663 226.592L78.3583 227.936C77.7983 228.672 77.1343 229.24 76.3663 229.64C75.5983 230.024 74.6943 230.216 73.6543 230.216ZM73.4143 219.56C72.4383 219.56 71.6463 219.888 71.0383 220.544C70.4303 221.2 70.0623 222.024 69.9342 223.016H76.2703C76.3183 221.8 76.0703 220.92 75.5263 220.376C74.9983 219.832 74.2943 219.56 73.4143 219.56ZM88.2718 220.184C87.9678 220.088 87.5998 220.04 87.1678 220.04C86.2718 220.04 85.5358 220.384 84.9598 221.072C84.3998 221.744 83.9838 222.816 83.7118 224.288C83.4558 225.744 83.3278 227.648 83.3278 230H81.0478V222.272L81.0238 217.976H83.3278L83.1838 221.816C83.5838 220.36 84.1598 219.328 84.9118 218.72C85.6798 218.096 86.4958 217.784 87.3598 217.784C87.6158 217.784 87.8478 217.8 88.0558 217.832C88.2798 217.848 88.4718 217.888 88.6318 217.952L88.2718 220.184ZM95.3105 230.216C93.4225 230.216 91.9345 229.68 90.8465 228.608C89.7585 227.536 89.2145 226.056 89.2145 224.168C89.2145 222.92 89.4625 221.816 89.9585 220.856C90.4705 219.896 91.1665 219.144 92.0465 218.6C92.9265 218.056 93.9265 217.784 95.0465 217.784C96.7745 217.784 98.0865 218.384 98.9825 219.584C99.8785 220.768 100.191 222.488 99.9185 224.744H91.5425C91.5905 225.832 91.9505 226.68 92.6225 227.288C93.3105 227.88 94.2625 228.176 95.4785 228.176C96.0705 228.176 96.6385 228.048 97.1825 227.792C97.7425 227.52 98.2225 227.12 98.6225 226.592L100.015 227.936C99.4545 228.672 98.7905 229.24 98.0225 229.64C97.2545 230.024 96.3505 230.216 95.3105 230.216ZM95.0705 219.56C94.0945 219.56 93.3025 219.888 92.6945 220.544C92.0865 221.2 91.7185 222.024 91.5905 223.016H97.9265C97.9745 221.8 97.7265 220.92 97.1825 220.376C96.6545 219.832 95.9505 219.56 95.0705 219.56ZM130.917 230.216C129.125 230.216 127.717 229.688 126.693 228.632C125.669 227.576 125.157 226.104 125.157 224.216C125.157 222.936 125.405 221.816 125.901 220.856C126.413 219.88 127.125 219.128 128.037 218.6C128.949 218.056 130.005 217.784 131.205 217.784C133.205 217.784 134.661 218.576 135.573 220.16L133.893 221.432C133.301 220.376 132.397 219.848 131.181 219.848C130.093 219.848 129.213 220.248 128.541 221.048C127.869 221.832 127.533 222.88 127.533 224.192C127.533 225.472 127.829 226.448 128.421 227.12C129.029 227.792 129.901 228.128 131.037 228.128C131.629 228.128 132.173 228 132.669 227.744C133.181 227.488 133.605 227.08 133.941 226.52L135.573 227.816C135.061 228.648 134.405 229.256 133.605 229.64C132.821 230.024 131.925 230.216 130.917 230.216ZM137.451 230V212.24H139.755L139.779 217.976L139.611 221.504C140.059 220.304 140.691 219.384 141.507 218.744C142.323 218.104 143.275 217.784 144.363 217.784C145.643 217.784 146.619 218.232 147.291 219.128C147.963 220.008 148.291 221.28 148.275 222.944L148.227 230H145.947L145.995 223.16C146.011 221 145.275 219.92 143.787 219.92C143.003 219.92 142.307 220.224 141.699 220.832C141.107 221.44 140.635 222.48 140.283 223.952C139.931 225.424 139.747 227.44 139.731 230H137.451ZM153.77 217.976V230H151.49V217.976H153.77ZM152.666 215.648C152.202 215.648 151.834 215.504 151.562 215.216C151.29 214.912 151.154 214.56 151.154 214.16C151.154 213.76 151.29 213.416 151.562 213.128C151.834 212.824 152.202 212.672 152.666 212.672C153.13 212.672 153.498 212.824 153.77 213.128C154.042 213.416 154.178 213.76 154.178 214.16C154.178 214.56 154.042 214.912 153.77 215.216C153.498 215.504 153.13 215.648 152.666 215.648ZM160.378 230.216C159.306 230.216 158.498 229.928 157.954 229.352C157.426 228.76 157.162 227.96 157.162 226.952V212.24H159.466V226.712C159.466 227.688 159.906 228.176 160.786 228.176C161.01 228.176 161.218 228.144 161.41 228.08C161.618 228.016 161.794 227.944 161.938 227.864L162.514 229.568C162.29 229.76 161.978 229.912 161.578 230.024C161.194 230.152 160.794 230.216 160.378 230.216ZM174.476 212.24V230H172.124L172.22 227.528C171.772 228.36 171.188 229.016 170.468 229.496C169.748 229.976 168.924 230.216 167.996 230.216C166.956 230.216 166.076 229.976 165.356 229.496C164.652 229 164.116 228.328 163.748 227.48C163.38 226.632 163.196 225.656 163.196 224.552C163.196 223.224 163.444 222.048 163.94 221.024C164.452 220 165.148 219.208 166.028 218.648C166.924 218.072 167.948 217.784 169.1 217.784C169.756 217.784 170.356 217.912 170.9 218.168C171.444 218.424 171.884 218.768 172.22 219.2L172.172 217.976V212.24H174.476ZM169.196 219.824C168.092 219.824 167.204 220.248 166.532 221.096C165.876 221.928 165.548 223.032 165.548 224.408C165.548 225.592 165.804 226.512 166.316 227.168C166.828 227.824 167.516 228.152 168.38 228.152C169.1 228.152 169.748 227.944 170.324 227.528C170.9 227.112 171.356 226.536 171.692 225.8C172.028 225.048 172.196 224.192 172.196 223.232C172.196 222.176 171.924 221.344 171.38 220.736C170.852 220.128 170.124 219.824 169.196 219.824ZM185.082 220.184C184.778 220.088 184.41 220.04 183.978 220.04C183.082 220.04 182.346 220.384 181.77 221.072C181.21 221.744 180.794 222.816 180.522 224.288C180.266 225.744 180.138 227.648 180.138 230H177.858V222.272L177.834 217.976H180.138L179.994 221.816C180.394 220.36 180.97 219.328 181.722 218.72C182.49 218.096 183.306 217.784 184.17 217.784C184.426 217.784 184.658 217.8 184.866 217.832C185.09 217.848 185.282 217.888 185.442 217.952L185.082 220.184ZM192.12 230.216C190.232 230.216 188.744 229.68 187.656 228.608C186.568 227.536 186.024 226.056 186.024 224.168C186.024 222.92 186.272 221.816 186.768 220.856C187.28 219.896 187.976 219.144 188.856 218.6C189.736 218.056 190.736 217.784 191.856 217.784C193.584 217.784 194.896 218.384 195.792 219.584C196.688 220.768 197 222.488 196.728 224.744H188.352C188.4 225.832 188.76 226.68 189.432 227.288C190.12 227.88 191.072 228.176 192.288 228.176C192.88 228.176 193.448 228.048 193.992 227.792C194.552 227.52 195.032 227.12 195.432 226.592L196.824 227.936C196.264 228.672 195.6 229.24 194.832 229.64C194.064 230.024 193.16 230.216 192.12 230.216ZM191.88 219.56C190.904 219.56 190.112 219.888 189.504 220.544C188.896 221.2 188.528 222.024 188.4 223.016H194.736C194.784 221.8 194.536 220.92 193.992 220.376C193.464 219.832 192.76 219.56 191.88 219.56ZM199.49 230V217.976H201.794L201.65 221.528C202.098 220.328 202.73 219.408 203.546 218.768C204.362 218.112 205.314 217.784 206.402 217.784C207.682 217.784 208.658 218.232 209.33 219.128C210.002 220.008 210.33 221.28 210.314 222.944L210.266 230H207.986L208.034 223.16C208.05 221 207.314 219.92 205.826 219.92C205.042 219.92 204.346 220.224 203.738 220.832C203.146 221.44 202.674 222.48 202.322 223.952C201.97 225.424 201.786 227.44 201.77 230H199.49ZM242.102 230.216C240.214 230.216 238.726 229.68 237.638 228.608C236.55 227.536 236.006 226.056 236.006 224.168C236.006 222.92 236.254 221.816 236.75 220.856C237.262 219.896 237.958 219.144 238.838 218.6C239.718 218.056 240.718 217.784 241.838 217.784C243.566 217.784 244.878 218.384 245.774 219.584C246.67 220.768 246.982 222.488 246.71 224.744H238.334C238.382 225.832 238.742 226.68 239.414 227.288C240.102 227.88 241.054 228.176 242.27 228.176C242.862 228.176 243.43 228.048 243.974 227.792C244.534 227.52 245.014 227.12 245.414 226.592L246.806 227.936C246.246 228.672 245.582 229.24 244.814 229.64C244.046 230.024 243.142 230.216 242.102 230.216ZM241.862 219.56C240.886 219.56 240.094 219.888 239.486 220.544C238.878 221.2 238.51 222.024 238.382 223.016H244.718C244.766 221.8 244.518 220.92 243.974 220.376C243.446 219.832 242.742 219.56 241.862 219.56ZM249.472 230V217.976H251.776L251.632 221.528C252.08 220.328 252.712 219.408 253.528 218.768C254.344 218.112 255.296 217.784 256.384 217.784C257.664 217.784 258.64 218.232 259.312 219.128C259.984 220.008 260.312 221.28 260.296 222.944L260.248 230H257.968L258.016 223.16C258.032 221 257.296 219.92 255.808 219.92C255.024 219.92 254.328 220.224 253.72 220.832C253.128 221.44 252.656 222.48 252.304 223.952C251.952 225.424 251.768 227.44 251.752 230H249.472ZM267.831 235.04C267.143 235.04 266.415 234.968 265.647 234.824C264.895 234.68 264.263 234.456 263.751 234.152L264.327 232.136C264.871 232.408 265.447 232.616 266.055 232.76C266.663 232.904 267.287 232.976 267.927 232.976C269.399 232.976 270.447 232.616 271.071 231.896C271.695 231.176 272.031 230.04 272.079 228.488L272.127 227.192C271.679 228.04 271.087 228.704 270.351 229.184C269.631 229.664 268.791 229.904 267.831 229.904C266.775 229.904 265.887 229.672 265.167 229.208C264.447 228.744 263.903 228.096 263.535 227.264C263.167 226.432 262.983 225.48 262.983 224.408C262.983 223.128 263.231 221.992 263.727 221C264.239 219.992 264.935 219.208 265.815 218.648C266.711 218.072 267.743 217.784 268.911 217.784C269.711 217.784 270.415 217.96 271.023 218.312C271.631 218.648 272.079 219.096 272.367 219.656L272.655 218H274.359V228.152C274.359 230.44 273.791 232.16 272.655 233.312C271.535 234.464 269.927 235.04 267.831 235.04ZM269.031 219.824C267.911 219.824 267.015 220.24 266.343 221.072C265.671 221.888 265.335 222.944 265.335 224.24C265.335 225.392 265.591 226.288 266.103 226.928C266.631 227.552 267.343 227.864 268.239 227.864C268.959 227.864 269.607 227.656 270.183 227.24C270.775 226.824 271.239 226.256 271.575 225.536C271.911 224.816 272.079 224 272.079 223.088C272.079 222.08 271.799 221.288 271.239 220.712C270.695 220.12 269.959 219.824 269.031 219.824ZM288.466 218V230H286.114L286.21 227.528C285.762 228.36 285.178 229.016 284.458 229.496C283.738 229.976 282.914 230.216 281.986 230.216C280.946 230.216 280.066 229.976 279.346 229.496C278.642 229 278.106 228.328 277.738 227.48C277.37 226.632 277.186 225.656 277.186 224.552C277.186 223.224 277.434 222.048 277.93 221.024C278.442 220 279.138 219.208 280.018 218.648C280.914 218.072 281.938 217.784 283.09 217.784C283.858 217.784 284.538 217.96 285.13 218.312C285.738 218.648 286.186 219.096 286.474 219.656L286.762 218H288.466ZM283.186 219.824C282.082 219.824 281.194 220.248 280.522 221.096C279.866 221.928 279.538 223.032 279.538 224.408C279.538 225.592 279.794 226.512 280.306 227.168C280.818 227.824 281.506 228.152 282.37 228.152C283.09 228.152 283.738 227.944 284.314 227.528C284.89 227.112 285.346 226.536 285.682 225.8C286.018 225.048 286.186 224.192 286.186 223.232C286.186 222.176 285.914 221.344 285.37 220.736C284.842 220.128 284.114 219.824 283.186 219.824ZM296.143 235.04C295.455 235.04 294.727 234.968 293.959 234.824C293.207 234.68 292.575 234.456 292.063 234.152L292.639 232.136C293.183 232.408 293.759 232.616 294.367 232.76C294.975 232.904 295.599 232.976 296.239 232.976C297.711 232.976 298.759 232.616 299.383 231.896C300.007 231.176 300.343 230.04 300.391 228.488L300.439 227.192C299.991 228.04 299.399 228.704 298.663 229.184C297.943 229.664 297.103 229.904 296.143 229.904C295.087 229.904 294.199 229.672 293.479 229.208C292.759 228.744 292.215 228.096 291.847 227.264C291.479 226.432 291.295 225.48 291.295 224.408C291.295 223.128 291.543 221.992 292.039 221C292.551 219.992 293.247 219.208 294.127 218.648C295.023 218.072 296.055 217.784 297.223 217.784C298.023 217.784 298.727 217.96 299.335 218.312C299.943 218.648 300.391 219.096 300.679 219.656L300.967 218H302.671V228.152C302.671 230.44 302.103 232.16 300.967 233.312C299.847 234.464 298.239 235.04 296.143 235.04ZM297.343 219.824C296.223 219.824 295.327 220.24 294.655 221.072C293.983 221.888 293.647 222.944 293.647 224.24C293.647 225.392 293.903 226.288 294.415 226.928C294.943 227.552 295.655 227.864 296.551 227.864C297.271 227.864 297.919 227.656 298.495 227.24C299.087 226.824 299.551 226.256 299.887 225.536C300.223 224.816 300.391 224 300.391 223.088C300.391 222.08 300.111 221.288 299.551 220.712C299.007 220.12 298.271 219.824 297.343 219.824ZM311.594 230.216C309.706 230.216 308.218 229.68 307.13 228.608C306.042 227.536 305.498 226.056 305.498 224.168C305.498 222.92 305.746 221.816 306.242 220.856C306.754 219.896 307.45 219.144 308.33 218.6C309.21 218.056 310.21 217.784 311.33 217.784C313.058 217.784 314.37 218.384 315.266 219.584C316.162 220.768 316.474 222.488 316.202 224.744H307.826C307.874 225.832 308.234 226.68 308.906 227.288C309.594 227.88 310.546 228.176 311.762 228.176C312.354 228.176 312.922 228.048 313.466 227.792C314.026 227.52 314.506 227.12 314.906 226.592L316.298 227.936C315.738 228.672 315.074 229.24 314.306 229.64C313.538 230.024 312.634 230.216 311.594 230.216ZM311.354 219.56C310.378 219.56 309.586 219.888 308.978 220.544C308.37 221.2 308.002 222.024 307.874 223.016H314.21C314.258 221.8 314.01 220.92 313.466 220.376C312.938 219.832 312.234 219.56 311.354 219.56ZM344.249 217.976V230H341.969V217.976H344.249ZM343.145 215.648C342.681 215.648 342.313 215.504 342.041 215.216C341.769 214.912 341.633 214.56 341.633 214.16C341.633 213.76 341.769 213.416 342.041 213.128C342.313 212.824 342.681 212.672 343.145 212.672C343.609 212.672 343.977 212.824 344.249 213.128C344.521 213.416 344.657 213.76 344.657 214.16C344.657 214.56 344.521 214.912 344.249 215.216C343.977 215.504 343.609 215.648 343.145 215.648ZM347.641 230V217.976H349.945L349.801 221.528C350.249 220.328 350.881 219.408 351.697 218.768C352.513 218.112 353.465 217.784 354.553 217.784C355.833 217.784 356.809 218.232 357.481 219.128C358.153 220.008 358.481 221.28 358.465 222.944L358.417 230H356.137L356.185 223.16C356.201 221 355.465 219.92 353.977 219.92C353.193 219.92 352.497 220.224 351.889 220.832C351.297 221.44 350.825 222.48 350.473 223.952C350.121 225.424 349.937 227.44 349.921 230H347.641ZM44.432 248V260H42.08L42.176 257.528C41.728 258.36 41.144 259.016 40.424 259.496C39.704 259.976 38.88 260.216 37.952 260.216C36.912 260.216 36.032 259.976 35.312 259.496C34.608 259 34.072 258.328 33.704 257.48C33.336 256.632 33.152 255.656 33.152 254.552C33.152 253.224 33.4 252.048 33.896 251.024C34.408 250 35.104 249.208 35.984 248.648C36.88 248.072 37.904 247.784 39.056 247.784C39.824 247.784 40.504 247.96 41.096 248.312C41.704 248.648 42.152 249.096 42.44 249.656L42.728 248H44.432ZM39.152 249.824C38.048 249.824 37.16 250.248 36.488 251.096C35.832 251.928 35.504 253.032 35.504 254.408C35.504 255.592 35.76 256.512 36.272 257.168C36.784 257.824 37.472 258.152 38.336 258.152C39.056 258.152 39.704 257.944 40.28 257.528C40.856 257.112 41.312 256.536 41.648 255.8C41.984 255.048 42.152 254.192 42.152 253.232C42.152 252.176 41.88 251.344 41.336 250.736C40.808 250.128 40.08 249.824 39.152 249.824ZM53.0214 260.216C51.2294 260.216 49.8214 259.688 48.7974 258.632C47.7734 257.576 47.2614 256.104 47.2614 254.216C47.2614 252.936 47.5094 251.816 48.0054 250.856C48.5174 249.88 49.2294 249.128 50.1414 248.6C51.0534 248.056 52.1094 247.784 53.3094 247.784C55.3094 247.784 56.7654 248.576 57.6774 250.16L55.9974 251.432C55.4054 250.376 54.5014 249.848 53.2854 249.848C52.1974 249.848 51.3174 250.248 50.6454 251.048C49.9734 251.832 49.6374 252.88 49.6374 254.192C49.6374 255.472 49.9334 256.448 50.5254 257.12C51.1334 257.792 52.0054 258.128 53.1414 258.128C53.7334 258.128 54.2774 258 54.7734 257.744C55.2854 257.488 55.7094 257.08 56.0454 256.52L57.6774 257.816C57.1654 258.648 56.5094 259.256 55.7094 259.64C54.9254 260.024 54.0294 260.216 53.0214 260.216ZM64.5202 260.216C63.0962 260.216 62.0082 259.84 61.2562 259.088C60.5202 258.32 60.1602 257.304 60.1762 256.04L60.2722 249.92H58.1842V247.976H60.2962L60.3202 245.48H62.6242L62.5762 247.976H66.6562V249.92H62.5522L62.4802 255.848C62.4802 256.552 62.6642 257.12 63.0322 257.552C63.4002 257.968 63.9682 258.176 64.7362 258.176C65.1042 258.176 65.4482 258.136 65.7682 258.056C66.0882 257.96 66.4242 257.776 66.7762 257.504L67.4722 259.304C67.1202 259.608 66.6802 259.84 66.1522 260C65.6402 260.144 65.0962 260.216 64.5202 260.216ZM71.1866 247.976V260H68.9066V247.976H71.1866ZM70.0826 245.648C69.6186 245.648 69.2506 245.504 68.9786 245.216C68.7066 244.912 68.5706 244.56 68.5706 244.16C68.5706 243.76 68.7066 243.416 68.9786 243.128C69.2506 242.824 69.6186 242.672 70.0826 242.672C70.5466 242.672 70.9146 242.824 71.1866 243.128C71.4586 243.416 71.5946 243.76 71.5946 244.16C71.5946 244.56 71.4586 244.912 71.1866 245.216C70.9146 245.504 70.5466 245.648 70.0826 245.648ZM82.8824 247.976H85.1624L80.5544 260H77.3384L73.4744 247.976H75.9464L79.0664 258.152L82.8824 247.976ZM88.9991 247.976V260H86.7191V247.976H88.9991ZM87.8951 245.648C87.4311 245.648 87.0631 245.504 86.7911 245.216C86.5191 244.912 86.3831 244.56 86.3831 244.16C86.3831 243.76 86.5191 243.416 86.7911 243.128C87.0631 242.824 87.4311 242.672 87.8951 242.672C88.3591 242.672 88.7271 242.824 88.9991 243.128C89.2711 243.416 89.4071 243.76 89.4071 244.16C89.4071 244.56 89.2711 244.912 88.9991 245.216C88.7271 245.504 88.3591 245.648 87.8951 245.648ZM97.2389 260.216C95.8149 260.216 94.7269 259.84 93.9749 259.088C93.2389 258.32 92.8789 257.304 92.8949 256.04L92.9909 249.92H90.9029V247.976H93.0149L93.0389 245.48H95.3429L95.2949 247.976H99.3749V249.92H95.2709L95.1989 255.848C95.1989 256.552 95.3829 257.12 95.7509 257.552C96.1189 257.968 96.6869 258.176 97.4549 258.176C97.8229 258.176 98.1669 258.136 98.4869 258.056C98.8069 257.96 99.1429 257.776 99.4949 257.504L100.191 259.304C99.8389 259.608 99.3989 259.84 98.8709 260C98.3589 260.144 97.8149 260.216 97.2389 260.216ZM103.905 247.976V260H101.625V247.976H103.905ZM102.801 245.648C102.337 245.648 101.969 245.504 101.697 245.216C101.425 244.912 101.289 244.56 101.289 244.16C101.289 243.76 101.425 243.416 101.697 243.128C101.969 242.824 102.337 242.672 102.801 242.672C103.265 242.672 103.633 242.824 103.905 243.128C104.177 243.416 104.313 243.76 104.313 244.16C104.313 244.56 104.177 244.912 103.905 245.216C103.633 245.504 103.265 245.648 102.801 245.648ZM112.865 260.216C110.977 260.216 109.489 259.68 108.401 258.608C107.313 257.536 106.769 256.056 106.769 254.168C106.769 252.92 107.017 251.816 107.513 250.856C108.025 249.896 108.721 249.144 109.601 248.6C110.481 248.056 111.481 247.784 112.601 247.784C114.329 247.784 115.641 248.384 116.537 249.584C117.433 250.768 117.745 252.488 117.473 254.744H109.097C109.145 255.832 109.505 256.68 110.177 257.288C110.865 257.88 111.817 258.176 113.033 258.176C113.625 258.176 114.193 258.048 114.737 257.792C115.297 257.52 115.777 257.12 116.177 256.592L117.569 257.936C117.009 258.672 116.345 259.24 115.577 259.64C114.809 260.024 113.905 260.216 112.865 260.216ZM112.625 249.56C111.649 249.56 110.857 249.888 110.249 250.544C109.641 251.2 109.273 252.024 109.145 253.016H115.481C115.529 251.8 115.281 250.92 114.737 250.376C114.209 249.832 113.505 249.56 112.625 249.56ZM124.267 260.216C122.699 260.216 121.491 259.904 120.643 259.28C119.795 258.656 119.307 257.776 119.179 256.64L121.147 256.16C121.259 256.896 121.563 257.448 122.059 257.816C122.555 258.184 123.291 258.368 124.267 258.368C125.051 258.368 125.651 258.224 126.067 257.936C126.483 257.632 126.691 257.232 126.691 256.736C126.691 256.256 126.467 255.904 126.019 255.68C125.587 255.44 124.915 255.232 124.003 255.056C123.155 254.896 122.419 254.688 121.795 254.432C121.187 254.16 120.715 253.8 120.379 253.352C120.043 252.888 119.875 252.28 119.875 251.528C119.875 250.808 120.067 250.168 120.451 249.608C120.851 249.048 121.387 248.608 122.059 248.288C122.747 247.952 123.531 247.784 124.411 247.784C125.595 247.784 126.563 248.072 127.315 248.648C128.083 249.208 128.539 249.952 128.683 250.88L126.787 251.384C126.531 250.216 125.723 249.632 124.363 249.632C123.659 249.632 123.107 249.8 122.707 250.136C122.307 250.456 122.107 250.872 122.107 251.384C122.107 251.832 122.299 252.2 122.683 252.488C123.067 252.76 123.755 252.992 124.747 253.184C125.595 253.36 126.331 253.576 126.955 253.832C127.579 254.072 128.059 254.408 128.395 254.84C128.747 255.256 128.931 255.832 128.947 256.568C128.947 257.272 128.747 257.904 128.347 258.464C127.963 259.008 127.419 259.44 126.715 259.76C126.011 260.064 125.195 260.216 124.267 260.216ZM163.409 260.216C162.337 260.216 161.529 259.928 160.985 259.352C160.457 258.76 160.193 257.96 160.193 256.952V242.24H162.497V256.712C162.497 257.688 162.937 258.176 163.817 258.176C164.041 258.176 164.249 258.144 164.441 258.08C164.649 258.016 164.825 257.944 164.969 257.864L165.545 259.568C165.321 259.76 165.009 259.912 164.609 260.024C164.225 260.152 163.825 260.216 163.409 260.216ZM169.153 247.976V260H166.873V247.976H169.153ZM168.049 245.648C167.585 245.648 167.217 245.504 166.945 245.216C166.673 244.912 166.537 244.56 166.537 244.16C166.537 243.76 166.673 243.416 166.945 243.128C167.217 242.824 167.585 242.672 168.049 242.672C168.513 242.672 168.881 242.824 169.153 243.128C169.425 243.416 169.561 243.76 169.561 244.16C169.561 244.56 169.425 244.912 169.153 245.216C168.881 245.504 168.513 245.648 168.049 245.648ZM172.545 260V242.24H174.849V253.016L179.841 248H182.649L176.913 253.76C177.265 253.984 177.593 254.312 177.897 254.744L179.433 257C179.753 257.448 180.081 257.768 180.417 257.96C180.753 258.136 181.137 258.224 181.569 258.224C182.001 258.224 182.401 258.12 182.769 257.912L183.321 259.616C182.985 259.824 182.641 259.968 182.289 260.048C181.937 260.128 181.569 260.168 181.185 260.168C180.385 260.168 179.705 260.016 179.145 259.712C178.585 259.392 178.073 258.888 177.609 258.2L176.049 255.968C175.617 255.312 175.217 254.872 174.849 254.648V260H172.545ZM189.55 260.216C187.662 260.216 186.174 259.68 185.086 258.608C183.998 257.536 183.454 256.056 183.454 254.168C183.454 252.92 183.702 251.816 184.198 250.856C184.71 249.896 185.406 249.144 186.286 248.6C187.166 248.056 188.166 247.784 189.286 247.784C191.014 247.784 192.326 248.384 193.222 249.584C194.118 250.768 194.43 252.488 194.158 254.744H185.782C185.83 255.832 186.19 256.68 186.862 257.288C187.55 257.88 188.502 258.176 189.718 258.176C190.31 258.176 190.878 258.048 191.422 257.792C191.982 257.52 192.462 257.12 192.862 256.592L194.254 257.936C193.694 258.672 193.03 259.24 192.262 259.64C191.494 260.024 190.59 260.216 189.55 260.216ZM189.31 249.56C188.334 249.56 187.542 249.888 186.934 250.544C186.326 251.2 185.958 252.024 185.83 253.016H192.166C192.214 251.8 191.966 250.92 191.422 250.376C190.894 249.832 190.19 249.56 189.31 249.56ZM233.063 250.184C232.759 250.088 232.391 250.04 231.959 250.04C231.063 250.04 230.327 250.384 229.751 251.072C229.191 251.744 228.775 252.816 228.503 254.288C228.247 255.744 228.119 257.648 228.119 260H225.839V252.272L225.815 247.976H228.119L227.975 251.816C228.375 250.36 228.951 249.328 229.703 248.72C230.471 248.096 231.287 247.784 232.151 247.784C232.407 247.784 232.639 247.8 232.847 247.832C233.071 247.848 233.263 247.888 233.423 247.952L233.063 250.184ZM240.102 260.216C238.214 260.216 236.726 259.68 235.638 258.608C234.55 257.536 234.006 256.056 234.006 254.168C234.006 252.92 234.254 251.816 234.75 250.856C235.262 249.896 235.958 249.144 236.838 248.6C237.718 248.056 238.718 247.784 239.838 247.784C241.566 247.784 242.878 248.384 243.774 249.584C244.67 250.768 244.982 252.488 244.71 254.744H236.334C236.382 255.832 236.742 256.68 237.414 257.288C238.102 257.88 239.054 258.176 240.27 258.176C240.862 258.176 241.43 258.048 241.974 257.792C242.534 257.52 243.014 257.12 243.414 256.592L244.806 257.936C244.246 258.672 243.582 259.24 242.814 259.64C242.046 260.024 241.142 260.216 240.102 260.216ZM239.862 249.56C238.886 249.56 238.094 249.888 237.486 250.544C236.878 251.2 236.51 252.024 236.382 253.016H242.718C242.766 251.8 242.518 250.92 241.974 250.376C241.446 249.832 240.742 249.56 239.862 249.56ZM258.224 248V260H255.872L255.968 257.528C255.52 258.36 254.936 259.016 254.216 259.496C253.496 259.976 252.672 260.216 251.744 260.216C250.704 260.216 249.824 259.976 249.104 259.496C248.4 259 247.864 258.328 247.496 257.48C247.128 256.632 246.944 255.656 246.944 254.552C246.944 253.224 247.192 252.048 247.688 251.024C248.2 250 248.896 249.208 249.776 248.648C250.672 248.072 251.696 247.784 252.848 247.784C253.616 247.784 254.296 247.96 254.888 248.312C255.496 248.648 255.944 249.096 256.232 249.656L256.52 248H258.224ZM252.944 249.824C251.84 249.824 250.952 250.248 250.28 251.096C249.624 251.928 249.296 253.032 249.296 254.408C249.296 255.592 249.552 256.512 250.064 257.168C250.576 257.824 251.264 258.152 252.128 258.152C252.848 258.152 253.496 257.944 254.072 257.528C254.648 257.112 255.104 256.536 255.44 255.8C255.776 255.048 255.944 254.192 255.944 253.232C255.944 252.176 255.672 251.344 255.128 250.736C254.6 250.128 253.872 249.824 252.944 249.824ZM272.333 242.24V260H269.981L270.077 257.528C269.629 258.36 269.045 259.016 268.325 259.496C267.605 259.976 266.781 260.216 265.853 260.216C264.813 260.216 263.933 259.976 263.213 259.496C262.509 259 261.973 258.328 261.605 257.48C261.237 256.632 261.053 255.656 261.053 254.552C261.053 253.224 261.301 252.048 261.797 251.024C262.309 250 263.005 249.208 263.885 248.648C264.781 248.072 265.805 247.784 266.957 247.784C267.613 247.784 268.213 247.912 268.757 248.168C269.301 248.424 269.741 248.768 270.077 249.2L270.029 247.976V242.24H272.333ZM267.053 249.824C265.949 249.824 265.061 250.248 264.389 251.096C263.733 251.928 263.405 253.032 263.405 254.408C263.405 255.592 263.661 256.512 264.173 257.168C264.685 257.824 265.373 258.152 266.237 258.152C266.957 258.152 267.605 257.944 268.181 257.528C268.757 257.112 269.213 256.536 269.549 255.8C269.885 255.048 270.053 254.192 270.053 253.232C270.053 252.176 269.781 251.344 269.237 250.736C268.709 250.128 267.981 249.824 267.053 249.824ZM277.97 247.976V260H275.69V247.976H277.97ZM276.866 245.648C276.402 245.648 276.034 245.504 275.762 245.216C275.49 244.912 275.354 244.56 275.354 244.16C275.354 243.76 275.49 243.416 275.762 243.128C276.034 242.824 276.402 242.672 276.866 242.672C277.33 242.672 277.698 242.824 277.97 243.128C278.242 243.416 278.378 243.76 278.378 244.16C278.378 244.56 278.242 244.912 277.97 245.216C277.698 245.504 277.33 245.648 276.866 245.648ZM281.362 260V247.976H283.666L283.522 251.528C283.97 250.328 284.602 249.408 285.418 248.768C286.234 248.112 287.186 247.784 288.274 247.784C289.554 247.784 290.53 248.232 291.202 249.128C291.874 250.008 292.202 251.28 292.186 252.944L292.138 260H289.858L289.906 253.16C289.922 251 289.186 249.92 287.698 249.92C286.914 249.92 286.218 250.224 285.61 250.832C285.018 251.44 284.546 252.48 284.194 253.952C283.842 255.424 283.658 257.44 283.642 260H281.362ZM299.721 265.04C299.033 265.04 298.305 264.968 297.537 264.824C296.785 264.68 296.153 264.456 295.641 264.152L296.217 262.136C296.761 262.408 297.337 262.616 297.945 262.76C298.553 262.904 299.177 262.976 299.817 262.976C301.289 262.976 302.337 262.616 302.961 261.896C303.585 261.176 303.921 260.04 303.969 258.488L304.017 257.192C303.569 258.04 302.977 258.704 302.241 259.184C301.521 259.664 300.681 259.904 299.721 259.904C298.665 259.904 297.777 259.672 297.057 259.208C296.337 258.744 295.793 258.096 295.425 257.264C295.057 256.432 294.873 255.48 294.873 254.408C294.873 253.128 295.121 251.992 295.617 251C296.129 249.992 296.825 249.208 297.705 248.648C298.601 248.072 299.633 247.784 300.801 247.784C301.601 247.784 302.305 247.96 302.913 248.312C303.521 248.648 303.969 249.096 304.257 249.656L304.545 248H306.249V258.152C306.249 260.44 305.681 262.16 304.545 263.312C303.425 264.464 301.817 265.04 299.721 265.04ZM300.921 249.824C299.801 249.824 298.905 250.24 298.233 251.072C297.561 251.888 297.225 252.944 297.225 254.24C297.225 255.392 297.481 256.288 297.993 256.928C298.521 257.552 299.233 257.864 300.129 257.864C300.849 257.864 301.497 257.656 302.073 257.24C302.665 256.824 303.129 256.256 303.465 255.536C303.801 254.816 303.969 254 303.969 253.088C303.969 252.08 303.689 251.288 303.129 250.712C302.585 250.12 301.849 249.824 300.921 249.824ZM343.948 247.784C345.66 247.784 347.012 248.32 348.004 249.392C348.996 250.464 349.492 251.912 349.492 253.736C349.492 254.968 349.244 256.072 348.748 257.048C348.252 258.024 347.556 258.8 346.66 259.376C345.78 259.936 344.748 260.216 343.564 260.216C341.804 260.216 340.428 259.68 339.436 258.608C338.46 257.536 337.972 256.08 337.972 254.24C337.972 253.008 338.212 251.904 338.692 250.928C339.188 249.952 339.884 249.184 340.78 248.624C341.676 248.064 342.732 247.784 343.948 247.784ZM343.588 258.152C344.644 258.152 345.492 257.752 346.132 256.952C346.788 256.136 347.116 255.064 347.116 253.736C347.116 252.488 346.828 251.528 346.252 250.856C345.692 250.168 344.916 249.824 343.924 249.824C342.836 249.824 341.964 250.232 341.308 251.048C340.652 251.864 340.324 252.928 340.324 254.24C340.324 255.488 340.612 256.456 341.188 257.144C341.764 257.816 342.564 258.152 343.588 258.152ZM359.553 250.184C359.249 250.088 358.881 250.04 358.449 250.04C357.553 250.04 356.817 250.384 356.241 251.072C355.681 251.744 355.265 252.816 354.993 254.288C354.737 255.744 354.609 257.648 354.609 260H352.329V252.272L352.305 247.976H354.609L354.465 251.816C354.865 250.36 355.441 249.328 356.193 248.72C356.961 248.096 357.777 247.784 358.641 247.784C358.897 247.784 359.129 247.8 359.337 247.832C359.561 247.848 359.753 247.888 359.913 247.952L359.553 250.184ZM44.432 272.24V290H42.08L42.176 287.528C41.728 288.36 41.144 289.016 40.424 289.496C39.704 289.976 38.88 290.216 37.952 290.216C36.912 290.216 36.032 289.976 35.312 289.496C34.608 289 34.072 288.328 33.704 287.48C33.336 286.632 33.152 285.656 33.152 284.552C33.152 283.224 33.4 282.048 33.896 281.024C34.408 280 35.104 279.208 35.984 278.648C36.88 278.072 37.904 277.784 39.056 277.784C39.712 277.784 40.312 277.912 40.856 278.168C41.4 278.424 41.84 278.768 42.176 279.2L42.128 277.976V272.24H44.432ZM39.152 279.824C38.048 279.824 37.16 280.248 36.488 281.096C35.832 281.928 35.504 283.032 35.504 284.408C35.504 285.592 35.76 286.512 36.272 287.168C36.784 287.824 37.472 288.152 38.336 288.152C39.056 288.152 39.704 287.944 40.28 287.528C40.856 287.112 41.312 286.536 41.648 285.8C41.984 285.048 42.152 284.192 42.152 283.232C42.152 282.176 41.88 281.344 41.336 280.736C40.808 280.128 40.08 279.824 39.152 279.824ZM55.0374 280.184C54.7334 280.088 54.3654 280.04 53.9334 280.04C53.0374 280.04 52.3014 280.384 51.7254 281.072C51.1654 281.744 50.7494 282.816 50.4774 284.288C50.2214 285.744 50.0934 287.648 50.0934 290H47.8134V282.272L47.7894 277.976H50.0934L49.9494 281.816C50.3494 280.36 50.9254 279.328 51.6774 278.72C52.4454 278.096 53.2614 277.784 54.1254 277.784C54.3814 277.784 54.6134 277.8 54.8214 277.832C55.0454 277.848 55.2374 277.888 55.3974 277.952L55.0374 280.184ZM67.2601 278V290H64.9081L65.0041 287.528C64.5561 288.36 63.9721 289.016 63.2521 289.496C62.5321 289.976 61.7081 290.216 60.7801 290.216C59.7401 290.216 58.8601 289.976 58.1401 289.496C57.4361 289 56.9001 288.328 56.5321 287.48C56.1641 286.632 55.9801 285.656 55.9801 284.552C55.9801 283.224 56.2281 282.048 56.7241 281.024C57.2361 280 57.9321 279.208 58.8121 278.648C59.7081 278.072 60.7321 277.784 61.8841 277.784C62.6521 277.784 63.3321 277.96 63.9241 278.312C64.5321 278.648 64.9801 279.096 65.2681 279.656L65.5561 278H67.2601ZM61.9801 279.824C60.8761 279.824 59.9881 280.248 59.3161 281.096C58.6601 281.928 58.3321 283.032 58.3321 284.408C58.3321 285.592 58.5881 286.512 59.1001 287.168C59.6121 287.824 60.3001 288.152 61.1641 288.152C61.8841 288.152 62.5321 287.944 63.1081 287.528C63.6841 287.112 64.1401 286.536 64.4761 285.8C64.8121 285.048 64.9801 284.192 64.9801 283.232C64.9801 282.176 64.7081 281.344 64.1641 280.736C63.6361 280.128 62.9081 279.824 61.9801 279.824ZM87.0095 277.976H89.2895L84.9215 290H82.1615L79.4255 281.048L76.1375 290H73.3775L69.5855 277.976H71.9855L74.8415 287.696L78.3215 277.976H80.6495L83.5535 287.768L87.0095 277.976ZM93.2647 277.976V290H90.9847V277.976H93.2647ZM92.1607 275.648C91.6967 275.648 91.3287 275.504 91.0567 275.216C90.7847 274.912 90.6487 274.56 90.6487 274.16C90.6487 273.76 90.7847 273.416 91.0567 273.128C91.3287 272.824 91.6967 272.672 92.1607 272.672C92.6247 272.672 92.9927 272.824 93.2647 273.128C93.5367 273.416 93.6727 273.76 93.6727 274.16C93.6727 274.56 93.5367 274.912 93.2647 275.216C92.9927 275.504 92.6247 275.648 92.1607 275.648ZM96.6566 290V277.976H98.9606L98.8166 281.528C99.2646 280.328 99.8966 279.408 100.713 278.768C101.529 278.112 102.481 277.784 103.569 277.784C104.849 277.784 105.825 278.232 106.497 279.128C107.169 280.008 107.497 281.28 107.481 282.944L107.433 290H105.153L105.201 283.16C105.217 281 104.481 279.92 102.993 279.92C102.209 279.92 101.513 280.224 100.905 280.832C100.313 281.44 99.8406 282.48 99.4886 283.952C99.1366 285.424 98.9526 287.44 98.9366 290H96.6566ZM115.016 295.04C114.328 295.04 113.6 294.968 112.832 294.824C112.08 294.68 111.448 294.456 110.936 294.152L111.512 292.136C112.056 292.408 112.632 292.616 113.24 292.76C113.848 292.904 114.472 292.976 115.112 292.976C116.584 292.976 117.632 292.616 118.256 291.896C118.88 291.176 119.216 290.04 119.264 288.488L119.312 287.192C118.864 288.04 118.272 288.704 117.536 289.184C116.816 289.664 115.976 289.904 115.016 289.904C113.96 289.904 113.072 289.672 112.352 289.208C111.632 288.744 111.088 288.096 110.72 287.264C110.352 286.432 110.168 285.48 110.168 284.408C110.168 283.128 110.416 281.992 110.912 281C111.424 279.992 112.12 279.208 113 278.648C113.896 278.072 114.928 277.784 116.096 277.784C116.896 277.784 117.6 277.96 118.208 278.312C118.816 278.648 119.264 279.096 119.552 279.656L119.84 278H121.544V288.152C121.544 290.44 120.976 292.16 119.84 293.312C118.72 294.464 117.112 295.04 115.016 295.04ZM116.216 279.824C115.096 279.824 114.2 280.24 113.528 281.072C112.856 281.888 112.52 282.944 112.52 284.24C112.52 285.392 112.776 286.288 113.288 286.928C113.816 287.552 114.528 287.864 115.424 287.864C116.144 287.864 116.792 287.656 117.368 287.24C117.96 286.824 118.424 286.256 118.76 285.536C119.096 284.816 119.264 284 119.264 283.088C119.264 282.08 118.984 281.288 118.424 280.712C117.88 280.12 117.144 279.824 116.216 279.824ZM124.107 293.144C124.283 292.728 124.419 292.328 124.515 291.944C124.611 291.576 124.659 291.232 124.659 290.912C124.659 290.56 124.611 290.256 124.515 290C124.435 289.744 124.347 289.496 124.251 289.256C124.171 289 124.131 288.72 124.131 288.416C124.131 288 124.275 287.656 124.563 287.384C124.867 287.112 125.251 286.976 125.715 286.976C126.211 286.976 126.595 287.136 126.867 287.456C127.139 287.76 127.275 288.184 127.275 288.728C127.275 289.16 127.187 289.64 127.011 290.168C126.835 290.696 126.595 291.216 126.291 291.728C126.003 292.256 125.675 292.728 125.307 293.144H124.107ZM159.156 278V290H156.804L156.9 287.528C156.452 288.36 155.868 289.016 155.148 289.496C154.428 289.976 153.604 290.216 152.676 290.216C151.636 290.216 150.756 289.976 150.036 289.496C149.332 289 148.796 288.328 148.428 287.48C148.06 286.632 147.876 285.656 147.876 284.552C147.876 283.224 148.124 282.048 148.62 281.024C149.132 280 149.828 279.208 150.708 278.648C151.604 278.072 152.628 277.784 153.78 277.784C154.548 277.784 155.228 277.96 155.82 278.312C156.428 278.648 156.876 279.096 157.164 279.656L157.452 278H159.156ZM153.876 279.824C152.772 279.824 151.884 280.248 151.212 281.096C150.556 281.928 150.228 283.032 150.228 284.408C150.228 285.592 150.484 286.512 150.996 287.168C151.508 287.824 152.196 288.152 153.06 288.152C153.78 288.152 154.428 287.944 155.004 287.528C155.58 287.112 156.036 286.536 156.372 285.8C156.708 285.048 156.876 284.192 156.876 283.232C156.876 282.176 156.604 281.344 156.06 280.736C155.532 280.128 154.804 279.824 153.876 279.824ZM165.729 290.216C164.657 290.216 163.849 289.928 163.305 289.352C162.777 288.76 162.513 287.96 162.513 286.952V272.24H164.817V286.712C164.817 287.688 165.257 288.176 166.137 288.176C166.361 288.176 166.569 288.144 166.761 288.08C166.969 288.016 167.145 287.944 167.289 287.864L167.865 289.568C167.641 289.76 167.329 289.912 166.929 290.024C166.545 290.152 166.145 290.216 165.729 290.216ZM172.292 290.216C171.22 290.216 170.412 289.928 169.868 289.352C169.34 288.76 169.076 287.96 169.076 286.952V272.24H171.38V286.712C171.38 287.688 171.82 288.176 172.7 288.176C172.924 288.176 173.132 288.144 173.324 288.08C173.532 288.016 173.708 287.944 173.852 287.864L174.428 289.568C174.204 289.76 173.892 289.912 173.492 290.024C173.108 290.152 172.708 290.216 172.292 290.216ZM181.086 277.784C182.798 277.784 184.15 278.32 185.142 279.392C186.134 280.464 186.63 281.912 186.63 283.736C186.63 284.968 186.382 286.072 185.886 287.048C185.39 288.024 184.694 288.8 183.798 289.376C182.918 289.936 181.886 290.216 180.702 290.216C178.942 290.216 177.566 289.68 176.574 288.608C175.598 287.536 175.11 286.08 175.11 284.24C175.11 283.008 175.35 281.904 175.83 280.928C176.326 279.952 177.022 279.184 177.918 278.624C178.814 278.064 179.87 277.784 181.086 277.784ZM180.726 288.152C181.782 288.152 182.63 287.752 183.27 286.952C183.926 286.136 184.254 285.064 184.254 283.736C184.254 282.488 183.966 281.528 183.39 280.856C182.83 280.168 182.054 279.824 181.062 279.824C179.974 279.824 179.102 280.232 178.446 281.048C177.79 281.864 177.462 282.928 177.462 284.24C177.462 285.488 177.75 286.456 178.326 287.144C178.902 287.816 179.702 288.152 180.726 288.152ZM205.39 277.976H207.67L203.302 290H200.542L197.806 281.048L194.518 290H191.758L187.966 277.976H190.366L193.222 287.696L196.702 277.976H199.03L201.934 287.768L205.39 277.976ZM211.645 277.976V290H209.365V277.976H211.645ZM210.541 275.648C210.077 275.648 209.709 275.504 209.437 275.216C209.165 274.912 209.029 274.56 209.029 274.16C209.029 273.76 209.165 273.416 209.437 273.128C209.709 272.824 210.077 272.672 210.541 272.672C211.005 272.672 211.373 272.824 211.645 273.128C211.917 273.416 212.053 273.76 212.053 274.16C212.053 274.56 211.917 274.912 211.645 275.216C211.373 275.504 211.005 275.648 210.541 275.648ZM215.037 290V277.976H217.341L217.197 281.528C217.645 280.328 218.277 279.408 219.093 278.768C219.909 278.112 220.861 277.784 221.949 277.784C223.229 277.784 224.205 278.232 224.877 279.128C225.549 280.008 225.877 281.28 225.861 282.944L225.813 290H223.533L223.581 283.16C223.597 281 222.861 279.92 221.373 279.92C220.589 279.92 219.893 280.224 219.285 280.832C218.693 281.44 218.221 282.48 217.869 283.952C217.517 285.424 217.333 287.44 217.317 290H215.037ZM233.396 295.04C232.708 295.04 231.98 294.968 231.212 294.824C230.46 294.68 229.828 294.456 229.316 294.152L229.892 292.136C230.436 292.408 231.012 292.616 231.62 292.76C232.228 292.904 232.852 292.976 233.492 292.976C234.964 292.976 236.012 292.616 236.636 291.896C237.26 291.176 237.596 290.04 237.644 288.488L237.692 287.192C237.244 288.04 236.652 288.704 235.916 289.184C235.196 289.664 234.356 289.904 233.396 289.904C232.34 289.904 231.452 289.672 230.732 289.208C230.012 288.744 229.468 288.096 229.1 287.264C228.732 286.432 228.548 285.48 228.548 284.408C228.548 283.128 228.796 281.992 229.292 281C229.804 279.992 230.5 279.208 231.38 278.648C232.276 278.072 233.308 277.784 234.476 277.784C235.276 277.784 235.98 277.96 236.588 278.312C237.196 278.648 237.644 279.096 237.932 279.656L238.22 278H239.924V288.152C239.924 290.44 239.356 292.16 238.22 293.312C237.1 294.464 235.492 295.04 233.396 295.04ZM234.596 279.824C233.476 279.824 232.58 280.24 231.908 281.072C231.236 281.888 230.9 282.944 230.9 284.24C230.9 285.392 231.156 286.288 231.668 286.928C232.196 287.552 232.908 287.864 233.804 287.864C234.524 287.864 235.172 287.656 235.748 287.24C236.34 286.824 236.804 286.256 237.14 285.536C237.476 284.816 237.644 284 237.644 283.088C237.644 282.08 237.364 281.288 236.804 280.712C236.26 280.12 235.524 279.824 234.596 279.824ZM266.71 290.216C265.286 290.216 264.198 289.84 263.446 289.088C262.71 288.32 262.35 287.304 262.366 286.04L262.462 279.92H260.374V277.976H262.486L262.51 275.48H264.814L264.766 277.976H268.846V279.92H264.742L264.67 285.848C264.67 286.552 264.854 287.12 265.222 287.552C265.59 287.968 266.158 288.176 266.926 288.176C267.294 288.176 267.638 288.136 267.958 288.056C268.278 287.96 268.614 287.776 268.966 287.504L269.662 289.304C269.31 289.608 268.87 289.84 268.342 290C267.83 290.144 267.286 290.216 266.71 290.216ZM271.097 290V272.24H273.401L273.425 277.976L273.257 281.504C273.705 280.304 274.337 279.384 275.153 278.744C275.969 278.104 276.921 277.784 278.009 277.784C279.289 277.784 280.265 278.232 280.937 279.128C281.609 280.008 281.937 281.28 281.921 282.944L281.873 290H279.593L279.641 283.16C279.657 281 278.921 279.92 277.433 279.92C276.649 279.92 275.953 280.224 275.345 280.832C274.753 281.44 274.281 282.48 273.929 283.952C273.577 285.424 273.393 287.44 273.377 290H271.097ZM290.704 290.216C288.816 290.216 287.328 289.68 286.24 288.608C285.152 287.536 284.608 286.056 284.608 284.168C284.608 282.92 284.856 281.816 285.352 280.856C285.864 279.896 286.56 279.144 287.44 278.6C288.32 278.056 289.32 277.784 290.44 277.784C292.168 277.784 293.48 278.384 294.376 279.584C295.272 280.768 295.584 282.488 295.312 284.744H286.936C286.984 285.832 287.344 286.68 288.016 287.288C288.704 287.88 289.656 288.176 290.872 288.176C291.464 288.176 292.032 288.048 292.576 287.792C293.136 287.52 293.616 287.12 294.016 286.592L295.408 287.936C294.848 288.672 294.184 289.24 293.416 289.64C292.648 290.024 291.744 290.216 290.704 290.216ZM290.464 279.56C289.488 279.56 288.696 279.888 288.088 280.544C287.48 281.2 287.112 282.024 286.984 283.016H293.32C293.368 281.8 293.12 280.92 292.576 280.376C292.048 279.832 291.344 279.56 290.464 279.56ZM298.073 290V277.976H300.377L300.233 281.504C300.697 280.224 301.337 279.288 302.153 278.696C302.969 278.088 303.849 277.784 304.793 277.784C305.769 277.784 306.577 278.064 307.217 278.624C307.873 279.168 308.313 280 308.537 281.12C309.017 280 309.673 279.168 310.505 278.624C311.353 278.064 312.241 277.784 313.169 277.784C314.449 277.784 315.425 278.232 316.097 279.128C316.769 280.008 317.097 281.28 317.081 282.944L317.033 290H314.729L314.777 283.112C314.793 282.072 314.617 281.28 314.249 280.736C313.897 280.192 313.337 279.92 312.569 279.92C312.073 279.92 311.593 280.08 311.129 280.4C310.665 280.72 310.249 281.256 309.881 282.008C309.529 282.76 309.241 283.792 309.017 285.104C308.809 286.4 308.697 288.032 308.681 290H306.425V283.112C306.425 282.072 306.249 281.28 305.897 280.736C305.561 280.192 305.017 279.92 304.265 279.92C303.753 279.92 303.265 280.08 302.801 280.4C302.337 280.72 301.921 281.256 301.553 282.008C301.185 282.76 300.897 283.792 300.689 285.104C300.481 286.4 300.369 288.032 300.353 290H298.073ZM343.723 290.216C342.299 290.216 341.211 289.84 340.459 289.088C339.723 288.32 339.363 287.304 339.379 286.04L339.475 279.92H337.387V277.976H339.499L339.523 275.48H341.827L341.779 277.976H345.859V279.92H341.755L341.683 285.848C341.683 286.552 341.867 287.12 342.235 287.552C342.603 287.968 343.171 288.176 343.939 288.176C344.307 288.176 344.651 288.136 344.971 288.056C345.291 287.96 345.627 287.776 345.979 287.504L346.675 289.304C346.323 289.608 345.883 289.84 345.355 290C344.843 290.144 344.299 290.216 343.723 290.216ZM353.323 277.784C355.035 277.784 356.387 278.32 357.379 279.392C358.371 280.464 358.867 281.912 358.867 283.736C358.867 284.968 358.619 286.072 358.123 287.048C357.627 288.024 356.931 288.8 356.035 289.376C355.155 289.936 354.123 290.216 352.939 290.216C351.179 290.216 349.803 289.68 348.811 288.608C347.835 287.536 347.347 286.08 347.347 284.24C347.347 283.008 347.587 281.904 348.067 280.928C348.563 279.952 349.259 279.184 350.155 278.624C351.051 278.064 352.107 277.784 353.323 277.784ZM352.963 288.152C354.019 288.152 354.867 287.752 355.507 286.952C356.163 286.136 356.491 285.064 356.491 283.736C356.491 282.488 356.203 281.528 355.627 280.856C355.067 280.168 354.291 279.824 353.299 279.824C352.211 279.824 351.339 280.232 350.683 281.048C350.027 281.864 349.699 282.928 349.699 284.24C349.699 285.488 349.987 286.456 350.563 287.144C351.139 287.816 351.939 288.152 352.963 288.152ZM40.928 310.184C40.624 310.088 40.256 310.04 39.824 310.04C38.928 310.04 38.192 310.384 37.616 311.072C37.056 311.744 36.64 312.816 36.368 314.288C36.112 315.744 35.984 317.648 35.984 320H33.704V312.272L33.68 307.976H35.984L35.84 311.816C36.24 310.36 36.816 309.328 37.568 308.72C38.336 308.096 39.152 307.784 40.016 307.784C40.272 307.784 40.504 307.8 40.712 307.832C40.936 307.848 41.128 307.888 41.288 307.952L40.928 310.184ZM47.9668 320.216C46.0788 320.216 44.5908 319.68 43.5028 318.608C42.4148 317.536 41.8708 316.056 41.8708 314.168C41.8708 312.92 42.1188 311.816 42.6148 310.856C43.1268 309.896 43.8228 309.144 44.7028 308.6C45.5828 308.056 46.5828 307.784 47.7028 307.784C49.4308 307.784 50.7428 308.384 51.6388 309.584C52.5348 310.768 52.8468 312.488 52.5748 314.744H44.1988C44.2468 315.832 44.6068 316.68 45.2788 317.288C45.9668 317.88 46.9188 318.176 48.1348 318.176C48.7268 318.176 49.2948 318.048 49.8388 317.792C50.3988 317.52 50.8788 317.12 51.2788 316.592L52.6708 317.936C52.1108 318.672 51.4468 319.24 50.6788 319.64C49.9108 320.024 49.0068 320.216 47.9668 320.216ZM47.7268 309.56C46.7508 309.56 45.9588 309.888 45.3508 310.544C44.7428 311.2 44.3748 312.024 44.2467 313.016H50.5828C50.6308 311.8 50.3828 310.92 49.8388 310.376C49.3108 309.832 48.6068 309.56 47.7268 309.56ZM60.5683 320.216C58.7763 320.216 57.3683 319.688 56.3443 318.632C55.3203 317.576 54.8083 316.104 54.8083 314.216C54.8083 312.936 55.0563 311.816 55.5523 310.856C56.0643 309.88 56.7763 309.128 57.6883 308.6C58.6003 308.056 59.6563 307.784 60.8563 307.784C62.8563 307.784 64.3123 308.576 65.2243 310.16L63.5443 311.432C62.9523 310.376 62.0483 309.848 60.8323 309.848C59.7443 309.848 58.8643 310.248 58.1923 311.048C57.5203 311.832 57.1842 312.88 57.1842 314.192C57.1842 315.472 57.4803 316.448 58.0723 317.12C58.6803 317.792 59.5523 318.128 60.6883 318.128C61.2803 318.128 61.8243 318 62.3203 317.744C62.8323 317.488 63.2563 317.08 63.5923 316.52L65.2243 317.816C64.7123 318.648 64.0563 319.256 63.2563 319.64C62.4723 320.024 61.5763 320.216 60.5683 320.216ZM67.1019 320V302.24H69.4059L69.4299 307.976L69.2619 311.504C69.7099 310.304 70.3419 309.384 71.1579 308.744C71.9739 308.104 72.9259 307.784 74.0139 307.784C75.2939 307.784 76.2699 308.232 76.9419 309.128C77.6139 310.008 77.9419 311.28 77.9259 312.944L77.8779 320H75.5979L75.6459 313.16C75.6619 311 74.9259 309.92 73.4379 309.92C72.6539 309.92 71.9579 310.224 71.3499 310.832C70.7579 311.44 70.2859 312.48 69.9339 313.952C69.5819 315.424 69.3979 317.44 69.3819 320H67.1019ZM91.8929 308V320H89.5409L89.6369 317.528C89.1889 318.36 88.6049 319.016 87.8849 319.496C87.1649 319.976 86.3409 320.216 85.4129 320.216C84.3729 320.216 83.4929 319.976 82.7729 319.496C82.0689 319 81.5329 318.328 81.1649 317.48C80.7969 316.632 80.6129 315.656 80.6129 314.552C80.6129 313.224 80.8609 312.048 81.3569 311.024C81.8689 310 82.5649 309.208 83.4449 308.648C84.3409 308.072 85.3649 307.784 86.5169 307.784C87.2849 307.784 87.9649 307.96 88.5569 308.312C89.1649 308.648 89.6129 309.096 89.9009 309.656L90.1889 308H91.8929ZM86.6129 309.824C85.5089 309.824 84.6209 310.248 83.9489 311.096C83.2929 311.928 82.9649 313.032 82.9649 314.408C82.9649 315.592 83.2209 316.512 83.7329 317.168C84.2449 317.824 84.9329 318.152 85.7969 318.152C86.5169 318.152 87.1649 317.944 87.7409 317.528C88.3169 317.112 88.7729 316.536 89.1089 315.8C89.4449 315.048 89.6129 314.192 89.6129 313.232C89.6129 312.176 89.3409 311.344 88.7969 310.736C88.2689 310.128 87.5409 309.824 86.6129 309.824ZM102.498 310.184C102.194 310.088 101.826 310.04 101.394 310.04C100.498 310.04 99.7623 310.384 99.1863 311.072C98.6263 311.744 98.2103 312.816 97.9383 314.288C97.6823 315.744 97.5543 317.648 97.5543 320H95.2743V312.272L95.2503 307.976H97.5543L97.4103 311.816C97.8103 310.36 98.3863 309.328 99.1383 308.72C99.9063 308.096 100.722 307.784 101.586 307.784C101.842 307.784 102.074 307.8 102.282 307.832C102.506 307.848 102.698 307.888 102.858 307.952L102.498 310.184ZM108.289 325.04C107.601 325.04 106.873 324.968 106.105 324.824C105.353 324.68 104.721 324.456 104.209 324.152L104.785 322.136C105.329 322.408 105.905 322.616 106.513 322.76C107.121 322.904 107.745 322.976 108.385 322.976C109.857 322.976 110.905 322.616 111.529 321.896C112.153 321.176 112.489 320.04 112.537 318.488L112.585 317.192C112.137 318.04 111.545 318.704 110.809 319.184C110.089 319.664 109.249 319.904 108.289 319.904C107.233 319.904 106.345 319.672 105.625 319.208C104.905 318.744 104.361 318.096 103.993 317.264C103.625 316.432 103.441 315.48 103.441 314.408C103.441 313.128 103.689 311.992 104.185 311C104.697 309.992 105.393 309.208 106.273 308.648C107.169 308.072 108.201 307.784 109.369 307.784C110.169 307.784 110.873 307.96 111.481 308.312C112.089 308.648 112.537 309.096 112.825 309.656L113.113 308H114.817V318.152C114.817 320.44 114.249 322.16 113.113 323.312C111.993 324.464 110.385 325.04 108.289 325.04ZM109.489 309.824C108.369 309.824 107.473 310.24 106.801 311.072C106.129 311.888 105.793 312.944 105.793 314.24C105.793 315.392 106.049 316.288 106.561 316.928C107.089 317.552 107.801 317.864 108.697 317.864C109.417 317.864 110.065 317.656 110.641 317.24C111.233 316.824 111.697 316.256 112.033 315.536C112.369 314.816 112.537 314 112.537 313.088C112.537 312.08 112.257 311.288 111.697 310.712C111.153 310.12 110.417 309.824 109.489 309.824ZM123.74 320.216C121.852 320.216 120.364 319.68 119.276 318.608C118.188 317.536 117.644 316.056 117.644 314.168C117.644 312.92 117.892 311.816 118.388 310.856C118.9 309.896 119.596 309.144 120.476 308.6C121.356 308.056 122.356 307.784 123.476 307.784C125.204 307.784 126.516 308.384 127.412 309.584C128.308 310.768 128.62 312.488 128.348 314.744H119.972C120.02 315.832 120.38 316.68 121.052 317.288C121.74 317.88 122.692 318.176 123.908 318.176C124.5 318.176 125.068 318.048 125.612 317.792C126.172 317.52 126.652 317.12 127.052 316.592L128.444 317.936C127.884 318.672 127.22 319.24 126.452 319.64C125.684 320.024 124.78 320.216 123.74 320.216ZM123.5 309.56C122.524 309.56 121.732 309.888 121.124 310.544C120.516 311.2 120.148 312.024 120.02 313.016H126.356C126.404 311.8 126.156 310.92 125.612 310.376C125.084 309.832 124.38 309.56 123.5 309.56ZM147.51 308V320H145.158L145.254 317.528C144.806 318.36 144.222 319.016 143.502 319.496C142.782 319.976 141.958 320.216 141.03 320.216C139.99 320.216 139.11 319.976 138.39 319.496C137.686 319 137.15 318.328 136.782 317.48C136.414 316.632 136.23 315.656 136.23 314.552C136.23 313.224 136.478 312.048 136.974 311.024C137.486 310 138.182 309.208 139.062 308.648C139.958 308.072 140.982 307.784 142.134 307.784C142.902 307.784 143.582 307.96 144.174 308.312C144.782 308.648 145.23 309.096 145.518 309.656L145.806 308H147.51ZM142.23 309.824C141.126 309.824 140.238 310.248 139.566 311.096C138.91 311.928 138.582 313.032 138.582 314.408C138.582 315.592 138.838 316.512 139.35 317.168C139.862 317.824 140.55 318.152 141.414 318.152C142.134 318.152 142.782 317.944 143.358 317.528C143.934 317.112 144.39 316.536 144.726 315.8C145.062 315.048 145.23 314.192 145.23 313.232C145.23 312.176 144.958 311.344 144.414 310.736C143.886 310.128 143.158 309.824 142.23 309.824ZM150.868 320V307.976H153.172L153.028 311.528C153.476 310.328 154.108 309.408 154.924 308.768C155.74 308.112 156.692 307.784 157.78 307.784C159.06 307.784 160.036 308.232 160.708 309.128C161.38 310.008 161.708 311.28 161.692 312.944L161.644 320H159.364L159.412 313.16C159.428 311 158.692 309.92 157.204 309.92C156.42 309.92 155.724 310.224 155.116 310.832C154.524 311.44 154.052 312.48 153.7 313.952C153.348 315.424 153.164 317.44 153.148 320H150.868ZM175.659 302.24V320H173.307L173.403 317.528C172.955 318.36 172.371 319.016 171.651 319.496C170.931 319.976 170.107 320.216 169.179 320.216C168.139 320.216 167.259 319.976 166.539 319.496C165.835 319 165.299 318.328 164.931 317.48C164.563 316.632 164.379 315.656 164.379 314.552C164.379 313.224 164.627 312.048 165.123 311.024C165.635 310 166.331 309.208 167.211 308.648C168.107 308.072 169.131 307.784 170.283 307.784C170.939 307.784 171.539 307.912 172.083 308.168C172.627 308.424 173.067 308.768 173.403 309.2L173.355 307.976V302.24H175.659ZM170.379 309.824C169.275 309.824 168.387 310.248 167.715 311.096C167.059 311.928 166.731 313.032 166.731 314.408C166.731 315.592 166.987 316.512 167.499 317.168C168.011 317.824 168.699 318.152 169.563 318.152C170.283 318.152 170.931 317.944 171.507 317.528C172.083 317.112 172.539 316.536 172.875 315.8C173.211 315.048 173.379 314.192 173.379 313.232C173.379 312.176 173.107 311.344 172.563 310.736C172.035 310.128 171.307 309.824 170.379 309.824ZM188.696 320.216C187.128 320.216 185.92 319.904 185.072 319.28C184.224 318.656 183.736 317.776 183.608 316.64L185.576 316.16C185.688 316.896 185.992 317.448 186.488 317.816C186.984 318.184 187.72 318.368 188.696 318.368C189.48 318.368 190.08 318.224 190.496 317.936C190.912 317.632 191.12 317.232 191.12 316.736C191.12 316.256 190.896 315.904 190.448 315.68C190.016 315.44 189.344 315.232 188.432 315.056C187.584 314.896 186.848 314.688 186.224 314.432C185.616 314.16 185.144 313.8 184.808 313.352C184.472 312.888 184.304 312.28 184.304 311.528C184.304 310.808 184.496 310.168 184.88 309.608C185.28 309.048 185.816 308.608 186.488 308.288C187.176 307.952 187.96 307.784 188.84 307.784C190.024 307.784 190.992 308.072 191.744 308.648C192.512 309.208 192.968 309.952 193.112 310.88L191.216 311.384C190.96 310.216 190.152 309.632 188.792 309.632C188.088 309.632 187.536 309.8 187.136 310.136C186.736 310.456 186.536 310.872 186.536 311.384C186.536 311.832 186.728 312.2 187.112 312.488C187.496 312.76 188.184 312.992 189.176 313.184C190.024 313.36 190.76 313.576 191.384 313.832C192.008 314.072 192.488 314.408 192.824 314.84C193.176 315.256 193.36 315.832 193.376 316.568C193.376 317.272 193.176 317.904 192.776 318.464C192.392 319.008 191.848 319.44 191.144 319.76C190.44 320.064 189.624 320.216 188.696 320.216ZM201.295 320.216C199.407 320.216 197.919 319.68 196.831 318.608C195.743 317.536 195.199 316.056 195.199 314.168C195.199 312.92 195.447 311.816 195.943 310.856C196.455 309.896 197.151 309.144 198.031 308.6C198.911 308.056 199.911 307.784 201.031 307.784C202.759 307.784 204.071 308.384 204.967 309.584C205.863 310.768 206.175 312.488 205.903 314.744H197.527C197.575 315.832 197.935 316.68 198.607 317.288C199.295 317.88 200.247 318.176 201.463 318.176C202.055 318.176 202.623 318.048 203.167 317.792C203.727 317.52 204.207 317.12 204.607 316.592L205.999 317.936C205.439 318.672 204.775 319.24 204.007 319.64C203.239 320.024 202.335 320.216 201.295 320.216ZM201.055 309.56C200.079 309.56 199.287 309.888 198.679 310.544C198.071 311.2 197.703 312.024 197.575 313.016H203.911C203.959 311.8 203.711 310.92 203.167 310.376C202.639 309.832 201.935 309.56 201.055 309.56ZM211.88 320.216C210.808 320.216 210 319.928 209.456 319.352C208.928 318.76 208.664 317.96 208.664 316.952V302.24H210.968V316.712C210.968 317.688 211.408 318.176 212.288 318.176C212.512 318.176 212.72 318.144 212.912 318.08C213.12 318.016 213.296 317.944 213.44 317.864L214.016 319.568C213.792 319.76 213.48 319.912 213.08 320.024C212.696 320.152 212.296 320.216 211.88 320.216ZM215.896 320V309.92H213.544V307.976H215.896V307.088C215.896 306.048 216.096 305.152 216.496 304.4C216.896 303.632 217.448 303.04 218.152 302.624C218.872 302.208 219.696 302 220.624 302C221.76 302 222.664 302.288 223.336 302.864C224.008 303.424 224.4 304.232 224.512 305.288L222.568 305.528C222.44 304.472 221.776 303.944 220.576 303.944C219.824 303.944 219.232 304.2 218.8 304.712C218.368 305.208 218.152 305.928 218.152 306.872V307.976H222.016V309.92H218.2V320H215.896ZM223.213 314.912V312.848H230.053V314.912H223.213ZM240.428 310.184C240.124 310.088 239.756 310.04 239.324 310.04C238.428 310.04 237.692 310.384 237.116 311.072C236.556 311.744 236.14 312.816 235.868 314.288C235.612 315.744 235.484 317.648 235.484 320H233.204V312.272L233.18 307.976H235.484L235.34 311.816C235.74 310.36 236.316 309.328 237.068 308.72C237.836 308.096 238.652 307.784 239.516 307.784C239.772 307.784 240.004 307.8 240.212 307.832C240.436 307.848 240.628 307.888 240.788 307.952L240.428 310.184ZM247.467 320.216C245.579 320.216 244.091 319.68 243.003 318.608C241.915 317.536 241.371 316.056 241.371 314.168C241.371 312.92 241.619 311.816 242.115 310.856C242.627 309.896 243.323 309.144 244.203 308.6C245.083 308.056 246.083 307.784 247.203 307.784C248.931 307.784 250.243 308.384 251.139 309.584C252.035 310.768 252.347 312.488 252.075 314.744H243.699C243.747 315.832 244.107 316.68 244.779 317.288C245.467 317.88 246.419 318.176 247.635 318.176C248.227 318.176 248.795 318.048 249.339 317.792C249.899 317.52 250.379 317.12 250.779 316.592L252.171 317.936C251.611 318.672 250.947 319.24 250.179 319.64C249.411 320.024 248.507 320.216 247.467 320.216ZM247.227 309.56C246.251 309.56 245.459 309.888 244.851 310.544C244.243 311.2 243.875 312.024 243.747 313.016H250.083C250.131 311.8 249.883 310.92 249.339 310.376C248.811 309.832 248.107 309.56 247.227 309.56ZM259.156 325.04C258.468 325.04 257.74 324.968 256.972 324.824C256.22 324.68 255.588 324.456 255.076 324.152L255.652 322.136C256.196 322.408 256.772 322.616 257.38 322.76C257.988 322.904 258.612 322.976 259.252 322.976C260.724 322.976 261.772 322.616 262.396 321.896C263.02 321.176 263.356 320.04 263.404 318.488L263.452 317.192C263.004 318.04 262.412 318.704 261.676 319.184C260.956 319.664 260.116 319.904 259.156 319.904C258.1 319.904 257.212 319.672 256.492 319.208C255.772 318.744 255.228 318.096 254.86 317.264C254.492 316.432 254.308 315.48 254.308 314.408C254.308 313.128 254.556 311.992 255.052 311C255.564 309.992 256.26 309.208 257.14 308.648C258.036 308.072 259.068 307.784 260.236 307.784C261.036 307.784 261.74 307.96 262.348 308.312C262.956 308.648 263.404 309.096 263.692 309.656L263.98 308H265.684V318.152C265.684 320.44 265.116 322.16 263.98 323.312C262.86 324.464 261.252 325.04 259.156 325.04ZM260.356 309.824C259.236 309.824 258.34 310.24 257.668 311.072C256.996 311.888 256.66 312.944 256.66 314.24C256.66 315.392 256.916 316.288 257.428 316.928C257.956 317.552 258.668 317.864 259.564 317.864C260.284 317.864 260.932 317.656 261.508 317.24C262.1 316.824 262.564 316.256 262.9 315.536C263.236 314.816 263.404 314 263.404 313.088C263.404 312.08 263.124 311.288 262.564 310.712C262.02 310.12 261.284 309.824 260.356 309.824ZM272.759 320.216C271.495 320.216 270.527 319.784 269.855 318.92C269.199 318.04 268.879 316.832 268.895 315.296L268.967 307.976H271.247L271.175 315.056C271.175 316 271.343 316.736 271.679 317.264C272.031 317.792 272.583 318.056 273.335 318.056C274.087 318.056 274.751 317.752 275.327 317.144C275.919 316.536 276.383 315.496 276.719 314.024C277.071 312.552 277.247 310.536 277.247 307.976H279.455V320H277.151L277.295 316.664C276.831 317.848 276.199 318.736 275.399 319.328C274.615 319.92 273.735 320.216 272.759 320.216ZM286.06 320.216C284.988 320.216 284.18 319.928 283.636 319.352C283.108 318.76 282.844 317.96 282.844 316.952V302.24H285.148V316.712C285.148 317.688 285.588 318.176 286.468 318.176C286.692 318.176 286.9 318.144 287.092 318.08C287.3 318.016 287.476 317.944 287.62 317.864L288.196 319.568C287.972 319.76 287.66 319.912 287.26 320.024C286.876 320.152 286.476 320.216 286.06 320.216ZM300.159 308V320H297.807L297.903 317.528C297.455 318.36 296.871 319.016 296.151 319.496C295.431 319.976 294.607 320.216 293.679 320.216C292.639 320.216 291.759 319.976 291.039 319.496C290.335 319 289.799 318.328 289.431 317.48C289.063 316.632 288.879 315.656 288.879 314.552C288.879 313.224 289.127 312.048 289.623 311.024C290.135 310 290.831 309.208 291.711 308.648C292.607 308.072 293.631 307.784 294.783 307.784C295.551 307.784 296.231 307.96 296.823 308.312C297.431 308.648 297.879 309.096 298.167 309.656L298.455 308H300.159ZM294.879 309.824C293.775 309.824 292.887 310.248 292.215 311.096C291.559 311.928 291.231 313.032 291.231 314.408C291.231 315.592 291.487 316.512 291.999 317.168C292.511 317.824 293.199 318.152 294.063 318.152C294.783 318.152 295.431 317.944 296.007 317.528C296.583 317.112 297.039 316.536 297.375 315.8C297.711 315.048 297.879 314.192 297.879 313.232C297.879 312.176 297.607 311.344 297.063 310.736C296.535 310.128 295.807 309.824 294.879 309.824ZM308.364 320.216C306.94 320.216 305.852 319.84 305.1 319.088C304.364 318.32 304.004 317.304 304.02 316.04L304.116 309.92H302.028V307.976H304.14L304.164 305.48H306.468L306.42 307.976H310.5V309.92H306.396L306.324 315.848C306.324 316.552 306.508 317.12 306.876 317.552C307.244 317.968 307.812 318.176 308.58 318.176C308.948 318.176 309.292 318.136 309.612 318.056C309.932 317.96 310.268 317.776 310.62 317.504L311.316 319.304C310.964 319.608 310.524 319.84 309.996 320C309.484 320.144 308.94 320.216 308.364 320.216ZM318.084 320.216C316.196 320.216 314.708 319.68 313.62 318.608C312.532 317.536 311.988 316.056 311.988 314.168C311.988 312.92 312.236 311.816 312.732 310.856C313.244 309.896 313.94 309.144 314.82 308.6C315.7 308.056 316.7 307.784 317.82 307.784C319.548 307.784 320.86 308.384 321.756 309.584C322.652 310.768 322.964 312.488 322.692 314.744H314.316C314.364 315.832 314.724 316.68 315.396 317.288C316.084 317.88 317.036 318.176 318.252 318.176C318.844 318.176 319.412 318.048 319.956 317.792C320.516 317.52 320.996 317.12 321.396 316.592L322.788 317.936C322.228 318.672 321.564 319.24 320.796 319.64C320.028 320.024 319.124 320.216 318.084 320.216ZM317.844 309.56C316.868 309.56 316.076 309.888 315.468 310.544C314.86 311.2 314.492 312.024 314.364 313.016H320.7C320.748 311.8 320.5 310.92 319.956 310.376C319.428 309.832 318.724 309.56 317.844 309.56ZM326.011 320.216C325.515 320.216 325.115 320.064 324.811 319.76C324.507 319.44 324.355 319.048 324.355 318.584C324.355 318.136 324.507 317.76 324.811 317.456C325.115 317.136 325.515 316.976 326.011 316.976C326.507 316.976 326.899 317.136 327.187 317.456C327.491 317.76 327.643 318.136 327.643 318.584C327.643 319.048 327.491 319.44 327.187 319.76C326.899 320.064 326.507 320.216 326.011 320.216Z" fill="#073404" fill-opacity="0.8"/>
<rect x="150" y="12" width="93" height="82" rx="41" fill="#EA0B44"/>
<rect x="157.5" y="19.5" width="78" height="67" rx="33.5" stroke="#F8FDF5" stroke-width="3" stroke-dasharray="6 6"/>
<path d="M197.795 66V60.155H187.05V56.34L199.3 41.08H203.15V55.78H206.65V60.155H203.15V66H197.795ZM192.65 55.78H197.795V49.305L192.65 55.78Z" fill="#F8FDF5"/>
</g>
<defs>
<filter id="filter0_ddd_978_15801" x="0" y="0" width="392" height="368" filterUnits="userSpaceOnUse" color-interpolation-filters="sRGB">
<feFlood flood-opacity="0" result="BackgroundImageFix"/>
<feColorMatrix in="SourceAlpha" type="matrix" values="0 0 0 0 0 0 0 0 0 0 0 0 0 0 0 0 0 0 127 0" result="hardAlpha"/>
<feOffset dx="2" dy="2"/>
<feGaussianBlur stdDeviation="5"/>
<feComposite in2="hardAlpha" operator="out"/>
<feColorMatrix type="matrix" values="0 0 0 0 0 0 0 0 0 0 0 0 0 0 0 0 0 0 0.1 0"/>
<feBlend mode="normal" in2="BackgroundImageFix" result="effect1_dropShadow_978_15801"/>
<feColorMatrix in="SourceAlpha" type="matrix" values="0 0 0 0 0 0 0 0 0 0 0 0 0 0 0 0 0 0 127 0" result="hardAlpha"/>
<feOffset dx="-2" dy="-2"/>
<feGaussianBlur stdDeviation="5"/>
<feComposite in2="hardAlpha" operator="out"/>
<feColorMatrix type="matrix" values="0 0 0 0 0 0 0 0 0 0 0 0 0 0 0 0 0 0 0.1 0"/>
<feBlend mode="normal" in2="effect1_dropShadow_978_15801" result="effect2_dropShadow_978_15801"/>
<feColorMatrix in="SourceAlpha" type="matrix" values="0 0 0 0 0 0 0 0 0 0 0 0 0 0 0 0 0 0 127 0" result="hardAlpha"/>
<feOffset dx="3" dy="3"/>
<feComposite in2="hardAlpha" operator="out"/>
<feColorMatrix type="matrix" values="0 0 0 0 0.917647 0 0 0 0 0.0431373 0 0 0 0 0.266667 0 0 0 1 0"/>
<feBlend mode="normal" in2="effect2_dropShadow_978_15801" result="effect3_dropShadow_978_15801"/>
<feBlend mode="normal" in="SourceGraphic" in2="effect3_dropShadow_978_15801" result="shape"/>
</filter>
</defs>
</svg>
