<svg width="392" height="368" viewBox="0 0 392 368" fill="none" xmlns="http://www.w3.org/2000/svg">
<g filter="url(#filter0_ddd_978_15808)">
<rect x="12" y="53" width="368" height="303" rx="8" fill="#AE956C" fill-opacity="0.09" shape-rendering="crispEdges"/>
<path d="M121.853 153.27C119.233 153.27 117.203 152.71 115.763 151.59C114.323 150.47 113.503 148.82 113.303 146.64L117.893 145.98C118.013 147.02 118.423 147.82 119.123 148.38C119.823 148.92 120.793 149.19 122.033 149.19C123.093 149.19 123.903 149.01 124.463 148.65C125.043 148.27 125.333 147.74 125.333 147.06C125.333 146.44 125.033 145.95 124.433 145.59C123.833 145.23 122.843 144.89 121.463 144.57C119.983 144.21 118.733 143.78 117.713 143.28C116.693 142.76 115.923 142.09 115.403 141.27C114.883 140.45 114.623 139.41 114.623 138.15C114.623 136.83 114.963 135.66 115.643 134.64C116.323 133.62 117.273 132.83 118.493 132.27C119.713 131.69 121.123 131.4 122.723 131.4C124.803 131.4 126.503 131.93 127.823 132.99C129.143 134.05 129.903 135.5 130.103 137.34L125.813 138.06C125.653 137.24 125.283 136.61 124.703 136.17C124.123 135.71 123.393 135.48 122.513 135.48C121.633 135.48 120.923 135.69 120.383 136.11C119.843 136.51 119.573 137.06 119.573 137.76C119.573 138.4 119.833 138.92 120.353 139.32C120.873 139.7 121.823 140.06 123.203 140.4C124.663 140.76 125.923 141.17 126.983 141.63C128.043 142.07 128.853 142.68 129.413 143.46C129.993 144.24 130.283 145.3 130.283 146.64C130.283 147.94 129.933 149.09 129.233 150.09C128.533 151.09 127.543 151.87 126.263 152.43C125.003 152.99 123.533 153.27 121.853 153.27ZM132.672 153V137.73H137.232L137.022 141C137.642 139.88 138.432 139.02 139.392 138.42C140.372 137.8 141.462 137.49 142.662 137.49C144.482 137.49 145.842 138.11 146.742 139.35C147.642 140.57 148.082 142.33 148.062 144.63L148.002 153H143.412L143.472 144.96C143.492 143.92 143.332 143.13 142.992 142.59C142.672 142.03 142.152 141.75 141.432 141.75C140.832 141.75 140.282 141.93 139.782 142.29C139.282 142.63 138.842 143.22 138.462 144.06C138.102 144.9 137.812 146.05 137.592 147.51C137.372 148.97 137.252 150.8 137.232 153H132.672ZM166.364 137.79V153H161.744L161.894 150.72C160.794 152.44 159.164 153.3 157.004 153.3C155.644 153.3 154.484 152.99 153.524 152.37C152.564 151.75 151.834 150.89 151.334 149.79C150.834 148.69 150.584 147.43 150.584 146.01C150.584 144.31 150.934 142.82 151.634 141.54C152.334 140.26 153.274 139.27 154.454 138.57C155.634 137.85 156.954 137.49 158.414 137.49C159.374 137.49 160.224 137.69 160.964 138.09C161.704 138.47 162.274 138.98 162.674 139.62L163.064 137.79H166.364ZM158.864 141.48C157.764 141.48 156.894 141.89 156.254 142.71C155.634 143.53 155.324 144.58 155.324 145.86C155.324 146.96 155.564 147.81 156.044 148.41C156.544 149.01 157.214 149.31 158.054 149.31C159.074 149.31 159.944 148.89 160.664 148.05C161.404 147.21 161.774 146.11 161.774 144.75C161.774 143.73 161.514 142.93 160.994 142.35C160.474 141.77 159.764 141.48 158.864 141.48ZM176.899 153.3C175.319 153.3 173.949 153 172.789 152.4C171.629 151.78 170.729 150.9 170.089 149.76C169.449 148.62 169.129 147.26 169.129 145.68C169.129 144.06 169.469 142.64 170.149 141.42C170.849 140.18 171.809 139.22 173.029 138.54C174.249 137.84 175.669 137.49 177.289 137.49C178.609 137.49 179.779 137.75 180.799 138.27C181.819 138.79 182.639 139.6 183.259 140.7L180.019 143.16C179.699 142.58 179.319 142.16 178.879 141.9C178.459 141.64 177.929 141.51 177.289 141.51C176.309 141.51 175.499 141.89 174.859 142.65C174.219 143.39 173.899 144.37 173.899 145.59C173.899 146.77 174.179 147.68 174.739 148.32C175.319 148.96 176.149 149.28 177.229 149.28C177.809 149.28 178.339 149.15 178.819 148.89C179.319 148.61 179.739 148.18 180.079 147.6L183.229 150.12C182.549 151.28 181.649 152.1 180.529 152.58C179.429 153.06 178.219 153.3 176.899 153.3ZM184.821 153V130.8H189.411V143.82L195.081 137.73H200.541L193.641 145.11C194.101 145.39 194.481 145.76 194.781 146.22L195.951 148.05C196.571 149.01 197.441 149.49 198.561 149.49C199.161 149.49 199.731 149.34 200.271 149.04L201.261 152.43C200.701 152.75 200.121 152.98 199.521 153.12C198.941 153.26 198.321 153.32 197.661 153.3C196.361 153.28 195.281 153.04 194.421 152.58C193.581 152.12 192.821 151.34 192.141 150.24L190.971 148.41C190.691 147.97 190.431 147.61 190.191 147.33C189.951 147.05 189.691 146.83 189.411 146.67V153H184.821ZM226.08 131.7L225.45 135.99H219V153H214.08V135.99H207.33V131.7H226.08ZM231.891 137.73V153H227.301V137.73H231.891ZM229.581 135.93C228.701 135.93 228.001 135.66 227.481 135.12C226.961 134.58 226.701 133.94 226.701 133.2C226.701 132.46 226.951 131.82 227.451 131.28C227.971 130.74 228.681 130.47 229.581 130.47C230.461 130.47 231.161 130.74 231.681 131.28C232.201 131.82 232.461 132.46 232.461 133.2C232.461 133.94 232.201 134.58 231.681 135.12C231.161 135.66 230.461 135.93 229.581 135.93ZM235.387 153V137.73H239.947L239.767 140.88C240.407 139.7 241.207 138.84 242.167 138.3C243.127 137.76 244.147 137.49 245.227 137.49C246.287 137.49 247.237 137.76 248.077 138.3C248.917 138.82 249.557 139.67 249.997 140.85C250.677 139.71 251.537 138.87 252.577 138.33C253.637 137.77 254.707 137.49 255.787 137.49C257.587 137.49 258.937 138.11 259.837 139.35C260.737 140.57 261.177 142.33 261.157 144.63L261.097 153H256.507L256.567 144.72C256.567 143.8 256.397 143.08 256.057 142.56C255.717 142.02 255.197 141.75 254.497 141.75C253.957 141.75 253.447 141.92 252.967 142.26C252.507 142.6 252.097 143.19 251.737 144.03C251.377 144.87 251.087 146.02 250.867 147.48C250.667 148.94 250.547 150.78 250.507 153H245.947V144.72C245.947 143.8 245.787 143.08 245.467 142.56C245.147 142.02 244.637 141.75 243.937 141.75C243.397 141.75 242.887 141.92 242.407 142.26C241.947 142.6 241.537 143.19 241.177 144.03C240.817 144.87 240.527 146.02 240.307 147.48C240.087 148.94 239.967 150.78 239.947 153H235.387ZM271.95 153.3C270.25 153.3 268.78 152.99 267.54 152.37C266.3 151.73 265.34 150.84 264.66 149.7C263.98 148.54 263.64 147.17 263.64 145.59C263.64 143.99 263.98 142.58 264.66 141.36C265.36 140.14 266.29 139.19 267.45 138.51C268.63 137.83 269.96 137.49 271.44 137.49C273.12 137.49 274.49 137.87 275.55 138.63C276.61 139.39 277.34 140.47 277.74 141.87C278.16 143.25 278.25 144.86 278.01 146.7H268.32C268.44 147.46 268.84 148.1 269.52 148.62C270.2 149.12 271.13 149.37 272.31 149.37C272.85 149.37 273.42 149.26 274.02 149.04C274.62 148.8 275.13 148.45 275.55 147.99L278.1 150.69C277.44 151.49 276.62 152.13 275.64 152.61C274.68 153.07 273.45 153.3 271.95 153.3ZM271.53 140.82C270.73 140.82 270.05 141.06 269.49 141.54C268.95 142.02 268.59 142.69 268.41 143.55H274.14C274.16 142.61 273.93 141.92 273.45 141.48C272.99 141.04 272.35 140.82 271.53 140.82Z" fill="#073404"/>
<path d="M32.048 200L39.224 182.96H41.288L48.176 200H45.704L44.048 195.752H36.248L34.52 200H32.048ZM37.088 193.688H43.256L40.232 185.936L37.088 193.688ZM67.5159 200V182.24H69.8199L69.8439 187.976L69.6759 191.504C70.1239 190.304 70.7559 189.384 71.5719 188.744C72.3879 188.104 73.3399 187.784 74.4279 187.784C75.7079 187.784 76.6839 188.232 77.3559 189.128C78.0279 190.008 78.3559 191.28 78.3399 192.944L78.2919 200H76.0119L76.0599 193.16C76.0759 191 75.3399 189.92 73.8519 189.92C73.0679 189.92 72.3719 190.224 71.7639 190.832C71.1719 191.44 70.6999 192.48 70.3479 193.952C69.9959 195.424 69.8119 197.44 69.7959 200H67.5159ZM87.123 200.216C85.235 200.216 83.747 199.68 82.659 198.608C81.571 197.536 81.027 196.056 81.027 194.168C81.027 192.92 81.275 191.816 81.771 190.856C82.283 189.896 82.979 189.144 83.859 188.6C84.739 188.056 85.739 187.784 86.859 187.784C88.587 187.784 89.899 188.384 90.795 189.584C91.691 190.768 92.003 192.488 91.731 194.744H83.355C83.403 195.832 83.763 196.68 84.435 197.288C85.123 197.88 86.075 198.176 87.291 198.176C87.883 198.176 88.451 198.048 88.995 197.792C89.555 197.52 90.035 197.12 90.435 196.592L91.827 197.936C91.267 198.672 90.603 199.24 89.835 199.64C89.067 200.024 88.163 200.216 87.123 200.216ZM86.883 189.56C85.907 189.56 85.115 189.888 84.507 190.544C83.899 191.2 83.531 192.024 83.403 193.016H89.739C89.787 191.8 89.539 190.92 88.995 190.376C88.467 189.832 87.763 189.56 86.883 189.56ZM105.245 188V200H102.893L102.989 197.528C102.541 198.36 101.957 199.016 101.237 199.496C100.517 199.976 99.6925 200.216 98.7645 200.216C97.7245 200.216 96.8445 199.976 96.1245 199.496C95.4205 199 94.8845 198.328 94.5165 197.48C94.1485 196.632 93.9645 195.656 93.9645 194.552C93.9645 193.224 94.2125 192.048 94.7085 191.024C95.2205 190 95.9165 189.208 96.7965 188.648C97.6925 188.072 98.7165 187.784 99.8685 187.784C100.637 187.784 101.317 187.96 101.909 188.312C102.517 188.648 102.965 189.096 103.253 189.656L103.541 188H105.245ZM99.9645 189.824C98.8605 189.824 97.9725 190.248 97.3005 191.096C96.6445 191.928 96.3165 193.032 96.3165 194.408C96.3165 195.592 96.5725 196.512 97.0845 197.168C97.5965 197.824 98.2845 198.152 99.1485 198.152C99.8685 198.152 100.517 197.944 101.093 197.528C101.669 197.112 102.125 196.536 102.461 195.8C102.797 195.048 102.965 194.192 102.965 193.232C102.965 192.176 102.693 191.344 102.149 190.736C101.621 190.128 100.893 189.824 99.9645 189.824ZM111.818 200.216C110.746 200.216 109.938 199.928 109.394 199.352C108.866 198.76 108.602 197.96 108.602 196.952V182.24H110.906V196.712C110.906 197.688 111.346 198.176 112.226 198.176C112.45 198.176 112.658 198.144 112.85 198.08C113.058 198.016 113.234 197.944 113.378 197.864L113.954 199.568C113.73 199.76 113.418 199.912 113.018 200.024C112.634 200.152 112.234 200.216 111.818 200.216ZM119.895 200.216C118.471 200.216 117.383 199.84 116.631 199.088C115.895 198.32 115.535 197.304 115.551 196.04L115.647 189.92H113.559V187.976H115.671L115.695 185.48H117.999L117.951 187.976H122.031V189.92H117.927L117.855 195.848C117.855 196.552 118.039 197.12 118.407 197.552C118.775 197.968 119.343 198.176 120.111 198.176C120.479 198.176 120.823 198.136 121.143 198.056C121.463 197.96 121.799 197.776 122.151 197.504L122.847 199.304C122.495 199.608 122.055 199.84 121.527 200C121.015 200.144 120.471 200.216 119.895 200.216ZM124.282 200V182.24H126.586L126.61 187.976L126.442 191.504C126.89 190.304 127.522 189.384 128.338 188.744C129.154 188.104 130.106 187.784 131.194 187.784C132.474 187.784 133.45 188.232 134.122 189.128C134.794 190.008 135.122 191.28 135.106 192.944L135.058 200H132.778L132.826 193.16C132.842 191 132.106 189.92 130.618 189.92C129.834 189.92 129.138 190.224 128.53 190.832C127.938 191.44 127.466 192.48 127.114 193.952C126.762 195.424 126.578 197.44 126.562 200H124.282ZM142.425 205.04C141.737 205.04 141.009 204.968 140.241 204.824C139.489 204.68 138.857 204.456 138.345 204.152L138.921 202.136C139.465 202.408 140.041 202.616 140.649 202.76C141.257 202.904 141.881 202.976 142.521 202.976C143.993 202.976 145.041 202.616 145.665 201.896C146.289 201.192 146.625 200.056 146.673 198.488L146.769 196.232C146.305 197.464 145.665 198.384 144.849 198.992C144.033 199.6 143.105 199.904 142.065 199.904C140.785 199.904 139.809 199.472 139.137 198.608C138.481 197.744 138.161 196.536 138.177 194.984L138.249 187.976H140.529L140.457 194.768C140.457 195.712 140.625 196.448 140.961 196.976C141.313 197.504 141.873 197.768 142.641 197.768C143.425 197.768 144.113 197.464 144.705 196.856C145.313 196.248 145.785 195.232 146.121 193.808C146.457 192.384 146.633 190.44 146.649 187.976H148.857V198.176C148.857 200.48 148.305 202.2 147.201 203.336C146.113 204.472 144.521 205.04 142.425 205.04ZM173.798 200.216C172.23 200.216 171.022 199.904 170.174 199.28C169.326 198.656 168.838 197.776 168.71 196.64L170.678 196.16C170.79 196.896 171.094 197.448 171.59 197.816C172.086 198.184 172.822 198.368 173.798 198.368C174.582 198.368 175.182 198.224 175.598 197.936C176.014 197.632 176.222 197.232 176.222 196.736C176.222 196.256 175.998 195.904 175.55 195.68C175.118 195.44 174.446 195.232 173.534 195.056C172.686 194.896 171.95 194.688 171.326 194.432C170.718 194.16 170.246 193.8 169.91 193.352C169.574 192.888 169.406 192.28 169.406 191.528C169.406 190.808 169.598 190.168 169.982 189.608C170.382 189.048 170.918 188.608 171.59 188.288C172.278 187.952 173.062 187.784 173.942 187.784C175.126 187.784 176.094 188.072 176.846 188.648C177.614 189.208 178.07 189.952 178.214 190.88L176.318 191.384C176.062 190.216 175.254 189.632 173.894 189.632C173.19 189.632 172.638 189.8 172.238 190.136C171.838 190.456 171.638 190.872 171.638 191.384C171.638 191.832 171.83 192.2 172.214 192.488C172.598 192.76 173.286 192.992 174.278 193.184C175.126 193.36 175.862 193.576 176.486 193.832C177.11 194.072 177.59 194.408 177.926 194.84C178.278 195.256 178.462 195.832 178.478 196.568C178.478 197.272 178.278 197.904 177.878 198.464C177.494 199.008 176.95 199.44 176.246 199.76C175.542 200.064 174.726 200.216 173.798 200.216ZM180.828 200V187.976H183.132L182.988 191.528C183.436 190.328 184.068 189.408 184.884 188.768C185.7 188.112 186.652 187.784 187.74 187.784C189.02 187.784 189.996 188.232 190.668 189.128C191.34 190.008 191.668 191.28 191.652 192.944L191.604 200H189.324L189.372 193.16C189.388 191 188.652 189.92 187.164 189.92C186.38 189.92 185.684 190.224 185.076 190.832C184.484 191.44 184.012 192.48 183.66 193.952C183.308 195.424 183.124 197.44 183.108 200H180.828ZM205.62 188V200H203.268L203.364 197.528C202.916 198.36 202.332 199.016 201.612 199.496C200.892 199.976 200.068 200.216 199.14 200.216C198.1 200.216 197.22 199.976 196.5 199.496C195.796 199 195.26 198.328 194.892 197.48C194.524 196.632 194.34 195.656 194.34 194.552C194.34 193.224 194.588 192.048 195.084 191.024C195.596 190 196.292 189.208 197.172 188.648C198.068 188.072 199.092 187.784 200.243 187.784C201.012 187.784 201.692 187.96 202.284 188.312C202.892 188.648 203.34 189.096 203.628 189.656L203.916 188H205.62ZM200.34 189.824C199.236 189.824 198.348 190.248 197.676 191.096C197.02 191.928 196.692 193.032 196.692 194.408C196.692 195.592 196.948 196.512 197.46 197.168C197.972 197.824 198.66 198.152 199.523 198.152C200.244 198.152 200.892 197.944 201.468 197.528C202.044 197.112 202.5 196.536 202.836 195.8C203.172 195.048 203.34 194.192 203.34 193.232C203.34 192.176 203.068 191.344 202.524 190.736C201.996 190.128 201.268 189.824 200.34 189.824ZM214.209 200.216C212.417 200.216 211.009 199.688 209.985 198.632C208.961 197.576 208.449 196.104 208.449 194.216C208.449 192.936 208.697 191.816 209.193 190.856C209.705 189.88 210.417 189.128 211.329 188.6C212.241 188.056 213.297 187.784 214.497 187.784C216.497 187.784 217.953 188.576 218.865 190.16L217.185 191.432C216.593 190.376 215.689 189.848 214.473 189.848C213.385 189.848 212.505 190.248 211.833 191.048C211.161 191.832 210.825 192.88 210.825 194.192C210.825 195.472 211.121 196.448 211.713 197.12C212.321 197.792 213.193 198.128 214.329 198.128C214.921 198.128 215.465 198 215.961 197.744C216.473 197.488 216.897 197.08 217.233 196.52L218.865 197.816C218.353 198.648 217.697 199.256 216.897 199.64C216.113 200.024 215.217 200.216 214.209 200.216ZM220.743 200V182.24H223.047V193.016L228.039 188H230.847L225.111 193.76C225.463 193.984 225.791 194.312 226.095 194.744L227.631 197C227.951 197.448 228.279 197.768 228.615 197.96C228.951 198.136 229.335 198.224 229.767 198.224C230.199 198.224 230.599 198.12 230.967 197.912L231.519 199.616C231.183 199.824 230.839 199.968 230.487 200.048C230.135 200.128 229.767 200.168 229.383 200.168C228.583 200.168 227.903 200.016 227.343 199.712C226.783 199.392 226.271 198.888 225.807 198.2L224.247 195.968C223.815 195.312 223.415 194.872 223.047 194.648V200H220.743ZM252.335 187.976V200H250.055V187.976H252.335ZM251.231 185.648C250.767 185.648 250.399 185.504 250.127 185.216C249.855 184.912 249.719 184.56 249.719 184.16C249.719 183.76 249.855 183.416 250.127 183.128C250.399 182.824 250.767 182.672 251.231 182.672C251.695 182.672 252.063 182.824 252.335 183.128C252.607 183.416 252.743 183.76 252.743 184.16C252.743 184.56 252.607 184.912 252.335 185.216C252.063 185.504 251.695 185.648 251.231 185.648ZM259.759 200.216C258.191 200.216 256.983 199.904 256.135 199.28C255.287 198.656 254.799 197.776 254.671 196.64L256.639 196.16C256.751 196.896 257.055 197.448 257.551 197.816C258.047 198.184 258.783 198.368 259.759 198.368C260.543 198.368 261.143 198.224 261.559 197.936C261.975 197.632 262.183 197.232 262.183 196.736C262.183 196.256 261.959 195.904 261.511 195.68C261.079 195.44 260.407 195.232 259.495 195.056C258.647 194.896 257.911 194.688 257.287 194.432C256.679 194.16 256.207 193.8 255.871 193.352C255.535 192.888 255.367 192.28 255.367 191.528C255.367 190.808 255.559 190.168 255.943 189.608C256.343 189.048 256.879 188.608 257.551 188.288C258.239 187.952 259.023 187.784 259.903 187.784C261.087 187.784 262.055 188.072 262.807 188.648C263.575 189.208 264.031 189.952 264.175 190.88L262.279 191.384C262.023 190.216 261.215 189.632 259.855 189.632C259.151 189.632 258.599 189.8 258.199 190.136C257.799 190.456 257.599 190.872 257.599 191.384C257.599 191.832 257.791 192.2 258.175 192.488C258.559 192.76 259.247 192.992 260.239 193.184C261.087 193.36 261.823 193.576 262.447 193.832C263.071 194.072 263.551 194.408 263.887 194.84C264.239 195.256 264.423 195.832 264.439 196.568C264.439 197.272 264.239 197.904 263.839 198.464C263.455 199.008 262.911 199.44 262.207 199.76C261.503 200.064 260.687 200.216 259.759 200.216ZM288.345 200.216C286.777 200.216 285.569 199.904 284.721 199.28C283.873 198.656 283.385 197.776 283.257 196.64L285.225 196.16C285.337 196.896 285.641 197.448 286.137 197.816C286.633 198.184 287.369 198.368 288.345 198.368C289.129 198.368 289.729 198.224 290.145 197.936C290.561 197.632 290.769 197.232 290.769 196.736C290.769 196.256 290.545 195.904 290.097 195.68C289.665 195.44 288.993 195.232 288.081 195.056C287.233 194.896 286.497 194.688 285.873 194.432C285.265 194.16 284.793 193.8 284.457 193.352C284.121 192.888 283.953 192.28 283.953 191.528C283.953 190.808 284.145 190.168 284.529 189.608C284.929 189.048 285.465 188.608 286.137 188.288C286.825 187.952 287.609 187.784 288.489 187.784C289.673 187.784 290.641 188.072 291.393 188.648C292.161 189.208 292.617 189.952 292.761 190.88L290.865 191.384C290.609 190.216 289.801 189.632 288.441 189.632C287.737 189.632 287.185 189.8 286.785 190.136C286.385 190.456 286.185 190.872 286.185 191.384C286.185 191.832 286.377 192.2 286.761 192.488C287.145 192.76 287.833 192.992 288.825 193.184C289.673 193.36 290.409 193.576 291.033 193.832C291.657 194.072 292.137 194.408 292.473 194.84C292.825 195.256 293.009 195.832 293.025 196.568C293.025 197.272 292.825 197.904 292.425 198.464C292.041 199.008 291.497 199.44 290.793 199.76C290.089 200.064 289.273 200.216 288.345 200.216ZM300.943 200.216C299.055 200.216 297.567 199.68 296.479 198.608C295.391 197.536 294.847 196.056 294.847 194.168C294.847 192.92 295.095 191.816 295.591 190.856C296.103 189.896 296.799 189.144 297.679 188.6C298.559 188.056 299.559 187.784 300.679 187.784C302.407 187.784 303.719 188.384 304.615 189.584C305.511 190.768 305.823 192.488 305.551 194.744H297.175C297.223 195.832 297.583 196.68 298.255 197.288C298.943 197.88 299.895 198.176 301.111 198.176C301.703 198.176 302.271 198.048 302.815 197.792C303.375 197.52 303.855 197.12 304.255 196.592L305.647 197.936C305.087 198.672 304.423 199.24 303.655 199.64C302.887 200.024 301.983 200.216 300.943 200.216ZM300.703 189.56C299.727 189.56 298.935 189.888 298.327 190.544C297.719 191.2 297.351 192.024 297.223 193.016H303.559C303.607 191.8 303.359 190.92 302.815 190.376C302.287 189.832 301.583 189.56 300.703 189.56ZM315.561 190.184C315.257 190.088 314.889 190.04 314.457 190.04C313.561 190.04 312.825 190.384 312.249 191.072C311.689 191.744 311.273 192.816 311.001 194.288C310.745 195.744 310.617 197.648 310.617 200H308.337V192.272L308.313 187.976H310.617L310.473 191.816C310.873 190.36 311.449 189.328 312.201 188.72C312.969 188.096 313.785 187.784 314.649 187.784C314.905 187.784 315.137 187.8 315.345 187.832C315.569 187.848 315.761 187.888 315.921 187.952L315.561 190.184ZM326.226 187.976H328.506L323.898 200H320.682L316.818 187.976H319.29L322.41 198.152L326.226 187.976ZM335.279 200.216C333.391 200.216 331.903 199.68 330.815 198.608C329.727 197.536 329.183 196.056 329.183 194.168C329.183 192.92 329.431 191.816 329.927 190.856C330.439 189.896 331.135 189.144 332.015 188.6C332.895 188.056 333.895 187.784 335.015 187.784C336.743 187.784 338.055 188.384 338.951 189.584C339.847 190.768 340.159 192.488 339.887 194.744H331.511C331.559 195.832 331.919 196.68 332.591 197.288C333.279 197.88 334.231 198.176 335.447 198.176C336.039 198.176 336.607 198.048 337.151 197.792C337.711 197.52 338.191 197.12 338.591 196.592L339.983 197.936C339.423 198.672 338.759 199.24 337.991 199.64C337.223 200.024 336.319 200.216 335.279 200.216ZM335.039 189.56C334.063 189.56 333.271 189.888 332.663 190.544C332.055 191.2 331.687 192.024 331.559 193.016H337.895C337.943 191.8 337.695 190.92 337.151 190.376C336.623 189.832 335.919 189.56 335.039 189.56ZM353.401 182.24V200H351.049L351.145 197.528C350.697 198.36 350.113 199.016 349.393 199.496C348.673 199.976 347.849 200.216 346.921 200.216C345.881 200.216 345.001 199.976 344.281 199.496C343.577 199 343.041 198.328 342.673 197.48C342.305 196.632 342.121 195.656 342.121 194.552C342.121 193.224 342.369 192.048 342.865 191.024C343.377 190 344.073 189.208 344.953 188.648C345.849 188.072 346.873 187.784 348.025 187.784C348.681 187.784 349.281 187.912 349.825 188.168C350.369 188.424 350.809 188.768 351.145 189.2L351.097 187.976V182.24H353.401ZM348.121 189.824C347.017 189.824 346.129 190.248 345.457 191.096C344.801 191.928 344.473 193.032 344.473 194.408C344.473 195.592 344.729 196.512 345.241 197.168C345.753 197.824 346.441 198.152 347.305 198.152C348.025 198.152 348.673 197.944 349.249 197.528C349.825 197.112 350.281 196.536 350.617 195.8C350.953 195.048 351.121 194.192 351.121 193.232C351.121 192.176 350.849 191.344 350.305 190.736C349.777 190.128 349.049 189.824 348.121 189.824ZM355.966 203.144C356.142 202.728 356.278 202.328 356.374 201.944C356.47 201.576 356.518 201.232 356.518 200.912C356.518 200.56 356.47 200.256 356.374 200C356.294 199.744 356.206 199.496 356.11 199.256C356.03 199 355.99 198.72 355.99 198.416C355.99 198 356.134 197.656 356.422 197.384C356.726 197.112 357.11 196.976 357.574 196.976C358.07 196.976 358.454 197.136 358.726 197.456C358.998 197.76 359.134 198.184 359.134 198.728C359.134 199.16 359.046 199.64 358.87 200.168C358.694 200.696 358.454 201.216 358.15 201.728C357.862 202.256 357.534 202.728 357.166 203.144H355.966ZM39.128 217.784C40.84 217.784 42.192 218.32 43.184 219.392C44.176 220.464 44.672 221.912 44.672 223.736C44.672 224.968 44.424 226.072 43.928 227.048C43.432 228.024 42.736 228.8 41.84 229.376C40.96 229.936 39.928 230.216 38.744 230.216C36.984 230.216 35.608 229.68 34.616 228.608C33.64 227.536 33.152 226.08 33.152 224.24C33.152 223.008 33.392 221.904 33.872 220.928C34.368 219.952 35.064 219.184 35.96 218.624C36.856 218.064 37.912 217.784 39.128 217.784ZM38.768 228.152C39.824 228.152 40.672 227.752 41.312 226.952C41.968 226.136 42.296 225.064 42.296 223.736C42.296 222.488 42.008 221.528 41.432 220.856C40.872 220.168 40.096 219.824 39.104 219.824C38.016 219.824 37.144 220.232 36.488 221.048C35.832 221.864 35.504 222.928 35.504 224.24C35.504 225.488 35.792 226.456 36.368 227.144C36.944 227.816 37.744 228.152 38.768 228.152ZM48.0367 230V219.92H45.6847V217.976H48.0367V217.088C48.0367 216.048 48.2367 215.152 48.6367 214.4C49.0367 213.632 49.5887 213.04 50.2927 212.624C51.0127 212.208 51.8367 212 52.7647 212C54.8927 212 56.1567 212.912 56.5567 214.736C56.9247 213.872 57.4767 213.2 58.2127 212.72C58.9647 212.24 59.8367 212 60.8287 212C61.9647 212 62.8687 212.288 63.5407 212.864C64.2127 213.424 64.5967 214.232 64.6927 215.288L62.7727 215.528C62.7247 215.048 62.5247 214.664 62.1727 214.376C61.8207 214.088 61.3567 213.944 60.7807 213.944C60.0287 213.944 59.4367 214.208 59.0047 214.736C58.5727 215.248 58.3567 216.016 58.3567 217.04V217.976H62.2207V219.92H58.4047V230H56.1007V219.92H53.5807V217.976H56.1007V217.256C56.1007 216.568 56.1887 215.928 56.3647 215.336L54.7087 215.528C54.5807 214.472 53.9167 213.944 52.7167 213.944C51.9647 213.944 51.3727 214.2 50.9407 214.712C50.5087 215.208 50.2927 215.928 50.2927 216.872V217.976H52.8607V219.92H50.3407V230H48.0367ZM68.7089 230.216C66.8209 230.216 65.3329 229.68 64.2449 228.608C63.1569 227.536 62.6129 226.056 62.6129 224.168C62.6129 222.92 62.8609 221.816 63.3569 220.856C63.8689 219.896 64.5649 219.144 65.4449 218.6C66.3249 218.056 67.3249 217.784 68.4449 217.784C70.1729 217.784 71.4849 218.384 72.3809 219.584C73.2769 220.768 73.5889 222.488 73.3169 224.744H64.9409C64.9889 225.832 65.3489 226.68 66.0209 227.288C66.7089 227.88 67.6609 228.176 68.8769 228.176C69.4689 228.176 70.0369 228.048 70.5809 227.792C71.1409 227.52 71.6209 227.12 72.0209 226.592L73.4129 227.936C72.8529 228.672 72.1889 229.24 71.4209 229.64C70.6529 230.024 69.7489 230.216 68.7089 230.216ZM68.4689 219.56C67.4929 219.56 66.7009 219.888 66.0929 220.544C65.4849 221.2 65.1169 222.024 64.9889 223.016H71.3249C71.3729 221.8 71.1249 220.92 70.5809 220.376C70.0529 219.832 69.3489 219.56 68.4689 219.56ZM83.3264 220.184C83.0224 220.088 82.6544 220.04 82.2224 220.04C81.3264 220.04 80.5904 220.384 80.0144 221.072C79.4544 221.744 79.0384 222.816 78.7664 224.288C78.5104 225.744 78.3824 227.648 78.3824 230H76.1024V222.272L76.0784 217.976H78.3824L78.2384 221.816C78.6384 220.36 79.2144 219.328 79.9664 218.72C80.7344 218.096 81.5504 217.784 82.4144 217.784C82.6704 217.784 82.9024 217.8 83.1104 217.832C83.3344 217.848 83.5264 217.888 83.6864 217.952L83.3264 220.184ZM87.7334 217.976V230H85.4534V217.976H87.7334ZM86.6294 215.648C86.1654 215.648 85.7974 215.504 85.5254 215.216C85.2534 214.912 85.1174 214.56 85.1174 214.16C85.1174 213.76 85.2534 213.416 85.5254 213.128C85.7974 212.824 86.1654 212.672 86.6294 212.672C87.0934 212.672 87.4614 212.824 87.7334 213.128C88.0054 213.416 88.1414 213.76 88.1414 214.16C88.1414 214.56 88.0054 214.912 87.7334 215.216C87.4614 215.504 87.0934 215.648 86.6294 215.648ZM91.1253 230V217.976H93.4293L93.2853 221.528C93.7333 220.328 94.3653 219.408 95.1813 218.768C95.9973 218.112 96.9493 217.784 98.0373 217.784C99.3173 217.784 100.293 218.232 100.965 219.128C101.637 220.008 101.965 221.28 101.949 222.944L101.901 230H99.6213L99.6693 223.16C99.6853 221 98.9493 219.92 97.4613 219.92C96.6773 219.92 95.9813 220.224 95.3733 220.832C94.7813 221.44 94.3093 222.48 93.9573 223.952C93.6053 225.424 93.4213 227.44 93.4053 230H91.1253ZM109.484 235.04C108.796 235.04 108.068 234.968 107.3 234.824C106.548 234.68 105.916 234.456 105.404 234.152L105.98 232.136C106.524 232.408 107.1 232.616 107.708 232.76C108.316 232.904 108.94 232.976 109.58 232.976C111.052 232.976 112.1 232.616 112.724 231.896C113.348 231.176 113.684 230.04 113.732 228.488L113.78 227.192C113.332 228.04 112.74 228.704 112.004 229.184C111.284 229.664 110.444 229.904 109.484 229.904C108.428 229.904 107.54 229.672 106.82 229.208C106.1 228.744 105.556 228.096 105.188 227.264C104.82 226.432 104.636 225.48 104.636 224.408C104.636 223.128 104.884 221.992 105.38 221C105.892 219.992 106.588 219.208 107.468 218.648C108.364 218.072 109.396 217.784 110.564 217.784C111.364 217.784 112.068 217.96 112.676 218.312C113.284 218.648 113.732 219.096 114.02 219.656L114.308 218H116.012V228.152C116.012 230.44 115.444 232.16 114.308 233.312C113.188 234.464 111.58 235.04 109.484 235.04ZM110.684 219.824C109.564 219.824 108.668 220.24 107.996 221.072C107.324 221.888 106.988 222.944 106.988 224.24C106.988 225.392 107.244 226.288 107.756 226.928C108.284 227.552 108.996 227.864 109.892 227.864C110.612 227.864 111.26 227.656 111.836 227.24C112.428 226.824 112.892 226.256 113.228 225.536C113.564 224.816 113.732 224 113.732 223.088C113.732 222.08 113.452 221.288 112.892 220.712C112.348 220.12 111.612 219.824 110.684 219.824ZM175.367 218V230H173.015L173.111 227.528C172.663 228.36 172.079 229.016 171.359 229.496C170.639 229.976 169.815 230.216 168.887 230.216C167.847 230.216 166.967 229.976 166.247 229.496C165.543 229 165.007 228.328 164.639 227.48C164.271 226.632 164.087 225.656 164.087 224.552C164.087 223.224 164.335 222.048 164.831 221.024C165.343 220 166.039 219.208 166.919 218.648C167.815 218.072 168.839 217.784 169.991 217.784C170.759 217.784 171.439 217.96 172.031 218.312C172.639 218.648 173.087 219.096 173.375 219.656L173.663 218H175.367ZM170.087 219.824C168.983 219.824 168.095 220.248 167.423 221.096C166.767 221.928 166.439 223.032 166.439 224.408C166.439 225.592 166.695 226.512 167.207 227.168C167.719 227.824 168.407 228.152 169.271 228.152C169.991 228.152 170.639 227.944 171.215 227.528C171.791 227.112 172.247 226.536 172.583 225.8C172.919 225.048 173.087 224.192 173.087 223.232C173.087 222.176 172.815 221.344 172.271 220.736C171.743 220.128 171.015 219.824 170.087 219.824ZM223.972 230V212.24H226.276V217.976L226.18 220.52C226.628 219.656 227.212 218.984 227.932 218.504C228.652 218.024 229.492 217.784 230.452 217.784C231.492 217.784 232.364 218.024 233.068 218.504C233.788 218.984 234.332 219.648 234.7 220.496C235.068 221.344 235.252 222.32 235.252 223.424C235.252 224.768 234.996 225.952 234.484 226.976C233.988 227.984 233.292 228.776 232.396 229.352C231.516 229.928 230.508 230.216 229.372 230.216C228.588 230.216 227.892 230.04 227.284 229.688C226.676 229.336 226.236 228.872 225.964 228.296L225.676 230H223.972ZM229.252 228.152C230.356 228.152 231.236 227.728 231.892 226.88C232.564 226.032 232.9 224.92 232.9 223.544C232.9 222.376 232.644 221.464 232.132 220.808C231.62 220.152 230.932 219.824 230.068 219.824C229.348 219.824 228.7 220.032 228.124 220.448C227.548 220.864 227.092 221.44 226.756 222.176C226.42 222.912 226.252 223.76 226.252 224.72C226.252 225.792 226.516 226.632 227.044 227.24C227.588 227.848 228.324 228.152 229.252 228.152ZM245.329 220.184C245.025 220.088 244.657 220.04 244.225 220.04C243.329 220.04 242.593 220.384 242.017 221.072C241.457 221.744 241.041 222.816 240.769 224.288C240.513 225.744 240.385 227.648 240.385 230H238.105V222.272L238.081 217.976H240.385L240.241 221.816C240.641 220.36 241.217 219.328 241.969 218.72C242.737 218.096 243.553 217.784 244.417 217.784C244.673 217.784 244.905 217.8 245.113 217.832C245.337 217.848 245.529 217.888 245.689 217.952L245.329 220.184ZM252.368 230.216C250.48 230.216 248.992 229.68 247.904 228.608C246.816 227.536 246.272 226.056 246.272 224.168C246.272 222.92 246.52 221.816 247.016 220.856C247.528 219.896 248.224 219.144 249.104 218.6C249.984 218.056 250.984 217.784 252.104 217.784C253.832 217.784 255.144 218.384 256.04 219.584C256.936 220.768 257.248 222.488 256.976 224.744H248.6C248.648 225.832 249.008 226.68 249.68 227.288C250.368 227.88 251.32 228.176 252.536 228.176C253.128 228.176 253.696 228.048 254.24 227.792C254.8 227.52 255.28 227.12 255.68 226.592L257.072 227.936C256.512 228.672 255.848 229.24 255.08 229.64C254.312 230.024 253.408 230.216 252.368 230.216ZM252.128 219.56C251.152 219.56 250.36 219.888 249.752 220.544C249.144 221.2 248.776 222.024 248.648 223.016H254.984C255.032 221.8 254.784 220.92 254.24 220.376C253.712 219.832 253.008 219.56 252.128 219.56ZM270.489 218V230H268.137L268.233 227.528C267.785 228.36 267.201 229.016 266.481 229.496C265.761 229.976 264.937 230.216 264.009 230.216C262.969 230.216 262.089 229.976 261.369 229.496C260.665 229 260.129 228.328 259.761 227.48C259.393 226.632 259.209 225.656 259.209 224.552C259.209 223.224 259.457 222.048 259.953 221.024C260.465 220 261.161 219.208 262.041 218.648C262.937 218.072 263.961 217.784 265.113 217.784C265.881 217.784 266.561 217.96 267.153 218.312C267.761 218.648 268.209 219.096 268.497 219.656L268.785 218H270.489ZM265.209 219.824C264.105 219.824 263.217 220.248 262.545 221.096C261.889 221.928 261.561 223.032 261.561 224.408C261.561 225.592 261.817 226.512 262.329 227.168C262.841 227.824 263.529 228.152 264.393 228.152C265.113 228.152 265.761 227.944 266.337 227.528C266.913 227.112 267.369 226.536 267.705 225.8C268.041 225.048 268.209 224.192 268.209 223.232C268.209 222.176 267.937 221.344 267.393 220.736C266.865 220.128 266.137 219.824 265.209 219.824ZM273.847 230V212.24H276.151V223.016L281.143 218H283.951L278.215 223.76C278.567 223.984 278.895 224.312 279.199 224.744L280.735 227C281.055 227.448 281.383 227.768 281.719 227.96C282.055 228.136 282.439 228.224 282.871 228.224C283.303 228.224 283.703 228.12 284.071 227.912L284.623 229.616C284.287 229.824 283.943 229.968 283.591 230.048C283.239 230.128 282.871 230.168 282.487 230.168C281.687 230.168 281.007 230.016 280.447 229.712C279.887 229.392 279.375 228.888 278.911 228.2L277.351 225.968C276.919 225.312 276.519 224.872 276.151 224.648V230H273.847ZM331.435 230V219.92H329.083V217.976H331.435V217.088C331.435 216.048 331.635 215.152 332.035 214.4C332.435 213.632 332.987 213.04 333.691 212.624C334.411 212.208 335.235 212 336.163 212C337.299 212 338.203 212.288 338.875 212.864C339.547 213.424 339.939 214.232 340.051 215.288L338.107 215.528C337.979 214.472 337.315 213.944 336.115 213.944C335.363 213.944 334.771 214.2 334.339 214.712C333.907 215.208 333.691 215.928 333.691 216.872V217.976H337.555V219.92H333.739V230H331.435ZM343.948 217.784C345.66 217.784 347.012 218.32 348.004 219.392C348.996 220.464 349.492 221.912 349.492 223.736C349.492 224.968 349.244 226.072 348.748 227.048C348.252 228.024 347.556 228.8 346.66 229.376C345.78 229.936 344.748 230.216 343.564 230.216C341.804 230.216 340.428 229.68 339.436 228.608C338.46 227.536 337.972 226.08 337.972 224.24C337.972 223.008 338.212 221.904 338.692 220.928C339.188 219.952 339.884 219.184 340.78 218.624C341.676 218.064 342.732 217.784 343.948 217.784ZM343.588 228.152C344.644 228.152 345.492 227.752 346.132 226.952C346.788 226.136 347.116 225.064 347.116 223.736C347.116 222.488 346.828 221.528 346.252 220.856C345.692 220.168 344.916 219.824 343.924 219.824C342.836 219.824 341.964 220.232 341.308 221.048C340.652 221.864 340.324 222.928 340.324 224.24C340.324 225.488 340.612 226.456 341.188 227.144C341.764 227.816 342.564 228.152 343.588 228.152ZM359.553 220.184C359.249 220.088 358.881 220.04 358.449 220.04C357.553 220.04 356.817 220.384 356.241 221.072C355.681 221.744 355.265 222.816 354.993 224.288C354.737 225.744 354.609 227.648 354.609 230H352.329V222.272L352.305 217.976H354.609L354.465 221.816C354.865 220.36 355.441 219.328 356.193 218.72C356.961 218.096 357.777 217.784 358.641 217.784C358.897 217.784 359.129 217.8 359.337 217.832C359.561 217.848 359.753 217.888 359.913 217.952L359.553 220.184ZM33.68 260V247.976H35.984L35.84 251.528C36.288 250.328 36.92 249.408 37.736 248.768C38.552 248.112 39.504 247.784 40.592 247.784C41.872 247.784 42.848 248.232 43.52 249.128C44.192 250.008 44.52 251.28 44.504 252.944L44.456 260H42.176L42.224 253.16C42.24 251 41.504 249.92 40.016 249.92C39.232 249.92 38.536 250.224 37.928 250.832C37.336 251.44 36.864 252.48 36.512 253.952C36.16 255.424 35.976 257.44 35.96 260H33.68ZM53.1671 247.784C54.8791 247.784 56.2311 248.32 57.2231 249.392C58.2151 250.464 58.7111 251.912 58.7111 253.736C58.7111 254.968 58.4631 256.072 57.9671 257.048C57.4711 258.024 56.7751 258.8 55.8791 259.376C54.9991 259.936 53.9671 260.216 52.7831 260.216C51.0231 260.216 49.6471 259.68 48.6551 258.608C47.6791 257.536 47.1911 256.08 47.1911 254.24C47.1911 253.008 47.4311 251.904 47.9111 250.928C48.4071 249.952 49.1031 249.184 49.9991 248.624C50.8951 248.064 51.9511 247.784 53.1671 247.784ZM52.8071 258.152C53.8631 258.152 54.7111 257.752 55.3511 256.952C56.0071 256.136 56.3351 255.064 56.3351 253.736C56.3351 252.488 56.0471 251.528 55.4711 250.856C54.9111 250.168 54.1351 249.824 53.1431 249.824C52.0551 249.824 51.1831 250.232 50.5271 251.048C49.8711 251.864 49.5431 252.928 49.5431 254.24C49.5431 255.488 49.8311 256.456 50.4071 257.144C50.9831 257.816 51.7831 258.152 52.8071 258.152ZM65.2438 260.216C63.9798 260.216 63.0118 259.784 62.3398 258.92C61.6838 258.04 61.3638 256.832 61.3798 255.296L61.4518 247.976H63.7318L63.6598 255.056C63.6598 256 63.8278 256.736 64.1638 257.264C64.5158 257.792 65.0678 258.056 65.8198 258.056C66.5718 258.056 67.2358 257.752 67.8118 257.144C68.4038 256.536 68.8678 255.496 69.2038 254.024C69.5558 252.552 69.7318 250.536 69.7318 247.976H71.9398V260H69.6358L69.7798 256.664C69.3158 257.848 68.6838 258.736 67.8838 259.328C67.0998 259.92 66.2198 260.216 65.2438 260.216ZM82.5764 250.184C82.2724 250.088 81.9044 250.04 81.4724 250.04C80.5764 250.04 79.8404 250.384 79.2644 251.072C78.7044 251.744 78.2884 252.816 78.0164 254.288C77.7604 255.744 77.6324 257.648 77.6324 260H75.3524V252.272L75.3284 247.976H77.6324L77.4884 251.816C77.8884 250.36 78.4644 249.328 79.2164 248.72C79.9844 248.096 80.8004 247.784 81.6644 247.784C81.9204 247.784 82.1524 247.8 82.3604 247.832C82.5844 247.848 82.7764 247.888 82.9364 247.952L82.5764 250.184ZM86.9834 247.976V260H84.7034V247.976H86.9834ZM85.8794 245.648C85.4154 245.648 85.0474 245.504 84.7754 245.216C84.5034 244.912 84.3674 244.56 84.3674 244.16C84.3674 243.76 84.5034 243.416 84.7754 243.128C85.0474 242.824 85.4154 242.672 85.8794 242.672C86.3434 242.672 86.7114 242.824 86.9834 243.128C87.2554 243.416 87.3914 243.76 87.3914 244.16C87.3914 244.56 87.2554 244.912 86.9834 245.216C86.7114 245.504 86.3434 245.648 85.8794 245.648ZM94.4073 260.216C92.8393 260.216 91.6313 259.904 90.7833 259.28C89.9353 258.656 89.4473 257.776 89.3193 256.64L91.2873 256.16C91.3993 256.896 91.7033 257.448 92.1993 257.816C92.6953 258.184 93.4313 258.368 94.4073 258.368C95.1913 258.368 95.7913 258.224 96.2073 257.936C96.6233 257.632 96.8313 257.232 96.8313 256.736C96.8313 256.256 96.6073 255.904 96.1593 255.68C95.7273 255.44 95.0553 255.232 94.1433 255.056C93.2953 254.896 92.5593 254.688 91.9353 254.432C91.3273 254.16 90.8553 253.8 90.5193 253.352C90.1833 252.888 90.0153 252.28 90.0153 251.528C90.0153 250.808 90.2073 250.168 90.5913 249.608C90.9913 249.048 91.5273 248.608 92.1993 248.288C92.8873 247.952 93.6713 247.784 94.5513 247.784C95.7353 247.784 96.7033 248.072 97.4553 248.648C98.2233 249.208 98.6793 249.952 98.8233 250.88L96.9273 251.384C96.6713 250.216 95.8633 249.632 94.5033 249.632C93.7993 249.632 93.2473 249.8 92.8473 250.136C92.4473 250.456 92.2473 250.872 92.2473 251.384C92.2473 251.832 92.4393 252.2 92.8233 252.488C93.2073 252.76 93.8953 252.992 94.8873 253.184C95.7353 253.36 96.4713 253.576 97.0953 253.832C97.7193 254.072 98.1993 254.408 98.5353 254.84C98.8873 255.256 99.0713 255.832 99.0873 256.568C99.0873 257.272 98.8873 257.904 98.4873 258.464C98.1033 259.008 97.5593 259.44 96.8553 259.76C96.1513 260.064 95.3353 260.216 94.4073 260.216ZM101.438 260V242.24H103.742L103.766 247.976L103.598 251.504C104.046 250.304 104.678 249.384 105.494 248.744C106.31 248.104 107.262 247.784 108.35 247.784C109.63 247.784 110.606 248.232 111.278 249.128C111.95 250.008 112.278 251.28 112.262 252.944L112.214 260H109.934L109.982 253.16C109.998 251 109.262 249.92 107.774 249.92C106.99 249.92 106.294 250.224 105.686 250.832C105.094 251.44 104.622 252.48 104.27 253.952C103.918 255.424 103.734 257.44 103.718 260H101.438ZM115.477 260V247.976H117.781L117.637 251.504C118.101 250.224 118.741 249.288 119.557 248.696C120.373 248.088 121.253 247.784 122.197 247.784C123.173 247.784 123.981 248.064 124.621 248.624C125.277 249.168 125.717 250 125.941 251.12C126.421 250 127.077 249.168 127.909 248.624C128.757 248.064 129.645 247.784 130.573 247.784C131.853 247.784 132.829 248.232 133.501 249.128C134.173 250.008 134.501 251.28 134.485 252.944L134.437 260H132.133L132.181 253.112C132.197 252.072 132.021 251.28 131.653 250.736C131.301 250.192 130.741 249.92 129.973 249.92C129.477 249.92 128.997 250.08 128.533 250.4C128.069 250.72 127.653 251.256 127.285 252.008C126.933 252.76 126.645 253.792 126.421 255.104C126.213 256.4 126.101 258.032 126.085 260H123.829V253.112C123.829 252.072 123.653 251.28 123.301 250.736C122.965 250.192 122.421 249.92 121.669 249.92C121.157 249.92 120.669 250.08 120.205 250.4C119.741 250.72 119.325 251.256 118.957 252.008C118.589 252.76 118.301 253.792 118.093 255.104C117.885 256.4 117.773 258.032 117.757 260H115.477ZM143.264 260.216C141.376 260.216 139.888 259.68 138.8 258.608C137.712 257.536 137.168 256.056 137.168 254.168C137.168 252.92 137.416 251.816 137.912 250.856C138.424 249.896 139.12 249.144 140 248.6C140.88 248.056 141.88 247.784 143 247.784C144.728 247.784 146.04 248.384 146.936 249.584C147.832 250.768 148.144 252.488 147.872 254.744H139.496C139.544 255.832 139.904 256.68 140.576 257.288C141.264 257.88 142.216 258.176 143.432 258.176C144.024 258.176 144.592 258.048 145.136 257.792C145.696 257.52 146.176 257.12 146.576 256.592L147.968 257.936C147.408 258.672 146.744 259.24 145.976 259.64C145.208 260.024 144.304 260.216 143.264 260.216ZM143.024 249.56C142.048 249.56 141.256 249.888 140.648 250.544C140.04 251.2 139.672 252.024 139.544 253.016H145.88C145.928 251.8 145.68 250.92 145.136 250.376C144.608 249.832 143.904 249.56 143.024 249.56ZM150.633 260V247.976H152.937L152.793 251.528C153.241 250.328 153.873 249.408 154.689 248.768C155.505 248.112 156.457 247.784 157.545 247.784C158.825 247.784 159.801 248.232 160.473 249.128C161.145 250.008 161.473 251.28 161.457 252.944L161.409 260H159.129L159.177 253.16C159.193 251 158.457 249.92 156.969 249.92C156.185 249.92 155.489 250.224 154.881 250.832C154.289 251.44 153.817 252.48 153.465 253.952C153.113 255.424 152.929 257.44 152.913 260H150.633ZM169.52 260.216C168.096 260.216 167.008 259.84 166.256 259.088C165.52 258.32 165.16 257.304 165.176 256.04L165.272 249.92H163.184V247.976H165.296L165.32 245.48H167.624L167.576 247.976H171.656V249.92H167.552L167.48 255.848C167.48 256.552 167.664 257.12 168.032 257.552C168.4 257.968 168.968 258.176 169.736 258.176C170.104 258.176 170.448 258.136 170.768 258.056C171.088 257.96 171.424 257.776 171.776 257.504L172.472 259.304C172.12 259.608 171.68 259.84 171.152 260C170.64 260.144 170.096 260.216 169.52 260.216ZM200.604 248V260H198.252L198.348 257.528C197.9 258.36 197.316 259.016 196.596 259.496C195.876 259.976 195.052 260.216 194.124 260.216C193.084 260.216 192.204 259.976 191.484 259.496C190.78 259 190.244 258.328 189.876 257.48C189.508 256.632 189.324 255.656 189.324 254.552C189.324 253.224 189.572 252.048 190.068 251.024C190.58 250 191.276 249.208 192.156 248.648C193.052 248.072 194.076 247.784 195.228 247.784C195.996 247.784 196.676 247.96 197.268 248.312C197.876 248.648 198.324 249.096 198.612 249.656L198.9 248H200.604ZM195.324 249.824C194.22 249.824 193.332 250.248 192.66 251.096C192.004 251.928 191.676 253.032 191.676 254.408C191.676 255.592 191.932 256.512 192.444 257.168C192.956 257.824 193.644 258.152 194.508 258.152C195.228 258.152 195.876 257.944 196.452 257.528C197.028 257.112 197.484 256.536 197.82 255.8C198.156 255.048 198.324 254.192 198.324 253.232C198.324 252.176 198.052 251.344 197.508 250.736C196.98 250.128 196.252 249.824 195.324 249.824ZM203.961 260V247.976H206.265L206.121 251.528C206.569 250.328 207.201 249.408 208.017 248.768C208.833 248.112 209.785 247.784 210.873 247.784C212.153 247.784 213.129 248.232 213.801 249.128C214.473 250.008 214.801 251.28 214.785 252.944L214.737 260H212.457L212.505 253.16C212.521 251 211.785 249.92 210.297 249.92C209.513 249.92 208.817 250.224 208.209 250.832C207.617 251.44 207.145 252.48 206.793 253.952C206.441 255.424 206.257 257.44 206.241 260H203.961ZM228.752 242.24V260H226.4L226.496 257.528C226.048 258.36 225.464 259.016 224.744 259.496C224.024 259.976 223.2 260.216 222.272 260.216C221.232 260.216 220.352 259.976 219.632 259.496C218.928 259 218.392 258.328 218.024 257.48C217.656 256.632 217.472 255.656 217.472 254.552C217.472 253.224 217.72 252.048 218.216 251.024C218.728 250 219.424 249.208 220.304 248.648C221.2 248.072 222.224 247.784 223.376 247.784C224.032 247.784 224.632 247.912 225.176 248.168C225.72 248.424 226.16 248.768 226.496 249.2L226.448 247.976V242.24H228.752ZM223.472 249.824C222.368 249.824 221.48 250.248 220.808 251.096C220.152 251.928 219.824 253.032 219.824 254.408C219.824 255.592 220.08 256.512 220.592 257.168C221.104 257.824 221.792 258.152 222.656 258.152C223.376 258.152 224.024 257.944 224.6 257.528C225.176 257.112 225.632 256.536 225.968 255.8C226.304 255.048 226.472 254.192 226.472 253.232C226.472 252.176 226.2 251.344 225.656 250.736C225.128 250.128 224.4 249.824 223.472 249.824ZM252.087 260.216C250.519 260.216 249.311 259.904 248.463 259.28C247.615 258.656 247.127 257.776 246.999 256.64L248.967 256.16C249.079 256.896 249.383 257.448 249.879 257.816C250.375 258.184 251.111 258.368 252.087 258.368C252.871 258.368 253.471 258.224 253.887 257.936C254.303 257.632 254.511 257.232 254.511 256.736C254.511 256.256 254.287 255.904 253.839 255.68C253.407 255.44 252.735 255.232 251.823 255.056C250.975 254.896 250.239 254.688 249.615 254.432C249.007 254.16 248.535 253.8 248.199 253.352C247.863 252.888 247.695 252.28 247.695 251.528C247.695 250.808 247.887 250.168 248.271 249.608C248.671 249.048 249.207 248.608 249.879 248.288C250.567 247.952 251.351 247.784 252.231 247.784C253.415 247.784 254.383 248.072 255.135 248.648C255.903 249.208 256.359 249.952 256.503 250.88L254.607 251.384C254.351 250.216 253.543 249.632 252.183 249.632C251.479 249.632 250.927 249.8 250.527 250.136C250.127 250.456 249.927 250.872 249.927 251.384C249.927 251.832 250.119 252.2 250.503 252.488C250.887 252.76 251.575 252.992 252.567 253.184C253.415 253.36 254.151 253.576 254.775 253.832C255.399 254.072 255.879 254.408 256.215 254.84C256.567 255.256 256.751 255.832 256.767 256.568C256.767 257.272 256.567 257.904 256.167 258.464C255.783 259.008 255.239 259.44 254.535 259.76C253.831 260.064 253.015 260.216 252.087 260.216ZM264.566 247.784C266.278 247.784 267.63 248.32 268.622 249.392C269.614 250.464 270.109 251.912 270.109 253.736C270.109 254.968 269.862 256.072 269.366 257.048C268.87 258.024 268.174 258.8 267.278 259.376C266.398 259.936 265.366 260.216 264.182 260.216C262.422 260.216 261.046 259.68 260.054 258.608C259.078 257.536 258.59 256.08 258.59 254.24C258.59 253.008 258.83 251.904 259.31 250.928C259.806 249.952 260.502 249.184 261.398 248.624C262.294 248.064 263.35 247.784 264.566 247.784ZM264.206 258.152C265.262 258.152 266.11 257.752 266.75 256.952C267.406 256.136 267.734 255.064 267.734 253.736C267.734 252.488 267.446 251.528 266.87 250.856C266.31 250.168 265.534 249.824 264.542 249.824C263.454 249.824 262.582 250.232 261.926 251.048C261.27 251.864 260.942 252.928 260.942 254.24C260.942 255.488 261.23 256.456 261.806 257.144C262.382 257.816 263.182 258.152 264.206 258.152ZM278.154 260.216C276.362 260.216 274.954 259.688 273.93 258.632C272.906 257.576 272.394 256.104 272.394 254.216C272.394 252.936 272.642 251.816 273.138 250.856C273.65 249.88 274.362 249.128 275.274 248.6C276.186 248.056 277.242 247.784 278.442 247.784C280.442 247.784 281.898 248.576 282.81 250.16L281.13 251.432C280.538 250.376 279.634 249.848 278.418 249.848C277.33 249.848 276.45 250.248 275.778 251.048C275.106 251.832 274.77 252.88 274.77 254.192C274.77 255.472 275.066 256.448 275.658 257.12C276.266 257.792 277.138 258.128 278.274 258.128C278.866 258.128 279.41 258 279.906 257.744C280.418 257.488 280.842 257.08 281.178 256.52L282.81 257.816C282.298 258.648 281.642 259.256 280.842 259.64C280.058 260.024 279.162 260.216 278.154 260.216ZM286.968 247.976V260H284.688V247.976H286.968ZM285.864 245.648C285.4 245.648 285.032 245.504 284.76 245.216C284.488 244.912 284.352 244.56 284.352 244.16C284.352 243.76 284.488 243.416 284.76 243.128C285.032 242.824 285.4 242.672 285.864 242.672C286.328 242.672 286.696 242.824 286.968 243.128C287.24 243.416 287.376 243.76 287.376 244.16C287.376 244.56 287.24 244.912 286.968 245.216C286.696 245.504 286.328 245.648 285.864 245.648ZM301.112 248V260H298.76L298.856 257.528C298.408 258.36 297.824 259.016 297.104 259.496C296.384 259.976 295.56 260.216 294.632 260.216C293.592 260.216 292.712 259.976 291.992 259.496C291.288 259 290.752 258.328 290.384 257.48C290.016 256.632 289.832 255.656 289.832 254.552C289.832 253.224 290.08 252.048 290.576 251.024C291.088 250 291.784 249.208 292.664 248.648C293.56 248.072 294.584 247.784 295.736 247.784C296.504 247.784 297.184 247.96 297.776 248.312C298.384 248.648 298.832 249.096 299.12 249.656L299.408 248H301.112ZM295.832 249.824C294.728 249.824 293.84 250.248 293.168 251.096C292.512 251.928 292.184 253.032 292.184 254.408C292.184 255.592 292.44 256.512 292.952 257.168C293.464 257.824 294.152 258.152 295.016 258.152C295.736 258.152 296.384 257.944 296.96 257.528C297.536 257.112 297.992 256.536 298.328 255.8C298.664 255.048 298.832 254.192 298.832 253.232C298.832 252.176 298.56 251.344 298.016 250.736C297.488 250.128 296.76 249.824 295.832 249.824ZM307.685 260.216C306.613 260.216 305.805 259.928 305.261 259.352C304.733 258.76 304.469 257.96 304.469 256.952V242.24H306.773V256.712C306.773 257.688 307.213 258.176 308.093 258.176C308.317 258.176 308.525 258.144 308.717 258.08C308.925 258.016 309.101 257.944 309.245 257.864L309.821 259.568C309.597 259.76 309.285 259.912 308.885 260.024C308.501 260.152 308.101 260.216 307.685 260.216ZM313.429 247.976V260H311.149V247.976H313.429ZM312.325 245.648C311.861 245.648 311.493 245.504 311.221 245.216C310.949 244.912 310.813 244.56 310.813 244.16C310.813 243.76 310.949 243.416 311.221 243.128C311.493 242.824 311.861 242.672 312.325 242.672C312.789 242.672 313.157 242.824 313.429 243.128C313.701 243.416 313.837 243.76 313.837 244.16C313.837 244.56 313.701 244.912 313.429 245.216C313.157 245.504 312.789 245.648 312.325 245.648ZM315.981 260V258.344L322.389 249.92H316.245V247.976H325.269V249.608L318.837 258.08H325.221V260H315.981ZM330.046 247.976V260H327.766V247.976H330.046ZM328.942 245.648C328.478 245.648 328.11 245.504 327.838 245.216C327.566 244.912 327.43 244.56 327.43 244.16C327.43 243.76 327.566 243.416 327.838 243.128C328.11 242.824 328.478 242.672 328.942 242.672C329.406 242.672 329.774 242.824 330.046 243.128C330.318 243.416 330.454 243.76 330.454 244.16C330.454 244.56 330.318 244.912 330.046 245.216C329.774 245.504 329.406 245.648 328.942 245.648ZM333.438 260V247.976H335.742L335.598 251.528C336.046 250.328 336.678 249.408 337.494 248.768C338.31 248.112 339.262 247.784 340.35 247.784C341.63 247.784 342.606 248.232 343.278 249.128C343.95 250.008 344.278 251.28 344.262 252.944L344.214 260H341.934L341.982 253.16C341.998 251 341.262 249.92 339.774 249.92C338.99 249.92 338.294 250.224 337.686 250.832C337.094 251.44 336.622 252.48 336.27 253.952C335.918 255.424 335.734 257.44 335.718 260H333.438ZM351.797 265.04C351.109 265.04 350.381 264.968 349.613 264.824C348.861 264.68 348.229 264.456 347.717 264.152L348.293 262.136C348.837 262.408 349.413 262.616 350.021 262.76C350.629 262.904 351.253 262.976 351.893 262.976C353.365 262.976 354.413 262.616 355.037 261.896C355.661 261.176 355.997 260.04 356.045 258.488L356.093 257.192C355.645 258.04 355.053 258.704 354.317 259.184C353.597 259.664 352.757 259.904 351.797 259.904C350.741 259.904 349.853 259.672 349.133 259.208C348.413 258.744 347.869 258.096 347.501 257.264C347.133 256.432 346.949 255.48 346.949 254.408C346.949 253.128 347.197 251.992 347.693 251C348.205 249.992 348.901 249.208 349.781 248.648C350.677 248.072 351.709 247.784 352.877 247.784C353.677 247.784 354.381 247.96 354.989 248.312C355.597 248.648 356.045 249.096 356.333 249.656L356.621 248H358.325V258.152C358.325 260.44 357.757 262.16 356.621 263.312C355.501 264.464 353.893 265.04 351.797 265.04ZM352.997 249.824C351.877 249.824 350.981 250.24 350.309 251.072C349.637 251.888 349.301 252.944 349.301 254.24C349.301 255.392 349.557 256.288 350.069 256.928C350.597 257.552 351.309 257.864 352.205 257.864C352.925 257.864 353.573 257.656 354.149 257.24C354.741 256.824 355.205 256.256 355.541 255.536C355.877 254.816 356.045 254 356.045 253.088C356.045 252.08 355.765 251.288 355.205 250.712C354.661 250.12 353.925 249.824 352.997 249.824ZM50.072 277.976H52.352L47.984 290H45.224L42.488 281.048L39.2 290H36.44L32.648 277.976H35.048L37.904 287.696L41.384 277.976H43.712L46.616 287.768L50.072 277.976ZM56.3272 277.976V290H54.0472V277.976H56.3272ZM55.2232 275.648C54.7592 275.648 54.3912 275.504 54.1192 275.216C53.8472 274.912 53.7112 274.56 53.7112 274.16C53.7112 273.76 53.8472 273.416 54.1192 273.128C54.3912 272.824 54.7592 272.672 55.2232 272.672C55.6872 272.672 56.0552 272.824 56.3272 273.128C56.5992 273.416 56.7352 273.76 56.7352 274.16C56.7352 274.56 56.5992 274.912 56.3272 275.216C56.0552 275.504 55.6872 275.648 55.2232 275.648ZM64.5671 290.216C63.1431 290.216 62.0551 289.84 61.3031 289.088C60.5671 288.32 60.2071 287.304 60.2231 286.04L60.3191 279.92H58.2311V277.976H60.3431L60.3671 275.48H62.6711L62.6231 277.976H66.7031V279.92H62.5991L62.5271 285.848C62.5271 286.552 62.7111 287.12 63.0791 287.552C63.4471 287.968 64.0151 288.176 64.7831 288.176C65.1511 288.176 65.4951 288.136 65.8151 288.056C66.1351 287.96 66.4711 287.776 66.8231 287.504L67.5191 289.304C67.1671 289.608 66.7271 289.84 66.1991 290C65.6871 290.144 65.1431 290.216 64.5671 290.216ZM68.9534 290V272.24H71.2574L71.2814 277.976L71.1134 281.504C71.5614 280.304 72.1934 279.384 73.0094 278.744C73.8254 278.104 74.7774 277.784 75.8654 277.784C77.1454 277.784 78.1214 278.232 78.7934 279.128C79.4654 280.008 79.7934 281.28 79.7774 282.944L79.7294 290H77.4494L77.4974 283.16C77.5134 281 76.7774 279.92 75.2894 279.92C74.5054 279.92 73.8094 280.224 73.2014 280.832C72.6094 281.44 72.1374 282.48 71.7854 283.952C71.4334 285.424 71.2494 287.44 71.2334 290H68.9534ZM109.03 294.8V277.976H111.358L111.262 280.472C111.71 279.624 112.294 278.968 113.014 278.504C113.734 278.024 114.566 277.784 115.51 277.784C116.55 277.784 117.422 278.024 118.126 278.504C118.846 278.984 119.39 279.648 119.758 280.496C120.126 281.344 120.31 282.32 120.31 283.424C120.31 284.768 120.054 285.952 119.542 286.976C119.046 287.984 118.35 288.776 117.454 289.352C116.574 289.928 115.566 290.216 114.43 290.216C113.758 290.216 113.15 290.088 112.606 289.832C112.062 289.56 111.622 289.2 111.286 288.752L111.334 290V294.8H109.03ZM114.31 288.152C115.414 288.152 116.294 287.728 116.95 286.88C117.622 286.032 117.958 284.92 117.958 283.544C117.958 282.376 117.702 281.464 117.19 280.808C116.678 280.152 115.99 279.824 115.126 279.824C114.406 279.824 113.758 280.032 113.182 280.448C112.606 280.864 112.15 281.44 111.814 282.176C111.478 282.912 111.31 283.76 111.31 284.72C111.31 285.792 111.574 286.632 112.102 287.24C112.646 287.848 113.382 288.152 114.31 288.152ZM128.707 290.216C126.819 290.216 125.331 289.68 124.243 288.608C123.155 287.536 122.611 286.056 122.611 284.168C122.611 282.92 122.859 281.816 123.355 280.856C123.867 279.896 124.563 279.144 125.443 278.6C126.323 278.056 127.323 277.784 128.443 277.784C130.171 277.784 131.483 278.384 132.379 279.584C133.275 280.768 133.587 282.488 133.315 284.744H124.939C124.987 285.832 125.347 286.68 126.019 287.288C126.707 287.88 127.659 288.176 128.875 288.176C129.467 288.176 130.035 288.048 130.579 287.792C131.139 287.52 131.619 287.12 132.019 286.592L133.411 287.936C132.851 288.672 132.187 289.24 131.419 289.64C130.651 290.024 129.747 290.216 128.707 290.216ZM128.467 279.56C127.491 279.56 126.699 279.888 126.091 280.544C125.483 281.2 125.115 282.024 124.987 283.016H131.323C131.371 281.8 131.123 280.92 130.579 280.376C130.051 279.832 129.347 279.56 128.467 279.56ZM141.644 290.216C139.756 290.216 138.268 289.68 137.18 288.608C136.092 287.536 135.548 286.056 135.548 284.168C135.548 282.92 135.796 281.816 136.292 280.856C136.804 279.896 137.5 279.144 138.38 278.6C139.26 278.056 140.26 277.784 141.38 277.784C143.108 277.784 144.42 278.384 145.316 279.584C146.212 280.768 146.524 282.488 146.252 284.744H137.876C137.924 285.832 138.284 286.68 138.956 287.288C139.644 287.88 140.596 288.176 141.812 288.176C142.404 288.176 142.972 288.048 143.516 287.792C144.076 287.52 144.556 287.12 144.956 286.592L146.348 287.936C145.788 288.672 145.124 289.24 144.356 289.64C143.588 290.024 142.684 290.216 141.644 290.216ZM141.404 279.56C140.428 279.56 139.636 279.888 139.028 280.544C138.42 281.2 138.052 282.024 137.924 283.016H144.26C144.308 281.8 144.06 280.92 143.516 280.376C142.988 279.832 142.284 279.56 141.404 279.56ZM156.262 280.184C155.958 280.088 155.59 280.04 155.158 280.04C154.262 280.04 153.526 280.384 152.95 281.072C152.39 281.744 151.974 282.816 151.702 284.288C151.446 285.744 151.318 287.648 151.318 290H149.038V282.272L149.014 277.976H151.318L151.174 281.816C151.574 280.36 152.15 279.328 152.902 278.72C153.67 278.096 154.486 277.784 155.35 277.784C155.606 277.784 155.838 277.8 156.046 277.832C156.27 277.848 156.462 277.888 156.622 277.952L156.262 280.184ZM162.14 290.216C160.572 290.216 159.364 289.904 158.516 289.28C157.668 288.656 157.18 287.776 157.052 286.64L159.02 286.16C159.132 286.896 159.436 287.448 159.932 287.816C160.428 288.184 161.164 288.368 162.14 288.368C162.924 288.368 163.524 288.224 163.94 287.936C164.356 287.632 164.564 287.232 164.564 286.736C164.564 286.256 164.34 285.904 163.892 285.68C163.46 285.44 162.788 285.232 161.876 285.056C161.028 284.896 160.292 284.688 159.668 284.432C159.06 284.16 158.588 283.8 158.252 283.352C157.916 282.888 157.748 282.28 157.748 281.528C157.748 280.808 157.94 280.168 158.324 279.608C158.724 279.048 159.26 278.608 159.932 278.288C160.62 277.952 161.404 277.784 162.284 277.784C163.468 277.784 164.436 278.072 165.188 278.648C165.956 279.208 166.412 279.952 166.556 280.88L164.66 281.384C164.404 280.216 163.596 279.632 162.236 279.632C161.532 279.632 160.98 279.8 160.58 280.136C160.18 280.456 159.98 280.872 159.98 281.384C159.98 281.832 160.172 282.2 160.556 282.488C160.94 282.76 161.628 282.992 162.62 283.184C163.468 283.36 164.204 283.576 164.828 283.832C165.452 284.072 165.932 284.408 166.268 284.84C166.62 285.256 166.804 285.832 166.82 286.568C166.82 287.272 166.62 287.904 166.22 288.464C165.836 289.008 165.292 289.44 164.588 289.76C163.884 290.064 163.068 290.216 162.14 290.216ZM197.487 277.976V290H195.207V277.976H197.487ZM196.383 275.648C195.919 275.648 195.551 275.504 195.279 275.216C195.007 274.912 194.871 274.56 194.871 274.16C194.871 273.76 195.007 273.416 195.279 273.128C195.551 272.824 195.919 272.672 196.383 272.672C196.847 272.672 197.215 272.824 197.487 273.128C197.759 273.416 197.895 273.76 197.895 274.16C197.895 274.56 197.759 274.912 197.487 275.216C197.215 275.504 196.847 275.648 196.383 275.648ZM200.879 290V277.976H203.183L203.039 281.528C203.487 280.328 204.119 279.408 204.935 278.768C205.751 278.112 206.703 277.784 207.791 277.784C209.071 277.784 210.047 278.232 210.719 279.128C211.391 280.008 211.719 281.28 211.703 282.944L211.655 290H209.375L209.423 283.16C209.439 281 208.703 279.92 207.215 279.92C206.431 279.92 205.735 280.224 205.127 280.832C204.535 281.44 204.063 282.48 203.711 283.952C203.359 285.424 203.175 287.44 203.159 290H200.879ZM251.707 278V290H249.355L249.451 287.528C249.003 288.36 248.419 289.016 247.699 289.496C246.979 289.976 246.155 290.216 245.227 290.216C244.187 290.216 243.307 289.976 242.587 289.496C241.883 289 241.347 288.328 240.979 287.48C240.611 286.632 240.427 285.656 240.427 284.552C240.427 283.224 240.675 282.048 241.171 281.024C241.683 280 242.379 279.208 243.259 278.648C244.155 278.072 245.179 277.784 246.331 277.784C247.099 277.784 247.779 277.96 248.371 278.312C248.979 278.648 249.427 279.096 249.715 279.656L250.003 278H251.707ZM246.427 279.824C245.323 279.824 244.435 280.248 243.763 281.096C243.107 281.928 242.779 283.032 242.779 284.408C242.779 285.592 243.035 286.512 243.547 287.168C244.059 287.824 244.747 288.152 245.611 288.152C246.331 288.152 246.979 287.944 247.555 287.528C248.131 287.112 248.587 286.536 248.923 285.8C249.259 285.048 249.427 284.192 249.427 283.232C249.427 282.176 249.155 281.344 248.611 280.736C248.083 280.128 247.355 279.824 246.427 279.824ZM288.35 280.184C288.046 280.088 287.678 280.04 287.246 280.04C286.35 280.04 285.614 280.384 285.038 281.072C284.478 281.744 284.062 282.816 283.79 284.288C283.534 285.744 283.406 287.648 283.406 290H281.126V282.272L281.102 277.976H283.406L283.262 281.816C283.662 280.36 284.238 279.328 284.99 278.72C285.758 278.096 286.574 277.784 287.438 277.784C287.694 277.784 287.926 277.8 288.134 277.832C288.358 277.848 288.55 277.888 288.71 277.952L288.35 280.184ZM295.389 290.216C293.501 290.216 292.013 289.68 290.925 288.608C289.837 287.536 289.293 286.056 289.293 284.168C289.293 282.92 289.541 281.816 290.037 280.856C290.549 279.896 291.245 279.144 292.125 278.6C293.005 278.056 294.005 277.784 295.125 277.784C296.853 277.784 298.165 278.384 299.061 279.584C299.957 280.768 300.269 282.488 299.997 284.744H291.621C291.669 285.832 292.029 286.68 292.701 287.288C293.389 287.88 294.341 288.176 295.557 288.176C296.149 288.176 296.717 288.048 297.261 287.792C297.821 287.52 298.301 287.12 298.701 286.592L300.093 287.936C299.533 288.672 298.869 289.24 298.101 289.64C297.333 290.024 296.429 290.216 295.389 290.216ZM295.149 279.56C294.173 279.56 293.381 279.888 292.773 280.544C292.165 281.2 291.797 282.024 291.669 283.016H298.005C298.053 281.8 297.805 280.92 297.261 280.376C296.733 279.832 296.029 279.56 295.149 279.56ZM305.974 290.216C304.902 290.216 304.094 289.928 303.55 289.352C303.022 288.76 302.758 287.96 302.758 286.952V272.24H305.062V286.712C305.062 287.688 305.502 288.176 306.382 288.176C306.606 288.176 306.814 288.144 307.006 288.08C307.214 288.016 307.39 287.944 307.534 287.864L308.11 289.568C307.886 289.76 307.574 289.912 307.174 290.024C306.79 290.152 306.39 290.216 305.974 290.216ZM320.073 278V290H317.721L317.817 287.528C317.369 288.36 316.785 289.016 316.065 289.496C315.345 289.976 314.521 290.216 313.593 290.216C312.553 290.216 311.673 289.976 310.953 289.496C310.249 289 309.713 288.328 309.345 287.48C308.977 286.632 308.793 285.656 308.793 284.552C308.793 283.224 309.041 282.048 309.537 281.024C310.049 280 310.745 279.208 311.625 278.648C312.521 278.072 313.545 277.784 314.697 277.784C315.465 277.784 316.145 277.96 316.737 278.312C317.345 278.648 317.793 279.096 318.081 279.656L318.369 278H320.073ZM314.793 279.824C313.689 279.824 312.801 280.248 312.129 281.096C311.473 281.928 311.145 283.032 311.145 284.408C311.145 285.592 311.401 286.512 311.913 287.168C312.425 287.824 313.113 288.152 313.977 288.152C314.697 288.152 315.345 287.944 315.921 287.528C316.497 287.112 316.953 286.536 317.289 285.8C317.625 285.048 317.793 284.192 317.793 283.232C317.793 282.176 317.521 281.344 316.977 280.736C316.449 280.128 315.721 279.824 314.793 279.824ZM324.438 290H321.798L326.238 283.928L322.014 277.976H324.798L327.654 282.008L330.558 277.976H333.198L328.926 283.808L333.342 290H330.534L327.534 285.728L324.438 290ZM340.201 290.216C338.313 290.216 336.825 289.68 335.737 288.608C334.649 287.536 334.105 286.056 334.105 284.168C334.105 282.92 334.353 281.816 334.849 280.856C335.361 279.896 336.057 279.144 336.937 278.6C337.817 278.056 338.817 277.784 339.937 277.784C341.665 277.784 342.977 278.384 343.873 279.584C344.769 280.768 345.081 282.488 344.809 284.744H336.433C336.481 285.832 336.841 286.68 337.513 287.288C338.201 287.88 339.153 288.176 340.369 288.176C340.961 288.176 341.529 288.048 342.073 287.792C342.633 287.52 343.113 287.12 343.513 286.592L344.905 287.936C344.345 288.672 343.681 289.24 342.913 289.64C342.145 290.024 341.241 290.216 340.201 290.216ZM339.961 279.56C338.985 279.56 338.193 279.888 337.585 280.544C336.977 281.2 336.609 282.024 336.481 283.016H342.817C342.865 281.8 342.617 280.92 342.073 280.376C341.545 279.832 340.841 279.56 339.961 279.56ZM358.323 272.24V290H355.971L356.067 287.528C355.619 288.36 355.035 289.016 354.315 289.496C353.595 289.976 352.771 290.216 351.843 290.216C350.803 290.216 349.923 289.976 349.203 289.496C348.499 289 347.963 288.328 347.595 287.48C347.227 286.632 347.043 285.656 347.043 284.552C347.043 283.224 347.291 282.048 347.787 281.024C348.299 280 348.995 279.208 349.875 278.648C350.771 278.072 351.795 277.784 352.947 277.784C353.603 277.784 354.203 277.912 354.747 278.168C355.291 278.424 355.731 278.768 356.067 279.2L356.019 277.976V272.24H358.323ZM353.043 279.824C351.939 279.824 351.051 280.248 350.379 281.096C349.723 281.928 349.395 283.032 349.395 284.408C349.395 285.592 349.651 286.512 350.163 287.168C350.675 287.824 351.363 288.152 352.227 288.152C352.947 288.152 353.595 287.944 354.171 287.528C354.747 287.112 355.203 286.536 355.539 285.8C355.875 285.048 356.043 284.192 356.043 283.232C356.043 282.176 355.771 281.344 355.227 280.736C354.699 280.128 353.971 279.824 353.043 279.824ZM37.712 320.216C36.144 320.216 34.936 319.904 34.088 319.28C33.24 318.656 32.752 317.776 32.624 316.64L34.592 316.16C34.704 316.896 35.008 317.448 35.504 317.816C36 318.184 36.736 318.368 37.712 318.368C38.496 318.368 39.096 318.224 39.512 317.936C39.928 317.632 40.136 317.232 40.136 316.736C40.136 316.256 39.912 315.904 39.464 315.68C39.032 315.44 38.36 315.232 37.448 315.056C36.6 314.896 35.864 314.688 35.24 314.432C34.632 314.16 34.16 313.8 33.824 313.352C33.488 312.888 33.32 312.28 33.32 311.528C33.32 310.808 33.512 310.168 33.896 309.608C34.296 309.048 34.832 308.608 35.504 308.288C36.192 307.952 36.976 307.784 37.856 307.784C39.04 307.784 40.008 308.072 40.76 308.648C41.528 309.208 41.984 309.952 42.128 310.88L40.232 311.384C39.976 310.216 39.168 309.632 37.808 309.632C37.104 309.632 36.552 309.8 36.152 310.136C35.752 310.456 35.552 310.872 35.552 311.384C35.552 311.832 35.744 312.2 36.128 312.488C36.512 312.76 37.2 312.992 38.192 313.184C39.04 313.36 39.776 313.576 40.4 313.832C41.024 314.072 41.504 314.408 41.84 314.84C42.192 315.256 42.376 315.832 42.392 316.568C42.392 317.272 42.192 317.904 41.792 318.464C41.408 319.008 40.864 319.44 40.16 319.76C39.456 320.064 38.64 320.216 37.712 320.216ZM50.3105 320.216C48.4225 320.216 46.9345 319.68 45.8465 318.608C44.7585 317.536 44.2145 316.056 44.2145 314.168C44.2145 312.92 44.4625 311.816 44.9585 310.856C45.4705 309.896 46.1665 309.144 47.0465 308.6C47.9265 308.056 48.9265 307.784 50.0465 307.784C51.7745 307.784 53.0865 308.384 53.9825 309.584C54.8785 310.768 55.1905 312.488 54.9185 314.744H46.5425C46.5905 315.832 46.9505 316.68 47.6225 317.288C48.3105 317.88 49.2625 318.176 50.4785 318.176C51.0705 318.176 51.6385 318.048 52.1825 317.792C52.7425 317.52 53.2225 317.12 53.6225 316.592L55.0145 317.936C54.4545 318.672 53.7905 319.24 53.0225 319.64C52.2545 320.024 51.3505 320.216 50.3105 320.216ZM50.0705 309.56C49.0945 309.56 48.3025 309.888 47.6945 310.544C47.0865 311.2 46.7185 312.024 46.5905 313.016H52.9265C52.9745 311.8 52.7265 310.92 52.1825 310.376C51.6545 309.832 50.9505 309.56 50.0705 309.56ZM62.4108 320.216C60.9868 320.216 59.8988 319.84 59.1468 319.088C58.4108 318.32 58.0508 317.304 58.0668 316.04L58.1628 309.92H56.0748V307.976H58.1868L58.2108 305.48H60.5148L60.4668 307.976H64.5468V309.92H60.4428L60.3708 315.848C60.3708 316.552 60.5548 317.12 60.9228 317.552C61.2908 317.968 61.8588 318.176 62.6268 318.176C62.9948 318.176 63.3388 318.136 63.6588 318.056C63.9788 317.96 64.3148 317.776 64.6668 317.504L65.3628 319.304C65.0108 319.608 64.5708 319.84 64.0428 320C63.5308 320.144 62.9868 320.216 62.4108 320.216ZM71.4108 320.216C69.9868 320.216 68.8988 319.84 68.1468 319.088C67.4108 318.32 67.0508 317.304 67.0668 316.04L67.1628 309.92H65.0748V307.976H67.1868L67.2108 305.48H69.5148L69.4668 307.976H73.5468V309.92H69.4428L69.3708 315.848C69.3708 316.552 69.5548 317.12 69.9228 317.552C70.2908 317.968 70.8588 318.176 71.6268 318.176C71.9948 318.176 72.3388 318.136 72.6588 318.056C72.9788 317.96 73.3148 317.776 73.6668 317.504L74.3628 319.304C74.0108 319.608 73.5708 319.84 73.0428 320C72.5308 320.144 71.9868 320.216 71.4108 320.216ZM78.0772 307.976V320H75.7972V307.976H78.0772ZM76.9732 305.648C76.5092 305.648 76.1412 305.504 75.8692 305.216C75.5972 304.912 75.4612 304.56 75.4612 304.16C75.4612 303.76 75.5972 303.416 75.8692 303.128C76.1412 302.824 76.5092 302.672 76.9732 302.672C77.4372 302.672 77.8052 302.824 78.0772 303.128C78.3492 303.416 78.4852 303.76 78.4852 304.16C78.4852 304.56 78.3492 304.912 78.0772 305.216C77.8052 305.504 77.4372 305.648 76.9732 305.648ZM81.4691 320V307.976H83.7731L83.6291 311.528C84.0771 310.328 84.7091 309.408 85.5251 308.768C86.3411 308.112 87.2931 307.784 88.3811 307.784C89.6611 307.784 90.6371 308.232 91.3091 309.128C91.9811 310.008 92.3091 311.28 92.2931 312.944L92.2451 320H89.9651L90.0131 313.16C90.0291 311 89.2931 309.92 87.8051 309.92C87.0211 309.92 86.3251 310.224 85.7171 310.832C85.1251 311.44 84.6531 312.48 84.3011 313.952C83.9491 315.424 83.7651 317.44 83.7491 320H81.4691ZM99.8281 325.04C99.1401 325.04 98.4121 324.968 97.6441 324.824C96.8921 324.68 96.2601 324.456 95.7481 324.152L96.3241 322.136C96.8681 322.408 97.4441 322.616 98.0521 322.76C98.6601 322.904 99.2841 322.976 99.9241 322.976C101.396 322.976 102.444 322.616 103.068 321.896C103.692 321.176 104.028 320.04 104.076 318.488L104.124 317.192C103.676 318.04 103.084 318.704 102.348 319.184C101.628 319.664 100.788 319.904 99.8281 319.904C98.7721 319.904 97.8841 319.672 97.1641 319.208C96.4441 318.744 95.9001 318.096 95.5321 317.264C95.1641 316.432 94.9801 315.48 94.9801 314.408C94.9801 313.128 95.2281 311.992 95.7241 311C96.2361 309.992 96.9321 309.208 97.8121 308.648C98.7081 308.072 99.7401 307.784 100.908 307.784C101.708 307.784 102.412 307.96 103.02 308.312C103.628 308.648 104.076 309.096 104.364 309.656L104.652 308H106.356V318.152C106.356 320.44 105.788 322.16 104.652 323.312C103.532 324.464 101.924 325.04 99.8281 325.04ZM101.028 309.824C99.9081 309.824 99.0121 310.24 98.3401 311.072C97.6681 311.888 97.3321 312.944 97.3321 314.24C97.3321 315.392 97.5881 316.288 98.1001 316.928C98.6281 317.552 99.3401 317.864 100.236 317.864C100.956 317.864 101.604 317.656 102.18 317.24C102.772 316.824 103.236 316.256 103.572 315.536C103.908 314.816 104.076 314 104.076 313.088C104.076 312.08 103.796 311.288 103.236 310.712C102.692 310.12 101.956 309.824 101.028 309.824ZM110.503 320.216C110.007 320.216 109.607 320.064 109.303 319.76C108.999 319.44 108.847 319.048 108.847 318.584C108.847 318.136 108.999 317.76 109.303 317.456C109.607 317.136 110.007 316.976 110.503 316.976C110.999 316.976 111.391 317.136 111.679 317.456C111.983 317.76 112.135 318.136 112.135 318.584C112.135 319.048 111.983 319.44 111.679 319.76C111.391 320.064 110.999 320.216 110.503 320.216Z" fill="#073404" fill-opacity="0.8"/>
<rect x="150" y="12" width="93" height="82" rx="41" fill="#AE956C"/>
<rect x="157.5" y="19.5" width="78" height="67" rx="33.5" stroke="#F8FDF5" stroke-width="3" stroke-dasharray="6 6"/>
<path d="M194.715 66.35C193.992 66.35 193.21 66.2917 192.37 66.175C191.53 66.0817 190.713 65.9183 189.92 65.685C189.127 65.4283 188.45 65.1017 187.89 64.705L189.185 59.875C189.978 60.365 190.865 60.7617 191.845 61.065C192.825 61.345 193.887 61.485 195.03 61.485C196.523 61.485 197.632 61.1817 198.355 60.575C199.078 59.9683 199.44 59.1517 199.44 58.125C199.44 57.5417 199.288 57.005 198.985 56.515C198.682 56.0017 198.098 55.5933 197.235 55.29C196.372 54.9633 195.112 54.765 193.455 54.695L189.36 54.555L190.445 41.15H203.675V45.595H195.45L195.065 50.18C198.308 50.32 200.77 51.055 202.45 52.385C204.13 53.715 204.97 55.605 204.97 58.055C204.97 59.665 204.55 61.1 203.71 62.36C202.87 63.5967 201.68 64.5767 200.14 65.3C198.6 66 196.792 66.35 194.715 66.35Z" fill="#F8FDF5"/>
</g>
<defs>
<filter id="filter0_ddd_978_15808" x="0" y="0" width="392" height="368" filterUnits="userSpaceOnUse" color-interpolation-filters="sRGB">
<feFlood flood-opacity="0" result="BackgroundImageFix"/>
<feColorMatrix in="SourceAlpha" type="matrix" values="0 0 0 0 0 0 0 0 0 0 0 0 0 0 0 0 0 0 127 0" result="hardAlpha"/>
<feOffset dx="2" dy="2"/>
<feGaussianBlur stdDeviation="5"/>
<feComposite in2="hardAlpha" operator="out"/>
<feColorMatrix type="matrix" values="0 0 0 0 0 0 0 0 0 0 0 0 0 0 0 0 0 0 0.1 0"/>
<feBlend mode="normal" in2="BackgroundImageFix" result="effect1_dropShadow_978_15808"/>
<feColorMatrix in="SourceAlpha" type="matrix" values="0 0 0 0 0 0 0 0 0 0 0 0 0 0 0 0 0 0 127 0" result="hardAlpha"/>
<feOffset dx="-2" dy="-2"/>
<feGaussianBlur stdDeviation="5"/>
<feComposite in2="hardAlpha" operator="out"/>
<feColorMatrix type="matrix" values="0 0 0 0 0 0 0 0 0 0 0 0 0 0 0 0 0 0 0.1 0"/>
<feBlend mode="normal" in2="effect1_dropShadow_978_15808" result="effect2_dropShadow_978_15808"/>
<feColorMatrix in="SourceAlpha" type="matrix" values="0 0 0 0 0 0 0 0 0 0 0 0 0 0 0 0 0 0 127 0" result="hardAlpha"/>
<feOffset dx="3" dy="3"/>
<feComposite in2="hardAlpha" operator="out"/>
<feColorMatrix type="matrix" values="0 0 0 0 0.682353 0 0 0 0 0.584314 0 0 0 0 0.423529 0 0 0 1 0"/>
<feBlend mode="normal" in2="effect2_dropShadow_978_15808" result="effect3_dropShadow_978_15808"/>
<feBlend mode="normal" in="SourceGraphic" in2="effect3_dropShadow_978_15808" result="shape"/>
</filter>
</defs>
</svg>
