<svg width="392" height="368" viewBox="0 0 392 368" fill="none" xmlns="http://www.w3.org/2000/svg">
<g filter="url(#filter0_ddd_978_15815)">
<rect x="12" y="53" width="368" height="303" rx="8" fill="#0F7E66" fill-opacity="0.07" shape-rendering="crispEdges"/>
<path d="M115.32 153V131.7H120.21V148.71H129.42L129.12 153H115.32ZM135.94 153.3C134.18 153.3 132.85 152.7 131.95 151.5C131.05 150.3 130.61 148.63 130.63 146.49L130.69 137.73H135.28L135.22 146.13C135.22 147.03 135.38 147.74 135.7 148.26C136.02 148.78 136.52 149.04 137.2 149.04C137.78 149.04 138.31 148.86 138.79 148.5C139.27 148.14 139.69 147.54 140.05 146.7C140.41 145.86 140.69 144.71 140.89 143.25C141.11 141.79 141.23 139.95 141.25 137.73H145.69V153H141.1L141.31 150.06C140.71 151.1 139.95 151.9 139.03 152.46C138.11 153.02 137.08 153.3 135.94 153.3ZM149.21 153V137.73H153.77L153.56 141C154.18 139.88 154.97 139.02 155.93 138.42C156.91 137.8 158 137.49 159.2 137.49C161.02 137.49 162.38 138.11 163.28 139.35C164.18 140.57 164.62 142.33 164.6 144.63L164.54 153H159.95L160.01 144.96C160.03 143.92 159.87 143.13 159.53 142.59C159.21 142.03 158.69 141.75 157.97 141.75C157.37 141.75 156.82 141.93 156.32 142.29C155.82 142.63 155.38 143.22 155 144.06C154.64 144.9 154.35 146.05 154.13 147.51C153.91 148.97 153.79 150.8 153.77 153H149.21ZM174.892 153.3C173.312 153.3 171.942 153 170.782 152.4C169.622 151.78 168.722 150.9 168.082 149.76C167.442 148.62 167.122 147.26 167.122 145.68C167.122 144.06 167.462 142.64 168.142 141.42C168.842 140.18 169.802 139.22 171.022 138.54C172.242 137.84 173.662 137.49 175.282 137.49C176.602 137.49 177.772 137.75 178.792 138.27C179.812 138.79 180.632 139.6 181.252 140.7L178.012 143.16C177.692 142.58 177.312 142.16 176.872 141.9C176.452 141.64 175.922 141.51 175.282 141.51C174.302 141.51 173.492 141.89 172.852 142.65C172.212 143.39 171.892 144.37 171.892 145.59C171.892 146.77 172.172 147.68 172.732 148.32C173.312 148.96 174.142 149.28 175.222 149.28C175.802 149.28 176.332 149.15 176.812 148.89C177.312 148.61 177.732 148.18 178.072 147.6L181.222 150.12C180.542 151.28 179.642 152.1 178.522 152.58C177.422 153.06 176.212 153.3 174.892 153.3ZM182.814 153V130.8H187.404L187.434 137.73L187.194 140.94C187.814 139.84 188.604 138.99 189.564 138.39C190.544 137.79 191.624 137.49 192.804 137.49C194.624 137.49 195.984 138.11 196.884 139.35C197.784 140.57 198.224 142.33 198.204 144.63L198.144 153H193.554L193.614 144.96C193.634 143.92 193.474 143.13 193.134 142.59C192.814 142.03 192.294 141.75 191.574 141.75C190.974 141.75 190.424 141.93 189.924 142.29C189.424 142.63 188.984 143.22 188.604 144.06C188.244 144.9 187.954 146.05 187.734 147.51C187.514 148.97 187.394 150.8 187.374 153H182.814ZM225.714 131.7L225.084 135.99H218.634V153H213.714V135.99H206.964V131.7H225.714ZM231.525 137.73V153H226.935V137.73H231.525ZM229.215 135.93C228.335 135.93 227.635 135.66 227.115 135.12C226.595 134.58 226.335 133.94 226.335 133.2C226.335 132.46 226.585 131.82 227.085 131.28C227.605 130.74 228.315 130.47 229.215 130.47C230.095 130.47 230.795 130.74 231.315 131.28C231.835 131.82 232.095 132.46 232.095 133.2C232.095 133.94 231.835 134.58 231.315 135.12C230.795 135.66 230.095 135.93 229.215 135.93ZM235.021 153V137.73H239.581L239.401 140.88C240.041 139.7 240.841 138.84 241.801 138.3C242.761 137.76 243.781 137.49 244.861 137.49C245.921 137.49 246.871 137.76 247.711 138.3C248.551 138.82 249.191 139.67 249.631 140.85C250.311 139.71 251.171 138.87 252.211 138.33C253.271 137.77 254.341 137.49 255.421 137.49C257.221 137.49 258.571 138.11 259.471 139.35C260.371 140.57 260.811 142.33 260.791 144.63L260.731 153H256.141L256.201 144.72C256.201 143.8 256.031 143.08 255.691 142.56C255.351 142.02 254.831 141.75 254.131 141.75C253.591 141.75 253.081 141.92 252.601 142.26C252.141 142.6 251.731 143.19 251.371 144.03C251.011 144.87 250.721 146.02 250.501 147.48C250.301 148.94 250.181 150.78 250.141 153H245.581V144.72C245.581 143.8 245.421 143.08 245.101 142.56C244.781 142.02 244.271 141.75 243.571 141.75C243.031 141.75 242.521 141.92 242.041 142.26C241.581 142.6 241.171 143.19 240.811 144.03C240.451 144.87 240.161 146.02 239.941 147.48C239.721 148.94 239.601 150.78 239.581 153H235.021ZM271.584 153.3C269.884 153.3 268.414 152.99 267.174 152.37C265.934 151.73 264.974 150.84 264.294 149.7C263.614 148.54 263.274 147.17 263.274 145.59C263.274 143.99 263.614 142.58 264.294 141.36C264.994 140.14 265.924 139.19 267.084 138.51C268.264 137.83 269.594 137.49 271.074 137.49C272.754 137.49 274.124 137.87 275.184 138.63C276.244 139.39 276.974 140.47 277.374 141.87C277.794 143.25 277.884 144.86 277.644 146.7H267.954C268.074 147.46 268.474 148.1 269.154 148.62C269.834 149.12 270.764 149.37 271.944 149.37C272.484 149.37 273.054 149.26 273.654 149.04C274.254 148.8 274.764 148.45 275.184 147.99L277.734 150.69C277.074 151.49 276.254 152.13 275.274 152.61C274.314 153.07 273.084 153.3 271.584 153.3ZM271.164 140.82C270.364 140.82 269.684 141.06 269.124 141.54C268.584 142.02 268.224 142.69 268.044 143.55H273.774C273.794 142.61 273.564 141.92 273.084 141.48C272.624 141.04 271.984 140.82 271.164 140.82Z" fill="#073404"/>
<path d="M47.816 196.712C47.176 197.848 46.288 198.72 45.152 199.328C44.016 199.92 42.728 200.216 41.288 200.216C39.624 200.216 38.184 199.88 36.968 199.208C35.768 198.52 34.848 197.552 34.208 196.304C33.568 195.04 33.248 193.536 33.248 191.792C33.248 190 33.6 188.424 34.304 187.064C35.024 185.704 36.016 184.64 37.28 183.872C38.544 183.104 40.016 182.72 41.696 182.72C44.48 182.72 46.528 183.816 47.84 186.008L45.968 187.4C45.504 186.568 44.904 185.952 44.168 185.552C43.432 185.136 42.592 184.928 41.648 184.928C40.48 184.928 39.448 185.216 38.552 185.792C37.672 186.368 36.976 187.176 36.464 188.216C35.968 189.24 35.72 190.424 35.72 191.768C35.72 193.736 36.208 195.264 37.184 196.352C38.176 197.44 39.552 197.984 41.312 197.984C42.336 197.984 43.248 197.76 44.048 197.312C44.848 196.864 45.496 196.192 45.992 195.296L47.816 196.712ZM49.4534 200V182.24H51.7574L51.7814 187.976L51.6134 191.504C52.0614 190.304 52.6934 189.384 53.5094 188.744C54.3254 188.104 55.2774 187.784 56.3654 187.784C57.6454 187.784 58.6214 188.232 59.2934 189.128C59.9654 190.008 60.2934 191.28 60.2774 192.944L60.2294 200H57.9494L57.9974 193.16C58.0134 191 57.2774 189.92 55.7894 189.92C55.0054 189.92 54.3094 190.224 53.7014 190.832C53.1094 191.44 52.6374 192.48 52.2854 193.952C51.9334 195.424 51.7494 197.44 51.7334 200H49.4534ZM65.7725 187.976V200H63.4925V187.976H65.7725ZM64.6685 185.648C64.2045 185.648 63.8365 185.504 63.5645 185.216C63.2925 184.912 63.1565 184.56 63.1565 184.16C63.1565 183.76 63.2925 183.416 63.5645 183.128C63.8365 182.824 64.2045 182.672 64.6685 182.672C65.1325 182.672 65.5005 182.824 65.7725 183.128C66.0445 183.416 66.1805 183.76 66.1805 184.16C66.1805 184.56 66.0445 184.912 65.7725 185.216C65.5005 185.504 65.1325 185.648 64.6685 185.648ZM72.3804 200.216C71.3084 200.216 70.5004 199.928 69.9564 199.352C69.4284 198.76 69.1644 197.96 69.1644 196.952V182.24H71.4684V196.712C71.4684 197.688 71.9084 198.176 72.7884 198.176C73.0124 198.176 73.2204 198.144 73.4124 198.08C73.6204 198.016 73.7964 197.944 73.9404 197.864L74.5164 199.568C74.2924 199.76 73.9804 199.912 73.5804 200.024C73.1964 200.152 72.7964 200.216 72.3804 200.216ZM86.4789 182.24V200H84.1269L84.2229 197.528C83.7749 198.36 83.1909 199.016 82.4709 199.496C81.7509 199.976 80.9269 200.216 79.9989 200.216C78.9589 200.216 78.0789 199.976 77.3589 199.496C76.6549 199 76.1189 198.328 75.7509 197.48C75.3829 196.632 75.1989 195.656 75.1989 194.552C75.1989 193.224 75.4469 192.048 75.9429 191.024C76.4549 190 77.1509 189.208 78.0309 188.648C78.9269 188.072 79.9509 187.784 81.1029 187.784C81.7589 187.784 82.3589 187.912 82.9029 188.168C83.4469 188.424 83.8869 188.768 84.2229 189.2L84.1749 187.976V182.24H86.4789ZM81.1989 189.824C80.0949 189.824 79.2069 190.248 78.5349 191.096C77.8789 191.928 77.5509 193.032 77.5509 194.408C77.5509 195.592 77.8069 196.512 78.3189 197.168C78.8309 197.824 79.5189 198.152 80.3829 198.152C81.1029 198.152 81.7509 197.944 82.3269 197.528C82.9029 197.112 83.3589 196.536 83.6949 195.8C84.0309 195.048 84.1989 194.192 84.1989 193.232C84.1989 192.176 83.9269 191.344 83.3829 190.736C82.8549 190.128 82.1269 189.824 81.1989 189.824ZM97.0843 190.184C96.7803 190.088 96.4123 190.04 95.9803 190.04C95.0843 190.04 94.3483 190.384 93.7723 191.072C93.2123 191.744 92.7963 192.816 92.5243 194.288C92.2683 195.744 92.1403 197.648 92.1403 200H89.8603V192.272L89.8363 187.976H92.1403L91.9963 191.816C92.3963 190.36 92.9723 189.328 93.7243 188.72C94.4923 188.096 95.3083 187.784 96.1723 187.784C96.4283 187.784 96.6603 187.8 96.8683 187.832C97.0923 187.848 97.2843 187.888 97.4443 187.952L97.0843 190.184ZM104.123 200.216C102.235 200.216 100.747 199.68 99.659 198.608C98.571 197.536 98.027 196.056 98.027 194.168C98.027 192.92 98.275 191.816 98.771 190.856C99.283 189.896 99.979 189.144 100.859 188.6C101.739 188.056 102.739 187.784 103.859 187.784C105.587 187.784 106.899 188.384 107.795 189.584C108.691 190.768 109.003 192.488 108.731 194.744H100.355C100.403 195.832 100.763 196.68 101.435 197.288C102.123 197.88 103.075 198.176 104.291 198.176C104.883 198.176 105.451 198.048 105.995 197.792C106.555 197.52 107.035 197.12 107.435 196.592L108.827 197.936C108.267 198.672 107.603 199.24 106.835 199.64C106.067 200.024 105.163 200.216 104.123 200.216ZM103.883 189.56C102.907 189.56 102.115 189.888 101.507 190.544C100.899 191.2 100.531 192.024 100.403 193.016H106.739C106.787 191.8 106.539 190.92 105.995 190.376C105.467 189.832 104.763 189.56 103.883 189.56ZM111.493 200V187.976H113.797L113.653 191.528C114.101 190.328 114.733 189.408 115.549 188.768C116.365 188.112 117.317 187.784 118.405 187.784C119.685 187.784 120.661 188.232 121.333 189.128C122.005 190.008 122.333 191.28 122.317 192.944L122.269 200H119.989L120.037 193.16C120.053 191 119.317 189.92 117.829 189.92C117.045 189.92 116.349 190.224 115.741 190.832C115.149 191.44 114.677 192.48 114.325 193.952C113.973 195.424 113.789 197.44 113.773 200H111.493ZM137.378 200.216C135.81 200.216 134.602 199.904 133.754 199.28C132.906 198.656 132.418 197.776 132.29 196.64L134.258 196.16C134.37 196.896 134.674 197.448 135.17 197.816C135.666 198.184 136.402 198.368 137.378 198.368C138.162 198.368 138.762 198.224 139.178 197.936C139.594 197.632 139.802 197.232 139.802 196.736C139.802 196.256 139.578 195.904 139.13 195.68C138.698 195.44 138.026 195.232 137.114 195.056C136.266 194.896 135.53 194.688 134.906 194.432C134.298 194.16 133.826 193.8 133.49 193.352C133.154 192.888 132.986 192.28 132.986 191.528C132.986 190.808 133.178 190.168 133.562 189.608C133.962 189.048 134.498 188.608 135.17 188.288C135.858 187.952 136.642 187.784 137.522 187.784C138.706 187.784 139.674 188.072 140.426 188.648C141.194 189.208 141.65 189.952 141.794 190.88L139.898 191.384C139.642 190.216 138.834 189.632 137.474 189.632C136.77 189.632 136.218 189.8 135.818 190.136C135.418 190.456 135.218 190.872 135.218 191.384C135.218 191.832 135.41 192.2 135.794 192.488C136.178 192.76 136.866 192.992 137.858 193.184C138.706 193.36 139.442 193.576 140.066 193.832C140.69 194.072 141.17 194.408 141.506 194.84C141.858 195.256 142.042 195.832 142.058 196.568C142.058 197.272 141.858 197.904 141.458 198.464C141.074 199.008 140.53 199.44 139.826 199.76C139.122 200.064 138.306 200.216 137.378 200.216ZM146.689 187.976V200H144.409V187.976H146.689ZM145.585 185.648C145.121 185.648 144.753 185.504 144.481 185.216C144.209 184.912 144.073 184.56 144.073 184.16C144.073 183.76 144.209 183.416 144.481 183.128C144.753 182.824 145.121 182.672 145.585 182.672C146.049 182.672 146.417 182.824 146.689 183.128C146.961 183.416 147.097 183.76 147.097 184.16C147.097 184.56 146.961 184.912 146.689 185.216C146.417 185.504 146.049 185.648 145.585 185.648ZM154.928 200.216C153.504 200.216 152.416 199.84 151.664 199.088C150.928 198.32 150.568 197.304 150.584 196.04L150.68 189.92H148.592V187.976H150.704L150.728 185.48H153.032L152.984 187.976H157.064V189.92H152.96L152.888 195.848C152.888 196.552 153.072 197.12 153.44 197.552C153.808 197.968 154.376 198.176 155.144 198.176C155.512 198.176 155.856 198.136 156.176 198.056C156.496 197.96 156.832 197.776 157.184 197.504L157.88 199.304C157.528 199.608 157.088 199.84 156.56 200C156.048 200.144 155.504 200.216 154.928 200.216ZM171.977 200.216C170.553 200.216 169.465 199.84 168.713 199.088C167.977 198.32 167.617 197.304 167.633 196.04L167.729 189.92H165.641V187.976H167.753L167.777 185.48H170.081L170.033 187.976H174.113V189.92H170.009L169.937 195.848C169.937 196.552 170.121 197.12 170.489 197.552C170.857 197.968 171.425 198.176 172.193 198.176C172.561 198.176 172.905 198.136 173.225 198.056C173.545 197.96 173.881 197.776 174.233 197.504L174.929 199.304C174.577 199.608 174.137 199.84 173.609 200C173.097 200.144 172.553 200.216 171.977 200.216ZM181.577 187.784C183.289 187.784 184.641 188.32 185.633 189.392C186.625 190.464 187.121 191.912 187.121 193.736C187.121 194.968 186.873 196.072 186.377 197.048C185.881 198.024 185.185 198.8 184.289 199.376C183.409 199.936 182.377 200.216 181.193 200.216C179.433 200.216 178.057 199.68 177.065 198.608C176.089 197.536 175.601 196.08 175.601 194.24C175.601 193.008 175.841 191.904 176.321 190.928C176.817 189.952 177.513 189.184 178.409 188.624C179.305 188.064 180.361 187.784 181.577 187.784ZM181.217 198.152C182.273 198.152 183.121 197.752 183.761 196.952C184.417 196.136 184.745 195.064 184.745 193.736C184.745 192.488 184.457 191.528 183.881 190.856C183.321 190.168 182.545 189.824 181.553 189.824C180.465 189.824 179.593 190.232 178.937 191.048C178.281 191.864 177.953 192.928 177.953 194.24C177.953 195.488 178.241 196.456 178.817 197.144C179.393 197.816 180.193 198.152 181.217 198.152ZM194.254 205.04C193.566 205.04 192.838 204.968 192.07 204.824C191.318 204.68 190.686 204.456 190.174 204.152L190.75 202.136C191.294 202.408 191.87 202.616 192.478 202.76C193.086 202.904 193.71 202.976 194.35 202.976C195.822 202.976 196.87 202.616 197.494 201.896C198.118 201.176 198.454 200.04 198.502 198.488L198.55 197.192C198.102 198.04 197.51 198.704 196.774 199.184C196.054 199.664 195.214 199.904 194.254 199.904C193.198 199.904 192.31 199.672 191.59 199.208C190.87 198.744 190.326 198.096 189.958 197.264C189.59 196.432 189.406 195.48 189.406 194.408C189.406 193.128 189.654 191.992 190.15 191C190.662 189.992 191.358 189.208 192.238 188.648C193.134 188.072 194.166 187.784 195.334 187.784C196.134 187.784 196.838 187.96 197.446 188.312C198.054 188.648 198.502 189.096 198.79 189.656L199.078 188H200.782V198.152C200.782 200.44 200.214 202.16 199.078 203.312C197.958 204.464 196.35 205.04 194.254 205.04ZM195.454 189.824C194.334 189.824 193.438 190.24 192.766 191.072C192.094 191.888 191.758 192.944 191.758 194.24C191.758 195.392 192.014 196.288 192.526 196.928C193.054 197.552 193.766 197.864 194.662 197.864C195.382 197.864 196.03 197.656 196.606 197.24C197.198 196.824 197.662 196.256 197.998 195.536C198.334 194.816 198.502 194 198.502 193.088C198.502 192.08 198.222 191.288 197.662 190.712C197.118 190.12 196.382 189.824 195.454 189.824ZM209.705 200.216C207.817 200.216 206.329 199.68 205.241 198.608C204.153 197.536 203.609 196.056 203.609 194.168C203.609 192.92 203.857 191.816 204.353 190.856C204.865 189.896 205.561 189.144 206.441 188.6C207.321 188.056 208.321 187.784 209.441 187.784C211.169 187.784 212.481 188.384 213.377 189.584C214.273 190.768 214.585 192.488 214.313 194.744H205.937C205.985 195.832 206.345 196.68 207.017 197.288C207.705 197.88 208.657 198.176 209.873 198.176C210.465 198.176 211.033 198.048 211.577 197.792C212.137 197.52 212.617 197.12 213.017 196.592L214.409 197.936C213.849 198.672 213.185 199.24 212.417 199.64C211.649 200.024 210.745 200.216 209.705 200.216ZM209.465 189.56C208.489 189.56 207.697 189.888 207.089 190.544C206.481 191.2 206.113 192.024 205.985 193.016H212.321C212.369 191.8 212.121 190.92 211.577 190.376C211.049 189.832 210.345 189.56 209.465 189.56ZM221.805 200.216C220.381 200.216 219.293 199.84 218.541 199.088C217.805 198.32 217.445 197.304 217.461 196.04L217.557 189.92H215.469V187.976H217.581L217.605 185.48H219.909L219.861 187.976H223.941V189.92H219.837L219.765 195.848C219.765 196.552 219.949 197.12 220.317 197.552C220.685 197.968 221.253 198.176 222.021 198.176C222.389 198.176 222.733 198.136 223.053 198.056C223.373 197.96 223.709 197.776 224.061 197.504L224.757 199.304C224.405 199.608 223.965 199.84 223.437 200C222.925 200.144 222.381 200.216 221.805 200.216ZM226.192 200V182.24H228.496L228.52 187.976L228.352 191.504C228.8 190.304 229.432 189.384 230.248 188.744C231.064 188.104 232.016 187.784 233.104 187.784C234.384 187.784 235.36 188.232 236.032 189.128C236.704 190.008 237.032 191.28 237.016 192.944L236.968 200H234.688L234.736 193.16C234.752 191 234.016 189.92 232.528 189.92C231.744 189.92 231.048 190.224 230.44 190.832C229.848 191.44 229.376 192.48 229.024 193.952C228.672 195.424 228.488 197.44 228.472 200H226.192ZM245.799 200.216C243.911 200.216 242.423 199.68 241.335 198.608C240.247 197.536 239.703 196.056 239.703 194.168C239.703 192.92 239.951 191.816 240.447 190.856C240.959 189.896 241.655 189.144 242.535 188.6C243.415 188.056 244.415 187.784 245.535 187.784C247.263 187.784 248.575 188.384 249.471 189.584C250.367 190.768 250.679 192.488 250.407 194.744H242.031C242.079 195.832 242.439 196.68 243.111 197.288C243.799 197.88 244.751 198.176 245.967 198.176C246.559 198.176 247.127 198.048 247.671 197.792C248.231 197.52 248.711 197.12 249.111 196.592L250.503 197.936C249.943 198.672 249.279 199.24 248.511 199.64C247.743 200.024 246.839 200.216 245.799 200.216ZM245.559 189.56C244.583 189.56 243.791 189.888 243.183 190.544C242.575 191.2 242.207 192.024 242.079 193.016H248.415C248.463 191.8 248.215 190.92 247.671 190.376C247.143 189.832 246.439 189.56 245.559 189.56ZM260.416 190.184C260.112 190.088 259.744 190.04 259.312 190.04C258.416 190.04 257.68 190.384 257.104 191.072C256.544 191.744 256.128 192.816 255.856 194.288C255.6 195.744 255.472 197.648 255.472 200H253.192V192.272L253.168 187.976H255.472L255.328 191.816C255.728 190.36 256.304 189.328 257.056 188.72C257.824 188.096 258.64 187.784 259.504 187.784C259.76 187.784 259.992 187.8 260.2 187.832C260.424 187.848 260.616 187.888 260.776 187.952L260.416 190.184ZM275.206 200.216C273.782 200.216 272.694 199.84 271.942 199.088C271.206 198.32 270.846 197.304 270.862 196.04L270.958 189.92H268.87V187.976H270.982L271.006 185.48H273.31L273.262 187.976H277.342V189.92H273.238L273.166 195.848C273.166 196.552 273.35 197.12 273.718 197.552C274.086 197.968 274.654 198.176 275.422 198.176C275.79 198.176 276.134 198.136 276.454 198.056C276.774 197.96 277.11 197.776 277.462 197.504L278.158 199.304C277.806 199.608 277.366 199.84 276.838 200C276.326 200.144 275.782 200.216 275.206 200.216ZM284.806 187.784C286.518 187.784 287.87 188.32 288.862 189.392C289.854 190.464 290.35 191.912 290.35 193.736C290.35 194.968 290.102 196.072 289.606 197.048C289.11 198.024 288.414 198.8 287.518 199.376C286.638 199.936 285.606 200.216 284.422 200.216C282.662 200.216 281.286 199.68 280.294 198.608C279.318 197.536 278.83 196.08 278.83 194.24C278.83 193.008 279.07 191.904 279.55 190.928C280.046 189.952 280.742 189.184 281.638 188.624C282.534 188.064 283.59 187.784 284.806 187.784ZM284.446 198.152C285.502 198.152 286.35 197.752 286.99 196.952C287.646 196.136 287.974 195.064 287.974 193.736C287.974 192.488 287.686 191.528 287.11 190.856C286.55 190.168 285.774 189.824 284.782 189.824C283.694 189.824 282.822 190.232 282.166 191.048C281.51 191.864 281.182 192.928 281.182 194.24C281.182 195.488 281.47 196.456 282.046 197.144C282.622 197.816 283.422 198.152 284.446 198.152ZM306.545 200.216C304.657 200.216 303.169 199.68 302.081 198.608C300.993 197.536 300.449 196.056 300.449 194.168C300.449 192.92 300.697 191.816 301.193 190.856C301.705 189.896 302.401 189.144 303.281 188.6C304.161 188.056 305.161 187.784 306.281 187.784C308.009 187.784 309.321 188.384 310.217 189.584C311.113 190.768 311.425 192.488 311.153 194.744H302.777C302.825 195.832 303.185 196.68 303.857 197.288C304.545 197.88 305.497 198.176 306.713 198.176C307.305 198.176 307.873 198.048 308.417 197.792C308.977 197.52 309.457 197.12 309.857 196.592L311.249 197.936C310.689 198.672 310.025 199.24 309.257 199.64C308.489 200.024 307.585 200.216 306.545 200.216ZM306.305 189.56C305.329 189.56 304.537 189.888 303.929 190.544C303.321 191.2 302.953 192.024 302.825 193.016H309.161C309.209 191.8 308.961 190.92 308.417 190.376C307.889 189.832 307.185 189.56 306.305 189.56ZM313.914 200V187.976H316.218L316.074 191.528C316.522 190.328 317.154 189.408 317.97 188.768C318.786 188.112 319.738 187.784 320.826 187.784C322.106 187.784 323.082 188.232 323.754 189.128C324.426 190.008 324.754 191.28 324.738 192.944L324.69 200H322.41L322.458 193.16C322.474 191 321.738 189.92 320.25 189.92C319.466 189.92 318.77 190.224 318.162 190.832C317.57 191.44 317.098 192.48 316.746 193.952C316.394 195.424 316.21 197.44 316.194 200H313.914ZM325.745 204.968C325.281 204.968 324.833 204.928 324.401 204.848C323.953 204.784 323.577 204.672 323.273 204.512L323.729 202.592C324.321 202.848 324.969 202.976 325.673 202.976C326.601 202.976 327.265 202.696 327.665 202.136C328.081 201.592 328.289 200.824 328.289 199.832V187.976H330.569V199.904C330.569 201.52 330.129 202.768 329.249 203.648C328.369 204.528 327.201 204.968 325.745 204.968ZM329.441 185.648C328.977 185.648 328.609 185.504 328.337 185.216C328.065 184.912 327.929 184.56 327.929 184.16C327.929 183.76 328.065 183.416 328.337 183.128C328.609 182.824 328.977 182.672 329.441 182.672C329.905 182.672 330.273 182.824 330.545 183.128C330.817 183.416 330.953 183.76 330.953 184.16C330.953 184.56 330.817 184.912 330.545 185.216C330.273 185.504 329.905 185.648 329.441 185.648ZM339.401 187.784C341.113 187.784 342.465 188.32 343.457 189.392C344.449 190.464 344.945 191.912 344.945 193.736C344.945 194.968 344.697 196.072 344.201 197.048C343.705 198.024 343.009 198.8 342.113 199.376C341.233 199.936 340.201 200.216 339.017 200.216C337.257 200.216 335.881 199.68 334.889 198.608C333.913 197.536 333.425 196.08 333.425 194.24C333.425 193.008 333.665 191.904 334.145 190.928C334.641 189.952 335.337 189.184 336.233 188.624C337.129 188.064 338.185 187.784 339.401 187.784ZM339.041 198.152C340.097 198.152 340.945 197.752 341.585 196.952C342.241 196.136 342.569 195.064 342.569 193.736C342.569 192.488 342.281 191.528 341.705 190.856C341.145 190.168 340.369 189.824 339.377 189.824C338.289 189.824 337.417 190.232 336.761 191.048C336.105 191.864 335.777 192.928 335.777 194.24C335.777 195.488 336.065 196.456 336.641 197.144C337.217 197.816 338.017 198.152 339.041 198.152ZM351.862 205.04C351.174 205.04 350.446 204.968 349.678 204.824C348.926 204.68 348.294 204.456 347.782 204.152L348.358 202.136C348.902 202.408 349.478 202.616 350.086 202.76C350.694 202.904 351.318 202.976 351.958 202.976C353.43 202.976 354.478 202.616 355.102 201.896C355.726 201.192 356.062 200.056 356.11 198.488L356.206 196.232C355.742 197.464 355.102 198.384 354.286 198.992C353.47 199.6 352.542 199.904 351.502 199.904C350.222 199.904 349.246 199.472 348.574 198.608C347.918 197.744 347.598 196.536 347.614 194.984L347.686 187.976H349.966L349.894 194.768C349.894 195.712 350.062 196.448 350.398 196.976C350.75 197.504 351.31 197.768 352.078 197.768C352.862 197.768 353.55 197.464 354.142 196.856C354.75 196.248 355.222 195.232 355.558 193.808C355.894 192.384 356.07 190.44 356.086 187.976H358.294V198.176C358.294 200.48 357.742 202.2 356.638 203.336C355.55 204.472 353.958 205.04 351.862 205.04ZM44.432 218V230H42.08L42.176 227.528C41.728 228.36 41.144 229.016 40.424 229.496C39.704 229.976 38.88 230.216 37.952 230.216C36.912 230.216 36.032 229.976 35.312 229.496C34.608 229 34.072 228.328 33.704 227.48C33.336 226.632 33.152 225.656 33.152 224.552C33.152 223.224 33.4 222.048 33.896 221.024C34.408 220 35.104 219.208 35.984 218.648C36.88 218.072 37.904 217.784 39.056 217.784C39.824 217.784 40.504 217.96 41.096 218.312C41.704 218.648 42.152 219.096 42.44 219.656L42.728 218H44.432ZM39.152 219.824C38.048 219.824 37.16 220.248 36.488 221.096C35.832 221.928 35.504 223.032 35.504 224.408C35.504 225.592 35.76 226.512 36.272 227.168C36.784 227.824 37.472 228.152 38.336 228.152C39.056 228.152 39.704 227.944 40.28 227.528C40.856 227.112 41.312 226.536 41.648 225.8C41.984 225.048 42.152 224.192 42.152 223.232C42.152 222.176 41.88 221.344 41.336 220.736C40.808 220.128 40.08 219.824 39.152 219.824ZM66.4274 230V217.976H68.7314L68.5874 221.528C69.0354 220.328 69.6674 219.408 70.4834 218.768C71.2994 218.112 72.2514 217.784 73.3394 217.784C74.6194 217.784 75.5954 218.232 76.2674 219.128C76.9394 220.008 77.2674 221.28 77.2514 222.944L77.2034 230H74.9234L74.9714 223.16C74.9874 221 74.2514 219.92 72.7634 219.92C71.9794 219.92 71.2834 220.224 70.6754 220.832C70.0834 221.44 69.6114 222.48 69.2594 223.952C68.9074 225.424 68.7234 227.44 68.7074 230H66.4274ZM84.1865 230.216C82.9225 230.216 81.9545 229.784 81.2825 228.92C80.6265 228.04 80.3065 226.832 80.3225 225.296L80.3945 217.976H82.6745L82.6025 225.056C82.6025 226 82.7705 226.736 83.1065 227.264C83.4585 227.792 84.0105 228.056 84.7625 228.056C85.5145 228.056 86.1785 227.752 86.7545 227.144C87.3465 226.536 87.8105 225.496 88.1465 224.024C88.4985 222.552 88.6745 220.536 88.6745 217.976H90.8825V230H88.5785L88.7225 226.664C88.2585 227.848 87.6265 228.736 86.8265 229.328C86.0425 229.92 85.1625 230.216 84.1865 230.216ZM99.1191 230.216C97.6951 230.216 96.6071 229.84 95.8551 229.088C95.1191 228.32 94.7591 227.304 94.7751 226.04L94.8711 219.92H92.7831V217.976H94.8951L94.9191 215.48H97.2231L97.1751 217.976H101.255V219.92H97.1511L97.0791 225.848C97.0791 226.552 97.2631 227.12 97.6311 227.552C97.9991 227.968 98.5671 228.176 99.3351 228.176C99.7031 228.176 100.047 228.136 100.367 228.056C100.687 227.96 101.023 227.776 101.375 227.504L102.071 229.304C101.719 229.608 101.279 229.84 100.751 230C100.239 230.144 99.6951 230.216 99.1191 230.216ZM110.754 220.184C110.45 220.088 110.082 220.04 109.65 220.04C108.754 220.04 108.018 220.384 107.442 221.072C106.882 221.744 106.466 222.816 106.194 224.288C105.938 225.744 105.81 227.648 105.81 230H103.53V222.272L103.506 217.976H105.81L105.666 221.816C106.066 220.36 106.642 219.328 107.394 218.72C108.162 218.096 108.978 217.784 109.842 217.784C110.098 217.784 110.33 217.8 110.538 217.832C110.762 217.848 110.954 217.888 111.114 217.952L110.754 220.184ZM115.161 217.976V230H112.881V217.976H115.161ZM114.057 215.648C113.593 215.648 113.225 215.504 112.953 215.216C112.681 214.912 112.545 214.56 112.545 214.16C112.545 213.76 112.681 213.416 112.953 213.128C113.225 212.824 113.593 212.672 114.057 212.672C114.521 212.672 114.889 212.824 115.161 213.128C115.433 213.416 115.569 213.76 115.569 214.16C115.569 214.56 115.433 214.912 115.161 215.216C114.889 215.504 114.521 215.648 114.057 215.648ZM123.4 230.216C121.976 230.216 120.888 229.84 120.136 229.088C119.4 228.32 119.04 227.304 119.056 226.04L119.152 219.92H117.064V217.976H119.176L119.2 215.48H121.504L121.456 217.976H125.536V219.92H121.432L121.36 225.848C121.36 226.552 121.544 227.12 121.912 227.552C122.28 227.968 122.848 228.176 123.616 228.176C123.984 228.176 124.328 228.136 124.648 228.056C124.968 227.96 125.304 227.776 125.656 227.504L126.352 229.304C126 229.608 125.56 229.84 125.032 230C124.52 230.144 123.976 230.216 123.4 230.216ZM130.067 217.976V230H127.787V217.976H130.067ZM128.963 215.648C128.499 215.648 128.131 215.504 127.859 215.216C127.587 214.912 127.451 214.56 127.451 214.16C127.451 213.76 127.587 213.416 127.859 213.128C128.131 212.824 128.499 212.672 128.963 212.672C129.427 212.672 129.795 212.824 130.067 213.128C130.339 213.416 130.475 213.76 130.475 214.16C130.475 214.56 130.339 214.912 130.067 215.216C129.795 215.504 129.427 215.648 128.963 215.648ZM138.907 217.784C140.619 217.784 141.971 218.32 142.963 219.392C143.955 220.464 144.451 221.912 144.451 223.736C144.451 224.968 144.203 226.072 143.707 227.048C143.211 228.024 142.515 228.8 141.619 229.376C140.739 229.936 139.707 230.216 138.523 230.216C136.763 230.216 135.387 229.68 134.395 228.608C133.419 227.536 132.931 226.08 132.931 224.24C132.931 223.008 133.171 221.904 133.651 220.928C134.147 219.952 134.843 219.184 135.739 218.624C136.635 218.064 137.691 217.784 138.907 217.784ZM138.547 228.152C139.603 228.152 140.451 227.752 141.091 226.952C141.747 226.136 142.075 225.064 142.075 223.736C142.075 222.488 141.787 221.528 141.211 220.856C140.651 220.168 139.875 219.824 138.883 219.824C137.795 219.824 136.923 220.232 136.267 221.048C135.611 221.864 135.283 222.928 135.283 224.24C135.283 225.488 135.571 226.456 136.147 227.144C136.723 227.816 137.523 228.152 138.547 228.152ZM150.983 230.216C149.719 230.216 148.751 229.784 148.079 228.92C147.423 228.04 147.103 226.832 147.119 225.296L147.191 217.976H149.471L149.399 225.056C149.399 226 149.567 226.736 149.903 227.264C150.255 227.792 150.807 228.056 151.559 228.056C152.311 228.056 152.975 227.752 153.551 227.144C154.143 226.536 154.607 225.496 154.943 224.024C155.295 222.552 155.471 220.536 155.471 217.976H157.679V230H155.375L155.519 226.664C155.055 227.848 154.423 228.736 153.623 229.328C152.839 229.92 151.959 230.216 150.983 230.216ZM165.1 230.216C163.532 230.216 162.324 229.904 161.476 229.28C160.628 228.656 160.14 227.776 160.012 226.64L161.98 226.16C162.092 226.896 162.396 227.448 162.892 227.816C163.388 228.184 164.124 228.368 165.1 228.368C165.884 228.368 166.484 228.224 166.9 227.936C167.316 227.632 167.524 227.232 167.524 226.736C167.524 226.256 167.3 225.904 166.852 225.68C166.42 225.44 165.748 225.232 164.836 225.056C163.988 224.896 163.252 224.688 162.628 224.432C162.02 224.16 161.548 223.8 161.212 223.352C160.876 222.888 160.708 222.28 160.708 221.528C160.708 220.808 160.9 220.168 161.284 219.608C161.684 219.048 162.22 218.608 162.892 218.288C163.58 217.952 164.364 217.784 165.244 217.784C166.428 217.784 167.396 218.072 168.148 218.648C168.916 219.208 169.372 219.952 169.516 220.88L167.62 221.384C167.364 220.216 166.556 219.632 165.196 219.632C164.492 219.632 163.94 219.8 163.54 220.136C163.14 220.456 162.94 220.872 162.94 221.384C162.94 221.832 163.132 222.2 163.516 222.488C163.9 222.76 164.588 222.992 165.58 223.184C166.428 223.36 167.164 223.576 167.788 223.832C168.412 224.072 168.892 224.408 169.228 224.84C169.58 225.256 169.764 225.832 169.78 226.568C169.78 227.272 169.58 227.904 169.18 228.464C168.796 229.008 168.252 229.44 167.548 229.76C166.844 230.064 166.028 230.216 165.1 230.216ZM190.769 230V217.976H193.073L192.929 221.504C193.393 220.224 194.033 219.288 194.849 218.696C195.665 218.088 196.545 217.784 197.489 217.784C198.465 217.784 199.273 218.064 199.913 218.624C200.569 219.168 201.009 220 201.233 221.12C201.713 220 202.369 219.168 203.201 218.624C204.049 218.064 204.937 217.784 205.865 217.784C207.145 217.784 208.121 218.232 208.793 219.128C209.465 220.008 209.793 221.28 209.777 222.944L209.729 230H207.425L207.473 223.112C207.489 222.072 207.313 221.28 206.945 220.736C206.593 220.192 206.033 219.92 205.265 219.92C204.769 219.92 204.289 220.08 203.825 220.4C203.361 220.72 202.945 221.256 202.577 222.008C202.225 222.76 201.937 223.792 201.713 225.104C201.505 226.4 201.393 228.032 201.377 230H199.121V223.112C199.121 222.072 198.945 221.28 198.593 220.736C198.257 220.192 197.713 219.92 196.961 219.92C196.449 219.92 195.961 220.08 195.497 220.4C195.033 220.72 194.617 221.256 194.249 222.008C193.881 222.76 193.593 223.792 193.385 225.104C193.177 226.4 193.065 228.032 193.049 230H190.769ZM218.555 230.216C216.667 230.216 215.179 229.68 214.091 228.608C213.003 227.536 212.459 226.056 212.459 224.168C212.459 222.92 212.707 221.816 213.203 220.856C213.715 219.896 214.411 219.144 215.291 218.6C216.171 218.056 217.171 217.784 218.291 217.784C220.019 217.784 221.331 218.384 222.227 219.584C223.123 220.768 223.435 222.488 223.163 224.744H214.787C214.835 225.832 215.195 226.68 215.867 227.288C216.555 227.88 217.507 228.176 218.723 228.176C219.315 228.176 219.883 228.048 220.427 227.792C220.987 227.52 221.467 227.12 221.867 226.592L223.259 227.936C222.699 228.672 222.035 229.24 221.267 229.64C220.499 230.024 219.595 230.216 218.555 230.216ZM218.315 219.56C217.339 219.56 216.547 219.888 215.939 220.544C215.331 221.2 214.963 222.024 214.835 223.016H221.171C221.219 221.8 220.971 220.92 220.427 220.376C219.899 219.832 219.195 219.56 218.315 219.56ZM236.677 218V230H234.325L234.421 227.528C233.973 228.36 233.389 229.016 232.669 229.496C231.949 229.976 231.125 230.216 230.197 230.216C229.157 230.216 228.277 229.976 227.557 229.496C226.853 229 226.317 228.328 225.949 227.48C225.581 226.632 225.397 225.656 225.397 224.552C225.397 223.224 225.645 222.048 226.141 221.024C226.653 220 227.349 219.208 228.229 218.648C229.125 218.072 230.149 217.784 231.301 217.784C232.069 217.784 232.749 217.96 233.341 218.312C233.949 218.648 234.397 219.096 234.685 219.656L234.973 218H236.677ZM231.397 219.824C230.293 219.824 229.405 220.248 228.733 221.096C228.077 221.928 227.749 223.032 227.749 224.408C227.749 225.592 228.005 226.512 228.517 227.168C229.029 227.824 229.717 228.152 230.581 228.152C231.301 228.152 231.949 227.944 232.525 227.528C233.101 227.112 233.557 226.536 233.893 225.8C234.229 225.048 234.397 224.192 234.397 223.232C234.397 222.176 234.125 221.344 233.581 220.736C233.053 220.128 232.325 219.824 231.397 219.824ZM243.25 230.216C242.178 230.216 241.37 229.928 240.826 229.352C240.298 228.76 240.034 227.96 240.034 226.952V212.24H242.338V226.712C242.338 227.688 242.778 228.176 243.658 228.176C243.882 228.176 244.09 228.144 244.282 228.08C244.49 228.016 244.666 227.944 244.81 227.864L245.386 229.568C245.162 229.76 244.85 229.912 244.45 230.024C244.066 230.152 243.666 230.216 243.25 230.216ZM246.391 233.144C246.567 232.728 246.703 232.328 246.799 231.944C246.895 231.576 246.943 231.232 246.943 230.912C246.943 230.56 246.895 230.256 246.799 230C246.719 229.744 246.631 229.496 246.535 229.256C246.455 229 246.415 228.72 246.415 228.416C246.415 228 246.559 227.656 246.847 227.384C247.151 227.112 247.535 226.976 247.999 226.976C248.495 226.976 248.879 227.136 249.151 227.456C249.423 227.76 249.559 228.184 249.559 228.728C249.559 229.16 249.471 229.64 249.295 230.168C249.119 230.696 248.879 231.216 248.575 231.728C248.287 232.256 247.959 232.728 247.591 233.144H246.391ZM273.959 230.216C272.887 230.216 272.079 229.928 271.535 229.352C271.007 228.76 270.743 227.96 270.743 226.952V212.24H273.047V226.712C273.047 227.688 273.487 228.176 274.367 228.176C274.591 228.176 274.799 228.144 274.991 228.08C275.199 228.016 275.375 227.944 275.519 227.864L276.095 229.568C275.871 229.76 275.559 229.912 275.159 230.024C274.775 230.152 274.375 230.216 273.959 230.216ZM282.873 230.216C280.985 230.216 279.497 229.68 278.409 228.608C277.321 227.536 276.777 226.056 276.777 224.168C276.777 222.92 277.025 221.816 277.521 220.856C278.033 219.896 278.729 219.144 279.609 218.6C280.489 218.056 281.489 217.784 282.609 217.784C284.337 217.784 285.649 218.384 286.545 219.584C287.441 220.768 287.753 222.488 287.481 224.744H279.105C279.153 225.832 279.513 226.68 280.185 227.288C280.873 227.88 281.825 228.176 283.041 228.176C283.633 228.176 284.201 228.048 284.745 227.792C285.305 227.52 285.785 227.12 286.185 226.592L287.577 227.936C287.017 228.672 286.353 229.24 285.585 229.64C284.817 230.024 283.913 230.216 282.873 230.216ZM282.633 219.56C281.657 219.56 280.865 219.888 280.257 220.544C279.649 221.2 279.281 222.024 279.153 223.016H285.489C285.537 221.8 285.289 220.92 284.745 220.376C284.217 219.832 283.513 219.56 282.633 219.56ZM300.995 218V230H298.643L298.739 227.528C298.291 228.36 297.707 229.016 296.987 229.496C296.267 229.976 295.443 230.216 294.515 230.216C293.475 230.216 292.595 229.976 291.875 229.496C291.171 229 290.635 228.328 290.267 227.48C289.899 226.632 289.715 225.656 289.715 224.552C289.715 223.224 289.963 222.048 290.459 221.024C290.971 220 291.667 219.208 292.547 218.648C293.443 218.072 294.467 217.784 295.618 217.784C296.387 217.784 297.067 217.96 297.659 218.312C298.267 218.648 298.715 219.096 299.003 219.656L299.291 218H300.995ZM295.715 219.824C294.611 219.824 293.723 220.248 293.051 221.096C292.395 221.928 292.067 223.032 292.067 224.408C292.067 225.592 292.323 226.512 292.835 227.168C293.347 227.824 294.035 228.152 294.898 228.152C295.619 228.152 296.267 227.944 296.843 227.528C297.419 227.112 297.875 226.536 298.211 225.8C298.547 225.048 298.715 224.192 298.715 223.232C298.715 222.176 298.443 221.344 297.899 220.736C297.371 220.128 296.643 219.824 295.715 219.824ZM311.6 220.184C311.296 220.088 310.928 220.04 310.496 220.04C309.6 220.04 308.864 220.384 308.288 221.072C307.728 221.744 307.312 222.816 307.04 224.288C306.784 225.744 306.656 227.648 306.656 230H304.376V222.272L304.352 217.976H306.656L306.512 221.816C306.912 220.36 307.488 219.328 308.24 218.72C309.008 218.096 309.824 217.784 310.688 217.784C310.944 217.784 311.176 217.8 311.384 217.832C311.608 217.848 311.8 217.888 311.96 217.952L311.6 220.184ZM313.727 230V217.976H316.031L315.887 221.528C316.335 220.328 316.967 219.408 317.783 218.768C318.599 218.112 319.551 217.784 320.639 217.784C321.919 217.784 322.895 218.232 323.567 219.128C324.239 220.008 324.567 221.28 324.551 222.944L324.503 230H322.223L322.271 223.16C322.287 221 321.551 219.92 320.063 219.92C319.279 219.92 318.583 220.224 317.975 220.832C317.383 221.44 316.911 222.48 316.559 223.952C316.207 225.424 316.023 227.44 316.007 230H313.727ZM330.046 217.976V230H327.766V217.976H330.046ZM328.942 215.648C328.478 215.648 328.11 215.504 327.838 215.216C327.566 214.912 327.43 214.56 327.43 214.16C327.43 213.76 327.566 213.416 327.838 213.128C328.11 212.824 328.478 212.672 328.942 212.672C329.406 212.672 329.774 212.824 330.046 213.128C330.318 213.416 330.454 213.76 330.454 214.16C330.454 214.56 330.318 214.912 330.046 215.216C329.774 215.504 329.406 215.648 328.942 215.648ZM333.438 230V217.976H335.742L335.598 221.528C336.046 220.328 336.678 219.408 337.494 218.768C338.31 218.112 339.262 217.784 340.35 217.784C341.63 217.784 342.606 218.232 343.278 219.128C343.95 220.008 344.278 221.28 344.262 222.944L344.214 230H341.934L341.982 223.16C341.998 221 341.262 219.92 339.774 219.92C338.99 219.92 338.294 220.224 337.686 220.832C337.094 221.44 336.622 222.48 336.27 223.952C335.918 225.424 335.734 227.44 335.718 230H333.438ZM351.797 235.04C351.109 235.04 350.381 234.968 349.613 234.824C348.861 234.68 348.229 234.456 347.717 234.152L348.293 232.136C348.837 232.408 349.413 232.616 350.021 232.76C350.629 232.904 351.253 232.976 351.893 232.976C353.365 232.976 354.413 232.616 355.037 231.896C355.661 231.176 355.997 230.04 356.045 228.488L356.093 227.192C355.645 228.04 355.053 228.704 354.317 229.184C353.597 229.664 352.757 229.904 351.797 229.904C350.741 229.904 349.853 229.672 349.133 229.208C348.413 228.744 347.869 228.096 347.501 227.264C347.133 226.432 346.949 225.48 346.949 224.408C346.949 223.128 347.197 221.992 347.693 221C348.205 219.992 348.901 219.208 349.781 218.648C350.677 218.072 351.709 217.784 352.877 217.784C353.677 217.784 354.381 217.96 354.989 218.312C355.597 218.648 356.045 219.096 356.333 219.656L356.621 218H358.325V228.152C358.325 230.44 357.757 232.16 356.621 233.312C355.501 234.464 353.893 235.04 351.797 235.04ZM352.997 219.824C351.877 219.824 350.981 220.24 350.309 221.072C349.637 221.888 349.301 222.944 349.301 224.24C349.301 225.392 349.557 226.288 350.069 226.928C350.597 227.552 351.309 227.864 352.205 227.864C352.925 227.864 353.573 227.656 354.149 227.24C354.741 226.824 355.205 226.256 355.541 225.536C355.877 224.816 356.045 224 356.045 223.088C356.045 222.08 355.765 221.288 355.205 220.712C354.661 220.12 353.925 219.824 352.997 219.824ZM44.432 248V260H42.08L42.176 257.528C41.728 258.36 41.144 259.016 40.424 259.496C39.704 259.976 38.88 260.216 37.952 260.216C36.912 260.216 36.032 259.976 35.312 259.496C34.608 259 34.072 258.328 33.704 257.48C33.336 256.632 33.152 255.656 33.152 254.552C33.152 253.224 33.4 252.048 33.896 251.024C34.408 250 35.104 249.208 35.984 248.648C36.88 248.072 37.904 247.784 39.056 247.784C39.824 247.784 40.504 247.96 41.096 248.312C41.704 248.648 42.152 249.096 42.44 249.656L42.728 248H44.432ZM39.152 249.824C38.048 249.824 37.16 250.248 36.488 251.096C35.832 251.928 35.504 253.032 35.504 254.408C35.504 255.592 35.76 256.512 36.272 257.168C36.784 257.824 37.472 258.152 38.336 258.152C39.056 258.152 39.704 257.944 40.28 257.528C40.856 257.112 41.312 256.536 41.648 255.8C41.984 255.048 42.152 254.192 42.152 253.232C42.152 252.176 41.88 251.344 41.336 250.736C40.808 250.128 40.08 249.824 39.152 249.824ZM47.7894 260V242.24H50.0934V247.976L49.9974 250.52C50.4454 249.656 51.0294 248.984 51.7494 248.504C52.4694 248.024 53.3094 247.784 54.2694 247.784C55.3094 247.784 56.1814 248.024 56.8854 248.504C57.6054 248.984 58.1494 249.648 58.5174 250.496C58.8854 251.344 59.0694 252.32 59.0694 253.424C59.0694 254.768 58.8134 255.952 58.3014 256.976C57.8054 257.984 57.1094 258.776 56.2134 259.352C55.3334 259.928 54.3254 260.216 53.1894 260.216C52.4054 260.216 51.7094 260.04 51.1014 259.688C50.4934 259.336 50.0534 258.872 49.7814 258.296L49.4934 260H47.7894ZM53.0694 258.152C54.1734 258.152 55.0534 257.728 55.7094 256.88C56.3814 256.032 56.7174 254.92 56.7174 253.544C56.7174 252.376 56.4614 251.464 55.9494 250.808C55.4374 250.152 54.7494 249.824 53.8854 249.824C53.1654 249.824 52.5174 250.032 51.9414 250.448C51.3654 250.864 50.9094 251.44 50.5734 252.176C50.2374 252.912 50.0694 253.76 50.0694 254.72C50.0694 255.792 50.3334 256.632 50.8614 257.24C51.4054 257.848 52.1414 258.152 53.0694 258.152ZM67.3468 247.784C69.0588 247.784 70.4108 248.32 71.4028 249.392C72.3948 250.464 72.8907 251.912 72.8907 253.736C72.8907 254.968 72.6428 256.072 72.1468 257.048C71.6508 258.024 70.9548 258.8 70.0588 259.376C69.1788 259.936 68.1468 260.216 66.9628 260.216C65.2028 260.216 63.8268 259.68 62.8348 258.608C61.8588 257.536 61.3708 256.08 61.3708 254.24C61.3708 253.008 61.6108 251.904 62.0908 250.928C62.5868 249.952 63.2828 249.184 64.1788 248.624C65.0748 248.064 66.1308 247.784 67.3468 247.784ZM66.9868 258.152C68.0428 258.152 68.8908 257.752 69.5308 256.952C70.1868 256.136 70.5148 255.064 70.5148 253.736C70.5148 252.488 70.2268 251.528 69.6508 250.856C69.0908 250.168 68.3148 249.824 67.3228 249.824C66.2348 249.824 65.3628 250.232 64.7068 251.048C64.0508 251.864 63.7228 252.928 63.7228 254.24C63.7228 255.488 64.0108 256.456 64.5868 257.144C65.1628 257.816 65.9628 258.152 66.9868 258.152ZM79.4234 260.216C78.1594 260.216 77.1914 259.784 76.5194 258.92C75.8634 258.04 75.5434 256.832 75.5594 255.296L75.6314 247.976H77.9114L77.8394 255.056C77.8394 256 78.0074 256.736 78.3434 257.264C78.6954 257.792 79.2474 258.056 79.9994 258.056C80.7514 258.056 81.4154 257.752 81.9914 257.144C82.5834 256.536 83.0474 255.496 83.3834 254.024C83.7354 252.552 83.9114 250.536 83.9114 247.976H86.1194V260H83.8154L83.9594 256.664C83.4954 257.848 82.8634 258.736 82.0634 259.328C81.2794 259.92 80.3994 260.216 79.4234 260.216ZM94.3561 260.216C92.9321 260.216 91.8441 259.84 91.0921 259.088C90.3561 258.32 89.9961 257.304 90.0121 256.04L90.1081 249.92H88.0201V247.976H90.1321L90.1561 245.48H92.4601L92.4121 247.976H96.4921V249.92H92.3881L92.3161 255.848C92.3161 256.552 92.5001 257.12 92.8681 257.552C93.2361 257.968 93.8041 258.176 94.5721 258.176C94.9401 258.176 95.2841 258.136 95.6041 258.056C95.9241 257.96 96.2601 257.776 96.6121 257.504L97.3081 259.304C96.9561 259.608 96.5161 259.84 95.9881 260C95.4761 260.144 94.9321 260.216 94.3561 260.216ZM112.006 260V242.24H114.31L114.334 247.976L114.166 251.504C114.614 250.304 115.246 249.384 116.062 248.744C116.878 248.104 117.83 247.784 118.918 247.784C120.198 247.784 121.174 248.232 121.846 249.128C122.518 250.008 122.846 251.28 122.83 252.944L122.782 260H120.502L120.55 253.16C120.566 251 119.83 249.92 118.342 249.92C117.558 249.92 116.862 250.224 116.254 250.832C115.662 251.44 115.19 252.48 114.838 253.952C114.486 255.424 114.302 257.44 114.286 260H112.006ZM131.613 260.216C129.725 260.216 128.237 259.68 127.149 258.608C126.061 257.536 125.517 256.056 125.517 254.168C125.517 252.92 125.765 251.816 126.261 250.856C126.773 249.896 127.469 249.144 128.349 248.6C129.229 248.056 130.229 247.784 131.349 247.784C133.077 247.784 134.389 248.384 135.285 249.584C136.181 250.768 136.493 252.488 136.221 254.744H127.845C127.893 255.832 128.253 256.68 128.925 257.288C129.613 257.88 130.565 258.176 131.781 258.176C132.373 258.176 132.941 258.048 133.485 257.792C134.045 257.52 134.525 257.12 134.925 256.592L136.317 257.936C135.757 258.672 135.093 259.24 134.325 259.64C133.557 260.024 132.653 260.216 131.613 260.216ZM131.373 249.56C130.397 249.56 129.605 249.888 128.997 250.544C128.389 251.2 128.021 252.024 127.893 253.016H134.229C134.277 251.8 134.029 250.92 133.485 250.376C132.957 249.832 132.253 249.56 131.373 249.56ZM149.734 248V260H147.382L147.478 257.528C147.03 258.36 146.446 259.016 145.726 259.496C145.006 259.976 144.182 260.216 143.254 260.216C142.214 260.216 141.334 259.976 140.614 259.496C139.91 259 139.374 258.328 139.006 257.48C138.638 256.632 138.454 255.656 138.454 254.552C138.454 253.224 138.702 252.048 139.198 251.024C139.71 250 140.406 249.208 141.286 248.648C142.182 248.072 143.206 247.784 144.358 247.784C145.126 247.784 145.806 247.96 146.398 248.312C147.006 248.648 147.454 249.096 147.742 249.656L148.03 248H149.734ZM144.454 249.824C143.35 249.824 142.462 250.248 141.79 251.096C141.134 251.928 140.806 253.032 140.806 254.408C140.806 255.592 141.062 256.512 141.574 257.168C142.086 257.824 142.774 258.152 143.638 258.152C144.358 258.152 145.006 257.944 145.582 257.528C146.158 257.112 146.614 256.536 146.95 255.8C147.286 255.048 147.454 254.192 147.454 253.232C147.454 252.176 147.182 251.344 146.638 250.736C146.11 250.128 145.382 249.824 144.454 249.824ZM156.307 260.216C155.235 260.216 154.427 259.928 153.883 259.352C153.355 258.76 153.091 257.96 153.091 256.952V242.24H155.395V256.712C155.395 257.688 155.835 258.176 156.715 258.176C156.939 258.176 157.147 258.144 157.339 258.08C157.547 258.016 157.723 257.944 157.867 257.864L158.443 259.568C158.219 259.76 157.907 259.912 157.507 260.024C157.123 260.152 156.723 260.216 156.307 260.216ZM164.385 260.216C162.961 260.216 161.873 259.84 161.121 259.088C160.385 258.32 160.025 257.304 160.041 256.04L160.137 249.92H158.049V247.976H160.161L160.185 245.48H162.489L162.441 247.976H166.521V249.92H162.417L162.345 255.848C162.345 256.552 162.529 257.12 162.897 257.552C163.265 257.968 163.833 258.176 164.601 258.176C164.969 258.176 165.313 258.136 165.633 258.056C165.953 257.96 166.289 257.776 166.641 257.504L167.337 259.304C166.985 259.608 166.545 259.84 166.017 260C165.505 260.144 164.961 260.216 164.385 260.216ZM168.771 260V242.24H171.075L171.099 247.976L170.931 251.504C171.379 250.304 172.011 249.384 172.827 248.744C173.643 248.104 174.595 247.784 175.683 247.784C176.963 247.784 177.939 248.232 178.611 249.128C179.283 250.008 179.611 251.28 179.595 252.944L179.547 260H177.267L177.315 253.16C177.331 251 176.595 249.92 175.107 249.92C174.323 249.92 173.627 250.224 173.019 250.832C172.427 251.44 171.955 252.48 171.603 253.952C171.251 255.424 171.067 257.44 171.051 260H168.771ZM186.914 265.04C186.226 265.04 185.498 264.968 184.73 264.824C183.978 264.68 183.346 264.456 182.834 264.152L183.41 262.136C183.954 262.408 184.53 262.616 185.138 262.76C185.746 262.904 186.37 262.976 187.01 262.976C188.482 262.976 189.53 262.616 190.154 261.896C190.778 261.192 191.114 260.056 191.162 258.488L191.258 256.232C190.794 257.464 190.154 258.384 189.338 258.992C188.522 259.6 187.594 259.904 186.554 259.904C185.274 259.904 184.298 259.472 183.626 258.608C182.97 257.744 182.65 256.536 182.666 254.984L182.738 247.976H185.018L184.946 254.768C184.946 255.712 185.114 256.448 185.45 256.976C185.802 257.504 186.362 257.768 187.13 257.768C187.914 257.768 188.602 257.464 189.194 256.856C189.802 256.248 190.274 255.232 190.61 253.808C190.946 252.384 191.122 250.44 191.138 247.976H193.346V258.176C193.346 260.48 192.794 262.2 191.69 263.336C190.602 264.472 189.01 265.04 186.914 265.04ZM215.563 260.216C213.675 260.216 212.187 259.68 211.099 258.608C210.011 257.536 209.467 256.056 209.467 254.168C209.467 252.92 209.715 251.816 210.211 250.856C210.723 249.896 211.419 249.144 212.299 248.6C213.179 248.056 214.179 247.784 215.299 247.784C217.027 247.784 218.339 248.384 219.235 249.584C220.131 250.768 220.443 252.488 220.171 254.744H211.795C211.843 255.832 212.203 256.68 212.875 257.288C213.563 257.88 214.515 258.176 215.731 258.176C216.323 258.176 216.891 258.048 217.435 257.792C217.995 257.52 218.475 257.12 218.875 256.592L220.267 257.936C219.707 258.672 219.043 259.24 218.275 259.64C217.507 260.024 216.603 260.216 215.563 260.216ZM215.323 249.56C214.347 249.56 213.555 249.888 212.947 250.544C212.339 251.2 211.971 252.024 211.843 253.016H218.179C218.227 251.8 217.979 250.92 217.435 250.376C216.907 249.832 216.203 249.56 215.323 249.56ZM233.685 248V260H231.333L231.429 257.528C230.981 258.36 230.397 259.016 229.677 259.496C228.957 259.976 228.133 260.216 227.205 260.216C226.165 260.216 225.285 259.976 224.565 259.496C223.861 259 223.325 258.328 222.957 257.48C222.589 256.632 222.405 255.656 222.405 254.552C222.405 253.224 222.653 252.048 223.149 251.024C223.661 250 224.357 249.208 225.237 248.648C226.133 248.072 227.157 247.784 228.309 247.784C229.077 247.784 229.757 247.96 230.349 248.312C230.957 248.648 231.405 249.096 231.693 249.656L231.981 248H233.685ZM228.405 249.824C227.301 249.824 226.413 250.248 225.741 251.096C225.085 251.928 224.757 253.032 224.757 254.408C224.757 255.592 225.013 256.512 225.525 257.168C226.037 257.824 226.725 258.152 227.589 258.152C228.309 258.152 228.957 257.944 229.533 257.528C230.109 257.112 230.565 256.536 230.901 255.8C231.237 255.048 231.405 254.192 231.405 253.232C231.405 252.176 231.133 251.344 230.589 250.736C230.061 250.128 229.333 249.824 228.405 249.824ZM241.89 260.216C240.466 260.216 239.378 259.84 238.626 259.088C237.89 258.32 237.53 257.304 237.546 256.04L237.642 249.92H235.554V247.976H237.666L237.69 245.48H239.994L239.946 247.976H244.026V249.92H239.922L239.85 255.848C239.85 256.552 240.034 257.12 240.402 257.552C240.77 257.968 241.338 258.176 242.106 258.176C242.474 258.176 242.818 258.136 243.138 258.056C243.458 257.96 243.794 257.776 244.146 257.504L244.842 259.304C244.49 259.608 244.05 259.84 243.522 260C243.01 260.144 242.466 260.216 241.89 260.216ZM248.556 247.976V260H246.276V247.976H248.556ZM247.452 245.648C246.988 245.648 246.62 245.504 246.348 245.216C246.076 244.912 245.94 244.56 245.94 244.16C245.94 243.76 246.076 243.416 246.348 243.128C246.62 242.824 246.988 242.672 247.452 242.672C247.916 242.672 248.284 242.824 248.556 243.128C248.828 243.416 248.964 243.76 248.964 244.16C248.964 244.56 248.828 244.912 248.556 245.216C248.284 245.504 247.916 245.648 247.452 245.648ZM251.948 260V247.976H254.252L254.108 251.528C254.556 250.328 255.188 249.408 256.004 248.768C256.82 248.112 257.772 247.784 258.86 247.784C260.14 247.784 261.116 248.232 261.788 249.128C262.46 250.008 262.788 251.28 262.772 252.944L262.724 260H260.444L260.492 253.16C260.508 251 259.772 249.92 258.284 249.92C257.5 249.92 256.804 250.224 256.196 250.832C255.604 251.44 255.132 252.48 254.78 253.952C254.428 255.424 254.244 257.44 254.228 260H251.948ZM270.307 265.04C269.619 265.04 268.891 264.968 268.123 264.824C267.371 264.68 266.739 264.456 266.227 264.152L266.803 262.136C267.347 262.408 267.923 262.616 268.531 262.76C269.139 262.904 269.763 262.976 270.403 262.976C271.875 262.976 272.923 262.616 273.547 261.896C274.171 261.176 274.507 260.04 274.555 258.488L274.603 257.192C274.155 258.04 273.563 258.704 272.827 259.184C272.107 259.664 271.267 259.904 270.307 259.904C269.251 259.904 268.363 259.672 267.643 259.208C266.923 258.744 266.379 258.096 266.011 257.264C265.643 256.432 265.459 255.48 265.459 254.408C265.459 253.128 265.707 251.992 266.203 251C266.715 249.992 267.411 249.208 268.291 248.648C269.187 248.072 270.219 247.784 271.387 247.784C272.187 247.784 272.891 247.96 273.499 248.312C274.107 248.648 274.555 249.096 274.843 249.656L275.131 248H276.835V258.152C276.835 260.44 276.267 262.16 275.131 263.312C274.011 264.464 272.403 265.04 270.307 265.04ZM271.507 249.824C270.387 249.824 269.491 250.24 268.819 251.072C268.147 251.888 267.811 252.944 267.811 254.24C267.811 255.392 268.067 256.288 268.579 256.928C269.107 257.552 269.819 257.864 270.715 257.864C271.435 257.864 272.083 257.656 272.659 257.24C273.251 256.824 273.715 256.256 274.051 255.536C274.387 254.816 274.555 254 274.555 253.088C274.555 252.08 274.275 251.288 273.715 250.712C273.171 250.12 272.435 249.824 271.507 249.824ZM293.453 260V242.24H295.757L295.781 247.976L295.613 251.504C296.061 250.304 296.693 249.384 297.509 248.744C298.325 248.104 299.277 247.784 300.365 247.784C301.645 247.784 302.621 248.232 303.293 249.128C303.965 250.008 304.293 251.28 304.277 252.944L304.229 260H301.949L301.997 253.16C302.013 251 301.277 249.92 299.789 249.92C299.005 249.92 298.309 250.224 297.701 250.832C297.109 251.44 296.637 252.48 296.285 253.952C295.933 255.424 295.749 257.44 295.733 260H293.453ZM318.245 248V260H315.893L315.989 257.528C315.541 258.36 314.957 259.016 314.237 259.496C313.517 259.976 312.693 260.216 311.765 260.216C310.725 260.216 309.845 259.976 309.125 259.496C308.421 259 307.885 258.328 307.517 257.48C307.149 256.632 306.965 255.656 306.965 254.552C306.965 253.224 307.213 252.048 307.709 251.024C308.221 250 308.917 249.208 309.797 248.648C310.693 248.072 311.717 247.784 312.868 247.784C313.637 247.784 314.317 247.96 314.909 248.312C315.517 248.648 315.965 249.096 316.253 249.656L316.541 248H318.245ZM312.965 249.824C311.861 249.824 310.973 250.248 310.301 251.096C309.645 251.928 309.317 253.032 309.317 254.408C309.317 255.592 309.573 256.512 310.085 257.168C310.597 257.824 311.285 258.152 312.148 258.152C312.869 258.152 313.517 257.944 314.093 257.528C314.669 257.112 315.125 256.536 315.461 255.8C315.797 255.048 315.965 254.192 315.965 253.232C315.965 252.176 315.693 251.344 315.149 250.736C314.621 250.128 313.893 249.824 312.965 249.824ZM321.602 260V242.24H323.906V247.976L323.81 250.52C324.258 249.656 324.842 248.984 325.562 248.504C326.282 248.024 327.122 247.784 328.082 247.784C329.122 247.784 329.994 248.024 330.698 248.504C331.418 248.984 331.962 249.648 332.33 250.496C332.698 251.344 332.882 252.32 332.882 253.424C332.882 254.768 332.626 255.952 332.114 256.976C331.618 257.984 330.922 258.776 330.026 259.352C329.146 259.928 328.138 260.216 327.002 260.216C326.218 260.216 325.522 260.04 324.914 259.688C324.306 259.336 323.866 258.872 323.594 258.296L323.306 260H321.602ZM326.882 258.152C327.986 258.152 328.866 257.728 329.522 256.88C330.194 256.032 330.53 254.92 330.53 253.544C330.53 252.376 330.274 251.464 329.762 250.808C329.25 250.152 328.562 249.824 327.698 249.824C326.978 249.824 326.33 250.032 325.754 250.448C325.178 250.864 324.722 251.44 324.386 252.176C324.05 252.912 323.882 253.76 323.882 254.72C323.882 255.792 324.146 256.632 324.674 257.24C325.218 257.848 325.954 258.152 326.882 258.152ZM337.991 247.976V260H335.711V247.976H337.991ZM336.887 245.648C336.423 245.648 336.055 245.504 335.783 245.216C335.511 244.912 335.375 244.56 335.375 244.16C335.375 243.76 335.511 243.416 335.783 243.128C336.055 242.824 336.423 242.672 336.887 242.672C337.351 242.672 337.719 242.824 337.991 243.128C338.263 243.416 338.399 243.76 338.399 244.16C338.399 244.56 338.263 244.912 337.991 245.216C337.719 245.504 337.351 245.648 336.887 245.648ZM346.231 260.216C344.807 260.216 343.719 259.84 342.967 259.088C342.231 258.32 341.871 257.304 341.887 256.04L341.983 249.92H339.895V247.976H342.007L342.031 245.48H344.335L344.287 247.976H348.367V249.92H344.263L344.191 255.848C344.191 256.552 344.375 257.12 344.743 257.552C345.111 257.968 345.679 258.176 346.447 258.176C346.815 258.176 347.159 258.136 347.479 258.056C347.799 257.96 348.135 257.776 348.487 257.504L349.183 259.304C348.831 259.608 348.391 259.84 347.863 260C347.351 260.144 346.807 260.216 346.231 260.216ZM354.65 260.216C353.082 260.216 351.874 259.904 351.026 259.28C350.178 258.656 349.69 257.776 349.562 256.64L351.53 256.16C351.642 256.896 351.946 257.448 352.442 257.816C352.938 258.184 353.674 258.368 354.65 258.368C355.434 258.368 356.034 258.224 356.45 257.936C356.866 257.632 357.074 257.232 357.074 256.736C357.074 256.256 356.85 255.904 356.402 255.68C355.97 255.44 355.298 255.232 354.386 255.056C353.538 254.896 352.802 254.688 352.178 254.432C351.57 254.16 351.098 253.8 350.762 253.352C350.426 252.888 350.258 252.28 350.258 251.528C350.258 250.808 350.45 250.168 350.834 249.608C351.234 249.048 351.77 248.608 352.442 248.288C353.13 247.952 353.914 247.784 354.794 247.784C355.978 247.784 356.946 248.072 357.698 248.648C358.466 249.208 358.922 249.952 359.066 250.88L357.17 251.384C356.914 250.216 356.106 249.632 354.746 249.632C354.042 249.632 353.49 249.8 353.09 250.136C352.69 250.456 352.49 250.872 352.49 251.384C352.49 251.832 352.682 252.2 353.066 252.488C353.45 252.76 354.138 252.992 355.13 253.184C355.978 253.36 356.714 253.576 357.338 253.832C357.962 254.072 358.442 254.408 358.778 254.84C359.13 255.256 359.314 255.832 359.33 256.568C359.33 257.272 359.13 257.904 358.73 258.464C358.346 259.008 357.802 259.44 357.098 259.76C356.394 260.064 355.578 260.216 354.65 260.216ZM44.432 278V290H42.08L42.176 287.528C41.728 288.36 41.144 289.016 40.424 289.496C39.704 289.976 38.88 290.216 37.952 290.216C36.912 290.216 36.032 289.976 35.312 289.496C34.608 289 34.072 288.328 33.704 287.48C33.336 286.632 33.152 285.656 33.152 284.552C33.152 283.224 33.4 282.048 33.896 281.024C34.408 280 35.104 279.208 35.984 278.648C36.88 278.072 37.904 277.784 39.056 277.784C39.824 277.784 40.504 277.96 41.096 278.312C41.704 278.648 42.152 279.096 42.44 279.656L42.728 278H44.432ZM39.152 279.824C38.048 279.824 37.16 280.248 36.488 281.096C35.832 281.928 35.504 283.032 35.504 284.408C35.504 285.592 35.76 286.512 36.272 287.168C36.784 287.824 37.472 288.152 38.336 288.152C39.056 288.152 39.704 287.944 40.28 287.528C40.856 287.112 41.312 286.536 41.648 285.8C41.984 285.048 42.152 284.192 42.152 283.232C42.152 282.176 41.88 281.344 41.336 280.736C40.808 280.128 40.08 279.824 39.152 279.824ZM47.7894 290V277.976H50.0934L49.9494 281.528C50.3974 280.328 51.0294 279.408 51.8454 278.768C52.6614 278.112 53.6134 277.784 54.7014 277.784C55.9814 277.784 56.9574 278.232 57.6294 279.128C58.3014 280.008 58.6294 281.28 58.6134 282.944L58.5654 290H56.2854L56.3334 283.16C56.3494 281 55.6134 279.92 54.1254 279.92C53.3414 279.92 52.6454 280.224 52.0374 280.832C51.4454 281.44 50.9734 282.48 50.6214 283.952C50.2694 285.424 50.0854 287.44 50.0694 290H47.7894ZM72.5804 272.24V290H70.2284L70.3244 287.528C69.8764 288.36 69.2924 289.016 68.5724 289.496C67.8524 289.976 67.0284 290.216 66.1004 290.216C65.0604 290.216 64.1804 289.976 63.4604 289.496C62.7564 289 62.2204 288.328 61.8524 287.48C61.4844 286.632 61.3004 285.656 61.3004 284.552C61.3004 283.224 61.5484 282.048 62.0444 281.024C62.5564 280 63.2524 279.208 64.1324 278.648C65.0284 278.072 66.0524 277.784 67.2044 277.784C67.8604 277.784 68.4604 277.912 69.0044 278.168C69.5484 278.424 69.9884 278.768 70.3244 279.2L70.2764 277.976V272.24H72.5804ZM67.3004 279.824C66.1964 279.824 65.3084 280.248 64.6364 281.096C63.9804 281.928 63.6524 283.032 63.6524 284.408C63.6524 285.592 63.9084 286.512 64.4204 287.168C64.9324 287.824 65.6204 288.152 66.4844 288.152C67.2044 288.152 67.8524 287.944 68.4284 287.528C69.0044 287.112 69.4604 286.536 69.7964 285.8C70.1324 285.048 70.3004 284.192 70.3004 283.232C70.3004 282.176 70.0284 281.344 69.4844 280.736C68.9564 280.128 68.2284 279.824 67.3004 279.824ZM96.1071 294.8V277.976H98.4351L98.3391 280.472C98.7871 279.624 99.3711 278.968 100.091 278.504C100.811 278.024 101.643 277.784 102.587 277.784C103.627 277.784 104.499 278.024 105.203 278.504C105.923 278.984 106.467 279.648 106.835 280.496C107.203 281.344 107.387 282.32 107.387 283.424C107.387 284.768 107.131 285.952 106.619 286.976C106.123 287.984 105.427 288.776 104.531 289.352C103.651 289.928 102.643 290.216 101.507 290.216C100.835 290.216 100.227 290.088 99.6831 289.832C99.1391 289.56 98.6991 289.2 98.3631 288.752L98.4111 290V294.8H96.1071ZM101.387 288.152C102.491 288.152 103.371 287.728 104.027 286.88C104.699 286.032 105.035 284.92 105.035 283.544C105.035 282.376 104.779 281.464 104.267 280.808C103.755 280.152 103.067 279.824 102.203 279.824C101.483 279.824 100.835 280.032 100.259 280.448C99.6831 280.864 99.2271 281.44 98.8911 282.176C98.5551 282.912 98.3871 283.76 98.3871 284.72C98.3871 285.792 98.6511 286.632 99.1791 287.24C99.7231 287.848 100.459 288.152 101.387 288.152ZM117.464 280.184C117.16 280.088 116.792 280.04 116.36 280.04C115.464 280.04 114.728 280.384 114.152 281.072C113.592 281.744 113.176 282.816 112.904 284.288C112.648 285.744 112.52 287.648 112.52 290H110.24V282.272L110.216 277.976H112.52L112.376 281.816C112.776 280.36 113.352 279.328 114.104 278.72C114.872 278.096 115.688 277.784 116.552 277.784C116.808 277.784 117.04 277.8 117.248 277.832C117.472 277.848 117.664 277.888 117.824 277.952L117.464 280.184ZM129.687 278V290H127.335L127.431 287.528C126.983 288.36 126.399 289.016 125.679 289.496C124.959 289.976 124.135 290.216 123.207 290.216C122.167 290.216 121.287 289.976 120.567 289.496C119.863 289 119.327 288.328 118.959 287.48C118.591 286.632 118.407 285.656 118.407 284.552C118.407 283.224 118.655 282.048 119.151 281.024C119.663 280 120.359 279.208 121.239 278.648C122.135 278.072 123.159 277.784 124.311 277.784C125.079 277.784 125.759 277.96 126.351 278.312C126.959 278.648 127.407 279.096 127.695 279.656L127.983 278H129.687ZM124.407 279.824C123.303 279.824 122.415 280.248 121.743 281.096C121.087 281.928 120.759 283.032 120.759 284.408C120.759 285.592 121.015 286.512 121.527 287.168C122.039 287.824 122.727 288.152 123.591 288.152C124.311 288.152 124.959 287.944 125.535 287.528C126.111 287.112 126.567 286.536 126.903 285.8C127.239 285.048 127.407 284.192 127.407 283.232C127.407 282.176 127.135 281.344 126.591 280.736C126.063 280.128 125.335 279.824 124.407 279.824ZM138.277 290.216C136.485 290.216 135.077 289.688 134.053 288.632C133.029 287.576 132.517 286.104 132.517 284.216C132.517 282.936 132.765 281.816 133.261 280.856C133.773 279.88 134.485 279.128 135.397 278.6C136.309 278.056 137.365 277.784 138.565 277.784C140.565 277.784 142.021 278.576 142.933 280.16L141.253 281.432C140.661 280.376 139.757 279.848 138.541 279.848C137.453 279.848 136.573 280.248 135.901 281.048C135.229 281.832 134.893 282.88 134.893 284.192C134.893 285.472 135.189 286.448 135.781 287.12C136.389 287.792 137.261 288.128 138.397 288.128C138.989 288.128 139.533 288 140.029 287.744C140.541 287.488 140.965 287.08 141.301 286.52L142.933 287.816C142.421 288.648 141.765 289.256 140.965 289.64C140.181 290.024 139.285 290.216 138.277 290.216ZM149.775 290.216C148.351 290.216 147.263 289.84 146.511 289.088C145.775 288.32 145.415 287.304 145.431 286.04L145.527 279.92H143.439V277.976H145.551L145.575 275.48H147.879L147.831 277.976H151.911V279.92H147.807L147.735 285.848C147.735 286.552 147.919 287.12 148.287 287.552C148.655 287.968 149.223 288.176 149.991 288.176C150.359 288.176 150.703 288.136 151.023 288.056C151.343 287.96 151.679 287.776 152.031 287.504L152.727 289.304C152.375 289.608 151.935 289.84 151.407 290C150.895 290.144 150.351 290.216 149.775 290.216ZM156.442 277.976V290H154.162V277.976H156.442ZM155.338 275.648C154.874 275.648 154.506 275.504 154.234 275.216C153.962 274.912 153.826 274.56 153.826 274.16C153.826 273.76 153.962 273.416 154.234 273.128C154.506 272.824 154.874 272.672 155.338 272.672C155.802 272.672 156.17 272.824 156.442 273.128C156.714 273.416 156.85 273.76 156.85 274.16C156.85 274.56 156.714 274.912 156.442 275.216C156.17 275.504 155.802 275.648 155.338 275.648ZM165.066 290.216C163.274 290.216 161.866 289.688 160.842 288.632C159.818 287.576 159.306 286.104 159.306 284.216C159.306 282.936 159.554 281.816 160.05 280.856C160.562 279.88 161.274 279.128 162.186 278.6C163.098 278.056 164.154 277.784 165.354 277.784C167.354 277.784 168.81 278.576 169.722 280.16L168.042 281.432C167.45 280.376 166.546 279.848 165.33 279.848C164.242 279.848 163.362 280.248 162.69 281.048C162.018 281.832 161.682 282.88 161.682 284.192C161.682 285.472 161.978 286.448 162.57 287.12C163.178 287.792 164.05 288.128 165.186 288.128C165.778 288.128 166.322 288 166.818 287.744C167.33 287.488 167.754 287.08 168.09 286.52L169.722 287.816C169.21 288.648 168.554 289.256 167.754 289.64C166.97 290.024 166.074 290.216 165.066 290.216ZM173.879 277.976V290H171.599V277.976H173.879ZM172.775 275.648C172.311 275.648 171.943 275.504 171.671 275.216C171.399 274.912 171.263 274.56 171.263 274.16C171.263 273.76 171.399 273.416 171.671 273.128C171.943 272.824 172.311 272.672 172.775 272.672C173.239 272.672 173.607 272.824 173.879 273.128C174.151 273.416 174.287 273.76 174.287 274.16C174.287 274.56 174.151 274.912 173.879 275.216C173.607 275.504 173.239 275.648 172.775 275.648ZM177.271 290V277.976H179.575L179.431 281.528C179.879 280.328 180.511 279.408 181.327 278.768C182.143 278.112 183.095 277.784 184.183 277.784C185.463 277.784 186.439 278.232 187.111 279.128C187.783 280.008 188.111 281.28 188.095 282.944L188.047 290H185.767L185.815 283.16C185.831 281 185.095 279.92 183.607 279.92C182.823 279.92 182.127 280.224 181.519 280.832C180.927 281.44 180.455 282.48 180.103 283.952C179.751 285.424 179.567 287.44 179.551 290H177.271ZM195.63 295.04C194.942 295.04 194.214 294.968 193.446 294.824C192.694 294.68 192.062 294.456 191.55 294.152L192.126 292.136C192.67 292.408 193.246 292.616 193.854 292.76C194.462 292.904 195.086 292.976 195.726 292.976C197.198 292.976 198.246 292.616 198.87 291.896C199.494 291.176 199.83 290.04 199.878 288.488L199.926 287.192C199.478 288.04 198.886 288.704 198.15 289.184C197.43 289.664 196.59 289.904 195.63 289.904C194.574 289.904 193.686 289.672 192.966 289.208C192.246 288.744 191.702 288.096 191.334 287.264C190.966 286.432 190.782 285.48 190.782 284.408C190.782 283.128 191.03 281.992 191.526 281C192.038 279.992 192.734 279.208 193.614 278.648C194.51 278.072 195.542 277.784 196.71 277.784C197.51 277.784 198.214 277.96 198.822 278.312C199.43 278.648 199.878 279.096 200.166 279.656L200.454 278H202.158V288.152C202.158 290.44 201.59 292.16 200.454 293.312C199.334 294.464 197.726 295.04 195.63 295.04ZM196.83 279.824C195.71 279.824 194.814 280.24 194.142 281.072C193.47 281.888 193.134 282.944 193.134 284.24C193.134 285.392 193.39 286.288 193.902 286.928C194.43 287.552 195.142 287.864 196.038 287.864C196.758 287.864 197.406 287.656 197.982 287.24C198.574 286.824 199.038 286.256 199.374 285.536C199.71 284.816 199.878 284 199.878 283.088C199.878 282.08 199.598 281.288 199.038 280.712C198.494 280.12 197.758 279.824 196.83 279.824ZM229.715 290.216C228.147 290.216 226.939 289.904 226.091 289.28C225.243 288.656 224.755 287.776 224.627 286.64L226.595 286.16C226.707 286.896 227.011 287.448 227.507 287.816C228.003 288.184 228.739 288.368 229.715 288.368C230.499 288.368 231.099 288.224 231.515 287.936C231.931 287.632 232.139 287.232 232.139 286.736C232.139 286.256 231.915 285.904 231.467 285.68C231.035 285.44 230.363 285.232 229.451 285.056C228.603 284.896 227.867 284.688 227.243 284.432C226.635 284.16 226.163 283.8 225.827 283.352C225.491 282.888 225.323 282.28 225.323 281.528C225.323 280.808 225.515 280.168 225.899 279.608C226.299 279.048 226.835 278.608 227.507 278.288C228.195 277.952 228.979 277.784 229.859 277.784C231.043 277.784 232.011 278.072 232.763 278.648C233.531 279.208 233.987 279.952 234.131 280.88L232.235 281.384C231.979 280.216 231.171 279.632 229.811 279.632C229.107 279.632 228.555 279.8 228.155 280.136C227.755 280.456 227.555 280.872 227.555 281.384C227.555 281.832 227.747 282.2 228.131 282.488C228.515 282.76 229.203 282.992 230.195 283.184C231.043 283.36 231.779 283.576 232.403 283.832C233.027 284.072 233.507 284.408 233.843 284.84C234.195 285.256 234.379 285.832 234.395 286.568C234.395 287.272 234.195 287.904 233.795 288.464C233.411 289.008 232.867 289.44 232.163 289.76C231.459 290.064 230.643 290.216 229.715 290.216ZM242.193 277.784C243.905 277.784 245.257 278.32 246.249 279.392C247.241 280.464 247.737 281.912 247.737 283.736C247.737 284.968 247.489 286.072 246.993 287.048C246.497 288.024 245.801 288.8 244.905 289.376C244.025 289.936 242.993 290.216 241.809 290.216C240.049 290.216 238.673 289.68 237.681 288.608C236.705 287.536 236.217 286.08 236.217 284.24C236.217 283.008 236.457 281.904 236.937 280.928C237.433 279.952 238.129 279.184 239.025 278.624C239.921 278.064 240.977 277.784 242.193 277.784ZM241.833 288.152C242.889 288.152 243.737 287.752 244.377 286.952C245.033 286.136 245.361 285.064 245.361 283.736C245.361 282.488 245.073 281.528 244.497 280.856C243.937 280.168 243.161 279.824 242.169 279.824C241.081 279.824 240.209 280.232 239.553 281.048C238.897 281.864 238.569 282.928 238.569 284.24C238.569 285.488 238.857 286.456 239.433 287.144C240.009 287.816 240.809 288.152 241.833 288.152ZM255.782 290.216C253.99 290.216 252.582 289.688 251.558 288.632C250.534 287.576 250.022 286.104 250.022 284.216C250.022 282.936 250.27 281.816 250.766 280.856C251.278 279.88 251.99 279.128 252.902 278.6C253.814 278.056 254.87 277.784 256.07 277.784C258.07 277.784 259.526 278.576 260.438 280.16L258.758 281.432C258.166 280.376 257.262 279.848 256.046 279.848C254.958 279.848 254.078 280.248 253.406 281.048C252.734 281.832 252.398 282.88 252.398 284.192C252.398 285.472 252.694 286.448 253.286 287.12C253.894 287.792 254.766 288.128 255.902 288.128C256.494 288.128 257.038 288 257.534 287.744C258.046 287.488 258.47 287.08 258.806 286.52L260.438 287.816C259.926 288.648 259.27 289.256 258.47 289.64C257.686 290.024 256.79 290.216 255.782 290.216ZM264.595 277.976V290H262.315V277.976H264.595ZM263.491 275.648C263.027 275.648 262.659 275.504 262.387 275.216C262.115 274.912 261.979 274.56 261.979 274.16C261.979 273.76 262.115 273.416 262.387 273.128C262.659 272.824 263.027 272.672 263.491 272.672C263.955 272.672 264.323 272.824 264.595 273.128C264.867 273.416 265.003 273.76 265.003 274.16C265.003 274.56 264.867 274.912 264.595 275.216C264.323 275.504 263.955 275.648 263.491 275.648ZM278.739 278V290H276.387L276.483 287.528C276.035 288.36 275.451 289.016 274.731 289.496C274.011 289.976 273.187 290.216 272.259 290.216C271.219 290.216 270.339 289.976 269.619 289.496C268.915 289 268.379 288.328 268.011 287.48C267.643 286.632 267.459 285.656 267.459 284.552C267.459 283.224 267.707 282.048 268.203 281.024C268.715 280 269.411 279.208 270.291 278.648C271.187 278.072 272.211 277.784 273.363 277.784C274.131 277.784 274.811 277.96 275.403 278.312C276.011 278.648 276.459 279.096 276.747 279.656L277.035 278H278.739ZM273.459 279.824C272.355 279.824 271.467 280.248 270.795 281.096C270.139 281.928 269.811 283.032 269.811 284.408C269.811 285.592 270.067 286.512 270.579 287.168C271.091 287.824 271.779 288.152 272.643 288.152C273.363 288.152 274.011 287.944 274.587 287.528C275.163 287.112 275.619 286.536 275.955 285.8C276.291 285.048 276.459 284.192 276.459 283.232C276.459 282.176 276.187 281.344 275.643 280.736C275.115 280.128 274.387 279.824 273.459 279.824ZM285.313 290.216C284.241 290.216 283.433 289.928 282.889 289.352C282.361 288.76 282.097 287.96 282.097 286.952V272.24H284.401V286.712C284.401 287.688 284.841 288.176 285.721 288.176C285.945 288.176 286.153 288.144 286.345 288.08C286.553 288.016 286.729 287.944 286.873 287.864L287.449 289.568C287.225 289.76 286.913 289.912 286.513 290.024C286.129 290.152 285.729 290.216 285.313 290.216ZM312.978 290.216C311.41 290.216 310.202 289.904 309.354 289.28C308.506 288.656 308.018 287.776 307.89 286.64L309.858 286.16C309.97 286.896 310.274 287.448 310.77 287.816C311.266 288.184 312.002 288.368 312.978 288.368C313.762 288.368 314.362 288.224 314.778 287.936C315.194 287.632 315.402 287.232 315.402 286.736C315.402 286.256 315.178 285.904 314.73 285.68C314.298 285.44 313.626 285.232 312.714 285.056C311.866 284.896 311.13 284.688 310.506 284.432C309.898 284.16 309.426 283.8 309.09 283.352C308.754 282.888 308.586 282.28 308.586 281.528C308.586 280.808 308.778 280.168 309.162 279.608C309.562 279.048 310.098 278.608 310.77 278.288C311.458 277.952 312.242 277.784 313.122 277.784C314.306 277.784 315.274 278.072 316.026 278.648C316.794 279.208 317.25 279.952 317.394 280.88L315.498 281.384C315.242 280.216 314.434 279.632 313.074 279.632C312.37 279.632 311.818 279.8 311.418 280.136C311.018 280.456 310.818 280.872 310.818 281.384C310.818 281.832 311.01 282.2 311.394 282.488C311.778 282.76 312.466 282.992 313.458 283.184C314.306 283.36 315.042 283.576 315.666 283.832C316.29 284.072 316.77 284.408 317.106 284.84C317.458 285.256 317.642 285.832 317.658 286.568C317.658 287.272 317.458 287.904 317.058 288.464C316.674 289.008 316.13 289.44 315.426 289.76C314.722 290.064 313.906 290.216 312.978 290.216ZM320.008 290V272.24H322.312V283.016L327.304 278H330.112L324.376 283.76C324.728 283.984 325.056 284.312 325.36 284.744L326.896 287C327.216 287.448 327.544 287.768 327.88 287.96C328.216 288.136 328.6 288.224 329.032 288.224C329.464 288.224 329.864 288.12 330.232 287.912L330.784 289.616C330.448 289.824 330.104 289.968 329.752 290.048C329.4 290.128 329.032 290.168 328.648 290.168C327.848 290.168 327.168 290.016 326.608 289.712C326.048 289.392 325.536 288.888 325.072 288.2L323.512 285.968C323.08 285.312 322.68 284.872 322.312 284.648V290H320.008ZM334.077 277.976V290H331.797V277.976H334.077ZM332.973 275.648C332.509 275.648 332.141 275.504 331.869 275.216C331.597 274.912 331.461 274.56 331.461 274.16C331.461 273.76 331.597 273.416 331.869 273.128C332.141 272.824 332.509 272.672 332.973 272.672C333.437 272.672 333.805 272.824 334.077 273.128C334.349 273.416 334.485 273.76 334.485 274.16C334.485 274.56 334.349 274.912 334.077 275.216C333.805 275.504 333.437 275.648 332.973 275.648ZM340.685 290.216C339.613 290.216 338.805 289.928 338.261 289.352C337.733 288.76 337.469 287.96 337.469 286.952V272.24H339.773V286.712C339.773 287.688 340.213 288.176 341.093 288.176C341.317 288.176 341.525 288.144 341.717 288.08C341.925 288.016 342.101 287.944 342.245 287.864L342.821 289.568C342.597 289.76 342.285 289.912 341.885 290.024C341.501 290.152 341.101 290.216 340.685 290.216ZM347.248 290.216C346.176 290.216 345.368 289.928 344.824 289.352C344.296 288.76 344.032 287.96 344.032 286.952V272.24H346.336V286.712C346.336 287.688 346.776 288.176 347.656 288.176C347.88 288.176 348.088 288.144 348.28 288.08C348.488 288.016 348.664 287.944 348.808 287.864L349.384 289.568C349.16 289.76 348.848 289.912 348.448 290.024C348.064 290.152 347.664 290.216 347.248 290.216ZM354.65 290.216C353.082 290.216 351.874 289.904 351.026 289.28C350.178 288.656 349.69 287.776 349.562 286.64L351.53 286.16C351.642 286.896 351.946 287.448 352.442 287.816C352.938 288.184 353.674 288.368 354.65 288.368C355.434 288.368 356.034 288.224 356.45 287.936C356.866 287.632 357.074 287.232 357.074 286.736C357.074 286.256 356.85 285.904 356.402 285.68C355.97 285.44 355.298 285.232 354.386 285.056C353.538 284.896 352.802 284.688 352.178 284.432C351.57 284.16 351.098 283.8 350.762 283.352C350.426 282.888 350.258 282.28 350.258 281.528C350.258 280.808 350.45 280.168 350.834 279.608C351.234 279.048 351.77 278.608 352.442 278.288C353.13 277.952 353.914 277.784 354.794 277.784C355.978 277.784 356.946 278.072 357.698 278.648C358.466 279.208 358.922 279.952 359.066 280.88L357.17 281.384C356.914 280.216 356.106 279.632 354.746 279.632C354.042 279.632 353.49 279.8 353.09 280.136C352.69 280.456 352.49 280.872 352.49 281.384C352.49 281.832 352.682 282.2 353.066 282.488C353.45 282.76 354.138 282.992 355.13 283.184C355.978 283.36 356.714 283.576 357.338 283.832C357.962 284.072 358.442 284.408 358.778 284.84C359.13 285.256 359.314 285.832 359.33 286.568C359.33 287.272 359.13 287.904 358.73 288.464C358.346 289.008 357.802 289.44 357.098 289.76C356.394 290.064 355.578 290.216 354.65 290.216ZM44.432 308V320H42.08L42.176 317.528C41.728 318.36 41.144 319.016 40.424 319.496C39.704 319.976 38.88 320.216 37.952 320.216C36.912 320.216 36.032 319.976 35.312 319.496C34.608 319 34.072 318.328 33.704 317.48C33.336 316.632 33.152 315.656 33.152 314.552C33.152 313.224 33.4 312.048 33.896 311.024C34.408 310 35.104 309.208 35.984 308.648C36.88 308.072 37.904 307.784 39.056 307.784C39.824 307.784 40.504 307.96 41.096 308.312C41.704 308.648 42.152 309.096 42.44 309.656L42.728 308H44.432ZM39.152 309.824C38.048 309.824 37.16 310.248 36.488 311.096C35.832 311.928 35.504 313.032 35.504 314.408C35.504 315.592 35.76 316.512 36.272 317.168C36.784 317.824 37.472 318.152 38.336 318.152C39.056 318.152 39.704 317.944 40.28 317.528C40.856 317.112 41.312 316.536 41.648 315.8C41.984 315.048 42.152 314.192 42.152 313.232C42.152 312.176 41.88 311.344 41.336 310.736C40.808 310.128 40.08 309.824 39.152 309.824ZM55.0374 310.184C54.7334 310.088 54.3654 310.04 53.9334 310.04C53.0374 310.04 52.3014 310.384 51.7254 311.072C51.1654 311.744 50.7494 312.816 50.4774 314.288C50.2214 315.744 50.0934 317.648 50.0934 320H47.8134V312.272L47.7894 307.976H50.0934L49.9494 311.816C50.3494 310.36 50.9254 309.328 51.6774 308.72C52.4454 308.096 53.2614 307.784 54.1254 307.784C54.3814 307.784 54.6134 307.8 54.8214 307.832C55.0454 307.848 55.2374 307.888 55.3974 307.952L55.0374 310.184ZM61.9561 307.784C63.6681 307.784 65.0201 308.32 66.0121 309.392C67.0041 310.464 67.5001 311.912 67.5001 313.736C67.5001 314.968 67.2521 316.072 66.7561 317.048C66.2601 318.024 65.5641 318.8 64.6681 319.376C63.7881 319.936 62.7561 320.216 61.5721 320.216C59.8121 320.216 58.4361 319.68 57.4441 318.608C56.4681 317.536 55.9801 316.08 55.9801 314.24C55.9801 313.008 56.2201 311.904 56.7001 310.928C57.1961 309.952 57.8921 309.184 58.7881 308.624C59.6841 308.064 60.7401 307.784 61.9561 307.784ZM61.5961 318.152C62.6521 318.152 63.5001 317.752 64.1401 316.952C64.7961 316.136 65.1241 315.064 65.1241 313.736C65.1241 312.488 64.8361 311.528 64.2601 310.856C63.7001 310.168 62.9241 309.824 61.9321 309.824C60.8441 309.824 59.9721 310.232 59.3161 311.048C58.6601 311.864 58.3321 312.928 58.3321 314.24C58.3321 315.488 58.6201 316.456 59.1961 317.144C59.7721 317.816 60.5721 318.152 61.5961 318.152ZM74.0328 320.216C72.7688 320.216 71.8008 319.784 71.1288 318.92C70.4728 318.04 70.1528 316.832 70.1688 315.296L70.2408 307.976H72.5208L72.4488 315.056C72.4488 316 72.6168 316.736 72.9528 317.264C73.3048 317.792 73.8568 318.056 74.6088 318.056C75.3608 318.056 76.0248 317.752 76.6008 317.144C77.1928 316.536 77.6568 315.496 77.9928 314.024C78.3448 312.552 78.5208 310.536 78.5208 307.976H80.7288V320H78.4248L78.5688 316.664C78.1048 317.848 77.4728 318.736 76.6728 319.328C75.8888 319.92 75.0088 320.216 74.0328 320.216ZM84.1175 320V307.976H86.4215L86.2775 311.528C86.7255 310.328 87.3575 309.408 88.1735 308.768C88.9895 308.112 89.9415 307.784 91.0295 307.784C92.3095 307.784 93.2855 308.232 93.9575 309.128C94.6295 310.008 94.9575 311.28 94.9415 312.944L94.8935 320H92.6135L92.6615 313.16C92.6775 311 91.9415 309.92 90.4535 309.92C89.6695 309.92 88.9735 310.224 88.3655 310.832C87.7735 311.44 87.3015 312.48 86.9495 313.952C86.5975 315.424 86.4135 317.44 86.3975 320H84.1175ZM108.909 302.24V320H106.557L106.653 317.528C106.205 318.36 105.621 319.016 104.901 319.496C104.181 319.976 103.357 320.216 102.429 320.216C101.389 320.216 100.509 319.976 99.7886 319.496C99.0846 319 98.5486 318.328 98.1806 317.48C97.8126 316.632 97.6286 315.656 97.6286 314.552C97.6286 313.224 97.8766 312.048 98.3726 311.024C98.8846 310 99.5806 309.208 100.461 308.648C101.357 308.072 102.381 307.784 103.533 307.784C104.189 307.784 104.789 307.912 105.333 308.168C105.877 308.424 106.317 308.768 106.653 309.2L106.605 307.976V302.24H108.909ZM103.629 309.824C102.525 309.824 101.637 310.248 100.965 311.096C100.309 311.928 99.9806 313.032 99.9806 314.408C99.9806 315.592 100.237 316.512 100.749 317.168C101.261 317.824 101.949 318.152 102.813 318.152C103.533 318.152 104.181 317.944 104.757 317.528C105.333 317.112 105.789 316.536 106.125 315.8C106.461 315.048 106.629 314.192 106.629 313.232C106.629 312.176 106.357 311.344 105.813 310.736C105.285 310.128 104.557 309.824 103.629 309.824ZM122.762 320.216C121.338 320.216 120.25 319.84 119.498 319.088C118.762 318.32 118.402 317.304 118.418 316.04L118.514 309.92H116.426V307.976H118.538L118.562 305.48H120.866L120.818 307.976H124.898V309.92H120.794L120.722 315.848C120.722 316.552 120.906 317.12 121.274 317.552C121.642 317.968 122.21 318.176 122.978 318.176C123.346 318.176 123.69 318.136 124.01 318.056C124.33 317.96 124.666 317.776 125.018 317.504L125.714 319.304C125.362 319.608 124.922 319.84 124.394 320C123.882 320.144 123.338 320.216 122.762 320.216ZM127.149 320V302.24H129.453L129.477 307.976L129.309 311.504C129.757 310.304 130.389 309.384 131.205 308.744C132.021 308.104 132.973 307.784 134.061 307.784C135.341 307.784 136.317 308.232 136.989 309.128C137.661 310.008 137.989 311.28 137.973 312.944L137.925 320H135.645L135.693 313.16C135.709 311 134.973 309.92 133.485 309.92C132.701 309.92 132.005 310.224 131.397 310.832C130.805 311.44 130.333 312.48 129.981 313.952C129.629 315.424 129.445 317.44 129.429 320H127.149ZM146.756 320.216C144.868 320.216 143.38 319.68 142.292 318.608C141.204 317.536 140.66 316.056 140.66 314.168C140.66 312.92 140.908 311.816 141.404 310.856C141.916 309.896 142.612 309.144 143.492 308.6C144.372 308.056 145.372 307.784 146.492 307.784C148.22 307.784 149.532 308.384 150.428 309.584C151.324 310.768 151.636 312.488 151.364 314.744H142.988C143.036 315.832 143.396 316.68 144.068 317.288C144.756 317.88 145.708 318.176 146.924 318.176C147.516 318.176 148.084 318.048 148.628 317.792C149.188 317.52 149.668 317.12 150.068 316.592L151.46 317.936C150.9 318.672 150.236 319.24 149.468 319.64C148.7 320.024 147.796 320.216 146.756 320.216ZM146.516 309.56C145.54 309.56 144.748 309.888 144.14 310.544C143.532 311.2 143.164 312.024 143.036 313.016H149.372C149.42 311.8 149.172 310.92 148.628 310.376C148.1 309.832 147.396 309.56 146.516 309.56ZM164.622 320.216C163.198 320.216 162.11 319.84 161.358 319.088C160.622 318.32 160.262 317.304 160.278 316.04L160.374 309.92H158.286V307.976H160.398L160.422 305.48H162.726L162.678 307.976H166.758V309.92H162.654L162.582 315.848C162.582 316.552 162.766 317.12 163.134 317.552C163.502 317.968 164.07 318.176 164.838 318.176C165.206 318.176 165.55 318.136 165.87 318.056C166.19 317.96 166.526 317.776 166.878 317.504L167.574 319.304C167.222 319.608 166.782 319.84 166.254 320C165.742 320.144 165.198 320.216 164.622 320.216ZM179.526 308V320H177.174L177.27 317.528C176.822 318.36 176.238 319.016 175.518 319.496C174.798 319.976 173.974 320.216 173.046 320.216C172.006 320.216 171.126 319.976 170.406 319.496C169.702 319 169.166 318.328 168.798 317.48C168.43 316.632 168.246 315.656 168.246 314.552C168.246 313.224 168.494 312.048 168.99 311.024C169.502 310 170.198 309.208 171.078 308.648C171.974 308.072 172.998 307.784 174.15 307.784C174.918 307.784 175.598 307.96 176.19 308.312C176.798 308.648 177.246 309.096 177.534 309.656L177.822 308H179.526ZM174.246 309.824C173.142 309.824 172.254 310.248 171.582 311.096C170.926 311.928 170.598 313.032 170.598 314.408C170.598 315.592 170.854 316.512 171.366 317.168C171.878 317.824 172.566 318.152 173.43 318.152C174.15 318.152 174.798 317.944 175.374 317.528C175.95 317.112 176.406 316.536 176.742 315.8C177.078 315.048 177.246 314.192 177.246 313.232C177.246 312.176 176.974 311.344 176.43 310.736C175.902 310.128 175.174 309.824 174.246 309.824ZM182.883 320V302.24H185.187V307.976L185.091 310.52C185.539 309.656 186.123 308.984 186.843 308.504C187.563 308.024 188.403 307.784 189.363 307.784C190.403 307.784 191.275 308.024 191.979 308.504C192.699 308.984 193.243 309.648 193.611 310.496C193.979 311.344 194.163 312.32 194.163 313.424C194.163 314.768 193.907 315.952 193.395 316.976C192.899 317.984 192.203 318.776 191.307 319.352C190.427 319.928 189.419 320.216 188.283 320.216C187.499 320.216 186.803 320.04 186.195 319.688C185.587 319.336 185.147 318.872 184.875 318.296L184.587 320H182.883ZM188.163 318.152C189.267 318.152 190.147 317.728 190.803 316.88C191.475 316.032 191.811 314.92 191.811 313.544C191.811 312.376 191.555 311.464 191.043 310.808C190.531 310.152 189.843 309.824 188.979 309.824C188.259 309.824 187.611 310.032 187.035 310.448C186.459 310.864 186.003 311.44 185.667 312.176C185.331 312.912 185.163 313.76 185.163 314.72C185.163 315.792 185.427 316.632 185.955 317.24C186.499 317.848 187.235 318.152 188.163 318.152ZM200.209 320.216C199.137 320.216 198.329 319.928 197.785 319.352C197.257 318.76 196.993 317.96 196.993 316.952V302.24H199.297V316.712C199.297 317.688 199.737 318.176 200.617 318.176C200.841 318.176 201.049 318.144 201.241 318.08C201.449 318.016 201.625 317.944 201.769 317.864L202.345 319.568C202.121 319.76 201.809 319.912 201.409 320.024C201.025 320.152 200.625 320.216 200.209 320.216ZM209.123 320.216C207.235 320.216 205.747 319.68 204.659 318.608C203.571 317.536 203.027 316.056 203.027 314.168C203.027 312.92 203.275 311.816 203.771 310.856C204.283 309.896 204.979 309.144 205.859 308.6C206.739 308.056 207.739 307.784 208.859 307.784C210.587 307.784 211.899 308.384 212.795 309.584C213.691 310.768 214.003 312.488 213.731 314.744H205.355C205.403 315.832 205.763 316.68 206.435 317.288C207.123 317.88 208.075 318.176 209.291 318.176C209.883 318.176 210.451 318.048 210.995 317.792C211.555 317.52 212.035 317.12 212.435 316.592L213.827 317.936C213.267 318.672 212.603 319.24 211.835 319.64C211.067 320.024 210.163 320.216 209.123 320.216ZM208.883 309.56C207.907 309.56 207.115 309.888 206.507 310.544C205.899 311.2 205.531 312.024 205.403 313.016H211.739C211.787 311.8 211.539 310.92 210.995 310.376C210.467 309.832 209.763 309.56 208.883 309.56ZM217.05 320.216C216.554 320.216 216.154 320.064 215.85 319.76C215.546 319.44 215.394 319.048 215.394 318.584C215.394 318.136 215.546 317.76 215.85 317.456C216.154 317.136 216.554 316.976 217.05 316.976C217.546 316.976 217.938 317.136 218.226 317.456C218.53 317.76 218.682 318.136 218.682 318.584C218.682 319.048 218.53 319.44 218.226 319.76C217.938 320.064 217.546 320.216 217.05 320.216Z" fill="#073404" fill-opacity="0.8"/>
<rect x="150" y="12" width="93" height="82" rx="41" fill="#0F7E66"/>
<rect x="157.5" y="19.5" width="78" height="67" rx="33.5" stroke="#F8FDF5" stroke-width="3" stroke-dasharray="6 6"/>
<path d="M197.27 66.35C194.237 66.35 191.868 65.3583 190.165 63.375C188.462 61.3917 187.61 58.3 187.61 54.1C187.61 51.2767 188.077 48.885 189.01 46.925C189.967 44.9417 191.25 43.425 192.86 42.375C194.47 41.325 196.255 40.8 198.215 40.8C202.135 40.8 204.83 42.6083 206.3 46.225L201.75 48.395C201.377 47.4617 200.887 46.7733 200.28 46.33C199.673 45.8867 198.903 45.665 197.97 45.665C196.617 45.665 195.485 46.26 194.575 47.45C193.665 48.6167 193.175 50.3083 193.105 52.525C193.758 51.755 194.552 51.1717 195.485 50.775C196.418 50.3783 197.445 50.18 198.565 50.18C199.918 50.18 201.178 50.4717 202.345 51.055C203.535 51.6383 204.48 52.5017 205.18 53.645C205.903 54.765 206.265 56.1533 206.265 57.81C206.265 59.3967 205.892 60.8433 205.145 62.15C204.422 63.4333 203.383 64.46 202.03 65.23C200.677 65.9767 199.09 66.35 197.27 66.35ZM197.235 61.87C198.308 61.87 199.16 61.5083 199.79 60.785C200.443 60.0617 200.77 59.2333 200.77 58.3C200.77 57.2033 200.455 56.3283 199.825 55.675C199.218 54.9983 198.355 54.66 197.235 54.66C196.185 54.66 195.322 55.0217 194.645 55.745C193.968 56.445 193.63 57.3083 193.63 58.335C193.63 59.5017 193.968 60.3883 194.645 60.995C195.345 61.5783 196.208 61.87 197.235 61.87Z" fill="#F8FDF5"/>
</g>
<defs>
<filter id="filter0_ddd_978_15815" x="0" y="0" width="392" height="368" filterUnits="userSpaceOnUse" color-interpolation-filters="sRGB">
<feFlood flood-opacity="0" result="BackgroundImageFix"/>
<feColorMatrix in="SourceAlpha" type="matrix" values="0 0 0 0 0 0 0 0 0 0 0 0 0 0 0 0 0 0 127 0" result="hardAlpha"/>
<feOffset dx="2" dy="2"/>
<feGaussianBlur stdDeviation="5"/>
<feComposite in2="hardAlpha" operator="out"/>
<feColorMatrix type="matrix" values="0 0 0 0 0 0 0 0 0 0 0 0 0 0 0 0 0 0 0.1 0"/>
<feBlend mode="normal" in2="BackgroundImageFix" result="effect1_dropShadow_978_15815"/>
<feColorMatrix in="SourceAlpha" type="matrix" values="0 0 0 0 0 0 0 0 0 0 0 0 0 0 0 0 0 0 127 0" result="hardAlpha"/>
<feOffset dx="-2" dy="-2"/>
<feGaussianBlur stdDeviation="5"/>
<feComposite in2="hardAlpha" operator="out"/>
<feColorMatrix type="matrix" values="0 0 0 0 0 0 0 0 0 0 0 0 0 0 0 0 0 0 0.1 0"/>
<feBlend mode="normal" in2="effect1_dropShadow_978_15815" result="effect2_dropShadow_978_15815"/>
<feColorMatrix in="SourceAlpha" type="matrix" values="0 0 0 0 0 0 0 0 0 0 0 0 0 0 0 0 0 0 127 0" result="hardAlpha"/>
<feOffset dx="3" dy="3"/>
<feComposite in2="hardAlpha" operator="out"/>
<feColorMatrix type="matrix" values="0 0 0 0 0.0588235 0 0 0 0 0.494118 0 0 0 0 0.4 0 0 0 1 0"/>
<feBlend mode="normal" in2="effect2_dropShadow_978_15815" result="effect3_dropShadow_978_15815"/>
<feBlend mode="normal" in="SourceGraphic" in2="effect3_dropShadow_978_15815" result="shape"/>
</filter>
</defs>
</svg>
