<svg width="604" height="1329" viewBox="0 0 604 1329" fill="none" xmlns="http://www.w3.org/2000/svg">
<g clip-path="url(#clip0_1_2)">
<path d="M572.728 -1.14441e-05L-1.90735e-05 -4.57764e-05C-17.2712 -4.57764e-05 -2.14577e-05 100.122 -2.14577e-05 223.63V1105.37C-2.14577e-05 1228.88 -17.2712 1329 -1.90735e-05 1329H572.728C589.999 1329 604 1452.51 604 1329V-4.57764e-05C604 -123.507 589.999 -1.14441e-05 572.728 -1.14441e-05Z" fill="#7BA567"/>
<path d="M44.3567 886.906C44.42 887.405 44.5504 886.845 44.5016 886.258C44.1173 881.612 43.5903 877.319 43.0438 873.492C42.8963 872.46 42.6453 873.936 42.7947 874.968C43.3491 878.792 43.8415 882.858 44.3567 886.906Z" fill="#EEA21F"/>
<path d="M40.9694 881.852C41.1989 885.229 41.4125 888.612 41.5832 892.146C41.617 892.845 41.7832 892.682 41.7563 891.928C41.6238 888.2 41.4603 884.504 41.2405 880.964C41.1664 879.769 40.8888 880.664 40.9694 881.852Z" fill="#EEA21F"/>
<path d="M32.8559 890.481C33.3152 887.261 33.7232 883.549 34.09 879.843C34.2047 878.683 33.9449 877.546 33.8223 878.654C33.4318 882.181 33.0517 885.986 32.7597 889.922C32.7307 890.312 32.8005 890.868 32.8559 890.481Z" fill="#EEA21F"/>
<path d="M30.9589 881.654C31.1892 880.724 31.4761 879.884 31.6627 878.571C31.7786 877.756 31.6533 876.15 31.4855 876.801C31.2442 877.741 31.0559 879.363 30.8619 880.686C30.7969 881.127 30.8686 882.021 30.9589 881.654Z" fill="#EEA21F"/>
<path d="M588.627 1270.27C588.69 1270.77 588.82 1270.21 588.77 1269.62C588.386 1264.98 587.859 1260.68 587.314 1256.86C587.167 1255.83 586.916 1257.3 587.064 1258.33C587.618 1262.16 588.109 1266.22 588.627 1270.27Z" fill="#EEA21F"/>
<path d="M585.241 1265.22C585.469 1268.59 585.683 1271.98 585.853 1275.51C585.885 1276.21 586.054 1276.05 586.027 1275.29C585.893 1271.57 585.728 1267.87 585.509 1264.33C585.438 1263.13 585.156 1264.03 585.241 1265.22Z" fill="#EEA21F"/>
<path d="M577.124 1273.85C577.584 1270.63 577.995 1266.91 578.361 1263.21C578.473 1262.05 578.214 1260.91 578.093 1262.02C577.7 1265.55 577.32 1269.35 577.03 1273.29C576.999 1273.68 577.07 1274.23 577.124 1273.85Z" fill="#EEA21F"/>
<path d="M575.23 1265.02C575.457 1264.09 575.748 1263.25 575.931 1261.94C576.047 1261.12 575.922 1259.52 575.757 1260.17C575.515 1261.11 575.323 1262.73 575.131 1264.05C575.064 1264.49 575.14 1265.39 575.23 1265.02Z" fill="#EEA21F"/>
<path d="M80.4433 70.2355C80.3882 70.2242 80.3384 70.2266 80.2927 70.2367C79.5097 70.2724 78.9283 70.8395 78.4025 71.4618C77.8341 72.1341 77.3272 72.8665 76.8087 73.5887C76.8932 72.0378 76.4335 70.3336 75.1037 70.2343C73.7325 70.1321 72.4085 71.3911 71.5352 72.4361C70.8987 73.197 70.3555 74.0506 69.8014 74.8876C69.2477 75.7233 68.6164 76.9841 67.8177 77.5459C66.2549 78.645 66.4491 76.5847 66.9938 75.614C67.3066 75.057 67.6571 74.5273 67.9662 73.9668C68.46 73.071 68.9129 72.146 69.317 71.1943C70.0344 69.5038 70.9979 67.3763 71.043 65.4586C71.0729 64.1943 70.3902 63.2824 69.2262 63.6783C67.8334 64.1521 66.5535 65.4325 65.5864 66.7616C65.5071 65.6477 65.2138 64.5741 64.2838 63.9761C63.2269 63.2967 62.265 63.9072 61.5713 64.8832C60.7532 66.0346 60.3653 67.4827 59.9523 68.8588C59.7314 69.5941 59.5126 70.3407 59.1977 71.0327C59.0093 71.447 58.7952 71.8482 58.5281 72.2043C58.2279 72.7845 57.7714 72.9289 57.1584 72.6382C57.075 72.3006 57.0063 71.9588 56.9522 71.6134C56.556 69.3284 56.5103 66.9679 56.7711 64.6609C56.9165 63.3734 57.234 61.8587 56.1351 60.9742C54.035 59.2836 52.341 61.6471 51.4525 63.7062C50.6675 61.3214 49.2406 58.134 46.9468 58.005C44.3413 57.8588 44.1455 60.9409 44.452 63.2242C44.0411 63.0958 43.5835 63.1504 43.1658 63.4072C42.3219 63.9268 42.1241 65.0824 42.3513 66.0691C42.6992 67.5796 43.8826 68.3951 44.8687 69.3468C45.681 70.1315 46.4273 71.0665 46.8077 72.215C47.0664 72.9955 47.4207 74.4162 45.8521 74.1445C45.4785 74.0797 44.9264 73.647 44.6 73.4657C42.8331 72.4837 41.0614 71.277 39.2158 70.5012C38.3058 70.119 37.1466 70.0203 36.4833 71.0012C35.8205 71.9808 36.4224 73.0573 36.8894 73.9519C37.6645 75.4368 38.6086 76.7755 39.6734 77.9971C39.2173 78.2984 38.9319 78.9279 39.0232 79.5878C39.2226 81.0269 40.9056 81.7224 41.9184 82.2003C43.4476 82.9214 45.0487 83.4183 46.5968 84.0805C47.9685 84.6672 50.5987 85.761 51.1109 87.5051C51.6241 89.2527 48.7421 88.2053 48.1942 87.9913C47.3446 87.659 46.528 87.2263 45.7241 86.7757C44.2132 85.9286 42.7407 84.9722 41.1501 84.323C40.1 83.8945 38.6569 83.2691 37.7537 84.3522C37.1917 85.0269 37.1513 85.991 37.2668 86.9029C35.397 85.657 32.1853 84.3861 32.0048 87.7202C31.9172 89.3419 33.046 90.8464 33.9528 91.9627C34.8769 93.1011 35.9427 94.0349 37.114 94.8035C36.2403 95.5614 36.1973 97.0826 36.9671 98.1692C38.1589 99.8515 40.3472 100.306 42.1409 100.215C44.653 100.089 46.9536 98.8701 49.3172 98.0283C49.9842 97.7906 50.6853 97.5153 51.3822 97.4422C51.7495 97.4036 52.1206 97.3947 52.4837 97.4815C53.2562 97.6657 53.3155 97.7062 53.432 98.5336C53.5438 99.3319 53.56 99.3652 52.8637 99.6886C52.5451 99.8366 52.1935 99.8848 51.8529 99.9157C51.368 99.9597 50.8852 99.8782 50.4009 99.8776C49.1876 99.8764 47.2979 100.358 47.3698 102.135C47.4522 104.161 49.9517 105.598 51.4137 106.087C52.1867 106.346 52.9943 106.463 53.8004 106.428C55 106.378 57.064 105.251 58.1329 106.102C58.2741 106.17 58.4153 106.239 58.5564 106.307C58.8277 107.001 58.7637 107.321 58.3649 107.268C58.1177 107.373 57.7152 107.247 57.4539 107.268C57.0692 107.297 56.6788 107.343 56.3403 107.571C55.7804 107.949 55.5096 108.594 55.5043 109.323C55.486 111.902 58.0815 112.45 59.6768 113.375C62.4093 114.958 64.3909 117.803 65.293 121.099C65.3749 121.397 65.8094 121.501 65.9637 121.217C67.4792 118.428 68.8673 115.547 70.1272 112.6C71.1012 110.321 72.23 107.858 72.6252 105.336C72.8115 104.145 72.4725 102.474 71.0907 103.104C70.4421 103.4 69.9409 104.028 69.3574 104.446C68.9559 104.735 68.481 105.104 68.0229 104.742C67.3942 104.245 67.7175 103.326 68.0449 102.767C69.381 100.49 71.8144 99.1809 73.4554 97.2074C74.1675 96.3508 74.9599 95.2838 75.0124 94.0557C75.0628 92.8793 74.4058 91.7998 73.3142 91.7654C72.1802 91.7297 71.1443 92.7385 70.2548 93.4054C69.1454 94.237 67.9793 95.1953 66.6973 95.6565C66.1085 95.8682 65.303 96.0293 65.4352 95.0918C65.5087 94.5699 66.2198 93.9202 66.531 93.5986C67.5564 92.5387 68.7513 91.6536 69.9588 90.8856C73.0361 88.9269 77.2123 88.2237 79.505 84.9234C80.2539 83.8457 80.701 82.2794 79.8682 81.097C79.5444 80.6375 79.1125 80.3308 78.6559 80.2226C79.3408 79.5747 80.097 79.0153 80.6448 78.2051C81.3386 77.1791 81.7259 75.765 81.9069 74.5C82.1174 73.0288 82.0995 70.5761 80.4433 70.2355Z" fill="#BB6E3B"/>
<path d="M76.7638 77.4914C75.4823 78.3462 74.2443 79.3365 73.0384 80.3946C73.4131 78.9228 73.8628 77.5015 74.5613 76.1516C74.7161 75.8526 74.2711 75.5417 74.1006 75.8335C73.0725 77.5919 72.1489 79.4941 71.7391 81.5686C71.0605 82.1993 70.3914 82.8443 69.7297 83.4916C69.663 83.5303 69.6069 83.5862 69.5638 83.6539C68.8087 84.3946 68.063 85.1359 67.3246 85.8617C67.4779 84.5914 67.6626 83.3418 67.9701 82.0811C68.0483 81.7607 67.6211 81.6525 67.4994 81.9217C66.804 83.4637 66.3186 85.2215 66.2299 86.9649C63.8217 89.5032 61.9205 92.4117 59.972 95.413C59.4309 93.8033 58.8768 92.1983 58.3163 90.5963C58.3609 90.5375 58.3966 90.4656 58.416 90.3758C58.8783 88.2602 59.4236 86.1767 60.0255 84.1152C60.1063 84.1099 60.1903 84.0813 60.2732 84.0177C61.8948 82.767 63.4665 81.3594 64.9012 79.8442C64.929 79.8151 64.9075 79.7515 64.866 79.7723C63.3578 80.5213 61.8848 81.4539 60.5083 82.5013C61.6885 78.691 63.0724 74.9627 64.5916 71.2962C64.6929 71.0513 64.378 70.911 64.262 71.1298C63.3305 72.8905 62.4878 74.7017 61.7226 76.5528C61.5353 75.4359 61.423 74.3052 61.3742 73.1675C61.3553 72.7359 60.8017 72.8186 60.7959 73.2317C60.7738 74.8206 60.8888 76.3852 61.1239 77.9515C61.127 77.9723 61.1328 77.9896 61.1375 78.0086C59.7552 81.5782 58.6548 85.2862 57.7805 89.0663C56.6312 85.8153 55.4536 82.5774 54.2745 79.3425C54.3464 79.2468 54.3931 79.1214 54.391 78.9656C54.329 74.8878 54.4765 70.7475 54.063 66.6911C54.0583 66.6459 53.9942 66.64 53.99 66.6881C53.6904 70.1109 53.4925 73.5812 53.4317 77.0325C53.4033 76.954 53.3745 76.8756 53.3461 76.7971C51.5661 71.9103 49.7525 67.0395 47.9729 62.1532C47.8738 61.8815 47.5085 62.0397 47.5961 62.3173C49.3835 67.9739 51.3913 73.5557 53.4159 79.1338C53.4254 79.2468 53.4605 79.3377 53.5146 79.4043C54.0798 80.9611 54.6455 82.518 55.2086 84.076C54.1627 83.214 53.068 82.3812 51.9355 81.5966C51.2087 79.5987 50.2347 77.5194 48.8152 76.0452C48.6656 75.89 48.3928 76.1058 48.4862 76.3174C49.1401 77.7987 49.8905 79.2028 50.5485 80.6746C47.8297 78.9371 44.9361 77.5116 42.0262 76.6681C41.7769 76.5962 41.6719 77.0355 41.8992 77.1484C44.0649 78.2249 46.2013 79.3086 48.2694 80.6027C47.2278 80.8161 46.1824 81.1234 45.1832 81.4605C44.8631 81.5686 44.9969 82.1274 45.3155 82.0947C46.6536 81.9586 48.0312 81.741 49.3337 81.3659C49.3584 81.3588 49.3804 81.3487 49.4014 81.3374C51.4769 82.7361 53.4411 84.3167 55.4809 85.7802C55.6063 85.87 55.736 85.8938 55.8556 85.8747C56.9928 89.0443 58.1101 92.2221 59.1685 95.4214C56.0797 94.3038 52.931 93.5382 49.7467 92.8267C49.4969 92.7708 49.2471 92.7143 48.9973 92.6578C48.9328 92.6168 48.8598 92.5978 48.7837 92.6097C47.7788 92.3832 46.7733 92.1555 45.7668 91.9344C45.2504 90.5191 43.8718 88.8844 42.616 88.3666C42.4528 88.2994 42.3253 88.4897 42.4124 88.6537C42.7755 89.3391 43.2872 89.9217 43.7081 90.5625C43.9306 90.9013 44.1248 91.2645 44.3242 91.6235C42.329 91.2033 40.3269 90.8276 38.3118 90.5696C38.0552 90.5369 38.0116 90.9286 38.2483 91.0071C41.3466 92.0325 44.5047 92.7737 47.6644 93.5049C45.7049 95.0784 43.5155 96.1454 41.2463 97.0798C41.0196 97.1732 41.0989 97.619 41.3466 97.5607C44.0854 96.917 46.5686 95.7257 48.7491 93.7558C52.3774 94.5963 55.9989 95.4648 59.5259 96.7749C59.5579 96.7868 59.5889 96.7933 59.6193 96.7987C60.4207 99.2668 61.1837 101.749 61.8932 104.25C60.6846 104.024 59.4776 103.784 58.2727 103.531C58.2701 103.487 58.2638 103.441 58.2491 103.393C57.8739 102.159 56.8223 100.937 56.0466 100C55.8425 99.7536 55.5019 100.021 55.6678 100.317C55.9915 100.895 56.3111 101.477 56.6139 102.07C56.8165 102.465 56.9865 102.902 57.1933 103.304C56.6874 103.194 56.182 103.084 55.6772 102.971C54.5683 102.722 53.459 102.476 52.3449 102.257C51.8999 102.17 51.1778 101.883 50.7191 101.966C50.6467 101.937 50.5727 101.923 50.5176 101.931C50.4111 101.947 50.3365 102.131 50.4452 102.207C51.3121 102.818 52.443 103.184 53.5655 103.47C53.1362 103.726 52.74 104.037 52.4519 104.348C52.3328 104.477 52.38 104.752 52.5784 104.722C53.0811 104.648 53.5398 104.457 54.0199 104.28C54.3852 104.146 54.7688 104.027 55.1173 103.837C55.3434 103.89 55.5633 103.943 55.7743 103.997C57.907 104.542 60.0523 104.991 62.2096 105.385C62.7066 107.183 63.1757 108.992 63.6076 110.815C63.6585 111.03 63.7079 111.246 63.7572 111.462C62.7538 110.71 61.5836 110.252 60.3997 110.008C60.0859 109.943 59.9226 110.502 60.2365 110.627C61.7557 111.231 62.9747 112.29 64.1849 113.44C65.0487 117.731 65.4711 122.056 64.7065 126.46C64.5979 127.085 65.4097 127.206 65.5514 126.617C66.5852 122.307 66.0059 117.729 65.1227 113.452C65.1206 113.442 65.1185 113.432 65.1164 113.421C65.2266 113.235 65.2486 112.993 65.0901 112.784C65.0838 112.775 65.077 112.768 65.0707 112.76C65.9313 111.123 66.5212 109.04 66.4834 107.141C66.4787 106.91 66.1958 106.893 66.1155 107.073C65.7424 107.917 65.4265 108.801 65.1253 109.68C64.9668 110.143 64.7779 110.589 64.5874 111.033C64.2138 109.432 63.8044 107.842 63.3641 106.263C64.5265 104.837 65.5813 103.277 66.5899 101.71C67.5209 100.264 68.5594 98.752 69.091 97.0513C69.1157 96.9722 69.0338 96.8706 68.9666 96.9378C67.7791 98.1249 66.8828 99.6841 65.8941 101.078C64.9542 102.404 63.965 103.681 63.0005 104.982C62.9926 104.955 62.9847 104.928 62.9769 104.9C62.979 104.775 62.9454 104.652 62.8756 104.556C62.6378 103.743 62.3943 102.933 62.1445 102.125C61.5909 100.336 61.0142 98.5558 60.4259 96.7802C60.427 96.7785 60.428 96.7779 60.4285 96.7761C61.8538 94.2676 63.4114 91.935 65.1715 89.7855C65.2056 89.8057 65.2418 89.8224 65.2822 89.8355C66.6791 90.289 68.1685 89.7855 69.3204 88.8493C69.5586 88.6555 69.3382 88.1544 69.0643 88.3196C68.0604 88.926 67.0565 89.0027 65.9938 88.8065C66.6624 88.0403 67.3587 87.2972 68.0903 86.5821C68.7709 85.9163 69.4715 85.2589 70.1763 84.6009C71.8372 85.0075 73.4472 84.9712 75.0646 84.2686C75.3133 84.1604 75.2304 83.67 74.9533 83.7342C73.6839 84.0284 72.3389 84.0843 71.0637 83.7722C73.1197 81.8504 75.1706 79.8828 76.874 77.6186C76.9354 77.5372 76.8373 77.4427 76.7638 77.4914Z" fill="#975326"/>
<path d="M68.4433 1253.24C68.3882 1253.22 68.3384 1253.23 68.2927 1253.24C67.5097 1253.27 66.9283 1253.84 66.4025 1254.46C65.8341 1255.13 65.3272 1255.87 64.8087 1256.59C64.8932 1255.04 64.4335 1253.33 63.1037 1253.23C61.7325 1253.13 60.4085 1254.39 59.5352 1255.44C58.8987 1256.2 58.3555 1257.05 57.8014 1257.89C57.2477 1258.72 56.6164 1259.98 55.8177 1260.55C54.2549 1261.64 54.4491 1259.58 54.9938 1258.61C55.3066 1258.06 55.6571 1257.53 55.9662 1256.97C56.46 1256.07 56.9129 1255.15 57.317 1254.19C58.0344 1252.5 58.9979 1250.38 59.043 1248.46C59.0729 1247.19 58.3902 1246.28 57.2262 1246.68C55.8334 1247.15 54.5535 1248.43 53.5864 1249.76C53.5071 1248.65 53.2138 1247.57 52.2838 1246.98C51.2269 1246.3 50.265 1246.91 49.5713 1247.88C48.7532 1249.03 48.3653 1250.48 47.9523 1251.86C47.7314 1252.59 47.5126 1253.34 47.1977 1254.03C47.0093 1254.45 46.7952 1254.85 46.5281 1255.2C46.2279 1255.78 45.7714 1255.93 45.1584 1255.64C45.075 1255.3 45.0063 1254.96 44.9522 1254.61C44.556 1252.33 44.5103 1249.97 44.7711 1247.66C44.9165 1246.37 45.234 1244.86 44.1351 1243.97C42.035 1242.28 40.341 1244.65 39.4525 1246.71C38.6675 1244.32 37.2406 1241.13 34.9468 1241.01C32.3413 1240.86 32.1455 1243.94 32.452 1246.22C32.0411 1246.1 31.5835 1246.15 31.1658 1246.41C30.3219 1246.93 30.1241 1248.08 30.3513 1249.07C30.6992 1250.58 31.8826 1251.4 32.8687 1252.35C33.681 1253.13 34.4273 1254.07 34.8077 1255.21C35.0664 1256 35.4207 1257.42 33.8521 1257.14C33.4785 1257.08 32.9264 1256.65 32.6 1256.47C30.8331 1255.48 29.0614 1254.28 27.2158 1253.5C26.3058 1253.12 25.1466 1253.02 24.4833 1254C23.8205 1254.98 24.4224 1256.06 24.8894 1256.95C25.6645 1258.44 26.6086 1259.78 27.6734 1261C27.2173 1261.3 26.9319 1261.93 27.0232 1262.59C27.2226 1264.03 28.9056 1264.72 29.9184 1265.2C31.4476 1265.92 33.0487 1266.42 34.5968 1267.08C35.9685 1267.67 38.5987 1268.76 39.1109 1270.51C39.6241 1272.25 36.7421 1271.21 36.1942 1270.99C35.3446 1270.66 34.528 1270.23 33.7241 1269.78C32.2132 1268.93 30.7407 1267.97 29.1501 1267.32C28.1 1266.89 26.6569 1266.27 25.7537 1267.35C25.1917 1268.03 25.1513 1268.99 25.2668 1269.9C23.397 1268.66 20.1853 1267.39 20.0048 1270.72C19.9172 1272.34 21.046 1273.85 21.9528 1274.96C22.8769 1276.1 23.9427 1277.03 25.114 1277.8C24.2403 1278.56 24.1973 1280.08 24.9671 1281.17C26.1589 1282.85 28.3472 1283.31 30.1409 1283.22C32.653 1283.09 34.9536 1281.87 37.3172 1281.03C37.9842 1280.79 38.6853 1280.52 39.3822 1280.44C39.7495 1280.4 40.1206 1280.39 40.4837 1280.48C41.2562 1280.67 41.3155 1280.71 41.432 1281.53C41.5438 1282.33 41.56 1282.37 40.8637 1282.69C40.5451 1282.84 40.1935 1282.88 39.8529 1282.92C39.368 1282.96 38.8852 1282.88 38.4009 1282.88C37.1876 1282.88 35.2979 1283.36 35.3698 1285.14C35.4522 1287.16 37.9517 1288.6 39.4137 1289.09C40.1867 1289.35 40.9943 1289.46 41.8004 1289.43C43 1289.38 45.064 1288.25 46.1329 1289.1C46.2741 1289.17 46.4153 1289.24 46.5564 1289.31C46.8277 1290 46.7637 1290.32 46.3649 1290.27C46.1177 1290.37 45.7152 1290.25 45.4539 1290.27C45.0692 1290.3 44.6788 1290.34 44.3403 1290.57C43.7804 1290.95 43.5096 1291.59 43.5043 1292.32C43.486 1294.9 46.0815 1295.45 47.6768 1296.37C50.4093 1297.96 52.3909 1300.8 53.293 1304.1C53.3749 1304.4 53.8094 1304.5 53.9637 1304.22C55.4792 1301.43 56.8673 1298.55 58.1273 1295.6C59.1012 1293.32 60.23 1290.86 60.6252 1288.34C60.8115 1287.15 60.4725 1285.47 59.0907 1286.1C58.4421 1286.4 57.9409 1287.03 57.3574 1287.45C56.9559 1287.73 56.481 1288.1 56.0229 1287.74C55.3942 1287.24 55.7175 1286.33 56.0449 1285.77C57.381 1283.49 59.8144 1282.18 61.4554 1280.21C62.1675 1279.35 62.9599 1278.28 63.0124 1277.06C63.0628 1275.88 62.4058 1274.8 61.3142 1274.77C60.1802 1274.73 59.1443 1275.74 58.2548 1276.41C57.1454 1277.24 55.9793 1278.2 54.6973 1278.66C54.1085 1278.87 53.303 1279.03 53.4352 1278.09C53.5087 1277.57 54.2198 1276.92 54.531 1276.6C55.5564 1275.54 56.7513 1274.65 57.9588 1273.89C61.0361 1271.93 65.2123 1271.22 67.505 1267.92C68.2539 1266.85 68.701 1265.28 67.8682 1264.1C67.5444 1263.64 67.1125 1263.33 66.6559 1263.22C67.3408 1262.57 68.097 1262.02 68.6448 1261.21C69.3386 1260.18 69.7259 1258.76 69.9069 1257.5C70.1174 1256.03 70.0995 1253.58 68.4433 1253.24Z" fill="#BB6E3B"/>
<path d="M64.7638 1260.49C63.4823 1261.35 62.2443 1262.34 61.0384 1263.39C61.4131 1261.92 61.8628 1260.5 62.5613 1259.15C62.7161 1258.85 62.2711 1258.54 62.1006 1258.83C61.0725 1260.59 60.1489 1262.49 59.7391 1264.57C59.0605 1265.2 58.3914 1265.84 57.7297 1266.49C57.663 1266.53 57.6069 1266.59 57.5638 1266.65C56.8087 1267.39 56.063 1268.14 55.3246 1268.86C55.4779 1267.59 55.6626 1266.34 55.9701 1265.08C56.0483 1264.76 55.6211 1264.65 55.4994 1264.92C54.804 1266.46 54.3186 1268.22 54.2299 1269.96C51.8217 1272.5 49.9205 1275.41 47.972 1278.41C47.4309 1276.8 46.8768 1275.2 46.3163 1273.6C46.3609 1273.54 46.3966 1273.47 46.416 1273.38C46.8783 1271.26 47.4236 1269.18 48.0255 1267.12C48.1063 1267.11 48.1903 1267.08 48.2732 1267.02C49.8948 1265.77 51.4665 1264.36 52.9012 1262.84C52.929 1262.82 52.9075 1262.75 52.866 1262.77C51.3578 1263.52 49.8848 1264.45 48.5083 1265.5C49.6885 1261.69 51.0724 1257.96 52.5916 1254.3C52.6929 1254.05 52.378 1253.91 52.262 1254.13C51.3305 1255.89 50.4878 1257.7 49.7226 1259.55C49.5353 1258.44 49.423 1257.31 49.3742 1256.17C49.3553 1255.74 48.8017 1255.82 48.7959 1256.23C48.7738 1257.82 48.8888 1259.39 49.1239 1260.95C49.127 1260.97 49.1328 1260.99 49.1375 1261.01C47.7552 1264.58 46.6548 1268.29 45.7805 1272.07C44.6312 1268.82 43.4536 1265.58 42.2745 1262.34C42.3464 1262.25 42.3931 1262.12 42.391 1261.97C42.329 1257.89 42.4765 1253.75 42.063 1249.69C42.0583 1249.65 41.9942 1249.64 41.99 1249.69C41.6904 1253.11 41.4925 1256.58 41.4317 1260.03C41.4033 1259.95 41.3745 1259.88 41.3461 1259.8C39.5661 1254.91 37.7525 1250.04 35.9729 1245.15C35.8738 1244.88 35.5085 1245.04 35.5961 1245.32C37.3835 1250.97 39.3913 1256.56 41.4159 1262.13C41.4254 1262.25 41.4605 1262.34 41.5146 1262.4C42.0798 1263.96 42.6455 1265.52 43.2086 1267.08C42.1627 1266.21 41.068 1265.38 39.9355 1264.6C39.2087 1262.6 38.2347 1260.52 36.8152 1259.05C36.6656 1258.89 36.3928 1259.11 36.4862 1259.32C37.14 1260.8 37.8905 1262.2 38.5485 1263.67C35.8297 1261.94 32.9361 1260.51 30.0262 1259.67C29.7769 1259.6 29.6719 1260.04 29.8992 1260.15C32.0649 1261.22 34.2013 1262.31 36.2694 1263.6C35.2278 1263.82 34.1824 1264.12 33.1832 1264.46C32.8631 1264.57 32.9969 1265.13 33.3155 1265.09C34.6536 1264.96 36.0312 1264.74 37.3337 1264.37C37.3584 1264.36 37.3804 1264.35 37.4014 1264.34C39.4769 1265.74 41.4411 1267.32 43.4809 1268.78C43.6063 1268.87 43.736 1268.89 43.8556 1268.87C44.9928 1272.04 46.1101 1275.22 47.1685 1278.42C44.0797 1277.3 40.931 1276.54 37.7467 1275.83C37.4969 1275.77 37.2471 1275.71 36.9973 1275.66C36.9328 1275.62 36.8598 1275.6 36.7837 1275.61C35.7788 1275.38 34.7733 1275.16 33.7668 1274.93C33.2504 1273.52 31.8718 1271.88 30.616 1271.37C30.4528 1271.3 30.3253 1271.49 30.4124 1271.65C30.7755 1272.34 31.2872 1272.92 31.7081 1273.56C31.9306 1273.9 32.1248 1274.26 32.3242 1274.62C30.329 1274.2 28.3269 1273.83 26.3118 1273.57C26.0552 1273.54 26.0116 1273.93 26.2483 1274.01C29.3466 1275.03 32.5047 1275.77 35.6644 1276.5C33.7049 1278.08 31.5155 1279.15 29.2463 1280.08C29.0196 1280.17 29.0989 1280.62 29.3466 1280.56C32.0854 1279.92 34.5686 1278.73 36.7491 1276.76C40.3774 1277.6 43.9989 1278.46 47.5259 1279.77C47.5579 1279.79 47.5889 1279.79 47.6193 1279.8C48.4207 1282.27 49.1837 1284.75 49.8932 1287.25C48.6846 1287.02 47.4776 1286.78 46.2727 1286.53C46.2701 1286.49 46.2638 1286.44 46.2491 1286.39C45.8739 1285.16 44.8223 1283.94 44.0466 1283C43.8425 1282.75 43.5019 1283.02 43.6678 1283.32C43.9915 1283.89 44.3111 1284.48 44.6139 1285.07C44.8165 1285.47 44.9865 1285.9 45.1933 1286.3C44.6874 1286.19 44.182 1286.08 43.6772 1285.97C42.5683 1285.72 41.459 1285.48 40.3449 1285.26C39.8999 1285.17 39.1778 1284.88 38.7191 1284.97C38.6467 1284.94 38.5727 1284.92 38.5176 1284.93C38.4111 1284.95 38.3365 1285.13 38.4452 1285.21C39.3121 1285.82 40.443 1286.18 41.5655 1286.47C41.1362 1286.73 40.74 1287.04 40.4519 1287.35C40.3328 1287.48 40.38 1287.75 40.5784 1287.72C41.0811 1287.65 41.5398 1287.46 42.0199 1287.28C42.3852 1287.15 42.7688 1287.03 43.1173 1286.84C43.3434 1286.89 43.5633 1286.94 43.7743 1287C45.907 1287.54 48.0523 1287.99 50.2096 1288.38C50.7066 1290.18 51.1757 1291.99 51.6076 1293.81C51.6585 1294.03 51.7079 1294.25 51.7572 1294.46C50.7538 1293.71 49.5836 1293.25 48.3997 1293.01C48.0859 1292.94 47.9226 1293.5 48.2365 1293.63C49.7557 1294.23 50.9747 1295.29 52.1849 1296.44C53.0487 1300.73 53.4711 1305.06 52.7065 1309.46C52.5979 1310.09 53.4097 1310.21 53.5514 1309.62C54.5852 1305.31 54.0059 1300.73 53.1227 1296.45C53.1206 1296.44 53.1185 1296.43 53.1164 1296.42C53.2266 1296.24 53.2486 1295.99 53.0901 1295.78C53.0838 1295.78 53.077 1295.77 53.0707 1295.76C53.9313 1294.12 54.5212 1292.04 54.4834 1290.14C54.4787 1289.91 54.1958 1289.89 54.1155 1290.07C53.7424 1290.92 53.4265 1291.8 53.1253 1292.68C52.9668 1293.14 52.7779 1293.59 52.5874 1294.03C52.2138 1292.43 51.8044 1290.84 51.3641 1289.26C52.5265 1287.84 53.5813 1286.28 54.5899 1284.71C55.5209 1283.26 56.5594 1281.75 57.091 1280.05C57.1157 1279.97 57.0338 1279.87 56.9666 1279.94C55.7791 1281.12 54.8828 1282.68 53.8941 1284.08C52.9542 1285.4 51.965 1286.68 51.0005 1287.98C50.9926 1287.95 50.9847 1287.93 50.9769 1287.9C50.979 1287.78 50.9454 1287.65 50.8756 1287.56C50.6378 1286.74 50.3943 1285.93 50.1445 1285.12C49.5909 1283.34 49.0142 1281.56 48.4259 1279.78C48.427 1279.78 48.428 1279.78 48.4285 1279.78C49.8538 1277.27 51.4114 1274.94 53.1715 1272.79C53.2056 1272.81 53.2418 1272.82 53.2822 1272.84C54.6791 1273.29 56.1685 1272.79 57.3204 1271.85C57.5586 1271.66 57.3382 1271.15 57.0643 1271.32C56.0604 1271.93 55.0565 1272 53.9938 1271.81C54.6624 1271.04 55.3587 1270.3 56.0903 1269.58C56.7709 1268.92 57.4715 1268.26 58.1763 1267.6C59.8372 1268.01 61.4472 1267.97 63.0646 1267.27C63.3133 1267.16 63.2304 1266.67 62.9533 1266.73C61.6839 1267.03 60.3389 1267.08 59.0637 1266.77C61.1197 1264.85 63.1706 1262.88 64.874 1260.62C64.9354 1260.54 64.8373 1260.44 64.7638 1260.49Z" fill="#975326"/>
<path d="M121.951 300.641C123.018 302.246 124.017 304.034 125.299 305.445C126.349 306.602 127.609 306.943 128.852 307.733C130.23 308.609 130.696 310.454 132.046 311.359C133.026 312.015 134.03 311.857 135.074 311.472C135.89 311.17 136.578 310.773 137.461 310.852C138.285 310.927 138.84 311.446 139.574 311.761C140.495 312.156 141.351 312.113 142.034 311.238C142.955 310.056 143.495 308.312 144.109 306.905C144.784 305.359 145.417 303.793 146.017 302.212C146.624 304.134 147.23 306.058 147.843 307.978C148.266 309.299 148.651 310.635 150.012 311.024C151.667 311.497 152.967 310.337 154.333 309.531C156.415 308.302 158.442 309.006 160.656 308.69C162.283 308.457 163.834 307.724 165.14 306.636C166.707 305.33 167.286 303.566 168.518 301.987C169.672 300.509 171.277 299.9 172.093 298.05C172.659 296.765 172.799 295.376 172.581 293.995C174.578 292.989 177.045 290.758 175.532 288.119C174.79 286.825 173.201 286.474 171.978 286.051C169.811 285.302 167.645 284.552 165.478 283.803C161.508 282.43 157.475 281.19 153.569 279.612C149.733 278.063 145.917 275.874 144.146 271.601C143.955 271.138 143.275 271.174 143.142 271.67C139.968 283.468 129.5 289.466 120.305 294.835C120.141 294.931 120.006 295.117 120.002 295.329C119.957 297.406 120.878 299.007 121.951 300.641Z" fill="#FFCB24"/>
<path d="M164.864 305.801C165.057 306.05 165.454 305.771 165.305 305.475C164.135 303.15 162.53 300.998 160.865 299.082C160.416 298.565 159.651 299.304 160.106 299.821C161.795 301.736 163.295 303.773 164.864 305.801Z" fill="#EEA21F"/>
<path d="M154.547 303.269C155.246 304.961 155.897 306.655 156.417 308.426C156.52 308.776 157.026 308.695 156.944 308.317C156.541 306.45 156.042 304.598 155.373 302.824C155.147 302.226 154.302 302.674 154.547 303.269Z" fill="#EEA21F"/>
<path d="M129.835 307.591C131.234 305.979 132.477 304.118 133.594 302.263C133.944 301.682 133.152 301.112 132.779 301.667C131.589 303.434 130.432 305.34 129.543 307.312C129.454 307.507 129.667 307.785 129.835 307.591Z" fill="#EEA21F"/>
<path d="M124.058 303.171C124.759 302.705 125.633 302.283 126.202 301.626C126.555 301.217 126.173 300.412 125.662 300.739C124.927 301.209 124.353 302.023 123.763 302.685C123.564 302.907 123.783 303.354 124.058 303.171Z" fill="#EEA21F"/>
<path d="M140.766 290.35C142.903 286.684 144.195 282.47 144.438 278.154C145.32 282.265 145.95 286.447 146.34 290.642C146.374 291.007 146.945 290.976 146.93 290.605C146.743 285.89 146.157 281.278 145.209 276.71C146.597 279.259 147.644 281.928 148.698 284.726C148.763 284.897 148.994 284.77 148.932 284.6C148.82 284.293 148.711 283.999 148.594 283.708C148.854 284.058 148.916 284.012 148.772 283.556C148.83 283.197 148.529 282.495 148.436 282.145C148.175 281.174 147.866 280.219 147.502 279.288C146.735 277.326 145.758 275.497 144.647 273.749C144.604 273.682 144.556 273.633 144.504 273.599C144.501 273.588 144.499 273.576 144.496 273.565C143.693 269.865 142.328 266.238 141.049 262.811C139.985 259.961 138.81 257.159 137.635 254.363C136.244 251.055 134.929 247.602 133.274 244.446C132.783 243.512 131.532 244.183 131.905 245.184C134.129 251.137 137.403 256.612 139.759 262.519C141.031 265.709 142.344 269.053 143.364 272.455C143.214 272.574 143.129 272.772 143.199 273.031V273.032C143.735 278.943 142.865 284.74 140.298 290.008C140.13 290.351 140.567 290.691 140.766 290.35Z" fill="#EEA21F"/>
<path d="M402.951 997.641C404.018 999.246 405.017 1001.03 406.299 1002.45C407.349 1003.6 408.609 1003.94 409.852 1004.73C411.23 1005.61 411.696 1007.45 413.046 1008.36C414.026 1009.01 415.03 1008.86 416.074 1008.47C416.89 1008.17 417.578 1007.77 418.461 1007.85C419.285 1007.93 419.84 1008.45 420.574 1008.76C421.495 1009.16 422.351 1009.11 423.034 1008.24C423.955 1007.06 424.495 1005.31 425.109 1003.9C425.784 1002.36 426.417 1000.79 427.017 999.212C427.624 1001.13 428.23 1003.06 428.843 1004.98C429.266 1006.3 429.651 1007.63 431.012 1008.02C432.667 1008.5 433.967 1007.34 435.333 1006.53C437.415 1005.3 439.442 1006.01 441.656 1005.69C443.283 1005.46 444.834 1004.72 446.14 1003.64C447.707 1002.33 448.286 1000.57 449.518 998.987C450.672 997.509 452.277 996.9 453.093 995.05C453.659 993.765 453.799 992.376 453.581 990.995C455.578 989.989 458.045 987.758 456.532 985.119C455.79 983.825 454.201 983.474 452.978 983.051C450.811 982.302 448.645 981.552 446.478 980.803C442.508 979.43 438.475 978.19 434.569 976.612C430.733 975.063 426.917 972.874 425.146 968.601C424.955 968.138 424.275 968.174 424.142 968.67C420.968 980.468 410.5 986.466 401.305 991.835C401.141 991.931 401.006 992.117 401.002 992.329C400.957 994.406 401.878 996.007 402.951 997.641Z" fill="#FFCB24"/>
<path d="M445.864 1002.8C446.057 1003.05 446.454 1002.77 446.305 1002.48C445.135 1000.15 443.53 997.998 441.865 996.082C441.416 995.565 440.651 996.304 441.106 996.821C442.795 998.736 444.295 1000.77 445.864 1002.8Z" fill="#EEA21F"/>
<path d="M435.547 1000.27C436.246 1001.96 436.897 1003.66 437.417 1005.43C437.52 1005.78 438.026 1005.69 437.944 1005.32C437.541 1003.45 437.042 1001.6 436.373 999.824C436.147 999.226 435.302 999.674 435.547 1000.27Z" fill="#EEA21F"/>
<path d="M410.835 1004.59C412.234 1002.98 413.477 1001.12 414.594 999.263C414.944 998.682 414.152 998.112 413.779 998.667C412.589 1000.43 411.432 1002.34 410.543 1004.31C410.454 1004.51 410.667 1004.78 410.835 1004.59Z" fill="#EEA21F"/>
<path d="M405.058 1000.17C405.759 999.705 406.633 999.283 407.202 998.626C407.555 998.217 407.173 997.412 406.662 997.739C405.927 998.209 405.353 999.023 404.763 999.685C404.564 999.907 404.783 1000.35 405.058 1000.17Z" fill="#EEA21F"/>
<path d="M421.766 987.35C423.903 983.684 425.195 979.47 425.438 975.154C426.32 979.265 426.95 983.447 427.34 987.642C427.374 988.007 427.945 987.976 427.93 987.605C427.743 982.89 427.157 978.278 426.209 973.71C427.597 976.259 428.644 978.928 429.698 981.726C429.763 981.897 429.994 981.77 429.932 981.6C429.82 981.293 429.711 980.999 429.594 980.708C429.854 981.058 429.916 981.012 429.772 980.556C429.83 980.197 429.529 979.495 429.436 979.145C429.175 978.174 428.866 977.219 428.502 976.288C427.735 974.326 426.758 972.497 425.647 970.749C425.604 970.682 425.556 970.633 425.504 970.599C425.501 970.588 425.499 970.576 425.496 970.565C424.693 966.865 423.328 963.238 422.049 959.811C420.985 956.961 419.81 954.159 418.635 951.363C417.244 948.055 415.929 944.602 414.274 941.446C413.783 940.512 412.531 941.183 412.905 942.184C415.129 948.137 418.403 953.612 420.759 959.519C422.031 962.709 423.344 966.053 424.364 969.455C424.214 969.574 424.129 969.772 424.199 970.031V970.032C424.735 975.943 423.865 981.74 421.298 987.008C421.13 987.351 421.567 987.691 421.766 987.35Z" fill="#EEA21F"/>
<path d="M50.9507 793.641C52.0178 795.246 53.0174 797.034 54.2988 798.445C55.3487 799.602 56.6093 799.943 57.8517 800.733C59.2304 801.609 59.6963 803.454 61.0464 804.359C62.0256 805.015 63.0298 804.857 64.0736 804.472C64.89 804.17 65.5781 803.773 66.4606 803.852C67.2854 803.927 67.8397 804.446 68.574 804.761C69.4945 805.156 70.351 805.113 71.0339 804.238C71.9554 803.056 72.4952 801.312 73.1094 799.905C73.7839 798.359 74.4168 796.793 75.0169 795.212C75.6243 797.134 76.2297 799.058 76.8433 800.978C77.2656 802.299 77.6509 803.635 79.0124 804.024C80.6667 804.497 81.9673 803.337 83.3335 802.531C85.4147 801.302 87.4424 802.006 89.6557 801.69C91.2829 801.457 92.8342 800.724 94.1395 799.636C95.707 798.33 96.2858 796.566 97.5178 794.987C98.6718 793.509 100.277 792.9 101.093 791.05C101.659 789.765 101.799 788.376 101.581 786.995C103.578 785.989 106.045 783.758 104.532 781.119C103.79 779.825 102.201 779.474 100.978 779.051C98.8111 778.302 96.6446 777.552 94.4776 776.803C90.5081 775.43 86.4751 774.19 82.5685 772.612C78.7326 771.063 74.9171 768.874 73.1463 764.601C72.9549 764.138 72.2752 764.174 72.1416 764.67C68.9682 776.468 58.4997 782.466 49.3053 787.835C49.1409 787.931 49.0062 788.117 49.0016 788.329C48.9568 790.406 49.8778 792.007 50.9507 793.641Z" fill="#FFCB24"/>
<path d="M93.8639 798.801C94.0568 799.05 94.4541 798.771 94.3054 798.475C93.1348 796.15 91.5299 793.998 89.8652 792.082C89.4159 791.565 88.6515 792.304 89.1065 792.821C90.7951 794.736 92.2949 796.773 93.8639 798.801Z" fill="#EEA21F"/>
<path d="M83.5472 796.269C84.2462 797.961 84.8968 799.655 85.4168 801.426C85.5198 801.776 86.0258 801.695 85.9441 801.317C85.5406 799.45 85.0424 797.598 84.3731 795.824C84.1474 795.226 83.3018 795.674 83.5472 796.269Z" fill="#EEA21F"/>
<path d="M58.8354 800.591C60.2343 798.979 61.4772 797.118 62.5943 795.263C62.9437 794.682 62.1522 794.112 61.7788 794.667C60.5895 796.434 59.4319 798.34 58.5426 800.312C58.4542 800.507 58.6669 800.785 58.8354 800.591Z" fill="#EEA21F"/>
<path d="M53.0579 796.171C53.7594 795.705 54.6331 795.283 55.2015 794.626C55.5546 794.217 55.1729 793.412 54.6617 793.739C53.9269 794.209 53.3533 795.023 52.7625 795.685C52.5644 795.907 52.7828 796.354 53.0579 796.171Z" fill="#EEA21F"/>
<path d="M69.766 783.35C71.9028 779.684 73.1952 775.47 73.438 771.154C74.32 775.265 74.9503 779.447 75.3398 783.642C75.3736 784.007 75.9447 783.976 75.9301 783.605C75.7434 778.89 75.1568 774.278 74.2093 769.71C75.5967 772.259 76.6441 774.928 77.6983 777.726C77.7627 777.897 77.9942 777.77 77.9323 777.6C77.8205 777.293 77.7107 776.999 77.5942 776.708C77.8543 777.058 77.9156 777.012 77.7721 776.556C77.8298 776.197 77.5292 775.495 77.4356 775.145C77.1751 774.174 76.8662 773.219 76.5021 772.288C75.7346 770.326 74.7584 768.497 73.6471 766.749C73.6039 766.682 73.5556 766.633 73.5041 766.599C73.5015 766.588 73.4989 766.576 73.4958 766.565C72.6933 762.865 71.3277 759.238 70.0489 755.811C68.9849 752.961 67.8101 750.159 66.6348 747.363C65.2437 744.055 63.9295 740.602 62.2737 737.446C61.7833 736.512 60.5315 737.183 60.9054 738.184C63.1286 744.137 66.4034 749.612 68.7586 755.519C70.0307 758.709 71.3438 762.053 72.3641 765.455C72.2144 765.574 72.1285 765.772 72.1993 766.031V766.032C72.7349 771.943 71.8649 777.74 69.2985 783.008C69.1305 783.351 69.5668 783.691 69.766 783.35Z" fill="#EEA21F"/>
<path d="M567.443 642.236C567.388 642.224 567.338 642.227 567.293 642.237C566.51 642.272 565.928 642.839 565.402 643.462C564.834 644.134 564.327 644.866 563.809 645.589C563.893 644.038 563.433 642.334 562.104 642.234C560.732 642.132 559.408 643.391 558.535 644.436C557.899 645.197 557.356 646.051 556.801 646.888C556.248 647.723 555.616 648.984 554.818 649.546C553.255 650.645 553.449 648.585 553.994 647.614C554.307 647.057 554.657 646.527 554.966 645.967C555.46 645.071 555.913 644.146 556.317 643.194C557.034 641.504 557.998 639.376 558.043 637.459C558.073 636.194 557.39 635.282 556.226 635.678C554.833 636.152 553.554 637.432 552.586 638.762C552.507 637.648 552.214 636.574 551.284 635.976C550.227 635.297 549.265 635.907 548.571 636.883C547.753 638.035 547.365 639.483 546.952 640.859C546.731 641.594 546.513 642.341 546.198 643.033C546.009 643.447 545.795 643.848 545.528 644.204C545.228 644.784 544.771 644.929 544.158 644.638C544.075 644.301 544.006 643.959 543.952 643.613C543.556 641.328 543.51 638.968 543.771 636.661C543.917 635.373 544.234 633.859 543.135 632.974C541.035 631.284 539.341 633.647 538.453 635.706C537.667 633.321 536.241 630.134 533.947 630.005C531.341 629.859 531.146 632.941 531.452 635.224C531.041 635.096 530.583 635.15 530.166 635.407C529.322 635.927 529.124 637.082 529.351 638.069C529.699 639.58 530.883 640.395 531.869 641.347C532.681 642.131 533.427 643.067 533.808 644.215C534.066 644.995 534.421 646.416 532.852 646.145C532.478 646.08 531.926 645.647 531.6 645.466C529.833 644.484 528.061 643.277 526.216 642.501C525.306 642.119 524.147 642.02 523.483 643.001C522.82 643.981 523.422 645.057 523.889 645.952C524.665 647.437 525.609 648.775 526.673 649.997C526.217 650.298 525.932 650.928 526.023 651.588C526.223 653.027 527.906 653.722 528.918 654.2C530.448 654.921 532.049 655.418 533.597 656.081C534.969 656.667 537.599 657.761 538.111 659.505C538.624 661.253 535.742 660.205 535.194 659.991C534.345 659.659 533.528 659.226 532.724 658.776C531.213 657.929 529.741 656.972 528.15 656.323C527.1 655.894 525.657 655.269 524.754 656.352C524.192 657.027 524.151 657.991 524.267 658.903C522.397 657.657 519.185 656.386 519.005 659.72C518.917 661.342 520.046 662.846 520.953 663.963C521.877 665.101 522.943 666.035 524.114 666.804C523.24 667.561 523.197 669.083 523.967 670.169C525.159 671.851 527.347 672.306 529.141 672.215C531.653 672.089 533.954 670.87 536.317 670.028C536.984 669.791 537.685 669.515 538.382 669.442C538.75 669.404 539.121 669.395 539.484 669.481C540.256 669.666 540.315 669.706 540.432 670.534C540.544 671.332 540.56 671.365 539.864 671.689C539.545 671.837 539.194 671.885 538.853 671.916C538.368 671.96 537.885 671.878 537.401 671.878C536.188 671.876 534.298 672.358 534.37 674.135C534.452 676.161 536.952 677.598 538.414 678.087C539.187 678.346 539.994 678.463 540.8 678.428C542 678.378 544.064 677.251 545.133 678.102C545.274 678.17 545.415 678.239 545.556 678.307C545.828 679.001 545.764 679.321 545.365 679.268C545.118 679.373 544.715 679.247 544.454 679.268C544.069 679.297 543.679 679.343 543.34 679.571C542.78 679.949 542.51 680.594 542.504 681.323C542.486 683.902 545.082 684.45 546.677 685.375C549.409 686.958 551.391 689.803 552.293 693.099C552.375 693.397 552.809 693.501 552.964 693.217C554.479 690.428 555.867 687.547 557.127 684.6C558.101 682.321 559.23 679.858 559.625 677.336C559.811 676.145 559.472 674.474 558.091 675.104C557.442 675.4 556.941 676.028 556.357 676.446C555.956 676.735 555.481 677.104 555.023 676.742C554.394 676.245 554.717 675.326 555.045 674.767C556.381 672.49 558.814 671.181 560.455 669.207C561.168 668.351 561.96 667.284 562.012 666.056C562.063 664.879 561.406 663.8 560.314 663.765C559.18 663.73 558.144 664.738 557.255 665.405C556.145 666.237 554.979 667.195 553.697 667.657C553.108 667.868 552.303 668.029 552.435 667.092C552.509 666.57 553.22 665.92 553.531 665.599C554.556 664.539 555.751 663.654 556.959 662.886C560.036 660.927 564.212 660.224 566.505 656.923C567.254 655.846 567.701 654.279 566.868 653.097C566.544 652.638 566.112 652.331 565.656 652.223C566.341 651.575 567.097 651.015 567.645 650.205C568.339 649.179 568.726 647.765 568.907 646.5C569.117 645.029 569.1 642.576 567.443 642.236Z" fill="#BB6E3B"/>
<path d="M563.764 649.491C562.482 650.346 561.244 651.337 560.038 652.395C560.413 650.923 560.863 649.502 561.561 648.152C561.716 647.853 561.271 647.542 561.101 647.834C560.073 649.592 559.149 651.494 558.739 653.569C558.061 654.199 557.391 654.844 556.73 655.492C556.663 655.53 556.607 655.586 556.564 655.654C555.809 656.395 555.063 657.136 554.325 657.862C554.478 656.591 554.663 655.342 554.97 654.081C555.048 653.761 554.621 653.652 554.499 653.922C553.804 655.464 553.319 657.221 553.23 658.965C550.822 661.503 548.921 664.412 546.972 667.413C546.431 665.803 545.877 664.198 545.316 662.596C545.361 662.537 545.397 662.466 545.416 662.376C545.878 660.26 546.424 658.177 547.026 656.115C547.106 656.11 547.19 656.081 547.273 656.018C548.895 654.767 550.466 653.359 551.901 651.844C551.929 651.815 551.908 651.751 551.866 651.772C550.358 652.521 548.885 653.454 547.508 654.501C548.689 650.691 550.072 646.963 551.592 643.296C551.693 643.051 551.378 642.911 551.262 643.13C550.331 644.89 549.488 646.702 548.723 648.553C548.535 647.436 548.423 646.305 548.374 645.167C548.355 644.736 547.802 644.819 547.796 645.232C547.774 646.821 547.889 648.385 548.124 649.952C548.127 649.972 548.133 649.99 548.138 650.009C546.755 653.578 545.655 657.286 544.781 661.066C543.631 657.815 542.454 654.577 541.274 651.342C541.346 651.247 541.393 651.121 541.391 650.966C541.329 646.888 541.477 642.748 541.063 638.691C541.058 638.646 540.994 638.64 540.99 638.688C540.69 642.111 540.493 645.581 540.432 649.033C540.403 648.954 540.375 648.876 540.346 648.797C538.566 643.91 536.752 639.039 534.973 634.153C534.874 633.882 534.509 634.04 534.596 634.317C536.384 639.974 538.391 645.556 540.416 651.134C540.425 651.247 540.461 651.338 540.515 651.404C541.08 652.961 541.646 654.518 542.209 656.076C541.163 655.214 540.068 654.381 538.936 653.597C538.209 651.599 537.235 649.519 535.815 648.045C535.666 647.89 535.393 648.106 535.486 648.317C536.14 649.799 536.891 651.203 537.549 652.675C534.83 650.937 531.936 649.512 529.026 648.668C528.777 648.596 528.672 649.035 528.899 649.148C531.065 650.225 533.201 651.309 535.269 652.603C534.228 652.816 533.182 653.123 532.183 653.46C531.863 653.569 531.997 654.127 532.315 654.095C533.654 653.959 535.031 653.741 536.334 653.366C536.358 653.359 536.38 653.349 536.401 653.337C538.477 654.736 540.441 656.317 542.481 657.78C542.606 657.87 542.736 657.894 542.856 657.875C543.993 661.044 545.11 664.222 546.169 667.421C543.08 666.304 539.931 665.538 536.747 664.827C536.497 664.771 536.247 664.714 535.997 664.658C535.933 664.617 535.86 664.598 535.784 664.61C534.779 664.383 533.773 664.156 532.767 663.934C532.25 662.519 530.872 660.884 529.616 660.367C529.453 660.299 529.325 660.49 529.412 660.654C529.776 661.339 530.287 661.922 530.708 662.562C530.931 662.901 531.125 663.264 531.324 663.624C529.329 663.203 527.327 662.828 525.312 662.57C525.055 662.537 525.012 662.929 525.248 663.007C528.347 664.032 531.505 664.774 534.664 665.505C532.705 667.078 530.516 668.145 528.246 669.08C528.02 669.173 528.099 669.619 528.347 669.561C531.085 668.917 533.569 667.726 535.749 665.756C539.377 666.596 542.999 667.465 546.526 668.775C546.558 668.787 546.589 668.793 546.619 668.799C547.421 671.267 548.184 673.749 548.893 676.25C547.685 676.024 546.478 675.784 545.273 675.531C545.27 675.487 545.264 675.441 545.249 675.393C544.874 674.159 543.822 672.937 543.047 672C542.843 671.754 542.502 672.021 542.668 672.317C542.992 672.895 543.311 673.477 543.614 674.07C543.817 674.465 543.987 674.902 544.193 675.304C543.687 675.194 543.182 675.084 542.677 674.971C541.568 674.722 540.459 674.476 539.345 674.257C538.9 674.17 538.178 673.883 537.719 673.966C537.647 673.937 537.573 673.923 537.518 673.931C537.411 673.947 537.337 674.131 537.445 674.207C538.312 674.818 539.443 675.184 540.566 675.47C540.136 675.726 539.74 676.037 539.452 676.348C539.333 676.477 539.38 676.752 539.578 676.722C540.081 676.648 540.54 676.457 541.02 676.28C541.385 676.146 541.769 676.027 542.117 675.837C542.343 675.89 542.563 675.943 542.774 675.997C544.907 676.542 547.052 676.991 549.21 677.385C549.707 679.183 550.176 680.992 550.608 682.815C550.659 683.03 550.708 683.246 550.757 683.462C549.754 682.71 548.584 682.252 547.4 682.008C547.086 681.943 546.923 682.502 547.236 682.627C548.756 683.231 549.975 684.29 551.185 685.44C552.049 689.731 552.471 694.056 551.707 698.46C551.598 699.085 552.41 699.206 552.551 698.617C553.585 694.307 553.006 689.729 552.123 685.452C552.121 685.442 552.118 685.432 552.116 685.421C552.227 685.235 552.249 684.993 552.09 684.784C552.084 684.775 552.077 684.768 552.071 684.76C552.931 683.123 553.521 681.04 553.483 679.141C553.479 678.91 553.196 678.893 553.116 679.073C552.742 679.917 552.427 680.801 552.125 681.68C551.967 682.143 551.778 682.589 551.587 683.033C551.214 681.432 550.804 679.842 550.364 678.263C551.527 676.837 552.581 675.277 553.59 673.71C554.521 672.264 555.559 670.752 556.091 669.051C556.116 668.972 556.034 668.871 555.967 668.938C554.779 670.125 553.883 671.684 552.894 673.078C551.954 674.404 550.965 675.681 550 676.982C549.993 676.955 549.985 676.928 549.977 676.9C549.979 676.775 549.945 676.652 549.876 676.556C549.638 675.743 549.394 674.933 549.145 674.125C548.591 672.336 548.014 670.556 547.426 668.78C547.427 668.778 547.428 668.778 547.429 668.776C548.854 666.268 550.411 663.935 552.171 661.786C552.206 661.806 552.242 661.822 552.282 661.835C553.679 662.289 555.168 661.786 556.32 660.849C556.559 660.656 556.338 660.154 556.064 660.32C555.06 660.926 554.057 661.003 552.994 660.806C553.662 660.04 554.359 659.297 555.09 658.582C555.771 657.916 556.472 657.259 557.176 656.601C558.837 657.007 560.447 656.971 562.065 656.269C562.313 656.16 562.23 655.67 561.953 655.734C560.684 656.028 559.339 656.084 558.064 655.772C560.12 653.85 562.171 651.883 563.874 649.619C563.935 649.537 563.837 649.443 563.764 649.491Z" fill="#975326"/>
<path d="M426.888 423.034C429.249 421.457 430.499 418.767 428.393 416.476C429.518 415.2 430.604 413.546 430.3 411.684C430.142 410.718 429.706 410.14 429.117 409.832C430.076 408.716 430.813 407.357 430.556 405.693C430.313 404.122 429.325 403.347 428.154 403C429.082 401.445 429.679 399.389 428.811 397.76C427.588 395.466 425.098 396.064 423.327 397.185C422.798 395.703 422.211 394.381 420.572 394.361C419.048 394.342 417.8 395.32 416.636 396.365C416.054 392.489 412.041 393.953 409.821 396.652C409.437 395.647 408.678 394.893 407.591 394.969C405.946 395.084 404.518 396.974 403.43 398.734C402.828 397.6 401.596 396.813 400.396 396.856C397.989 396.943 396.521 400.066 395.628 402.545C394.32 401.422 392.739 401.071 391.39 402.7C390.405 403.89 390.204 405.663 390.23 407.404C389.58 406.843 388.809 406.466 388.06 406.374C386.138 406.137 385.01 407.738 384.362 409.55C383.353 408.819 382.199 408.565 381.013 409.334C379.675 410.201 379.286 411.778 379.225 413.394C378.375 413.093 377.407 413.428 376.633 414.407C375.606 415.705 375.324 417.706 375.122 419.379C374.291 426.234 375.325 433.656 376.822 440.289C377.184 441.893 377.597 443.48 378.066 445.047C378.698 447.158 379.22 447.242 381.035 448.154C384.641 449.965 388.4 451.369 392.241 452.349C397.671 453.736 403.545 454.582 409.083 453.525C410.446 453.264 412.213 452.898 413.239 451.716C414.351 450.434 414.441 448.593 413.828 447.099C416.469 446.744 417.766 443.099 416.271 440.662C417.566 440.375 418.768 439.543 419.073 437.959C419.282 436.872 418.847 435.907 418.162 435.167C421.201 434.664 424.828 433.128 423.938 429.666C425.33 429.269 426.766 428.401 427.399 426.94C428.003 425.548 427.714 424.065 426.888 423.034Z" fill="#DEA868"/>
<path d="M402.13 426.622C402.136 426.624 402.142 426.626 402.149 426.627C405.463 427.15 408.797 427.562 412.13 427.892C415.026 428.178 418.46 428.874 421.286 427.908C421.353 427.885 421.356 427.791 421.294 427.759C418.599 426.337 415.138 426.391 412.22 426.029C409.433 425.684 406.648 425.31 403.863 424.942C406.88 421.982 409.844 418.947 412.724 415.816C416.337 416.764 420.526 417.07 424.132 416.266C424.386 416.21 424.449 415.707 424.164 415.643C420.95 414.926 417.468 414.534 414.136 414.285C416.365 411.86 418.705 409.353 420.838 406.687C420.869 406.695 420.898 406.705 420.93 406.71C421.645 406.806 422.404 406.598 423.118 406.505C423.268 406.485 424.704 406.267 425.128 406.09C425.13 406.102 425.132 406.113 425.134 406.124C425.14 406.162 425.172 406.194 425.206 406.195C425.255 406.196 425.305 406.199 425.355 406.203C425.487 406.214 425.604 406.035 425.532 405.895C425.21 405.275 424.368 405.345 423.811 405.282C423.255 405.219 422.664 405.123 422.079 405.079C423.149 403.644 424.147 402.163 425.021 400.618C425.1 400.479 424.947 400.333 424.837 400.431C422.754 402.288 420.797 404.376 418.875 406.517C419.409 404.045 420.087 401.639 420.614 399.148C420.689 398.792 420.258 398.476 420.074 398.842C418.573 401.832 417.223 405.169 416.874 408.629C416.869 408.679 416.87 408.725 416.871 408.772C415.245 410.615 413.624 412.458 411.956 414.195C410.613 415.592 409.258 416.972 407.898 418.345C408.679 413.296 409.927 408.404 411.282 403.506C411.431 402.969 410.778 402.749 410.579 403.234C408.35 408.662 406.553 414.21 406.031 420.219C403.692 422.546 401.33 424.841 398.939 427.101C397.978 428.009 397.011 428.906 396.042 429.8C396.343 426.278 396.582 422.761 397.048 419.251C397.593 415.139 398.482 411.113 399.114 407.023C399.197 406.487 398.481 406.38 398.326 406.848C395.857 414.268 394.597 423.177 394.575 431.144C391.578 433.878 388.548 436.563 385.504 439.225C385.041 431.237 385.515 423.263 385.129 415.273C385.116 415.021 384.831 415.006 384.792 415.252C383.466 423.469 383.456 432.071 384.172 440.388C379.888 444.125 375.589 447.839 371.338 451.631C370.407 452.461 371.598 453.976 372.529 453.2C375.865 450.417 379.176 447.582 382.462 444.704C382.502 444.726 382.545 444.746 382.593 444.761C386.747 446.014 390.864 447.335 395.08 448.298C398.673 449.12 402.544 450.231 406.208 449.556C406.278 449.543 406.273 449.434 406.215 449.406C402.599 447.694 398.434 447.455 394.63 446.545C391.037 445.686 387.427 444.714 383.93 443.412C386.46 441.18 388.972 438.92 391.468 436.637C394.698 437.607 398.049 438.211 401.34 438.811C404.986 439.475 408.767 440.264 412.464 439.957C412.802 439.929 412.985 439.337 412.588 439.215C409.248 438.179 405.755 437.901 402.342 437.29C399.191 436.726 396.077 435.948 392.944 435.284C395.454 432.971 397.947 430.636 400.417 428.278C400.991 427.731 401.559 427.175 402.13 426.622Z" fill="#C98F4B"/>
<path d="M564.888 46.034C567.249 44.4567 568.499 41.7673 566.393 39.4761C567.518 38.2003 568.604 36.5456 568.3 34.6842C568.142 33.7184 567.706 33.14 567.117 32.8322C568.076 31.7157 568.813 30.3573 568.556 28.6933C568.313 27.1218 567.325 26.3468 566.154 26.0003C567.082 24.4453 567.679 22.3888 566.811 20.7599C565.588 18.4658 563.098 19.0643 561.327 20.1851C560.798 18.7026 560.211 17.3809 558.572 17.3608C557.048 17.3421 555.8 18.3202 554.636 19.365C554.054 15.4887 550.041 16.9525 547.821 19.652C547.437 18.6467 546.678 17.8925 545.591 17.9693C543.946 18.0841 542.518 19.9742 541.43 21.7343C540.828 20.5999 539.596 19.8134 538.396 19.8565C535.989 19.9433 534.521 23.0661 533.628 25.5453C532.32 24.4223 530.739 24.0707 529.39 25.7003C528.405 26.89 528.204 28.6631 528.23 30.404C527.58 29.8428 526.809 29.4661 526.06 29.3736C524.138 29.1368 523.01 30.7384 522.362 32.5502C521.353 31.819 520.199 31.565 519.013 32.3342C517.675 33.201 517.286 34.7775 517.225 36.3942C516.375 36.0928 515.407 36.4279 514.633 37.4074C513.606 38.7055 513.324 40.706 513.122 42.3787C512.291 49.2343 513.325 56.6561 514.822 63.2892C515.184 64.893 515.597 66.4802 516.066 68.0467C516.698 70.1585 517.22 70.2424 519.035 71.1544C522.641 72.9649 526.4 74.3691 530.241 75.3493C535.671 76.7357 541.545 77.5824 547.083 76.5247C548.446 76.2642 550.213 75.8976 551.239 74.7157C552.351 73.4342 552.441 71.5929 551.828 70.0989C554.469 69.7444 555.766 66.0992 554.271 63.6616C555.566 63.3753 556.768 62.543 557.073 60.9586C557.282 59.8722 556.847 58.907 556.162 58.1665C559.201 57.6642 562.828 56.1279 561.938 52.6657C563.33 52.2689 564.766 51.4006 565.399 49.9396C566.003 48.5483 565.714 47.0651 564.888 46.034Z" fill="#DEA868"/>
<path d="M540.13 49.6221C540.136 49.6236 540.142 49.6264 540.149 49.6272C543.463 50.1503 546.797 50.5622 550.13 50.8915C553.026 51.1778 556.46 51.8739 559.286 50.908C559.353 50.8851 559.356 50.7911 559.294 50.7588C556.599 49.3366 553.138 49.3911 550.22 49.0294C547.432 48.6843 544.648 48.3104 541.863 47.9423C544.88 44.9824 547.844 41.9471 550.724 38.8164C554.337 39.7643 558.526 40.0699 562.132 39.2663C562.386 39.2096 562.449 38.7066 562.164 38.6427C558.95 37.9258 555.468 37.5341 552.136 37.2851C554.365 34.8597 556.705 32.3532 558.838 29.6868C558.869 29.6954 558.898 29.7054 558.93 29.7097C559.645 29.8059 560.404 29.5978 561.118 29.5045C561.268 29.4851 562.704 29.267 563.128 29.0905C563.13 29.102 563.132 29.1134 563.134 29.1242C563.14 29.1622 563.172 29.1938 563.206 29.1952C563.255 29.1959 563.305 29.1988 563.355 29.2031C563.487 29.2139 563.604 29.0345 563.532 28.8946C563.21 28.2753 562.368 28.3449 561.811 28.2818C561.255 28.2186 560.664 28.1232 560.079 28.0794C561.149 26.6443 562.147 25.1625 563.021 23.6176C563.1 23.4791 562.947 23.3327 562.837 23.431C560.754 25.2881 558.797 27.3755 556.875 29.5174C557.409 27.0447 558.087 24.6387 558.614 22.148C558.689 21.7921 558.258 21.4764 558.074 21.8416C556.573 24.8317 555.223 28.1691 554.874 31.6285C554.869 31.6795 554.87 31.7254 554.871 31.772C553.245 33.6154 551.624 35.4581 549.956 37.1946C548.613 38.5917 547.258 39.9723 545.898 41.345C546.679 36.2963 547.927 31.4039 549.282 26.5058C549.431 25.9691 548.778 25.7488 548.579 26.2339C546.35 31.6615 544.553 37.2104 544.031 43.2193C541.692 45.5464 539.33 47.8412 536.939 50.1015C535.978 51.0092 535.011 51.9062 534.042 52.8003C534.343 49.2777 534.582 45.7609 535.048 42.2506C535.593 38.139 536.482 34.1134 537.114 30.0226C537.197 29.4866 536.481 29.3804 536.326 29.8482C533.857 37.2678 532.597 46.1771 532.575 54.1442C529.578 56.8782 526.548 59.5626 523.504 62.2247C523.041 54.2368 523.515 46.2625 523.129 38.2731C523.116 38.0213 522.831 38.0062 522.792 38.2516C521.466 46.4692 521.456 55.0713 522.172 63.3879C517.888 67.125 513.589 70.8391 509.338 74.6307C508.407 75.4609 509.598 76.9764 510.529 76.2C513.865 73.4173 517.176 70.5822 520.462 67.7041C520.502 67.7256 520.545 67.7464 520.593 67.7608C524.747 69.0136 528.864 70.3347 533.08 71.2983C536.673 72.12 540.544 73.2314 544.208 72.5555C544.278 72.5426 544.273 72.4335 544.215 72.4063C540.599 70.6942 536.434 70.4545 532.63 69.5453C529.037 68.6864 525.427 67.7141 521.93 66.4124C524.46 64.1801 526.972 61.9205 529.468 59.6372C532.698 60.6073 536.049 61.2108 539.34 61.8107C542.986 62.4752 546.767 63.2638 550.464 62.9574C550.802 62.9294 550.985 62.3374 550.588 62.2147C547.248 61.1785 543.755 60.9008 540.342 60.2902C537.191 59.7262 534.077 58.9483 530.944 58.2839C533.454 55.9712 535.947 53.6362 538.417 51.2776C538.991 50.7308 539.559 50.1747 540.13 49.6221Z" fill="#C98F4B"/>
<path d="M569.888 1240.03C572.249 1238.46 573.499 1235.77 571.393 1233.48C572.518 1232.2 573.604 1230.55 573.3 1228.68C573.142 1227.72 572.706 1227.14 572.117 1226.83C573.076 1225.72 573.813 1224.36 573.556 1222.69C573.313 1221.12 572.325 1220.35 571.154 1220C572.082 1218.45 572.679 1216.39 571.811 1214.76C570.588 1212.47 568.098 1213.06 566.327 1214.19C565.798 1212.7 565.211 1211.38 563.572 1211.36C562.048 1211.34 560.8 1212.32 559.636 1213.36C559.054 1209.49 555.041 1210.95 552.821 1213.65C552.437 1212.65 551.678 1211.89 550.591 1211.97C548.946 1212.08 547.518 1213.97 546.43 1215.73C545.828 1214.6 544.596 1213.81 543.396 1213.86C540.989 1213.94 539.521 1217.07 538.628 1219.55C537.32 1218.42 535.739 1218.07 534.39 1219.7C533.405 1220.89 533.204 1222.66 533.23 1224.4C532.58 1223.84 531.809 1223.47 531.06 1223.37C529.138 1223.14 528.01 1224.74 527.362 1226.55C526.353 1225.82 525.199 1225.56 524.013 1226.33C522.675 1227.2 522.286 1228.78 522.225 1230.39C521.375 1230.09 520.407 1230.43 519.633 1231.41C518.606 1232.71 518.324 1234.71 518.122 1236.38C517.291 1243.23 518.325 1250.66 519.822 1257.29C520.184 1258.89 520.597 1260.48 521.066 1262.05C521.698 1264.16 522.22 1264.24 524.035 1265.15C527.641 1266.96 531.4 1268.37 535.241 1269.35C540.671 1270.74 546.545 1271.58 552.083 1270.52C553.446 1270.26 555.213 1269.9 556.239 1268.72C557.351 1267.43 557.441 1265.59 556.828 1264.1C559.469 1263.74 560.766 1260.1 559.271 1257.66C560.566 1257.38 561.768 1256.54 562.073 1254.96C562.282 1253.87 561.847 1252.91 561.162 1252.17C564.201 1251.66 567.828 1250.13 566.938 1246.67C568.33 1246.27 569.766 1245.4 570.399 1243.94C571.003 1242.55 570.714 1241.07 569.888 1240.03Z" fill="#DEA868"/>
<path d="M545.13 1243.62C545.136 1243.62 545.142 1243.63 545.149 1243.63C548.463 1244.15 551.797 1244.56 555.13 1244.89C558.026 1245.18 561.46 1245.87 564.286 1244.91C564.353 1244.89 564.356 1244.79 564.294 1244.76C561.599 1243.34 558.138 1243.39 555.22 1243.03C552.432 1242.68 549.648 1242.31 546.863 1241.94C549.88 1238.98 552.844 1235.95 555.724 1232.82C559.337 1233.76 563.526 1234.07 567.132 1233.27C567.386 1233.21 567.449 1232.71 567.164 1232.64C563.95 1231.93 560.468 1231.53 557.136 1231.29C559.365 1228.86 561.705 1226.35 563.838 1223.69C563.869 1223.7 563.898 1223.71 563.93 1223.71C564.645 1223.81 565.404 1223.6 566.118 1223.5C566.268 1223.49 567.704 1223.27 568.128 1223.09C568.13 1223.1 568.132 1223.11 568.134 1223.12C568.14 1223.16 568.172 1223.19 568.206 1223.2C568.255 1223.2 568.305 1223.2 568.355 1223.2C568.487 1223.21 568.604 1223.03 568.532 1222.89C568.21 1222.28 567.368 1222.34 566.811 1222.28C566.255 1222.22 565.664 1222.12 565.079 1222.08C566.149 1220.64 567.147 1219.16 568.021 1217.62C568.1 1217.48 567.947 1217.33 567.837 1217.43C565.754 1219.29 563.797 1221.38 561.875 1223.52C562.409 1221.04 563.087 1218.64 563.614 1216.15C563.689 1215.79 563.258 1215.48 563.074 1215.84C561.573 1218.83 560.223 1222.17 559.874 1225.63C559.869 1225.68 559.87 1225.73 559.871 1225.77C558.245 1227.62 556.624 1229.46 554.956 1231.19C553.613 1232.59 552.258 1233.97 550.898 1235.35C551.679 1230.3 552.927 1225.4 554.282 1220.51C554.431 1219.97 553.778 1219.75 553.579 1220.23C551.35 1225.66 549.553 1231.21 549.031 1237.22C546.692 1239.55 544.33 1241.84 541.939 1244.1C540.978 1245.01 540.011 1245.91 539.042 1246.8C539.343 1243.28 539.582 1239.76 540.048 1236.25C540.593 1232.14 541.482 1228.11 542.114 1224.02C542.197 1223.49 541.481 1223.38 541.326 1223.85C538.857 1231.27 537.597 1240.18 537.575 1248.14C534.578 1250.88 531.548 1253.56 528.504 1256.22C528.041 1248.24 528.515 1240.26 528.129 1232.27C528.116 1232.02 527.831 1232.01 527.792 1232.25C526.466 1240.47 526.456 1249.07 527.172 1257.39C522.888 1261.13 518.589 1264.84 514.338 1268.63C513.407 1269.46 514.598 1270.98 515.529 1270.2C518.865 1267.42 522.176 1264.58 525.462 1261.7C525.502 1261.73 525.545 1261.75 525.593 1261.76C529.747 1263.01 533.864 1264.33 538.08 1265.3C541.673 1266.12 545.544 1267.23 549.208 1266.56C549.278 1266.54 549.273 1266.43 549.215 1266.41C545.599 1264.69 541.434 1264.45 537.63 1263.55C534.037 1262.69 530.427 1261.71 526.93 1260.41C529.46 1258.18 531.972 1255.92 534.468 1253.64C537.698 1254.61 541.049 1255.21 544.34 1255.81C547.986 1256.48 551.767 1257.26 555.464 1256.96C555.802 1256.93 555.985 1256.34 555.588 1256.21C552.248 1255.18 548.755 1254.9 545.342 1254.29C542.191 1253.73 539.077 1252.95 535.944 1252.28C538.454 1249.97 540.947 1247.64 543.417 1245.28C543.991 1244.73 544.559 1244.17 545.13 1243.62Z" fill="#C98F4B"/>
</g>
<defs>
<clipPath id="clip0_1_2">
<rect width="604" height="1329" fill="white"/>
</clipPath>
</defs>
</svg>
