<svg width="1352" height="416" viewBox="0 0 1352 416" fill="none" xmlns="http://www.w3.org/2000/svg">
<g clip-path="url(#clip0_1_2)">
<path d="M1282 0H70C31.3401 0 0 31.3401 0 70V346C0 384.66 31.3401 416 70 416H1282C1320.66 416 1352 384.66 1352 346V70C1352 31.3401 1320.66 0 1282 0Z" fill="#7BA567"/>
<path d="M55.6316 34.4579C57.0778 33.6726 57.8434 32.3333 56.5534 31.1924C57.2425 30.557 57.908 29.7331 57.7218 28.8062C57.6251 28.3252 57.358 28.0372 56.9968 27.8839C57.5842 27.3279 58.036 26.6515 57.8785 25.8229C57.7299 25.0403 57.1245 24.6544 56.4071 24.4818C56.9754 23.7075 57.3412 22.6834 56.8095 21.8723C56.0604 20.7299 54.535 21.0279 53.45 21.5861C53.1259 20.8479 52.7658 20.1897 51.7622 20.1797C50.8281 20.1704 50.0637 20.6574 49.3505 21.1777C48.9939 19.2474 46.5356 19.9763 45.1757 21.3206C44.9403 20.82 44.4751 20.4444 43.8094 20.4827C42.8019 20.5398 41.927 21.481 41.2601 22.3575C40.8913 21.7926 40.1364 21.401 39.4014 21.4224C37.9265 21.4657 37.0272 23.0207 36.4807 24.2553C35.6792 23.6961 34.7103 23.521 33.884 24.3325C33.2809 24.9249 33.1574 25.8079 33.1735 26.6747C32.7752 26.3953 32.3028 26.2077 31.8438 26.1616C30.6663 26.0437 29.9752 26.8412 29.5781 27.7435C28.9601 27.3794 28.2534 27.2529 27.5265 27.6359C26.707 28.0676 26.4689 28.8526 26.4315 29.6577C25.9105 29.5076 25.3177 29.6745 24.843 30.1622C24.2139 30.8086 24.0416 31.8048 23.9174 32.6377C23.4083 36.0516 24.042 39.7474 24.9592 43.0505C25.1809 43.8491 25.4339 44.6395 25.7213 45.4196C26.1085 46.4712 26.428 46.513 27.5402 46.9671C29.7494 47.8686 32.0525 48.5679 34.4053 49.056C37.732 49.7464 41.3308 50.168 44.7232 49.6413C45.5583 49.5116 46.6411 49.329 47.2694 48.7405C47.9509 48.1023 48.0059 47.1854 47.6306 46.4415C49.2481 46.265 50.0427 44.4498 49.1269 43.236C49.9204 43.0934 50.6569 42.6789 50.8434 41.8899C50.9714 41.3489 50.705 40.8683 50.2857 40.4996C52.1474 40.2494 54.3692 39.4844 53.8242 37.7603C54.6768 37.5627 55.5567 37.1304 55.9446 36.4029C56.3146 35.71 56.1372 34.9714 55.6316 34.4579Z" fill="#DEA868"/>
<path d="M40.4641 36.2448C40.4679 36.2455 40.4713 36.2469 40.4756 36.2473C42.5062 36.5077 44.5483 36.7129 46.5904 36.8769C48.3645 37.0194 50.4686 37.366 52.1999 36.8851C52.2408 36.8736 52.2423 36.8268 52.2045 36.8108C50.5534 36.1025 48.433 36.1297 46.6454 35.9496C44.9377 35.7777 43.232 35.5916 41.5258 35.4083C43.3742 33.9343 45.19 32.4228 46.9542 30.8638C49.1679 31.3359 51.734 31.4881 53.9431 31.0879C54.0991 31.0596 54.1373 30.8092 53.963 30.7774C51.9935 30.4204 49.8605 30.2253 47.8195 30.1013C49.1851 28.8935 50.6184 27.6454 51.9251 26.3176C51.9439 26.3219 51.9618 26.3269 51.9817 26.329C52.4193 26.3769 52.8848 26.2733 53.3217 26.2268C53.4142 26.2172 54.2936 26.1086 54.5535 26.0207C54.5547 26.0264 54.5558 26.0321 54.557 26.0375C54.5608 26.0564 54.5803 26.0721 54.6009 26.0728C54.6315 26.0732 54.6621 26.0746 54.6926 26.0768C54.7733 26.0821 54.8451 25.9928 54.8008 25.9231C54.6036 25.6147 54.088 25.6494 53.7463 25.618C53.4061 25.5865 53.0438 25.539 52.6853 25.5172C53.3408 24.8025 53.9523 24.0647 54.4878 23.2954C54.5359 23.2264 54.4423 23.1535 54.375 23.2025C53.0989 24.1272 51.8999 25.1667 50.7227 26.2333C51.0499 25.0019 51.4653 23.8038 51.7879 22.5636C51.8342 22.3863 51.5697 22.2291 51.4573 22.411C50.5374 23.9 49.7103 25.5619 49.4966 27.2845C49.4936 27.3099 49.4943 27.3328 49.4947 27.356C48.4987 28.2739 47.5057 29.1916 46.4837 30.0563C45.6612 30.752 44.8311 31.4395 43.9979 32.123C44.476 29.6089 45.2408 27.1727 46.071 24.7336C46.1619 24.4663 45.7618 24.3566 45.6398 24.5982C44.2746 27.301 43.1739 30.0641 42.8536 33.0564C41.4207 34.2152 39.9737 35.3579 38.5091 36.4834C37.9205 36.9355 37.3281 37.3821 36.7342 37.8273C36.9184 36.0732 37.0652 34.322 37.3503 32.574C37.6843 30.5265 38.229 28.5219 38.6161 26.4848C38.667 26.2179 38.2286 26.165 38.1334 26.398C36.6207 30.0927 35.849 34.5292 35.8353 38.4966C33.9992 39.858 32.1432 41.1948 30.2781 42.5204C29.9945 38.5427 30.2849 34.5718 30.0484 30.5933C30.0407 30.4679 29.8661 30.4604 29.842 30.5826C29.0298 34.6747 29.0237 38.9583 29.4621 43.0996C26.8379 44.9606 24.2041 46.8101 21.5994 48.6982C21.0292 49.1116 21.7588 49.8663 22.3291 49.4797C24.3731 48.094 26.4014 46.6822 28.4145 45.249C28.4393 45.2597 28.4653 45.27 28.4947 45.2772C31.0398 45.9011 33.5619 46.5589 36.1448 47.0388C38.3459 47.4479 40.7179 48.0014 42.9621 47.6648C43.0053 47.6584 43.0023 47.6041 42.9667 47.5905C40.7515 46.7379 38.1999 46.6186 35.8693 46.1658C33.6682 45.7381 31.4564 45.2539 29.3138 44.6058C30.864 43.4941 32.4031 42.3689 33.9319 41.2319C35.9106 41.715 37.9637 42.0155 39.9798 42.3142C42.2134 42.6451 44.5299 43.0378 46.7948 42.8853C47.002 42.8713 47.114 42.5765 46.8709 42.5154C44.825 41.9995 42.6851 41.8612 40.594 41.5571C38.6632 41.2762 36.7556 40.8889 34.8362 40.558C36.3742 39.4064 37.9014 38.2436 39.4146 37.0691C39.7662 36.7968 40.1144 36.5199 40.4641 36.2448Z" fill="#C98F4B"/>
<path d="M1339.18 76.4579C1340.62 75.6726 1341.39 74.3333 1340.1 73.1924C1340.79 72.557 1341.45 71.7331 1341.27 70.8062C1341.17 70.3252 1340.9 70.0372 1340.54 69.8839C1341.13 69.3279 1341.58 68.6515 1341.42 67.8229C1341.27 67.0403 1340.67 66.6544 1339.95 66.4818C1340.52 65.7075 1340.89 64.6834 1340.35 63.8723C1339.61 62.7299 1338.08 63.0279 1336.99 63.5861C1336.67 62.8479 1336.31 62.1897 1335.31 62.1797C1334.37 62.1704 1333.61 62.6574 1332.9 63.1777C1332.54 61.2474 1330.08 61.9763 1328.72 63.3206C1328.49 62.82 1328.02 62.4444 1327.35 62.4827C1326.35 62.5398 1325.47 63.481 1324.81 64.3575C1324.44 63.7926 1323.68 63.401 1322.95 63.4224C1321.47 63.4657 1320.57 65.0207 1320.03 66.2553C1319.22 65.6961 1318.26 65.521 1317.43 66.3325C1316.83 66.9249 1316.7 67.8079 1316.72 68.6747C1316.32 68.3953 1315.85 68.2077 1315.39 68.1616C1314.21 68.0437 1313.52 68.8412 1313.12 69.7435C1312.51 69.3794 1311.8 69.2529 1311.07 69.6359C1310.25 70.0676 1310.01 70.8526 1309.98 71.6577C1309.46 71.5076 1308.86 71.6745 1308.39 72.1622C1307.76 72.8086 1307.59 73.8048 1307.46 74.6377C1306.95 78.0516 1307.59 81.7474 1308.5 85.0505C1308.73 85.8491 1308.98 86.6395 1309.27 87.4196C1309.65 88.4712 1309.97 88.513 1311.09 88.9671C1313.29 89.8686 1315.6 90.5679 1317.95 91.056C1321.28 91.7464 1324.88 92.168 1328.27 91.6413C1329.1 91.5116 1330.19 91.329 1330.81 90.7405C1331.5 90.1023 1331.55 89.1854 1331.18 88.4415C1332.79 88.265 1333.59 86.4498 1332.67 85.236C1333.47 85.0934 1334.2 84.6789 1334.39 83.8899C1334.52 83.3489 1334.25 82.8683 1333.83 82.4996C1335.69 82.2494 1337.91 81.4844 1337.37 79.7603C1338.22 79.5627 1339.1 79.1304 1339.49 78.4029C1339.86 77.71 1339.68 76.9714 1339.18 76.4579Z" fill="#DEA868"/>
<path d="M1324.01 78.2448L1324.02 78.2473C1326.05 78.5077 1328.09 78.7129 1330.14 78.8769C1331.91 79.0194 1334.01 79.366 1335.74 78.8851C1335.79 78.8736 1335.79 78.8268 1335.75 78.8108C1334.1 78.1025 1331.98 78.1297 1330.19 77.9496C1328.48 77.7777 1326.78 77.5916 1325.07 77.4083C1326.92 75.9343 1328.73 74.4228 1330.5 72.8638C1332.71 73.3359 1335.28 73.4881 1337.49 73.0879C1337.64 73.0596 1337.68 72.8092 1337.51 72.7774C1335.54 72.4204 1333.41 72.2253 1331.36 72.1013C1332.73 70.8935 1334.16 69.6454 1335.47 68.3176C1335.49 68.3219 1335.51 68.3269 1335.53 68.329C1335.96 68.3769 1336.43 68.2733 1336.87 68.2268C1336.96 68.2172 1337.84 68.1086 1338.1 68.0207C1338.1 68.0264 1338.1 68.0321 1338.1 68.0375C1338.11 68.0564 1338.13 68.0721 1338.15 68.0728C1338.18 68.0732 1338.21 68.0746 1338.24 68.0768C1338.32 68.0821 1338.39 67.9928 1338.35 67.9231C1338.15 67.6147 1337.63 67.6494 1337.29 67.618C1336.95 67.5865 1336.59 67.539 1336.23 67.5172C1336.89 66.8025 1337.5 66.0647 1338.03 65.2954C1338.08 65.2264 1337.99 65.1535 1337.92 65.2025C1336.64 66.1272 1335.44 67.1667 1334.27 68.2333C1334.59 67.0019 1335.01 65.8038 1335.33 64.5636C1335.38 64.3863 1335.11 64.2291 1335 64.411C1334.08 65.9 1333.26 67.5619 1333.04 69.2845C1333.04 69.3099 1333.04 69.3328 1333.04 69.356C1332.04 70.2739 1331.05 71.1916 1330.03 72.0563C1329.21 72.752 1328.38 73.4395 1327.54 74.123C1328.02 71.6089 1328.79 69.1727 1329.62 66.7336C1329.71 66.4663 1329.31 66.3566 1329.18 66.5982C1327.82 69.301 1326.72 72.0641 1326.4 75.0564C1324.97 76.2152 1323.52 77.3579 1322.05 78.4834C1321.47 78.9355 1320.87 79.3821 1320.28 79.8273C1320.46 78.0732 1320.61 76.322 1320.9 74.574C1321.23 72.5265 1321.77 70.5219 1322.16 68.4848C1322.21 68.2179 1321.77 68.165 1321.68 68.398C1320.17 72.0927 1319.39 76.5292 1319.38 80.4966C1317.54 81.858 1315.69 83.1948 1313.82 84.5204C1313.54 80.5427 1313.83 76.5718 1313.59 72.5933C1313.59 72.4679 1313.41 72.4604 1313.39 72.5826C1312.57 76.6747 1312.57 80.9583 1313.01 85.0996C1310.38 86.9606 1307.75 88.8101 1305.14 90.6982C1304.57 91.1116 1305.3 91.8663 1305.87 91.4797C1307.92 90.094 1309.95 88.6822 1311.96 87.249C1311.98 87.2597 1312.01 87.27 1312.04 87.2772C1314.58 87.9011 1317.11 88.5589 1319.69 89.0388C1321.89 89.4479 1324.26 90.0014 1326.51 89.6648C1326.55 89.6584 1326.55 89.6041 1326.51 89.5905C1324.3 88.7379 1321.74 88.6186 1319.41 88.1658C1317.21 87.7381 1315 87.2539 1312.86 86.6058C1314.41 85.4941 1315.95 84.3689 1317.48 83.2319C1319.46 83.715 1321.51 84.0155 1323.52 84.3142C1325.76 84.6451 1328.07 85.0378 1330.34 84.8853C1330.55 84.8713 1330.66 84.5765 1330.42 84.5154C1328.37 83.9995 1326.23 83.8612 1324.14 83.5571C1322.21 83.2762 1320.3 82.8889 1318.38 82.558C1319.92 81.4064 1321.45 80.2436 1322.96 79.0691C1323.31 78.7968 1323.66 78.5199 1324.01 78.2448Z" fill="#C98F4B"/>
<path d="M575.468 220.458C576.914 219.673 577.679 218.333 576.389 217.192C577.078 216.557 577.744 215.733 577.558 214.806C577.461 214.325 577.194 214.037 576.833 213.884C577.42 213.328 577.872 212.652 577.714 211.823C577.566 211.04 576.96 210.654 576.243 210.482C576.811 209.708 577.177 208.683 576.645 207.872C575.896 206.73 574.371 207.028 573.286 207.586C572.962 206.848 572.602 206.19 571.598 206.18C570.664 206.17 569.9 206.657 569.186 207.178C568.83 205.247 566.372 205.976 565.012 207.321C564.776 206.82 564.311 206.444 563.645 206.483C562.638 206.54 561.763 207.481 561.096 208.358C560.727 207.793 559.972 207.401 559.237 207.422C557.762 207.466 556.863 209.021 556.317 210.255C555.515 209.696 554.546 209.521 553.72 210.332C553.117 210.925 552.993 211.808 553.009 212.675C552.611 212.395 552.139 212.208 551.68 212.162C550.502 212.044 549.811 212.841 549.414 213.743C548.796 213.379 548.089 213.253 547.362 213.636C546.543 214.068 546.305 214.853 546.267 215.658C545.746 215.508 545.154 215.674 544.679 216.162C544.05 216.809 543.878 217.805 543.753 218.638C543.244 222.052 543.878 225.747 544.795 229.051C545.017 229.849 545.27 230.64 545.557 231.42C545.944 232.471 546.264 232.513 547.376 232.967C549.585 233.869 551.888 234.568 554.241 235.056C557.568 235.746 561.167 236.168 564.559 235.641C565.394 235.512 566.477 235.329 567.105 234.741C567.787 234.102 567.842 233.185 567.467 232.441C569.084 232.265 569.879 230.45 568.963 229.236C569.756 229.093 570.493 228.679 570.679 227.89C570.807 227.349 570.541 226.868 570.122 226.5C571.983 226.249 574.205 225.484 573.66 223.76C574.513 223.563 575.393 223.13 575.781 222.403C576.151 221.71 575.973 220.971 575.468 220.458Z" fill="#DEA868"/>
<path d="M560.3 222.245C560.304 222.245 560.307 222.247 560.311 222.247C562.342 222.508 564.384 222.713 566.426 222.877C568.2 223.019 570.304 223.366 572.036 222.885C572.077 222.874 572.078 222.827 572.04 222.811C570.389 222.103 568.269 222.13 566.481 221.95C564.774 221.778 563.068 221.592 561.362 221.408C563.21 219.934 565.026 218.423 566.79 216.864C569.004 217.336 571.57 217.488 573.779 217.088C573.935 217.06 573.973 216.809 573.799 216.777C571.829 216.42 569.696 216.225 567.655 216.101C569.021 214.894 570.454 213.645 571.761 212.318C571.78 212.322 571.798 212.327 571.818 212.329C572.255 212.377 572.721 212.273 573.158 212.227C573.25 212.217 574.13 212.109 574.389 212.021C574.391 212.026 574.392 212.032 574.393 212.037C574.397 212.056 574.416 212.072 574.437 212.073C574.467 212.073 574.498 212.075 574.529 212.077C574.609 212.082 574.681 211.993 574.637 211.923C574.44 211.615 573.924 211.649 573.582 211.618C573.242 211.587 572.88 211.539 572.521 211.517C573.177 210.803 573.788 210.065 574.324 209.295C574.372 209.226 574.278 209.154 574.211 209.202C572.935 210.127 571.736 211.167 570.559 212.233C570.886 211.002 571.301 209.804 571.624 208.564C571.67 208.386 571.406 208.229 571.293 208.411C570.373 209.9 569.546 211.562 569.333 213.285C569.33 213.31 569.33 213.333 569.331 213.356C568.335 214.274 567.342 215.192 566.32 216.056C565.497 216.752 564.667 217.439 563.834 218.123C564.312 215.609 565.077 213.173 565.907 210.734C565.998 210.466 565.598 210.357 565.476 210.598C564.111 213.301 563.01 216.064 562.69 219.056C561.257 220.215 559.81 221.358 558.345 222.483C557.756 222.935 557.164 223.382 556.57 223.827C556.754 222.073 556.901 220.322 557.186 218.574C557.52 216.527 558.065 214.522 558.452 212.485C558.503 212.218 558.065 212.165 557.969 212.398C556.457 216.093 555.685 220.529 555.671 224.497C553.835 225.858 551.979 227.195 550.114 228.52C549.83 224.543 550.121 220.572 549.884 216.593C549.877 216.468 549.702 216.46 549.678 216.583C548.866 220.675 548.86 224.958 549.298 229.1C546.674 230.961 544.04 232.81 541.435 234.698C540.865 235.112 541.595 235.866 542.165 235.48C544.209 234.094 546.237 232.682 548.25 231.249C548.275 231.26 548.301 231.27 548.331 231.277C550.876 231.901 553.398 232.559 555.981 233.039C558.182 233.448 560.554 234.001 562.798 233.665C562.841 233.658 562.838 233.604 562.803 233.59C560.587 232.738 558.036 232.619 555.705 232.166C553.504 231.738 551.292 231.254 549.15 230.606C550.7 229.494 552.239 228.369 553.768 227.232C555.746 227.715 557.8 228.016 559.816 228.314C562.049 228.645 564.366 229.038 566.631 228.885C566.838 228.871 566.95 228.577 566.707 228.515C564.661 227.999 562.521 227.861 560.43 227.557C558.499 227.276 556.592 226.889 554.672 226.558C556.21 225.406 557.737 224.244 559.251 223.069C559.602 222.797 559.95 222.52 560.3 222.245Z" fill="#C98F4B"/>
<path d="M67.75 274.393C68.5343 275.396 69.2689 276.513 70.2106 277.395C70.9823 278.117 71.9088 278.331 72.8218 278.824C73.835 279.371 74.1775 280.525 75.1697 281.09C75.8894 281.5 76.6274 281.401 77.3945 281.16C77.9945 280.972 78.5002 280.724 79.1488 280.773C79.7549 280.82 80.1624 281.144 80.702 281.341C81.3785 281.588 82.008 281.561 82.5099 281.014C83.1871 280.276 83.5838 279.186 84.0352 278.307C84.5309 277.341 84.9961 276.362 85.4371 275.374C85.8835 276.575 86.3284 277.777 86.7794 278.977C87.0898 279.802 87.373 280.637 88.3736 280.881C89.5893 281.176 90.5452 280.451 91.5493 279.947C93.0788 279.18 94.569 279.62 96.1957 279.422C97.3916 279.277 98.5317 278.818 99.491 278.139C100.643 277.323 101.068 276.22 101.974 275.234C102.822 274.31 104.001 273.93 104.601 272.773C105.018 271.971 105.12 271.103 104.96 270.24C106.428 269.612 108.241 268.217 107.129 266.568C106.583 265.76 105.416 265.54 104.517 265.276C102.924 264.808 101.332 264.34 99.7394 263.871C96.8221 263.014 93.8581 262.239 90.9871 261.253C88.1679 260.284 85.3637 258.917 84.0623 256.247C83.9217 255.957 83.4222 255.98 83.3239 256.29C80.9918 263.662 73.2981 267.41 66.5408 270.765C66.42 270.825 66.321 270.941 66.3176 271.074C66.2847 272.371 66.9616 273.372 67.75 274.393Z" fill="#FFCB24"/>
<path d="M99.2885 277.617C99.4302 277.773 99.7222 277.598 99.6129 277.414C98.7526 275.96 97.5731 274.616 96.3497 273.418C96.0195 273.095 95.4577 273.557 95.7921 273.88C97.0331 275.077 98.1354 276.35 99.2885 277.617Z" fill="#EEA21F"/>
<path d="M91.7063 276.035C92.22 277.092 92.6982 278.151 93.0804 279.257C93.156 279.476 93.5279 279.425 93.4679 279.189C93.1713 278.022 92.8052 276.865 92.3133 275.757C92.1474 275.383 91.5259 275.663 91.7063 276.035Z" fill="#EEA21F"/>
<path d="M73.5449 278.736C74.573 277.728 75.4864 276.566 76.3074 275.406C76.5642 275.043 75.9825 274.687 75.7081 275.034C74.834 276.138 73.9832 277.329 73.3297 278.561C73.2647 278.683 73.421 278.857 73.5449 278.736Z" fill="#EEA21F"/>
<path d="M69.2987 275.973C69.8143 275.682 70.4564 275.419 70.8741 275.008C71.1336 274.753 70.8531 274.25 70.4774 274.454C69.9373 274.748 69.5158 275.256 69.0816 275.67C68.936 275.808 69.0965 276.088 69.2987 275.973Z" fill="#EEA21F"/>
<path d="M81.578 267.962C83.1485 265.671 84.0983 263.038 84.2768 260.341C84.925 262.91 85.3882 265.523 85.6745 268.145C85.6993 268.373 86.119 268.354 86.1083 268.122C85.971 265.175 85.5399 262.293 84.8436 259.439C85.8633 261.032 86.633 262.7 87.4077 264.448C87.4551 264.555 87.6252 264.476 87.5797 264.369C87.4976 264.178 87.4169 263.994 87.3313 263.812C87.5224 264.03 87.5675 264.002 87.462 263.717C87.5044 263.493 87.2835 263.054 87.2147 262.836C87.0232 262.228 86.7962 261.632 86.5287 261.05C85.9645 259.824 85.2472 258.681 84.4304 257.589C84.3987 257.547 84.3631 257.517 84.3253 257.495C84.3234 257.488 84.3215 257.481 84.3192 257.474C83.7294 255.162 82.7258 252.895 81.786 250.754C81.004 248.973 80.1406 247.223 79.2768 245.476C78.2544 243.409 77.2886 241.251 76.0717 239.279C75.7113 238.695 74.7913 239.115 75.0661 239.74C76.7 243.46 79.1067 246.881 80.8377 250.572C81.7726 252.565 82.7376 254.655 83.4875 256.781C83.3774 256.855 83.3144 256.978 83.3663 257.14C83.76 260.833 83.1206 264.457 81.2344 267.749C81.111 267.963 81.4317 268.175 81.578 267.962Z" fill="#EEA21F"/>
<path d="M820.764 80.3929C821.548 81.3955 822.283 82.5129 823.224 83.3947C823.996 84.1173 824.922 84.3306 825.836 84.824C826.849 85.3715 827.191 86.5245 828.183 87.0898C828.903 87.4997 829.641 87.4011 830.408 87.1602C831.008 86.9719 831.514 86.7236 832.162 86.7732C832.769 86.8197 833.176 87.1441 833.716 87.341C834.392 87.5879 835.022 87.5611 835.524 87.0141C836.201 86.2758 836.598 85.186 837.049 84.3066C837.545 83.3408 838.01 82.3621 838.451 81.3741C838.897 82.5754 839.342 83.7774 839.793 84.977C840.103 85.8024 840.387 86.6375 841.387 86.8808C842.603 87.1763 843.559 86.4513 844.563 85.9475C846.093 85.1799 847.583 85.6198 849.209 85.4222C850.405 85.2768 851.545 84.8183 852.505 84.1387C853.657 83.3226 854.082 82.2202 854.987 81.234C855.836 80.3103 857.015 79.9298 857.615 78.7735C858.031 77.9706 858.134 77.1026 857.974 76.2397C859.441 75.6115 861.254 74.2173 860.142 72.5682C859.597 71.7596 858.43 71.5402 857.531 71.2761C855.938 70.808 854.346 70.3396 852.753 69.8715C849.836 69.0136 846.872 68.2385 844.001 67.2527C841.182 66.2843 838.377 64.9168 837.076 62.2466C836.935 61.9575 836.436 61.98 836.338 62.2902C834.005 69.6617 826.312 73.4101 819.554 76.765C819.434 76.825 819.335 76.9408 819.331 77.0737C819.298 78.3711 819.975 79.3716 820.764 80.3929Z" fill="#FFCB24"/>
<path d="M852.302 83.6168C852.444 83.7726 852.736 83.5979 852.627 83.4135C851.766 81.9603 850.587 80.6157 849.363 79.4183C849.033 79.0953 848.471 79.5573 848.806 79.88C850.047 81.077 851.149 82.3498 852.302 83.6168Z" fill="#EEA21F"/>
<path d="M844.72 82.0347C845.234 83.092 845.712 84.1508 846.094 85.257C846.17 85.4761 846.542 85.425 846.482 85.1888C846.185 84.0225 845.819 82.8651 845.327 81.7567C845.161 81.3829 844.54 81.6631 844.72 82.0347Z" fill="#EEA21F"/>
<path d="M826.559 84.7355C827.587 83.7282 828.5 82.5655 829.321 81.406C829.578 81.0433 828.996 80.6871 828.722 81.034C827.848 82.1381 826.997 83.3291 826.343 84.5608C826.278 84.683 826.435 84.8567 826.559 84.7355Z" fill="#EEA21F"/>
<path d="M822.312 81.9733C822.828 81.6821 823.47 81.4187 823.888 81.0078C824.147 80.7527 823.867 80.2496 823.491 80.4539C822.951 80.7477 822.529 81.2561 822.095 81.6699C821.95 81.8082 822.11 82.0876 822.312 81.9733Z" fill="#EEA21F"/>
<path d="M834.592 73.962C836.162 71.6712 837.112 69.0381 837.29 66.3414C837.939 68.9102 838.402 71.5233 838.688 74.1446C838.713 74.3729 839.133 74.3536 839.122 74.1217C838.985 71.1753 838.554 68.2934 837.857 65.4391C838.877 67.0317 839.647 68.6997 840.421 70.4481C840.469 70.5549 840.639 70.4756 840.593 70.3691C840.511 70.1776 840.431 69.9936 840.345 69.8117C840.536 70.0304 840.581 70.0018 840.476 69.717C840.518 69.4926 840.297 69.0542 840.228 68.8355C840.037 68.2284 839.81 67.632 839.542 67.0503C838.978 65.824 838.261 64.6809 837.444 63.5889C837.412 63.5468 837.377 63.5167 837.339 63.4953C837.337 63.4882 837.335 63.481 837.333 63.4739C836.743 61.162 835.739 58.8955 834.8 56.754C834.018 54.9731 833.154 53.2226 832.29 51.4757C831.268 49.4085 830.302 47.251 829.085 45.279C828.725 44.6951 827.805 45.1146 828.08 45.7399C829.714 49.4596 832.12 52.8807 833.851 56.5718C834.786 58.565 835.751 60.6546 836.501 62.7807C836.391 62.855 836.328 62.9783 836.38 63.1405C836.774 66.8338 836.134 70.457 834.248 73.7487C834.125 73.9631 834.445 74.1753 834.592 73.962Z" fill="#EEA21F"/>
<path d="M1286.05 394.393C1286.83 395.396 1287.57 396.513 1288.51 397.395C1289.28 398.117 1290.21 398.331 1291.12 398.824C1292.13 399.371 1292.47 400.525 1293.47 401.09C1294.19 401.5 1294.92 401.401 1295.69 401.16C1296.29 400.972 1296.8 400.724 1297.45 400.773C1298.05 400.82 1298.46 401.144 1299 401.341C1299.68 401.588 1300.3 401.561 1300.81 401.014C1301.48 400.276 1301.88 399.186 1302.33 398.307C1302.83 397.341 1303.29 396.362 1303.73 395.374C1304.18 396.575 1304.63 397.777 1305.08 398.977C1305.39 399.802 1305.67 400.637 1306.67 400.881C1307.89 401.176 1308.84 400.451 1309.85 399.947C1311.38 399.18 1312.87 399.62 1314.49 399.422C1315.69 399.277 1316.83 398.818 1317.79 398.139C1318.94 397.323 1319.37 396.22 1320.27 395.234C1321.12 394.31 1322.3 393.93 1322.9 392.773C1323.31 391.971 1323.42 391.103 1323.26 390.24C1324.72 389.612 1326.54 388.217 1325.43 386.568C1324.88 385.76 1323.71 385.54 1322.81 385.276C1321.22 384.808 1319.63 384.34 1318.04 383.871C1315.12 383.014 1312.16 382.239 1309.28 381.253C1306.46 380.284 1303.66 378.917 1302.36 376.247C1302.22 375.957 1301.72 375.98 1301.62 376.29C1299.29 383.662 1291.59 387.41 1284.84 390.765C1284.72 390.825 1284.62 390.941 1284.61 391.074C1284.58 392.371 1285.26 393.372 1286.05 394.393Z" fill="#FFCB24"/>
<path d="M1317.59 397.617C1317.73 397.773 1318.02 397.598 1317.91 397.414C1317.05 395.96 1315.87 394.616 1314.65 393.418C1314.32 393.095 1313.76 393.557 1314.09 393.88C1315.33 395.077 1316.43 396.35 1317.59 397.617Z" fill="#EEA21F"/>
<path d="M1310.01 396.035C1310.52 397.092 1311 398.151 1311.38 399.257C1311.45 399.476 1311.83 399.425 1311.77 399.189C1311.47 398.022 1311.1 396.865 1310.61 395.757C1310.45 395.383 1309.82 395.663 1310.01 396.035Z" fill="#EEA21F"/>
<path d="M1291.84 398.736C1292.87 397.728 1293.79 396.566 1294.61 395.406C1294.86 395.043 1294.28 394.687 1294.01 395.034C1293.13 396.138 1292.28 397.329 1291.63 398.561C1291.56 398.683 1291.72 398.857 1291.84 398.736Z" fill="#EEA21F"/>
<path d="M1287.6 395.973C1288.11 395.682 1288.76 395.419 1289.17 395.008C1289.43 394.753 1289.15 394.25 1288.78 394.454C1288.24 394.748 1287.81 395.256 1287.38 395.67C1287.23 395.808 1287.4 396.088 1287.6 395.973Z" fill="#EEA21F"/>
<path d="M1299.88 387.962C1301.45 385.671 1302.4 383.038 1302.58 380.341C1303.22 382.91 1303.69 385.523 1303.97 388.145C1304 388.373 1304.42 388.354 1304.41 388.122C1304.27 385.175 1303.84 382.293 1303.14 379.439C1304.16 381.032 1304.93 382.7 1305.71 384.448C1305.75 384.555 1305.92 384.476 1305.88 384.369C1305.8 384.178 1305.72 383.994 1305.63 383.812C1305.82 384.03 1305.87 384.002 1305.76 383.717C1305.8 383.493 1305.58 383.054 1305.51 382.836C1305.32 382.228 1305.1 381.632 1304.83 381.05C1304.26 379.824 1303.55 378.681 1302.73 377.589C1302.7 377.547 1302.66 377.517 1302.62 377.495C1302.62 377.488 1302.62 377.481 1302.62 377.474C1302.03 375.162 1301.02 372.895 1300.08 370.754C1299.3 368.973 1298.44 367.223 1297.58 365.476C1296.55 363.409 1295.59 361.251 1294.37 359.279C1294.01 358.695 1293.09 359.115 1293.36 359.74C1295 363.46 1297.41 366.881 1299.14 370.572C1300.07 372.565 1301.04 374.655 1301.79 376.781C1301.68 376.855 1301.61 376.978 1301.67 377.14C1302.06 380.833 1301.42 384.457 1299.53 387.749C1299.41 387.963 1299.73 388.175 1299.88 387.962Z" fill="#EEA21F"/>
<path d="M406.44 369.355C406.4 369.348 406.363 369.35 406.33 369.356C405.76 369.377 405.337 369.718 404.954 370.092C404.54 370.496 404.17 370.936 403.793 371.371C403.854 370.438 403.52 369.414 402.551 369.354C401.552 369.293 400.588 370.05 399.952 370.678C399.488 371.135 399.093 371.648 398.689 372.151C398.286 372.654 397.826 373.412 397.245 373.749C396.106 374.41 396.248 373.172 396.645 372.588C396.872 372.253 397.128 371.935 397.353 371.598C397.712 371.059 398.042 370.503 398.337 369.931C398.859 368.915 399.561 367.636 399.594 366.483C399.615 365.723 399.118 365.175 398.27 365.413C397.256 365.698 396.324 366.468 395.619 367.267C395.562 366.597 395.348 365.952 394.671 365.592C393.901 365.184 393.201 365.551 392.695 366.138C392.099 366.83 391.817 367.7 391.516 368.527C391.355 368.969 391.196 369.418 390.967 369.834C390.829 370.083 390.673 370.324 390.479 370.538C390.26 370.887 389.928 370.974 389.481 370.799C389.421 370.596 389.37 370.391 389.331 370.183C389.043 368.81 389.009 367.391 389.199 366.004C389.305 365.23 389.536 364.32 388.736 363.788C387.206 362.772 385.973 364.192 385.326 365.43C384.754 363.997 383.715 362.081 382.044 362.003C380.146 361.915 380.004 363.768 380.227 365.14C379.928 365.063 379.595 365.096 379.29 365.25C378.676 365.563 378.532 366.257 378.697 366.85C378.951 367.758 379.812 368.249 380.531 368.821C381.122 369.292 381.666 369.854 381.943 370.545C382.131 371.014 382.389 371.868 381.247 371.705C380.975 371.666 380.573 371.406 380.335 371.297C379.048 370.706 377.758 369.981 376.414 369.515C375.751 369.285 374.907 369.226 374.423 369.815C373.941 370.404 374.379 371.051 374.719 371.589C375.284 372.482 375.971 373.286 376.747 374.021C376.415 374.202 376.207 374.58 376.273 374.977C376.418 375.842 377.644 376.26 378.382 376.547C379.496 376.981 380.662 377.279 381.789 377.677C382.788 378.03 384.704 378.688 385.077 379.736C385.451 380.786 383.352 380.157 382.953 380.028C382.334 379.828 381.739 379.568 381.154 379.297C380.053 378.788 378.981 378.213 377.822 377.823C377.058 377.566 376.006 377.19 375.349 377.841C374.939 378.246 374.91 378.826 374.994 379.374C373.632 378.625 371.293 377.861 371.162 379.865C371.098 380.84 371.92 381.744 372.58 382.415C373.253 383.1 374.03 383.661 374.883 384.123C374.246 384.579 374.215 385.493 374.776 386.146C375.644 387.158 377.238 387.431 378.544 387.376C380.373 387.3 382.049 386.568 383.77 386.062C384.256 385.919 384.767 385.753 385.274 385.709C385.542 385.686 385.812 385.681 386.077 385.733C386.639 385.844 386.682 385.868 386.767 386.365C386.849 386.845 386.861 386.865 386.353 387.06C386.121 387.149 385.865 387.178 385.617 387.196C385.264 387.223 384.913 387.174 384.56 387.173C383.676 387.173 382.3 387.462 382.352 388.53C382.412 389.748 384.233 390.612 385.297 390.906C385.86 391.061 386.449 391.132 387.036 391.111C387.909 391.081 389.413 390.403 390.191 390.915C390.294 390.956 390.397 390.997 390.5 391.038C390.697 391.455 390.65 391.648 390.36 391.616C390.18 391.679 389.887 391.603 389.697 391.615C389.416 391.633 389.132 391.661 388.885 391.798C388.478 392.025 388.28 392.413 388.277 392.851C388.263 394.401 390.154 394.731 391.316 395.287C393.306 396.239 394.749 397.949 395.406 399.93C395.465 400.109 395.782 400.171 395.894 400.001C396.998 398.324 398.009 396.592 398.927 394.821C399.636 393.451 400.458 391.97 400.746 390.455C400.882 389.738 400.635 388.734 399.628 389.113C399.156 389.291 398.791 389.668 398.366 389.92C398.074 390.093 397.728 390.315 397.394 390.097C396.936 389.798 397.172 389.246 397.41 388.91C398.383 387.541 400.155 386.754 401.351 385.568C401.869 385.053 402.446 384.412 402.485 383.674C402.521 382.966 402.043 382.318 401.248 382.297C400.422 382.275 399.667 382.882 399.02 383.283C398.212 383.783 397.362 384.359 396.429 384.636C396 384.763 395.413 384.86 395.509 384.296C395.563 383.983 396.081 383.592 396.307 383.399C397.054 382.762 397.925 382.23 398.804 381.768C401.045 380.591 404.087 380.168 405.757 378.184C406.302 377.536 406.628 376.595 406.021 375.884C405.785 375.608 405.471 375.423 405.138 375.358C405.637 374.969 406.188 374.633 406.587 374.146C407.092 373.529 407.374 372.679 407.506 371.918C407.659 371.034 407.646 369.56 406.44 369.355Z" fill="#BB6E3B"/>
<path d="M403.76 373.717C402.827 374.231 401.925 374.826 401.047 375.462C401.32 374.577 401.647 373.723 402.156 372.911C402.269 372.732 401.945 372.545 401.82 372.72C401.072 373.777 400.399 374.921 400.101 376.168C399.606 376.547 399.119 376.934 398.637 377.324C398.589 377.347 398.548 377.38 398.516 377.421C397.966 377.866 397.423 378.312 396.885 378.748C396.997 377.985 397.132 377.234 397.356 376.476C397.413 376.283 397.101 376.218 397.013 376.38C396.506 377.307 396.153 378.363 396.088 379.411C394.334 380.937 392.95 382.686 391.53 384.49C391.136 383.522 390.733 382.557 390.325 381.594C390.357 381.559 390.383 381.516 390.397 381.462C390.734 380.19 391.131 378.938 391.569 377.698C391.628 377.695 391.689 377.678 391.75 377.64C392.931 376.888 394.076 376.042 395.12 375.131C395.141 375.114 395.125 375.075 395.095 375.088C393.996 375.538 392.924 376.099 391.921 376.728C392.781 374.438 393.788 372.197 394.895 369.993C394.969 369.846 394.739 369.761 394.655 369.893C393.977 370.951 393.363 372.04 392.805 373.153C392.669 372.481 392.587 371.801 392.552 371.118C392.538 370.858 392.135 370.908 392.131 371.156C392.114 372.111 392.198 373.052 392.369 373.993C392.372 374.006 392.376 374.016 392.379 374.028C391.373 376.173 390.571 378.402 389.934 380.675C389.097 378.72 388.24 376.774 387.381 374.829C387.433 374.772 387.467 374.697 387.466 374.603C387.421 372.152 387.528 369.663 387.227 367.225C387.223 367.197 387.177 367.194 387.174 367.223C386.956 369.28 386.811 371.366 386.767 373.441C386.746 373.394 386.725 373.347 386.705 373.299C385.408 370.362 384.087 367.434 382.791 364.497C382.719 364.333 382.453 364.428 382.517 364.595C383.819 367.996 385.281 371.351 386.756 374.704C386.762 374.772 386.788 374.827 386.827 374.867C387.239 375.802 387.651 376.738 388.061 377.675C387.299 377.157 386.502 376.656 385.677 376.184C385.148 374.983 384.439 373.734 383.405 372.847C383.296 372.754 383.097 372.884 383.165 373.011C383.641 373.901 384.188 374.745 384.667 375.63C382.687 374.586 380.58 373.729 378.46 373.222C378.279 373.179 378.202 373.443 378.368 373.511C379.945 374.158 381.501 374.809 383.007 375.587C382.249 375.715 381.487 375.9 380.76 376.103C380.527 376.168 380.624 376.504 380.856 376.484C381.831 376.402 382.834 376.271 383.782 376.046C383.8 376.041 383.816 376.035 383.832 376.029C385.343 376.869 386.774 377.82 388.26 378.699C388.351 378.753 388.445 378.768 388.532 378.756C389.361 380.661 390.174 382.572 390.945 384.495C388.696 383.823 386.402 383.363 384.083 382.935C383.901 382.901 383.719 382.867 383.537 382.833C383.49 382.809 383.437 382.797 383.382 382.805C382.65 382.668 381.918 382.532 381.185 382.399C380.809 381.548 379.805 380.565 378.89 380.254C378.771 380.214 378.678 380.328 378.742 380.427C379.006 380.839 379.379 381.189 379.685 381.574C379.847 381.778 379.989 381.996 380.134 382.212C378.681 381.959 377.223 381.733 375.755 381.578C375.568 381.559 375.537 381.794 375.709 381.841C377.965 382.458 380.265 382.903 382.567 383.343C381.14 384.289 379.545 384.93 377.892 385.492C377.727 385.548 377.785 385.816 377.965 385.781C379.96 385.394 381.769 384.678 383.357 383.493C385.999 383.999 388.637 384.521 391.206 385.308C391.229 385.315 391.251 385.319 391.274 385.323C391.857 386.806 392.413 388.298 392.93 389.802C392.049 389.666 391.17 389.522 390.293 389.37C390.291 389.343 390.286 389.315 390.276 389.286C390.002 388.545 389.236 387.81 388.672 387.247C388.523 387.099 388.275 387.26 388.396 387.438C388.631 387.785 388.864 388.135 389.085 388.491C389.232 388.729 389.356 388.992 389.507 389.233C389.138 389.167 388.77 389.101 388.403 389.033C387.595 388.883 386.787 388.735 385.976 388.604C385.651 388.551 385.126 388.379 384.791 388.429C384.739 388.411 384.685 388.403 384.645 388.408C384.567 388.417 384.513 388.528 384.592 388.574C385.223 388.941 386.047 389.161 386.865 389.333C386.552 389.487 386.263 389.673 386.054 389.861C385.967 389.938 386.001 390.103 386.146 390.085C386.512 390.041 386.846 389.926 387.196 389.82C387.462 389.739 387.741 389.668 387.995 389.554C388.159 389.585 388.32 389.617 388.473 389.649C390.026 389.977 391.589 390.247 393.16 390.484C393.522 391.565 393.864 392.652 394.178 393.748C394.215 393.877 394.251 394.007 394.287 394.137C393.556 393.685 392.704 393.41 391.842 393.263C391.613 393.224 391.495 393.56 391.723 393.635C392.83 393.998 393.717 394.635 394.599 395.326C395.228 397.905 395.536 400.505 394.979 403.153C394.9 403.528 395.491 403.601 395.594 403.247C396.347 400.656 395.925 397.904 395.282 395.333C395.28 395.327 395.279 395.321 395.277 395.315C395.357 395.203 395.373 395.058 395.258 394.931C395.253 394.926 395.248 394.922 395.244 394.917C395.871 393.933 396.3 392.681 396.273 391.54C396.269 391.401 396.063 391.39 396.005 391.499C395.733 392.006 395.503 392.537 395.284 393.066C395.168 393.344 395.031 393.612 394.892 393.879C394.62 392.917 394.322 391.961 394.001 391.012C394.848 390.155 395.616 389.217 396.35 388.275C397.028 387.405 397.785 386.497 398.172 385.474C398.19 385.427 398.13 385.366 398.081 385.406C397.216 386.12 396.564 387.057 395.844 387.895C395.159 388.692 394.439 389.46 393.736 390.242C393.73 390.225 393.725 390.209 393.719 390.193C393.72 390.118 393.696 390.044 393.645 389.986C393.472 389.497 393.295 389.01 393.113 388.524C392.71 387.449 392.289 386.379 391.861 385.312C391.862 385.31 391.863 385.309 391.863 385.309C392.901 383.801 394.035 382.399 395.317 381.107C395.342 381.119 395.368 381.129 395.398 381.137C396.415 381.41 397.5 381.107 398.339 380.544C398.512 380.428 398.352 380.126 398.152 380.226C397.421 380.59 396.69 380.636 395.916 380.518C396.403 380.058 396.91 379.611 397.443 379.181C397.939 378.781 398.449 378.386 398.962 377.99C400.172 378.235 401.345 378.213 402.523 377.791C402.704 377.726 402.643 377.431 402.442 377.469C401.517 377.646 400.537 377.68 399.609 377.492C401.106 376.337 402.6 375.154 403.84 373.793C403.885 373.744 403.814 373.687 403.76 373.717Z" fill="#975326"/>
<path d="M928.415 301.355C928.374 301.348 928.338 301.35 928.305 301.356C927.735 301.377 927.311 301.718 926.928 302.092C926.514 302.496 926.145 302.936 925.767 303.371C925.829 302.438 925.494 301.414 924.526 301.354C923.527 301.293 922.563 302.05 921.927 302.678C921.463 303.135 921.068 303.648 920.664 304.151C920.261 304.654 919.801 305.412 919.219 305.749C918.081 306.41 918.222 305.172 918.619 304.588C918.847 304.253 919.102 303.935 919.327 303.598C919.687 303.059 920.017 302.503 920.311 301.931C920.834 300.915 921.535 299.636 921.568 298.483C921.59 297.723 921.093 297.175 920.245 297.413C919.231 297.698 918.298 298.468 917.594 299.267C917.536 298.597 917.323 297.952 916.645 297.592C915.876 297.184 915.175 297.551 914.67 298.138C914.074 298.83 913.792 299.7 913.491 300.527C913.33 300.969 913.17 301.418 912.941 301.834C912.804 302.083 912.648 302.324 912.453 302.538C912.235 302.887 911.902 302.974 911.456 302.799C911.395 302.596 911.345 302.391 911.306 302.183C911.017 300.81 910.984 299.391 911.174 298.004C911.28 297.23 911.511 296.32 910.711 295.788C909.181 294.772 907.947 296.192 907.3 297.43C906.729 295.997 905.689 294.081 904.019 294.003C902.121 293.915 901.979 295.768 902.202 297.14C901.902 297.063 901.569 297.096 901.265 297.25C900.65 297.563 900.506 298.257 900.672 298.85C900.925 299.758 901.787 300.249 902.505 300.821C903.097 301.292 903.64 301.854 903.917 302.545C904.106 303.014 904.364 303.868 903.221 303.705C902.949 303.666 902.547 303.406 902.309 303.297C901.023 302.706 899.732 301.981 898.388 301.515C897.725 301.285 896.881 301.226 896.398 301.815C895.915 302.404 896.354 303.051 896.694 303.589C897.258 304.482 897.946 305.286 898.721 306.021C898.389 306.202 898.181 306.58 898.248 306.977C898.393 307.842 899.619 308.26 900.356 308.547C901.47 308.981 902.636 309.279 903.764 309.677C904.763 310.03 906.678 310.688 907.051 311.736C907.425 312.786 905.326 312.157 904.927 312.028C904.308 311.828 903.714 311.568 903.128 311.297C902.028 310.788 900.955 310.213 899.797 309.823C899.032 309.566 897.981 309.19 897.323 309.841C896.914 310.246 896.885 310.826 896.969 311.374C895.607 310.625 893.268 309.861 893.136 311.865C893.072 312.84 893.895 313.744 894.555 314.415C895.228 315.1 896.004 315.661 896.857 316.123C896.221 316.579 896.19 317.493 896.75 318.146C897.618 319.158 899.212 319.431 900.519 319.376C902.348 319.3 904.024 318.568 905.745 318.062C906.231 317.919 906.741 317.753 907.249 317.709C907.517 317.686 907.787 317.681 908.051 317.733C908.614 317.844 908.657 317.868 908.742 318.365C908.823 318.845 908.835 318.865 908.328 319.06C908.096 319.149 907.84 319.178 907.592 319.196C907.239 319.223 906.887 319.174 906.534 319.173C905.651 319.173 904.274 319.462 904.327 320.53C904.387 321.748 906.207 322.612 907.272 322.906C907.835 323.061 908.423 323.132 909.01 323.111C909.884 323.081 911.387 322.403 912.166 322.915C912.269 322.956 912.371 322.997 912.474 323.038C912.672 323.455 912.625 323.648 912.335 323.616C912.155 323.679 911.861 323.603 911.671 323.615C911.391 323.633 911.107 323.661 910.86 323.798C910.452 324.025 910.255 324.413 910.251 324.851C910.238 326.401 912.128 326.731 913.29 327.287C915.28 328.239 916.723 329.949 917.38 331.93C917.44 332.109 917.757 332.171 917.869 332.001C918.973 330.324 919.984 328.592 920.901 326.821C921.611 325.451 922.433 323.97 922.721 322.455C922.856 321.738 922.609 320.734 921.603 321.113C921.131 321.291 920.766 321.668 920.341 321.92C920.048 322.093 919.702 322.315 919.369 322.097C918.911 321.798 919.146 321.246 919.385 320.91C920.358 319.541 922.13 318.754 923.325 317.568C923.844 317.053 924.421 316.412 924.459 315.674C924.496 314.966 924.017 314.318 923.222 314.297C922.396 314.275 921.642 314.882 920.994 315.283C920.186 315.783 919.337 316.359 918.403 316.636C917.974 316.763 917.388 316.86 917.484 316.296C917.538 315.983 918.055 315.592 918.282 315.399C919.029 314.762 919.899 314.23 920.779 313.768C923.02 312.591 926.061 312.168 927.731 310.184C928.277 309.536 928.602 308.595 927.996 307.884C927.76 307.608 927.445 307.423 927.113 307.358C927.612 306.969 928.162 306.633 928.561 306.146C929.067 305.529 929.349 304.679 929.48 303.918C929.634 303.034 929.621 301.56 928.415 301.355Z" fill="#BB6E3B"/>
<path d="M925.735 305.717C924.801 306.231 923.9 306.826 923.021 307.462C923.294 306.577 923.622 305.723 924.131 304.911C924.243 304.732 923.919 304.545 923.795 304.72C923.046 305.777 922.374 306.921 922.075 308.168C921.581 308.547 921.094 308.934 920.612 309.324C920.563 309.347 920.522 309.38 920.491 309.421C919.941 309.866 919.398 310.312 918.86 310.748C918.972 309.985 919.106 309.234 919.33 308.476C919.387 308.283 919.076 308.218 918.987 308.38C918.481 309.307 918.127 310.363 918.063 311.411C916.309 312.937 914.924 314.686 913.505 316.49C913.111 315.522 912.707 314.557 912.299 313.594C912.332 313.559 912.358 313.516 912.372 313.462C912.709 312.19 913.106 310.938 913.544 309.698C913.603 309.695 913.664 309.678 913.724 309.64C914.905 308.888 916.05 308.042 917.095 307.131C917.115 307.114 917.1 307.075 917.069 307.088C915.971 307.538 914.898 308.099 913.896 308.728C914.755 306.438 915.763 304.197 916.87 301.993C916.943 301.846 916.714 301.761 916.63 301.893C915.951 302.951 915.337 304.04 914.78 305.153C914.644 304.481 914.562 303.801 914.526 303.118C914.513 302.858 914.109 302.908 914.105 303.156C914.089 304.111 914.173 305.052 914.344 305.993C914.346 306.006 914.35 306.016 914.354 306.028C913.347 308.173 912.546 310.402 911.909 312.675C911.072 310.72 910.214 308.774 909.356 306.829C909.408 306.772 909.442 306.697 909.44 306.603C909.395 304.152 909.503 301.663 909.201 299.225C909.198 299.197 909.151 299.194 909.148 299.223C908.93 301.28 908.786 303.366 908.742 305.441C908.721 305.394 908.7 305.347 908.679 305.299C907.383 302.362 906.062 299.434 904.766 296.497C904.694 296.333 904.428 296.428 904.492 296.595C905.793 299.996 907.256 303.351 908.73 306.704C908.737 306.772 908.763 306.827 908.802 306.867C909.214 307.802 909.626 308.738 910.036 309.675C909.274 309.157 908.477 308.656 907.652 308.184C907.123 306.983 906.413 305.734 905.379 304.847C905.271 304.754 905.072 304.884 905.14 305.011C905.616 305.901 906.163 306.745 906.642 307.63C904.662 306.586 902.554 305.729 900.435 305.222C900.253 305.179 900.177 305.443 900.342 305.511C901.92 306.158 903.476 306.809 904.982 307.587C904.223 307.715 903.462 307.9 902.734 308.103C902.501 308.168 902.599 308.504 902.831 308.484C903.805 308.402 904.808 308.271 905.757 308.046C905.775 308.041 905.791 308.035 905.806 308.029C907.318 308.869 908.749 309.82 910.234 310.699C910.326 310.753 910.42 310.768 910.507 310.756C911.335 312.661 912.149 314.572 912.92 316.495C910.67 315.823 908.377 315.363 906.058 314.935C905.876 314.901 905.694 314.867 905.512 314.833C905.465 314.809 905.412 314.797 905.357 314.805C904.625 314.668 903.892 314.532 903.159 314.399C902.783 313.548 901.779 312.565 900.865 312.254C900.746 312.214 900.653 312.328 900.716 312.427C900.981 312.839 901.353 313.189 901.66 313.574C901.822 313.778 901.963 313.996 902.109 314.212C900.655 313.959 899.197 313.733 897.73 313.578C897.543 313.559 897.511 313.794 897.683 313.841C899.94 314.458 902.24 314.903 904.541 315.343C903.114 316.289 901.52 316.93 899.867 317.492C899.702 317.548 899.76 317.816 899.94 317.781C901.935 317.394 903.743 316.678 905.331 315.493C907.974 315.999 910.611 316.521 913.18 317.308C913.203 317.315 913.226 317.319 913.248 317.323C913.832 318.806 914.388 320.298 914.904 321.802C914.024 321.666 913.145 321.522 912.267 321.37C912.266 321.343 912.261 321.315 912.25 321.286C911.977 320.545 911.211 319.81 910.646 319.247C910.498 319.099 910.249 319.26 910.37 319.438C910.606 319.785 910.839 320.135 911.059 320.491C911.207 320.729 911.331 320.992 911.481 321.233C911.113 321.167 910.745 321.101 910.377 321.033C909.57 320.883 908.762 320.735 907.95 320.604C907.626 320.551 907.1 320.379 906.766 320.429C906.713 320.411 906.659 320.403 906.619 320.408C906.542 320.417 906.487 320.528 906.567 320.574C907.198 320.941 908.022 321.161 908.839 321.333C908.527 321.487 908.238 321.673 908.028 321.861C907.941 321.938 907.976 322.103 908.12 322.085C908.486 322.041 908.82 321.926 909.17 321.82C909.436 321.739 909.716 321.668 909.969 321.554C910.134 321.585 910.294 321.617 910.448 321.649C912.001 321.977 913.564 322.247 915.135 322.484C915.497 323.565 915.838 324.652 916.153 325.748C916.19 325.877 916.226 326.007 916.262 326.137C915.531 325.685 914.679 325.41 913.817 325.263C913.588 325.224 913.469 325.56 913.698 325.635C914.804 325.998 915.692 326.635 916.573 327.326C917.202 329.905 917.51 332.505 916.953 335.153C916.874 335.528 917.465 335.601 917.569 335.247C918.322 332.656 917.9 329.904 917.256 327.333C917.255 327.327 917.253 327.321 917.252 327.315C917.332 327.203 917.348 327.058 917.233 326.931C917.228 326.926 917.223 326.922 917.219 326.917C917.845 325.933 918.275 324.681 918.247 323.54C918.244 323.401 918.038 323.39 917.979 323.499C917.708 324.006 917.478 324.537 917.258 325.066C917.143 325.344 917.005 325.612 916.867 325.879C916.594 324.917 916.296 323.961 915.976 323.012C916.822 322.155 917.59 321.217 918.325 320.275C919.003 319.405 919.759 318.497 920.147 317.474C920.165 317.427 920.105 317.366 920.056 317.406C919.191 318.12 918.538 319.057 917.818 319.895C917.134 320.692 916.413 321.46 915.711 322.242C915.705 322.225 915.699 322.209 915.694 322.193C915.695 322.118 915.671 322.044 915.62 321.986C915.447 321.497 915.269 321.01 915.087 320.524C914.684 319.449 914.264 318.379 913.836 317.312C913.836 317.31 913.838 317.309 913.838 317.309C914.876 315.801 916.01 314.399 917.292 313.107C917.317 313.119 917.343 313.129 917.373 313.137C918.39 313.41 919.475 313.107 920.314 312.544C920.487 312.428 920.327 312.126 920.127 312.226C919.396 312.59 918.665 312.636 917.891 312.518C918.378 312.058 918.885 311.611 919.418 311.181C919.913 310.781 920.424 310.386 920.937 309.99C922.147 310.235 923.319 310.213 924.497 309.791C924.678 309.726 924.618 309.431 924.416 309.469C923.492 309.646 922.512 309.68 921.583 309.492C923.081 308.337 924.574 307.154 925.815 305.793C925.86 305.744 925.788 305.687 925.735 305.717Z" fill="#975326"/>
<path d="M429.971 102.355C429.931 102.348 429.895 102.35 429.861 102.356C429.291 102.377 428.868 102.718 428.485 103.092C428.071 103.496 427.702 103.936 427.324 104.371C427.386 103.438 427.051 102.414 426.082 102.354C425.084 102.293 424.119 103.05 423.483 103.678C423.02 104.135 422.624 104.648 422.221 105.151C421.817 105.654 421.358 106.412 420.776 106.749C419.638 107.41 419.779 106.172 420.176 105.588C420.404 105.253 420.659 104.935 420.884 104.598C421.244 104.059 421.573 103.503 421.868 102.931C422.39 101.915 423.092 100.636 423.125 99.4835C423.147 98.7235 422.649 98.1753 421.802 98.4133C420.787 98.6981 419.855 99.4678 419.151 100.267C419.093 99.5971 418.879 98.9518 418.202 98.5923C417.432 98.1839 416.732 98.5509 416.227 99.1376C415.631 99.8297 415.348 100.7 415.047 101.527C414.887 101.969 414.727 102.418 414.498 102.834C414.361 103.083 414.205 103.324 414.01 103.538C413.792 103.887 413.459 103.974 413.013 103.799C412.952 103.596 412.902 103.391 412.862 103.183C412.574 101.81 412.541 100.391 412.731 99.004C412.836 98.23 413.068 97.3195 412.267 96.7878C410.738 95.7716 409.504 97.1923 408.857 98.4301C408.285 96.9965 407.246 95.0806 405.575 95.003C403.678 94.9151 403.535 96.7678 403.758 98.1403C403.459 98.0631 403.126 98.096 402.822 98.2504C402.207 98.5627 402.063 99.2573 402.228 99.8505C402.482 100.758 403.344 101.249 404.062 101.821C404.653 102.292 405.197 102.854 405.474 103.545C405.662 104.014 405.92 104.868 404.778 104.705C404.506 104.666 404.104 104.406 403.866 104.297C402.579 103.706 401.289 102.981 399.945 102.515C399.282 102.285 398.438 102.226 397.955 102.815C397.472 103.404 397.91 104.051 398.25 104.589C398.815 105.482 399.503 106.286 400.278 107.021C399.946 107.202 399.738 107.58 399.805 107.977C399.95 108.842 401.175 109.26 401.913 109.547C403.027 109.981 404.193 110.279 405.32 110.677C406.319 111.03 408.235 111.688 408.608 112.736C408.982 113.786 406.883 113.157 406.484 113.028C405.865 112.828 405.27 112.568 404.685 112.297C403.584 111.788 402.512 111.213 401.354 110.823C400.589 110.566 399.538 110.19 398.88 110.841C398.471 111.246 398.441 111.826 398.525 112.374C397.163 111.625 394.824 110.861 394.693 112.865C394.629 113.84 395.451 114.744 396.112 115.415C396.785 116.1 397.561 116.661 398.414 117.123C397.778 117.579 397.746 118.493 398.307 119.146C399.175 120.158 400.769 120.431 402.075 120.376C403.905 120.3 405.58 119.568 407.302 119.062C407.788 118.919 408.298 118.753 408.806 118.709C409.073 118.686 409.343 118.681 409.608 118.733C410.171 118.844 410.214 118.868 410.299 119.365C410.38 119.845 410.392 119.865 409.885 120.06C409.653 120.149 409.397 120.178 409.149 120.196C408.795 120.223 408.444 120.174 408.091 120.173C407.207 120.173 405.831 120.462 405.883 121.53C405.943 122.748 407.764 123.612 408.829 123.906C409.392 124.061 409.98 124.132 410.567 124.111C411.441 124.081 412.944 123.403 413.722 123.915C413.825 123.956 413.928 123.997 414.031 124.038C414.228 124.455 414.182 124.648 413.891 124.616C413.711 124.679 413.418 124.603 413.228 124.615C412.948 124.633 412.663 124.661 412.417 124.798C412.009 125.025 411.812 125.413 411.808 125.851C411.795 127.401 413.685 127.731 414.847 128.287C416.837 129.239 418.28 130.949 418.937 132.93C418.997 133.109 419.313 133.171 419.426 133.001C420.529 131.324 421.54 129.592 422.458 127.821C423.167 126.451 423.989 124.97 424.277 123.455C424.413 122.738 424.166 121.734 423.16 122.113C422.687 122.291 422.322 122.668 421.897 122.92C421.605 123.093 421.259 123.315 420.925 123.097C420.467 122.798 420.703 122.246 420.941 121.91C421.914 120.541 423.687 119.754 424.882 118.568C425.4 118.053 425.978 117.412 426.016 116.674C426.052 115.966 425.574 115.318 424.779 115.297C423.953 115.275 423.199 115.882 422.551 116.283C421.743 116.783 420.894 117.359 419.96 117.636C419.531 117.763 418.944 117.86 419.041 117.296C419.094 116.983 419.612 116.592 419.839 116.399C420.585 115.762 421.456 115.23 422.335 114.768C424.576 113.591 427.618 113.168 429.288 111.184C429.833 110.536 430.159 109.595 429.552 108.884C429.316 108.608 429.002 108.423 428.669 108.358C429.168 107.969 429.719 107.633 430.118 107.146C430.623 106.529 430.905 105.679 431.037 104.918C431.19 104.034 431.177 102.56 429.971 102.355Z" fill="#BB6E3B"/>
<path d="M427.291 106.717C426.358 107.231 425.456 107.826 424.578 108.462C424.851 107.577 425.179 106.723 425.687 105.911C425.8 105.732 425.476 105.545 425.352 105.72C424.603 106.777 423.93 107.921 423.632 109.168C423.138 109.547 422.65 109.934 422.168 110.324C422.12 110.347 422.079 110.38 422.048 110.421C421.498 110.866 420.954 111.312 420.417 111.748C420.528 110.985 420.663 110.234 420.887 109.476C420.944 109.283 420.633 109.218 420.544 109.38C420.038 110.307 419.684 111.363 419.619 112.411C417.866 113.937 416.481 115.686 415.062 117.49C414.668 116.522 414.264 115.557 413.856 114.594C413.888 114.559 413.914 114.516 413.928 114.462C414.265 113.19 414.662 111.938 415.101 110.698C415.16 110.695 415.221 110.678 415.281 110.64C416.462 109.888 417.607 109.042 418.652 108.131C418.672 108.114 418.656 108.075 418.626 108.088C417.528 108.538 416.455 109.099 415.452 109.728C416.312 107.438 417.32 105.197 418.426 102.993C418.5 102.846 418.271 102.761 418.186 102.893C417.508 103.951 416.894 105.04 416.337 106.153C416.2 105.481 416.118 104.801 416.083 104.118C416.069 103.858 415.666 103.908 415.662 104.156C415.646 105.111 415.729 106.052 415.901 106.993C415.903 107.006 415.907 107.016 415.911 107.028C414.904 109.173 414.102 111.402 413.466 113.675C412.629 111.72 411.771 109.774 410.912 107.829C410.965 107.772 410.999 107.697 410.997 107.603C410.952 105.152 411.059 102.663 410.758 100.225C410.755 100.197 410.708 100.194 410.705 100.223C410.487 102.28 410.343 104.366 410.298 106.441C410.278 106.394 410.257 106.347 410.236 106.299C408.94 103.362 407.619 100.434 406.323 97.4967C406.25 97.3334 405.984 97.4285 406.048 97.5954C407.35 100.996 408.812 104.351 410.287 107.704C410.294 107.772 410.319 107.827 410.359 107.867C410.77 108.802 411.182 109.738 411.592 110.675C410.831 110.157 410.033 109.656 409.209 109.184C408.679 107.983 407.97 106.734 406.936 105.847C406.827 105.754 406.628 105.884 406.696 106.011C407.173 106.901 407.719 107.745 408.199 108.63C406.218 107.586 404.111 106.729 401.992 106.222C401.81 106.179 401.734 106.443 401.899 106.511C403.476 107.158 405.032 107.809 406.539 108.587C405.78 108.715 405.019 108.9 404.291 109.103C404.058 109.168 404.155 109.504 404.387 109.484C405.362 109.402 406.365 109.271 407.314 109.046C407.332 109.041 407.348 109.035 407.363 109.029C408.875 109.869 410.305 110.82 411.791 111.699C411.882 111.753 411.977 111.768 412.064 111.756C412.892 113.661 413.706 115.572 414.477 117.495C412.227 116.823 409.934 116.363 407.615 115.935C407.433 115.901 407.251 115.867 407.069 115.833C407.022 115.809 406.969 115.797 406.913 115.805C406.181 115.668 405.449 115.532 404.716 115.399C404.34 114.548 403.336 113.565 402.421 113.254C402.302 113.214 402.209 113.328 402.273 113.427C402.537 113.839 402.91 114.189 403.217 114.574C403.379 114.778 403.52 114.996 403.665 115.212C402.212 114.959 400.754 114.733 399.286 114.578C399.099 114.559 399.068 114.794 399.24 114.841C401.497 115.458 403.797 115.903 406.098 116.343C404.671 117.289 403.076 117.93 401.424 118.492C401.259 118.548 401.316 118.816 401.497 118.781C403.491 118.394 405.3 117.678 406.888 116.493C409.53 116.999 412.168 117.521 414.737 118.308C414.76 118.315 414.783 118.319 414.805 118.323C415.388 119.806 415.944 121.298 416.461 122.802C415.581 122.666 414.702 122.522 413.824 122.37C413.822 122.343 413.818 122.315 413.807 122.286C413.534 121.545 412.768 120.81 412.203 120.247C412.054 120.099 411.806 120.26 411.927 120.438C412.163 120.785 412.395 121.135 412.616 121.491C412.764 121.729 412.887 121.992 413.038 122.233C412.67 122.167 412.301 122.101 411.934 122.033C411.126 121.883 410.318 121.735 409.507 121.604C409.183 121.551 408.657 121.379 408.323 121.429C408.27 121.411 408.216 121.403 408.176 121.408C408.098 121.417 408.044 121.528 408.123 121.574C408.755 121.941 409.578 122.161 410.396 122.333C410.083 122.487 409.795 122.673 409.585 122.861C409.498 122.938 409.532 123.103 409.677 123.085C410.043 123.041 410.377 122.926 410.727 122.82C410.993 122.739 411.272 122.668 411.526 122.554C411.691 122.585 411.851 122.617 412.004 122.649C413.558 122.977 415.12 123.247 416.691 123.484C417.053 124.565 417.395 125.652 417.71 126.748C417.747 126.877 417.783 127.007 417.819 127.137C417.088 126.685 416.235 126.41 415.373 126.263C415.145 126.224 415.026 126.56 415.254 126.635C416.361 126.998 417.249 127.635 418.13 128.326C418.759 130.905 419.067 133.505 418.51 136.153C418.431 136.528 419.022 136.601 419.125 136.247C419.878 133.656 419.456 130.904 418.813 128.333C418.811 128.327 418.81 128.321 418.808 128.315C418.889 128.203 418.905 128.058 418.789 127.931C418.785 127.926 418.78 127.922 418.775 127.917C419.402 126.933 419.832 125.681 419.804 124.54C419.801 124.401 419.595 124.39 419.536 124.499C419.264 125.006 419.034 125.537 418.815 126.066C418.699 126.344 418.562 126.612 418.423 126.879C418.151 125.917 417.853 124.961 417.532 124.012C418.379 123.155 419.147 122.217 419.882 121.275C420.56 120.405 421.316 119.497 421.703 118.474C421.721 118.427 421.662 118.366 421.613 118.406C420.748 119.12 420.095 120.057 419.375 120.895C418.69 121.692 417.97 122.46 417.267 123.242C417.262 123.225 417.256 123.209 417.25 123.193C417.252 123.118 417.227 123.044 417.176 122.986C417.003 122.497 416.826 122.01 416.644 121.524C416.241 120.449 415.821 119.379 415.392 118.312C415.393 118.31 415.394 118.309 415.394 118.309C416.432 116.801 417.567 115.399 418.849 114.107C418.873 114.119 418.9 114.129 418.929 114.137C419.947 114.41 421.031 114.107 421.87 113.544C422.044 113.428 421.883 113.126 421.684 113.226C420.953 113.59 420.221 113.636 419.447 113.518C419.934 113.058 420.442 112.611 420.974 112.181C421.47 111.781 421.98 111.386 422.494 110.99C423.703 111.235 424.876 111.213 426.054 110.791C426.235 110.726 426.175 110.431 425.973 110.469C425.048 110.646 424.069 110.68 423.14 110.492C424.637 109.337 426.131 108.154 427.372 106.793C427.416 106.744 427.345 106.687 427.291 106.717Z" fill="#975326"/>
</g>
<defs>
<clipPath id="clip0_1_2">
<rect width="1352" height="416" fill="white"/>
</clipPath>
</defs>
</svg>
