<svg width="611" height="343" viewBox="0 0 611 343" fill="none" xmlns="http://www.w3.org/2000/svg">
<g filter="url(#filter0_ddd_1027_8558)">
<rect x="12" y="53" width="587" height="278" rx="8" fill="#AE956C" fill-opacity="0.09" shape-rendering="crispEdges"/>
<path d="M162.505 168V146.7H169.405C173.605 146.7 176.775 147.59 178.915 149.37C181.055 151.15 182.125 153.79 182.125 157.29C182.125 159.41 181.645 161.27 180.685 162.87C179.725 164.47 178.385 165.73 176.665 166.65C174.945 167.55 172.955 168 170.695 168H162.505ZM167.395 163.65H170.485C172.665 163.65 174.315 163.13 175.435 162.09C176.575 161.03 177.145 159.48 177.145 157.44C177.145 155.28 176.555 153.68 175.375 152.64C174.215 151.58 172.425 151.05 170.005 151.05H167.395V163.65ZM195.44 157.17C195.04 157.01 194.5 156.93 193.82 156.93C192.78 156.93 191.95 157.3 191.33 158.04C190.71 158.76 190.26 159.94 189.98 161.58C189.7 163.2 189.56 165.34 189.56 168H185V158.1L184.94 152.73H189.53L189.32 156.54C189.86 155.08 190.58 154.04 191.48 153.42C192.4 152.8 193.38 152.49 194.42 152.49C194.76 152.49 195.07 152.51 195.35 152.55C195.65 152.59 195.95 152.66 196.25 152.76L195.44 157.17ZM202.363 152.73V168H197.773V152.73H202.363ZM200.053 150.93C199.173 150.93 198.473 150.66 197.953 150.12C197.433 149.58 197.173 148.94 197.173 148.2C197.173 147.46 197.423 146.82 197.923 146.28C198.443 145.74 199.153 145.47 200.053 145.47C200.933 145.47 201.633 145.74 202.153 146.28C202.673 146.82 202.933 147.46 202.933 148.2C202.933 148.94 202.673 149.58 202.153 150.12C201.633 150.66 200.933 150.93 200.053 150.93ZM216.479 152.73H221.039L215.429 168H208.889L204.089 152.73H209.069L212.429 164.22L216.479 152.73ZM229.297 168.3C227.597 168.3 226.127 167.99 224.887 167.37C223.647 166.73 222.687 165.84 222.007 164.7C221.327 163.54 220.987 162.17 220.987 160.59C220.987 158.99 221.327 157.58 222.007 156.36C222.707 155.14 223.637 154.19 224.797 153.51C225.977 152.83 227.307 152.49 228.787 152.49C230.467 152.49 231.837 152.87 232.897 153.63C233.957 154.39 234.687 155.47 235.087 156.87C235.507 158.25 235.597 159.86 235.357 161.7H225.667C225.787 162.46 226.187 163.1 226.867 163.62C227.547 164.12 228.477 164.37 229.657 164.37C230.197 164.37 230.767 164.26 231.367 164.04C231.967 163.8 232.477 163.45 232.897 162.99L235.447 165.69C234.787 166.49 233.967 167.13 232.987 167.61C232.027 168.07 230.797 168.3 229.297 168.3ZM228.877 155.82C228.077 155.82 227.397 156.06 226.837 156.54C226.297 157.02 225.937 157.69 225.757 158.55H231.487C231.507 157.61 231.277 156.92 230.797 156.48C230.337 156.04 229.697 155.82 228.877 155.82ZM248.643 157.17C248.243 157.01 247.703 156.93 247.023 156.93C245.983 156.93 245.153 157.3 244.533 158.04C243.913 158.76 243.463 159.94 243.183 161.58C242.903 163.2 242.763 165.34 242.763 168H238.203V158.1L238.143 152.73H242.733L242.523 156.54C243.063 155.08 243.783 154.04 244.683 153.42C245.603 152.8 246.583 152.49 247.623 152.49C247.963 152.49 248.273 152.51 248.553 152.55C248.853 152.59 249.153 152.66 249.453 152.76L248.643 157.17ZM251.756 157.29L250.826 146.7H255.716L254.786 157.29H251.756ZM264.731 168.3C262.511 168.3 260.831 167.89 259.691 167.07C258.551 166.23 257.881 165.13 257.681 163.77L261.491 162.81C261.611 163.39 261.941 163.86 262.481 164.22C263.021 164.56 263.761 164.73 264.701 164.73C266.201 164.73 266.951 164.38 266.951 163.68C266.951 163.32 266.731 163.05 266.291 162.87C265.871 162.67 265.181 162.48 264.221 162.3C262.421 161.98 261.021 161.47 260.021 160.77C259.041 160.07 258.551 159 258.551 157.56C258.551 156.58 258.831 155.71 259.391 154.95C259.951 154.19 260.721 153.59 261.701 153.15C262.681 152.71 263.811 152.49 265.091 152.49C266.751 152.49 268.121 152.88 269.201 153.66C270.301 154.44 270.951 155.4 271.151 156.54L267.401 157.56C267.261 157.12 266.981 156.76 266.561 156.48C266.161 156.2 265.611 156.06 264.911 156.06C264.251 156.06 263.761 156.17 263.441 156.39C263.141 156.61 262.991 156.87 262.991 157.17C262.991 157.53 263.201 157.82 263.621 158.04C264.041 158.24 264.781 158.45 265.841 158.67C266.921 158.87 267.871 159.15 268.691 159.51C269.531 159.85 270.181 160.33 270.641 160.95C271.121 161.55 271.361 162.37 271.361 163.41C271.361 164.39 271.071 165.25 270.491 165.99C269.931 166.73 269.151 167.3 268.151 167.7C267.151 168.1 266.011 168.3 264.731 168.3ZM299.24 163.41L300.38 167.19C299.94 167.53 299.37 167.8 298.67 168C297.99 168.2 297.29 168.3 296.57 168.3C295.27 168.3 294.13 168.04 293.15 167.52C292.17 166.98 291.36 166.2 290.72 165.18L288.17 161.1C287.87 160.62 287.57 160.29 287.27 160.11C286.99 159.91 286.66 159.8 286.28 159.78V168H281.48V146.7H288.47C291.41 146.7 293.61 147.29 295.07 148.47C296.55 149.65 297.29 151.28 297.29 153.36C297.29 155 296.78 156.34 295.76 157.38C294.76 158.42 293.47 159.1 291.89 159.42C292.55 159.74 293.13 160.27 293.63 161.01L294.65 162.57C295.29 163.53 296.13 164.01 297.17 164.01C297.55 164.01 297.91 163.97 298.25 163.89C298.59 163.79 298.92 163.63 299.24 163.41ZM288.2 150.69H286.28V155.97H288.17C289.67 155.97 290.75 155.76 291.41 155.34C292.07 154.9 292.4 154.22 292.4 153.3C292.4 152.38 292.03 151.72 291.29 151.32C290.55 150.9 289.52 150.69 288.2 150.69ZM308.311 168.3C306.611 168.3 305.141 167.99 303.901 167.37C302.661 166.73 301.701 165.84 301.021 164.7C300.341 163.54 300.001 162.17 300.001 160.59C300.001 158.99 300.341 157.58 301.021 156.36C301.721 155.14 302.651 154.19 303.811 153.51C304.991 152.83 306.321 152.49 307.801 152.49C309.481 152.49 310.851 152.87 311.911 153.63C312.971 154.39 313.701 155.47 314.101 156.87C314.521 158.25 314.611 159.86 314.371 161.7H304.681C304.801 162.46 305.201 163.1 305.881 163.62C306.561 164.12 307.491 164.37 308.671 164.37C309.211 164.37 309.781 164.26 310.381 164.04C310.981 163.8 311.491 163.45 311.911 162.99L314.461 165.69C313.801 166.49 312.981 167.13 312.001 167.61C311.041 168.07 309.811 168.3 308.311 168.3ZM307.891 155.82C307.091 155.82 306.411 156.06 305.851 156.54C305.311 157.02 304.951 157.69 304.771 158.55H310.501C310.521 157.61 310.291 156.92 309.811 156.48C309.351 156.04 308.711 155.82 307.891 155.82ZM322.797 168.3C320.577 168.3 318.897 167.89 317.757 167.07C316.617 166.23 315.947 165.13 315.747 163.77L319.557 162.81C319.677 163.39 320.007 163.86 320.547 164.22C321.087 164.56 321.827 164.73 322.767 164.73C324.267 164.73 325.017 164.38 325.017 163.68C325.017 163.32 324.797 163.05 324.357 162.87C323.937 162.67 323.247 162.48 322.287 162.3C320.487 161.98 319.087 161.47 318.087 160.77C317.107 160.07 316.617 159 316.617 157.56C316.617 156.58 316.897 155.71 317.457 154.95C318.017 154.19 318.787 153.59 319.767 153.15C320.747 152.71 321.877 152.49 323.157 152.49C324.817 152.49 326.187 152.88 327.267 153.66C328.367 154.44 329.017 155.4 329.217 156.54L325.467 157.56C325.327 157.12 325.047 156.76 324.627 156.48C324.227 156.2 323.677 156.06 322.977 156.06C322.317 156.06 321.827 156.17 321.507 156.39C321.207 156.61 321.057 156.87 321.057 157.17C321.057 157.53 321.267 157.82 321.687 158.04C322.107 158.24 322.847 158.45 323.907 158.67C324.987 158.87 325.937 159.15 326.757 159.51C327.597 159.85 328.247 160.33 328.707 160.95C329.187 161.55 329.427 162.37 329.427 163.41C329.427 164.39 329.137 165.25 328.557 165.99C327.997 166.73 327.217 167.3 326.217 167.7C325.217 168.1 324.077 168.3 322.797 168.3ZM338.325 168.3C336.445 168.3 334.955 167.78 333.855 166.74C332.755 165.68 332.215 164.29 332.235 162.57L332.355 156.54H329.835V152.73H332.415L332.445 149.61H337.005L336.975 152.73H341.745V156.54H336.915L336.825 162.06C336.825 162.78 337.015 163.34 337.395 163.74C337.775 164.14 338.345 164.34 339.105 164.34C339.545 164.34 339.965 164.29 340.365 164.19C340.785 164.07 341.215 163.85 341.655 163.53L342.975 167.04C341.955 167.88 340.405 168.3 338.325 168.3ZM354.757 157.17C354.357 157.01 353.817 156.93 353.137 156.93C352.097 156.93 351.267 157.3 350.647 158.04C350.027 158.76 349.577 159.94 349.297 161.58C349.017 163.2 348.877 165.34 348.877 168H344.317V158.1L344.257 152.73H348.847L348.637 156.54C349.177 155.08 349.897 154.04 350.797 153.42C351.717 152.8 352.697 152.49 353.737 152.49C354.077 152.49 354.387 152.51 354.667 152.55C354.967 152.59 355.267 152.66 355.567 152.76L354.757 157.17ZM361.679 152.73V168H357.089V152.73H361.679ZM359.369 150.93C358.489 150.93 357.789 150.66 357.269 150.12C356.749 149.58 356.489 148.94 356.489 148.2C356.489 147.46 356.739 146.82 357.239 146.28C357.759 145.74 358.469 145.47 359.369 145.47C360.249 145.47 360.949 145.74 361.469 146.28C361.989 146.82 362.249 147.46 362.249 148.2C362.249 148.94 361.989 149.58 361.469 150.12C360.949 150.66 360.249 150.93 359.369 150.93ZM372.165 168.3C370.585 168.3 369.215 168 368.055 167.4C366.895 166.78 365.995 165.9 365.355 164.76C364.715 163.62 364.395 162.26 364.395 160.68C364.395 159.06 364.735 157.64 365.415 156.42C366.115 155.18 367.075 154.22 368.295 153.54C369.515 152.84 370.935 152.49 372.555 152.49C373.875 152.49 375.045 152.75 376.065 153.27C377.085 153.79 377.905 154.6 378.525 155.7L375.285 158.16C374.965 157.58 374.585 157.16 374.145 156.9C373.725 156.64 373.195 156.51 372.555 156.51C371.575 156.51 370.765 156.89 370.125 157.65C369.485 158.39 369.165 159.37 369.165 160.59C369.165 161.77 369.445 162.68 370.005 163.32C370.585 163.96 371.415 164.28 372.495 164.28C373.075 164.28 373.605 164.15 374.085 163.89C374.585 163.61 375.005 163.18 375.345 162.6L378.495 165.12C377.815 166.28 376.915 167.1 375.795 167.58C374.695 168.06 373.485 168.3 372.165 168.3ZM387.104 168.3C385.224 168.3 383.734 167.78 382.634 166.74C381.534 165.68 380.994 164.29 381.014 162.57L381.134 156.54H378.614V152.73H381.194L381.224 149.61H385.784L385.754 152.73H390.524V156.54H385.694L385.604 162.06C385.604 162.78 385.794 163.34 386.174 163.74C386.554 164.14 387.124 164.34 387.884 164.34C388.324 164.34 388.744 164.29 389.144 164.19C389.564 164.07 389.994 163.85 390.434 163.53L391.754 167.04C390.734 167.88 389.184 168.3 387.104 168.3ZM397.656 152.73V168H393.066V152.73H397.656ZM395.346 150.93C394.466 150.93 393.766 150.66 393.246 150.12C392.726 149.58 392.466 148.94 392.466 148.2C392.466 147.46 392.716 146.82 393.216 146.28C393.736 145.74 394.446 145.47 395.346 145.47C396.226 145.47 396.926 145.74 397.446 146.28C397.966 146.82 398.226 147.46 398.226 148.2C398.226 148.94 397.966 149.58 397.446 150.12C396.926 150.66 396.226 150.93 395.346 150.93ZM408.622 152.49C411.002 152.49 412.862 153.17 414.202 154.53C415.562 155.89 416.242 157.73 416.242 160.05C416.242 161.63 415.902 163.04 415.222 164.28C414.542 165.52 413.582 166.5 412.342 167.22C411.102 167.94 409.642 168.3 407.962 168.3C405.602 168.3 403.742 167.62 402.382 166.26C401.042 164.9 400.372 163.07 400.372 160.77C400.372 159.17 400.712 157.75 401.392 156.51C402.072 155.27 403.032 154.29 404.272 153.57C405.512 152.85 406.962 152.49 408.622 152.49ZM408.172 164.31C409.192 164.31 410.002 163.93 410.602 163.17C411.222 162.39 411.532 161.35 411.532 160.05C411.532 158.93 411.262 158.06 410.722 157.44C410.182 156.8 409.442 156.48 408.502 156.48C407.462 156.48 406.632 156.87 406.012 157.65C405.412 158.41 405.112 159.44 405.112 160.74C405.112 161.86 405.372 162.74 405.892 163.38C406.432 164 407.192 164.31 408.172 164.31ZM419.023 168V152.73H423.583L423.373 156C423.993 154.88 424.783 154.02 425.743 153.42C426.723 152.8 427.813 152.49 429.013 152.49C430.833 152.49 432.193 153.11 433.093 154.35C433.993 155.57 434.433 157.33 434.413 159.63L434.353 168H429.763L429.823 159.96C429.843 158.92 429.683 158.13 429.343 157.59C429.023 157.03 428.503 156.75 427.783 156.75C427.183 156.75 426.633 156.93 426.133 157.29C425.633 157.63 425.193 158.22 424.813 159.06C424.453 159.9 424.163 161.05 423.943 162.51C423.723 163.97 423.603 165.8 423.583 168H419.023ZM443.324 168.3C441.104 168.3 439.424 167.89 438.284 167.07C437.144 166.23 436.474 165.13 436.274 163.77L440.084 162.81C440.204 163.39 440.534 163.86 441.074 164.22C441.614 164.56 442.354 164.73 443.294 164.73C444.794 164.73 445.544 164.38 445.544 163.68C445.544 163.32 445.324 163.05 444.884 162.87C444.464 162.67 443.774 162.48 442.814 162.3C441.014 161.98 439.614 161.47 438.614 160.77C437.634 160.07 437.144 159 437.144 157.56C437.144 156.58 437.424 155.71 437.984 154.95C438.544 154.19 439.314 153.59 440.294 153.15C441.274 152.71 442.404 152.49 443.684 152.49C445.344 152.49 446.714 152.88 447.794 153.66C448.894 154.44 449.544 155.4 449.744 156.54L445.994 157.56C445.854 157.12 445.574 156.76 445.154 156.48C444.754 156.2 444.204 156.06 443.504 156.06C442.844 156.06 442.354 156.17 442.034 156.39C441.734 156.61 441.584 156.87 441.584 157.17C441.584 157.53 441.794 157.82 442.214 158.04C442.634 158.24 443.374 158.45 444.434 158.67C445.514 158.87 446.464 159.15 447.284 159.51C448.124 159.85 448.774 160.33 449.234 160.95C449.714 161.55 449.954 162.37 449.954 163.41C449.954 164.39 449.664 165.25 449.084 165.99C448.524 166.73 447.744 167.3 446.744 167.7C445.744 168.1 444.604 168.3 443.324 168.3Z" fill="black"/>
<path d="M49.9971 217.864C49.2291 217.864 48.5331 217.688 47.9091 217.336C47.3011 216.984 46.8131 216.496 46.4451 215.872C46.0931 215.248 45.9171 214.544 45.9171 213.76C45.9171 212.976 46.0931 212.28 46.4451 211.672C46.8131 211.048 47.3011 210.56 47.9091 210.208C48.5331 209.84 49.2291 209.656 49.9971 209.656C50.7651 209.656 51.4531 209.84 52.0611 210.208C52.6851 210.56 53.1811 211.048 53.5491 211.672C53.9171 212.28 54.1011 212.976 54.1011 213.76C54.1011 214.544 53.9171 215.248 53.5491 215.872C53.1811 216.496 52.6851 216.984 52.0611 217.336C51.4531 217.688 50.7651 217.864 49.9971 217.864ZM81.56 202.96L81.32 205.072H75.92V220H73.496V205.072H67.952V202.96H81.56ZM83.0863 220V202.24H85.3903L85.4143 207.976L85.2463 211.504C85.6943 210.304 86.3263 209.384 87.1423 208.744C87.9583 208.104 88.9103 207.784 89.9983 207.784C91.2783 207.784 92.2543 208.232 92.9263 209.128C93.5983 210.008 93.9263 211.28 93.9103 212.944L93.8623 220H91.5823L91.6303 213.16C91.6463 211 90.9103 209.92 89.4223 209.92C88.6383 209.92 87.9423 210.224 87.3343 210.832C86.7423 211.44 86.2703 212.48 85.9183 213.952C85.5663 215.424 85.3823 217.44 85.3663 220H83.0863ZM102.693 220.216C100.805 220.216 99.3173 219.68 98.2293 218.608C97.1413 217.536 96.5973 216.056 96.5973 214.168C96.5973 212.92 96.8453 211.816 97.3413 210.856C97.8533 209.896 98.5493 209.144 99.4293 208.6C100.309 208.056 101.309 207.784 102.429 207.784C104.157 207.784 105.469 208.384 106.365 209.584C107.261 210.768 107.573 212.488 107.301 214.744H98.9253C98.9733 215.832 99.3333 216.68 100.005 217.288C100.693 217.88 101.645 218.176 102.861 218.176C103.453 218.176 104.021 218.048 104.565 217.792C105.125 217.52 105.605 217.12 106.005 216.592L107.397 217.936C106.837 218.672 106.173 219.24 105.405 219.64C104.637 220.024 103.733 220.216 102.693 220.216ZM102.453 209.56C101.477 209.56 100.685 209.888 100.077 210.544C99.4693 211.2 99.1013 212.024 98.9733 213.016H105.309C105.357 211.8 105.109 210.92 104.565 210.376C104.037 209.832 103.333 209.56 102.453 209.56ZM130.138 202.24V220H127.786L127.882 217.528C127.434 218.36 126.85 219.016 126.13 219.496C125.41 219.976 124.586 220.216 123.658 220.216C122.618 220.216 121.738 219.976 121.018 219.496C120.314 219 119.778 218.328 119.41 217.48C119.042 216.632 118.858 215.656 118.858 214.552C118.858 213.224 119.106 212.048 119.602 211.024C120.114 210 120.81 209.208 121.69 208.648C122.586 208.072 123.61 207.784 124.762 207.784C125.418 207.784 126.018 207.912 126.562 208.168C127.106 208.424 127.546 208.768 127.882 209.2L127.834 207.976V202.24H130.138ZM124.858 209.824C123.754 209.824 122.866 210.248 122.194 211.096C121.538 211.928 121.21 213.032 121.21 214.408C121.21 215.592 121.466 216.512 121.978 217.168C122.49 217.824 123.178 218.152 124.042 218.152C124.762 218.152 125.41 217.944 125.986 217.528C126.562 217.112 127.018 216.536 127.354 215.8C127.69 215.048 127.858 214.192 127.858 213.232C127.858 212.176 127.586 211.344 127.042 210.736C126.514 210.128 125.786 209.824 124.858 209.824ZM140.744 210.184C140.44 210.088 140.072 210.04 139.64 210.04C138.744 210.04 138.008 210.384 137.432 211.072C136.872 211.744 136.456 212.816 136.184 214.288C135.928 215.744 135.8 217.648 135.8 220H133.52V212.272L133.496 207.976H135.8L135.656 211.816C136.056 210.36 136.632 209.328 137.384 208.72C138.152 208.096 138.968 207.784 139.832 207.784C140.088 207.784 140.32 207.8 140.528 207.832C140.752 207.848 140.944 207.888 141.104 207.952L140.744 210.184ZM145.151 207.976V220H142.871V207.976H145.151ZM144.047 205.648C143.583 205.648 143.215 205.504 142.943 205.216C142.671 204.912 142.535 204.56 142.535 204.16C142.535 203.76 142.671 203.416 142.943 203.128C143.215 202.824 143.583 202.672 144.047 202.672C144.511 202.672 144.879 202.824 145.151 203.128C145.423 203.416 145.559 203.76 145.559 204.16C145.559 204.56 145.423 204.912 145.151 205.216C144.879 205.504 144.511 205.648 144.047 205.648ZM156.847 207.976H159.127L154.519 220H151.303L147.439 207.976H149.911L153.031 218.152L156.847 207.976ZM165.9 220.216C164.012 220.216 162.524 219.68 161.436 218.608C160.348 217.536 159.804 216.056 159.804 214.168C159.804 212.92 160.052 211.816 160.548 210.856C161.06 209.896 161.756 209.144 162.636 208.6C163.516 208.056 164.516 207.784 165.636 207.784C167.364 207.784 168.676 208.384 169.572 209.584C170.468 210.768 170.78 212.488 170.508 214.744H162.132C162.18 215.832 162.54 216.68 163.212 217.288C163.9 217.88 164.852 218.176 166.068 218.176C166.66 218.176 167.228 218.048 167.772 217.792C168.332 217.52 168.812 217.12 169.212 216.592L170.604 217.936C170.044 218.672 169.38 219.24 168.612 219.64C167.844 220.024 166.94 220.216 165.9 220.216ZM165.66 209.56C164.684 209.56 163.892 209.888 163.284 210.544C162.676 211.2 162.308 212.024 162.18 213.016H168.516C168.564 211.8 168.316 210.92 167.772 210.376C167.244 209.832 166.54 209.56 165.66 209.56ZM180.517 210.184C180.213 210.088 179.845 210.04 179.413 210.04C178.517 210.04 177.781 210.384 177.205 211.072C176.645 211.744 176.229 212.816 175.957 214.288C175.701 215.744 175.573 217.648 175.573 220H173.293V212.272L173.269 207.976H175.573L175.429 211.816C175.829 210.36 176.405 209.328 177.157 208.72C177.925 208.096 178.741 207.784 179.605 207.784C179.861 207.784 180.093 207.8 180.301 207.832C180.525 207.848 180.717 207.888 180.877 207.952L180.517 210.184ZM197.2 220.216C195.408 220.216 194 219.688 192.976 218.632C191.952 217.576 191.44 216.104 191.44 214.216C191.44 212.936 191.688 211.816 192.184 210.856C192.696 209.88 193.408 209.128 194.32 208.6C195.232 208.056 196.288 207.784 197.488 207.784C199.488 207.784 200.944 208.576 201.856 210.16L200.176 211.432C199.584 210.376 198.68 209.848 197.464 209.848C196.376 209.848 195.496 210.248 194.824 211.048C194.152 211.832 193.816 212.88 193.816 214.192C193.816 215.472 194.112 216.448 194.704 217.12C195.312 217.792 196.184 218.128 197.32 218.128C197.912 218.128 198.456 218 198.952 217.744C199.464 217.488 199.888 217.08 200.224 216.52L201.856 217.816C201.344 218.648 200.688 219.256 199.888 219.64C199.104 220.024 198.208 220.216 197.2 220.216ZM214.017 208V220H211.665L211.761 217.528C211.313 218.36 210.729 219.016 210.009 219.496C209.289 219.976 208.465 220.216 207.537 220.216C206.497 220.216 205.617 219.976 204.897 219.496C204.193 219 203.657 218.328 203.289 217.48C202.921 216.632 202.737 215.656 202.737 214.552C202.737 213.224 202.985 212.048 203.481 211.024C203.993 210 204.689 209.208 205.569 208.648C206.465 208.072 207.489 207.784 208.641 207.784C209.409 207.784 210.089 207.96 210.681 208.312C211.289 208.648 211.737 209.096 212.025 209.656L212.313 208H214.017ZM208.737 209.824C207.633 209.824 206.745 210.248 206.073 211.096C205.417 211.928 205.089 213.032 205.089 214.408C205.089 215.592 205.345 216.512 205.857 217.168C206.369 217.824 207.057 218.152 207.921 218.152C208.641 218.152 209.289 217.944 209.865 217.528C210.441 217.112 210.897 216.536 211.233 215.8C211.569 215.048 211.737 214.192 211.737 213.232C211.737 212.176 211.465 211.344 210.921 210.736C210.393 210.128 209.665 209.824 208.737 209.824ZM217.374 220V207.976H219.678L219.534 211.528C219.982 210.328 220.614 209.408 221.43 208.768C222.246 208.112 223.198 207.784 224.286 207.784C225.566 207.784 226.542 208.232 227.214 209.128C227.886 210.008 228.214 211.28 228.198 212.944L228.15 220H225.87L225.918 213.16C225.934 211 225.198 209.92 223.71 209.92C222.926 209.92 222.23 210.224 221.622 210.832C221.03 211.44 220.558 212.48 220.206 213.952C219.854 215.424 219.67 217.44 219.654 220H217.374ZM231.413 220V207.976H233.717L233.573 211.528C234.021 210.328 234.653 209.408 235.469 208.768C236.285 208.112 237.237 207.784 238.325 207.784C239.605 207.784 240.581 208.232 241.253 209.128C241.925 210.008 242.253 211.28 242.237 212.944L242.189 220H239.909L239.957 213.16C239.973 211 239.237 209.92 237.749 209.92C236.965 209.92 236.269 210.224 235.661 210.832C235.069 211.44 234.597 212.48 234.245 213.952C233.893 215.424 233.709 217.44 233.693 220H231.413ZM250.9 207.784C252.612 207.784 253.964 208.32 254.956 209.392C255.948 210.464 256.444 211.912 256.444 213.736C256.444 214.968 256.196 216.072 255.7 217.048C255.204 218.024 254.508 218.8 253.612 219.376C252.732 219.936 251.7 220.216 250.516 220.216C248.756 220.216 247.38 219.68 246.388 218.608C245.412 217.536 244.924 216.08 244.924 214.24C244.924 213.008 245.164 211.904 245.644 210.928C246.14 209.952 246.836 209.184 247.732 208.624C248.628 208.064 249.684 207.784 250.9 207.784ZM250.54 218.152C251.596 218.152 252.444 217.752 253.084 216.952C253.74 216.136 254.068 215.064 254.068 213.736C254.068 212.488 253.78 211.528 253.204 210.856C252.644 210.168 251.868 209.824 250.876 209.824C249.788 209.824 248.916 210.232 248.26 211.048C247.604 211.864 247.276 212.928 247.276 214.24C247.276 215.488 247.564 216.456 248.14 217.144C248.716 217.816 249.516 218.152 250.54 218.152ZM263.988 220.216C262.564 220.216 261.476 219.84 260.724 219.088C259.988 218.32 259.628 217.304 259.644 216.04L259.74 209.92H257.652V207.976H259.764L259.788 205.48H262.092L262.044 207.976H266.124V209.92H262.02L261.948 215.848C261.948 216.552 262.132 217.12 262.5 217.552C262.868 217.968 263.436 218.176 264.204 218.176C264.572 218.176 264.916 218.136 265.236 218.056C265.556 217.96 265.892 217.776 266.244 217.504L266.94 219.304C266.588 219.608 266.148 219.84 265.62 220C265.108 220.144 264.564 220.216 263.988 220.216ZM280.914 220.216C279.842 220.216 279.034 219.928 278.49 219.352C277.962 218.76 277.698 217.96 277.698 216.952V202.24H280.002V216.712C280.002 217.688 280.442 218.176 281.322 218.176C281.546 218.176 281.754 218.144 281.946 218.08C282.154 218.016 282.33 217.944 282.474 217.864L283.05 219.568C282.826 219.76 282.514 219.912 282.114 220.024C281.73 220.152 281.33 220.216 280.914 220.216ZM289.828 220.216C287.94 220.216 286.452 219.68 285.364 218.608C284.276 217.536 283.732 216.056 283.732 214.168C283.732 212.92 283.98 211.816 284.476 210.856C284.988 209.896 285.684 209.144 286.564 208.6C287.444 208.056 288.444 207.784 289.564 207.784C291.292 207.784 292.604 208.384 293.5 209.584C294.396 210.768 294.708 212.488 294.436 214.744H286.06C286.108 215.832 286.468 216.68 287.14 217.288C287.828 217.88 288.78 218.176 289.996 218.176C290.588 218.176 291.156 218.048 291.7 217.792C292.26 217.52 292.74 217.12 293.14 216.592L294.532 217.936C293.972 218.672 293.308 219.24 292.54 219.64C291.772 220.024 290.868 220.216 289.828 220.216ZM289.588 209.56C288.612 209.56 287.82 209.888 287.212 210.544C286.604 211.2 286.236 212.024 286.108 213.016H292.444C292.492 211.8 292.244 210.92 291.7 210.376C291.172 209.832 290.468 209.56 289.588 209.56ZM307.95 208V220H305.598L305.694 217.528C305.246 218.36 304.662 219.016 303.942 219.496C303.222 219.976 302.398 220.216 301.47 220.216C300.43 220.216 299.55 219.976 298.83 219.496C298.126 219 297.59 218.328 297.222 217.48C296.854 216.632 296.67 215.656 296.67 214.552C296.67 213.224 296.918 212.048 297.414 211.024C297.926 210 298.622 209.208 299.502 208.648C300.398 208.072 301.422 207.784 302.574 207.784C303.342 207.784 304.022 207.96 304.614 208.312C305.222 208.648 305.67 209.096 305.958 209.656L306.246 208H307.95ZM302.67 209.824C301.566 209.824 300.678 210.248 300.006 211.096C299.35 211.928 299.022 213.032 299.022 214.408C299.022 215.592 299.278 216.512 299.79 217.168C300.302 217.824 300.99 218.152 301.854 218.152C302.574 218.152 303.222 217.944 303.798 217.528C304.374 217.112 304.83 216.536 305.166 215.8C305.502 215.048 305.67 214.192 305.67 213.232C305.67 212.176 305.398 211.344 304.854 210.736C304.326 210.128 303.598 209.824 302.67 209.824ZM319.611 207.976H321.891L317.283 220H314.067L310.203 207.976H312.675L315.795 218.152L319.611 207.976ZM328.664 220.216C326.776 220.216 325.288 219.68 324.2 218.608C323.112 217.536 322.568 216.056 322.568 214.168C322.568 212.92 322.816 211.816 323.312 210.856C323.824 209.896 324.52 209.144 325.4 208.6C326.28 208.056 327.28 207.784 328.4 207.784C330.128 207.784 331.44 208.384 332.336 209.584C333.232 210.768 333.544 212.488 333.272 214.744H324.896C324.944 215.832 325.304 216.68 325.976 217.288C326.664 217.88 327.616 218.176 328.832 218.176C329.424 218.176 329.992 218.048 330.536 217.792C331.096 217.52 331.576 217.12 331.976 216.592L333.368 217.936C332.808 218.672 332.144 219.24 331.376 219.64C330.608 220.024 329.704 220.216 328.664 220.216ZM328.424 209.56C327.448 209.56 326.656 209.888 326.048 210.544C325.44 211.2 325.072 212.024 324.944 213.016H331.28C331.328 211.8 331.08 210.92 330.536 210.376C330.008 209.832 329.304 209.56 328.424 209.56ZM350.205 220.216C348.781 220.216 347.693 219.84 346.941 219.088C346.205 218.32 345.845 217.304 345.861 216.04L345.957 209.92H343.869V207.976H345.981L346.005 205.48H348.309L348.261 207.976H352.341V209.92H348.237L348.165 215.848C348.165 216.552 348.349 217.12 348.717 217.552C349.085 217.968 349.653 218.176 350.421 218.176C350.789 218.176 351.133 218.136 351.453 218.056C351.773 217.96 352.109 217.776 352.461 217.504L353.157 219.304C352.805 219.608 352.365 219.84 351.837 220C351.325 220.144 350.781 220.216 350.205 220.216ZM354.592 220V202.24H356.896L356.92 207.976L356.752 211.504C357.2 210.304 357.832 209.384 358.648 208.744C359.464 208.104 360.416 207.784 361.504 207.784C362.784 207.784 363.76 208.232 364.432 209.128C365.104 210.008 365.432 211.28 365.416 212.944L365.368 220H363.088L363.136 213.16C363.152 211 362.416 209.92 360.928 209.92C360.144 209.92 359.448 210.224 358.84 210.832C358.248 211.44 357.776 212.48 357.424 213.952C357.072 215.424 356.888 217.44 356.872 220H354.592ZM374.199 220.216C372.311 220.216 370.823 219.68 369.735 218.608C368.647 217.536 368.103 216.056 368.103 214.168C368.103 212.92 368.351 211.816 368.847 210.856C369.359 209.896 370.055 209.144 370.935 208.6C371.815 208.056 372.815 207.784 373.935 207.784C375.663 207.784 376.975 208.384 377.871 209.584C378.767 210.768 379.079 212.488 378.807 214.744H370.431C370.479 215.832 370.839 216.68 371.511 217.288C372.199 217.88 373.151 218.176 374.367 218.176C374.959 218.176 375.527 218.048 376.071 217.792C376.631 217.52 377.111 217.12 377.511 216.592L378.903 217.936C378.343 218.672 377.679 219.24 376.911 219.64C376.143 220.024 375.239 220.216 374.199 220.216ZM373.959 209.56C372.983 209.56 372.191 209.888 371.583 210.544C370.975 211.2 370.607 212.024 370.479 213.016H376.815C376.863 211.8 376.615 210.92 376.071 210.376C375.543 209.832 374.839 209.56 373.959 209.56ZM399.196 207.976H401.476L396.868 220H393.652L389.788 207.976H392.26L395.38 218.152L399.196 207.976ZM408.249 220.216C406.361 220.216 404.873 219.68 403.785 218.608C402.697 217.536 402.153 216.056 402.153 214.168C402.153 212.92 402.401 211.816 402.897 210.856C403.409 209.896 404.105 209.144 404.985 208.6C405.865 208.056 406.865 207.784 407.985 207.784C409.713 207.784 411.025 208.384 411.921 209.584C412.817 210.768 413.129 212.488 412.857 214.744H404.481C404.529 215.832 404.889 216.68 405.561 217.288C406.249 217.88 407.201 218.176 408.417 218.176C409.009 218.176 409.577 218.048 410.121 217.792C410.681 217.52 411.161 217.12 411.561 216.592L412.953 217.936C412.393 218.672 411.729 219.24 410.961 219.64C410.193 220.024 409.289 220.216 408.249 220.216ZM408.009 209.56C407.033 209.56 406.241 209.888 405.633 210.544C405.025 211.2 404.657 212.024 404.529 213.016H410.865C410.913 211.8 410.665 210.92 410.121 210.376C409.593 209.832 408.889 209.56 408.009 209.56ZM415.619 220V202.24H417.923L417.947 207.976L417.779 211.504C418.227 210.304 418.859 209.384 419.675 208.744C420.491 208.104 421.443 207.784 422.531 207.784C423.811 207.784 424.787 208.232 425.459 209.128C426.131 210.008 426.459 211.28 426.443 212.944L426.395 220H424.115L424.163 213.16C424.179 211 423.443 209.92 421.955 209.92C421.171 209.92 420.475 210.224 419.867 210.832C419.275 211.44 418.803 212.48 418.451 213.952C418.099 215.424 417.915 217.44 417.899 220H415.619ZM431.938 207.976V220H429.658V207.976H431.938ZM430.834 205.648C430.37 205.648 430.002 205.504 429.73 205.216C429.458 204.912 429.322 204.56 429.322 204.16C429.322 203.76 429.458 203.416 429.73 203.128C430.002 202.824 430.37 202.672 430.834 202.672C431.298 202.672 431.666 202.824 431.938 203.128C432.21 203.416 432.346 203.76 432.346 204.16C432.346 204.56 432.21 204.912 431.938 205.216C431.666 205.504 431.298 205.648 430.834 205.648ZM440.562 220.216C438.77 220.216 437.362 219.688 436.338 218.632C435.314 217.576 434.802 216.104 434.802 214.216C434.802 212.936 435.05 211.816 435.546 210.856C436.058 209.88 436.77 209.128 437.682 208.6C438.594 208.056 439.65 207.784 440.85 207.784C442.85 207.784 444.306 208.576 445.218 210.16L443.538 211.432C442.946 210.376 442.042 209.848 440.826 209.848C439.738 209.848 438.858 210.248 438.186 211.048C437.514 211.832 437.178 212.88 437.178 214.192C437.178 215.472 437.474 216.448 438.066 217.12C438.674 217.792 439.546 218.128 440.682 218.128C441.274 218.128 441.818 218 442.314 217.744C442.826 217.488 443.25 217.08 443.586 216.52L445.218 217.816C444.706 218.648 444.05 219.256 443.25 219.64C442.466 220.024 441.57 220.216 440.562 220.216ZM450.311 220.216C449.239 220.216 448.431 219.928 447.887 219.352C447.359 218.76 447.095 217.96 447.095 216.952V202.24H449.399V216.712C449.399 217.688 449.839 218.176 450.719 218.176C450.943 218.176 451.151 218.144 451.343 218.08C451.551 218.016 451.727 217.944 451.871 217.864L452.447 219.568C452.223 219.76 451.911 219.912 451.511 220.024C451.127 220.152 450.727 220.216 450.311 220.216ZM459.226 220.216C457.338 220.216 455.85 219.68 454.762 218.608C453.674 217.536 453.13 216.056 453.13 214.168C453.13 212.92 453.378 211.816 453.874 210.856C454.386 209.896 455.082 209.144 455.962 208.6C456.842 208.056 457.842 207.784 458.962 207.784C460.69 207.784 462.002 208.384 462.898 209.584C463.794 210.768 464.106 212.488 463.834 214.744H455.458C455.506 215.832 455.866 216.68 456.538 217.288C457.226 217.88 458.178 218.176 459.394 218.176C459.986 218.176 460.554 218.048 461.098 217.792C461.658 217.52 462.138 217.12 462.538 216.592L463.93 217.936C463.37 218.672 462.706 219.24 461.938 219.64C461.17 220.024 460.266 220.216 459.226 220.216ZM458.986 209.56C458.01 209.56 457.218 209.888 456.61 210.544C456.002 211.2 455.634 212.024 455.506 213.016H461.842C461.89 211.8 461.642 210.92 461.098 210.376C460.57 209.832 459.866 209.56 458.986 209.56ZM480.767 220.216C479.343 220.216 478.255 219.84 477.503 219.088C476.767 218.32 476.407 217.304 476.423 216.04L476.519 209.92H474.431V207.976H476.543L476.567 205.48H478.871L478.823 207.976H482.903V209.92H478.799L478.727 215.848C478.727 216.552 478.911 217.12 479.279 217.552C479.647 217.968 480.215 218.176 480.983 218.176C481.351 218.176 481.695 218.136 482.015 218.056C482.335 217.96 482.671 217.776 483.023 217.504L483.719 219.304C483.367 219.608 482.927 219.84 482.399 220C481.887 220.144 481.343 220.216 480.767 220.216ZM490.367 207.784C492.079 207.784 493.431 208.32 494.423 209.392C495.415 210.464 495.911 211.912 495.911 213.736C495.911 214.968 495.663 216.072 495.167 217.048C494.671 218.024 493.975 218.8 493.079 219.376C492.199 219.936 491.167 220.216 489.983 220.216C488.223 220.216 486.847 219.68 485.855 218.608C484.879 217.536 484.391 216.08 484.391 214.24C484.391 213.008 484.631 211.904 485.111 210.928C485.607 209.952 486.303 209.184 487.199 208.624C488.095 208.064 489.151 207.784 490.367 207.784ZM490.007 218.152C491.063 218.152 491.911 217.752 492.551 216.952C493.207 216.136 493.535 215.064 493.535 213.736C493.535 212.488 493.247 211.528 492.671 210.856C492.111 210.168 491.335 209.824 490.343 209.824C489.255 209.824 488.383 210.232 487.727 211.048C487.071 211.864 486.743 212.928 486.743 214.24C486.743 215.488 487.031 216.456 487.607 217.144C488.183 217.816 488.983 218.152 490.007 218.152ZM512.079 220.216C510.511 220.216 509.303 219.904 508.455 219.28C507.607 218.656 507.119 217.776 506.991 216.64L508.959 216.16C509.071 216.896 509.375 217.448 509.871 217.816C510.367 218.184 511.103 218.368 512.079 218.368C512.863 218.368 513.463 218.224 513.879 217.936C514.295 217.632 514.503 217.232 514.503 216.736C514.503 216.256 514.279 215.904 513.831 215.68C513.399 215.44 512.727 215.232 511.815 215.056C510.967 214.896 510.231 214.688 509.607 214.432C508.999 214.16 508.527 213.8 508.191 213.352C507.855 212.888 507.687 212.28 507.687 211.528C507.687 210.808 507.879 210.168 508.263 209.608C508.663 209.048 509.199 208.608 509.871 208.288C510.559 207.952 511.343 207.784 512.223 207.784C513.407 207.784 514.375 208.072 515.127 208.648C515.895 209.208 516.351 209.952 516.495 210.88L514.599 211.384C514.343 210.216 513.535 209.632 512.175 209.632C511.471 209.632 510.919 209.8 510.519 210.136C510.119 210.456 509.919 210.872 509.919 211.384C509.919 211.832 510.111 212.2 510.495 212.488C510.879 212.76 511.567 212.992 512.559 213.184C513.407 213.36 514.143 213.576 514.767 213.832C515.391 214.072 515.871 214.408 516.207 214.84C516.559 215.256 516.743 215.832 516.759 216.568C516.759 217.272 516.559 217.904 516.159 218.464C515.775 219.008 515.231 219.44 514.527 219.76C513.823 220.064 513.007 220.216 512.079 220.216ZM524.678 220.216C522.79 220.216 521.302 219.68 520.214 218.608C519.126 217.536 518.582 216.056 518.582 214.168C518.582 212.92 518.83 211.816 519.326 210.856C519.838 209.896 520.534 209.144 521.414 208.6C522.294 208.056 523.294 207.784 524.414 207.784C526.142 207.784 527.454 208.384 528.35 209.584C529.246 210.768 529.558 212.488 529.286 214.744H520.91C520.958 215.832 521.318 216.68 521.99 217.288C522.678 217.88 523.63 218.176 524.846 218.176C525.438 218.176 526.006 218.048 526.55 217.792C527.11 217.52 527.59 217.12 527.99 216.592L529.382 217.936C528.822 218.672 528.158 219.24 527.39 219.64C526.622 220.024 525.718 220.216 524.678 220.216ZM524.438 209.56C523.462 209.56 522.67 209.888 522.062 210.544C521.454 211.2 521.086 212.024 520.958 213.016H527.294C527.342 211.8 527.094 210.92 526.55 210.376C526.022 209.832 525.318 209.56 524.438 209.56ZM542.799 208V220H540.447L540.543 217.528C540.095 218.36 539.511 219.016 538.791 219.496C538.071 219.976 537.247 220.216 536.319 220.216C535.279 220.216 534.399 219.976 533.679 219.496C532.975 219 532.439 218.328 532.071 217.48C531.703 216.632 531.519 215.656 531.519 214.552C531.519 213.224 531.767 212.048 532.263 211.024C532.775 210 533.471 209.208 534.351 208.648C535.247 208.072 536.271 207.784 537.423 207.784C538.191 207.784 538.871 207.96 539.463 208.312C540.071 208.648 540.519 209.096 540.807 209.656L541.095 208H542.799ZM537.519 209.824C536.415 209.824 535.527 210.248 534.855 211.096C534.199 211.928 533.871 213.032 533.871 214.408C533.871 215.592 534.127 216.512 534.639 217.168C535.151 217.824 535.839 218.152 536.703 218.152C537.423 218.152 538.071 217.944 538.647 217.528C539.223 217.112 539.679 216.536 540.015 215.8C540.351 215.048 540.519 214.192 540.519 213.232C540.519 212.176 540.247 211.344 539.703 210.736C539.175 210.128 538.447 209.824 537.519 209.824ZM553.405 210.184C553.101 210.088 552.733 210.04 552.301 210.04C551.405 210.04 550.669 210.384 550.093 211.072C549.533 211.744 549.117 212.816 548.845 214.288C548.589 215.744 548.461 217.648 548.461 220H546.181V212.272L546.157 207.976H548.461L548.317 211.816C548.717 210.36 549.293 209.328 550.045 208.72C550.813 208.096 551.629 207.784 552.493 207.784C552.749 207.784 552.981 207.8 553.189 207.832C553.413 207.848 553.605 207.888 553.765 207.952L553.405 210.184ZM560.107 220.216C558.315 220.216 556.907 219.688 555.883 218.632C554.859 217.576 554.347 216.104 554.347 214.216C554.347 212.936 554.595 211.816 555.091 210.856C555.603 209.88 556.315 209.128 557.227 208.6C558.139 208.056 559.195 207.784 560.395 207.784C562.395 207.784 563.851 208.576 564.763 210.16L563.083 211.432C562.491 210.376 561.587 209.848 560.371 209.848C559.283 209.848 558.403 210.248 557.731 211.048C557.059 211.832 556.723 212.88 556.723 214.192C556.723 215.472 557.019 216.448 557.611 217.12C558.219 217.792 559.091 218.128 560.227 218.128C560.819 218.128 561.363 218 561.859 217.744C562.371 217.488 562.795 217.08 563.131 216.52L564.763 217.816C564.251 218.648 563.595 219.256 562.795 219.64C562.011 220.024 561.115 220.216 560.107 220.216ZM566.641 220V202.24H568.945L568.969 207.976L568.801 211.504C569.249 210.304 569.881 209.384 570.697 208.744C571.513 208.104 572.465 207.784 573.553 207.784C574.833 207.784 575.809 208.232 576.481 209.128C577.153 210.008 577.481 211.28 577.465 212.944L577.417 220H575.137L575.185 213.16C575.201 211 574.465 209.92 572.977 209.92C572.193 209.92 571.497 210.224 570.889 210.832C570.297 211.44 569.825 212.48 569.473 213.952C569.121 215.424 568.937 217.44 568.921 220H566.641ZM70.232 250V239.92H67.88V237.976H70.232V237.088C70.232 236.048 70.432 235.152 70.832 234.4C71.232 233.632 71.784 233.04 72.488 232.624C73.208 232.208 74.032 232 74.96 232C76.096 232 77 232.288 77.672 232.864C78.344 233.424 78.736 234.232 78.848 235.288L76.904 235.528C76.776 234.472 76.112 233.944 74.912 233.944C74.16 233.944 73.568 234.2 73.136 234.712C72.704 235.208 72.488 235.928 72.488 236.872V237.976H76.352V239.92H72.536V250H70.232ZM82.7452 237.784C84.4572 237.784 85.8092 238.32 86.8012 239.392C87.7932 240.464 88.2892 241.912 88.2892 243.736C88.2892 244.968 88.0412 246.072 87.5452 247.048C87.0492 248.024 86.3532 248.8 85.4572 249.376C84.5772 249.936 83.5452 250.216 82.3612 250.216C80.6012 250.216 79.2252 249.68 78.2332 248.608C77.2572 247.536 76.7692 246.08 76.7692 244.24C76.7692 243.008 77.0092 241.904 77.4892 240.928C77.9852 239.952 78.6812 239.184 79.5772 238.624C80.4732 238.064 81.5292 237.784 82.7452 237.784ZM82.3852 248.152C83.4412 248.152 84.2892 247.752 84.9292 246.952C85.5852 246.136 85.9132 245.064 85.9132 243.736C85.9132 242.488 85.6252 241.528 85.0492 240.856C84.4892 240.168 83.7132 239.824 82.7212 239.824C81.6332 239.824 80.7612 240.232 80.1052 241.048C79.4492 241.864 79.1212 242.928 79.1212 244.24C79.1212 245.488 79.4092 246.456 79.9852 247.144C80.5612 247.816 81.3612 248.152 82.3852 248.152ZM98.3499 240.184C98.0459 240.088 97.6779 240.04 97.2459 240.04C96.3499 240.04 95.6139 240.384 95.0379 241.072C94.4779 241.744 94.0619 242.816 93.7899 244.288C93.5339 245.744 93.4059 247.648 93.4059 250H91.1259V242.272L91.1019 237.976H93.4059L93.2619 241.816C93.6619 240.36 94.2379 239.328 94.9899 238.72C95.7579 238.096 96.5739 237.784 97.4379 237.784C97.6939 237.784 97.9259 237.8 98.1339 237.832C98.3579 237.848 98.5499 237.888 98.7099 237.952L98.3499 240.184ZM125.961 250.216C124.169 250.216 122.761 249.688 121.737 248.632C120.713 247.576 120.201 246.104 120.201 244.216C120.201 242.936 120.449 241.816 120.945 240.856C121.457 239.88 122.169 239.128 123.081 238.6C123.993 238.056 125.049 237.784 126.249 237.784C128.249 237.784 129.705 238.576 130.617 240.16L128.937 241.432C128.345 240.376 127.441 239.848 126.225 239.848C125.137 239.848 124.257 240.248 123.585 241.048C122.913 241.832 122.577 242.88 122.577 244.192C122.577 245.472 122.873 246.448 123.465 247.12C124.073 247.792 124.945 248.128 126.081 248.128C126.673 248.128 127.217 248 127.713 247.744C128.225 247.488 128.649 247.08 128.985 246.52L130.617 247.816C130.105 248.648 129.449 249.256 128.649 249.64C127.865 250.024 126.969 250.216 125.961 250.216ZM132.495 250V232.24H134.799L134.823 237.976L134.655 241.504C135.103 240.304 135.735 239.384 136.551 238.744C137.367 238.104 138.319 237.784 139.407 237.784C140.687 237.784 141.663 238.232 142.335 239.128C143.007 240.008 143.335 241.28 143.319 242.944L143.271 250H140.991L141.039 243.16C141.055 241 140.319 239.92 138.831 239.92C138.047 239.92 137.351 240.224 136.743 240.832C136.151 241.44 135.679 242.48 135.327 243.952C134.975 245.424 134.791 247.44 134.775 250H132.495ZM148.814 237.976V250H146.534V237.976H148.814ZM147.71 235.648C147.246 235.648 146.878 235.504 146.606 235.216C146.334 234.912 146.198 234.56 146.198 234.16C146.198 233.76 146.334 233.416 146.606 233.128C146.878 232.824 147.246 232.672 147.71 232.672C148.174 232.672 148.542 232.824 148.814 233.128C149.086 233.416 149.222 233.76 149.222 234.16C149.222 234.56 149.086 234.912 148.814 235.216C148.542 235.504 148.174 235.648 147.71 235.648ZM155.422 250.216C154.35 250.216 153.542 249.928 152.998 249.352C152.47 248.76 152.206 247.96 152.206 246.952V232.24H154.51V246.712C154.51 247.688 154.95 248.176 155.83 248.176C156.054 248.176 156.262 248.144 156.454 248.08C156.662 248.016 156.838 247.944 156.982 247.864L157.558 249.568C157.334 249.76 157.022 249.912 156.622 250.024C156.238 250.152 155.838 250.216 155.422 250.216ZM169.521 232.24V250H167.169L167.265 247.528C166.817 248.36 166.233 249.016 165.513 249.496C164.793 249.976 163.969 250.216 163.041 250.216C162.001 250.216 161.121 249.976 160.401 249.496C159.697 249 159.161 248.328 158.793 247.48C158.425 246.632 158.241 245.656 158.241 244.552C158.241 243.224 158.489 242.048 158.985 241.024C159.497 240 160.193 239.208 161.073 238.648C161.969 238.072 162.993 237.784 164.145 237.784C164.801 237.784 165.401 237.912 165.945 238.168C166.489 238.424 166.929 238.768 167.265 239.2L167.217 237.976V232.24H169.521ZM164.241 239.824C163.137 239.824 162.249 240.248 161.577 241.096C160.921 241.928 160.593 243.032 160.593 244.408C160.593 245.592 160.849 246.512 161.361 247.168C161.873 247.824 162.561 248.152 163.425 248.152C164.145 248.152 164.793 247.944 165.369 247.528C165.945 247.112 166.401 246.536 166.737 245.8C167.073 245.048 167.241 244.192 167.241 243.232C167.241 242.176 166.969 241.344 166.425 240.736C165.897 240.128 165.169 239.824 164.241 239.824ZM180.126 240.184C179.822 240.088 179.454 240.04 179.022 240.04C178.126 240.04 177.39 240.384 176.814 241.072C176.254 241.744 175.838 242.816 175.566 244.288C175.31 245.744 175.182 247.648 175.182 250H172.902V242.272L172.878 237.976H175.182L175.038 241.816C175.438 240.36 176.014 239.328 176.766 238.72C177.534 238.096 178.35 237.784 179.214 237.784C179.47 237.784 179.702 237.8 179.91 237.832C180.134 237.848 180.326 237.888 180.486 237.952L180.126 240.184ZM187.165 250.216C185.277 250.216 183.789 249.68 182.701 248.608C181.613 247.536 181.069 246.056 181.069 244.168C181.069 242.92 181.317 241.816 181.813 240.856C182.325 239.896 183.021 239.144 183.901 238.6C184.781 238.056 185.781 237.784 186.901 237.784C188.629 237.784 189.941 238.384 190.837 239.584C191.733 240.768 192.045 242.488 191.773 244.744H183.397C183.445 245.832 183.805 246.68 184.477 247.288C185.165 247.88 186.117 248.176 187.333 248.176C187.925 248.176 188.493 248.048 189.037 247.792C189.597 247.52 190.077 247.12 190.477 246.592L191.869 247.936C191.309 248.672 190.645 249.24 189.877 249.64C189.109 250.024 188.205 250.216 187.165 250.216ZM186.925 239.56C185.949 239.56 185.157 239.888 184.549 240.544C183.941 241.2 183.573 242.024 183.445 243.016H189.781C189.829 241.8 189.581 240.92 189.037 240.376C188.509 239.832 187.805 239.56 186.925 239.56ZM194.534 250V237.976H196.838L196.694 241.528C197.142 240.328 197.774 239.408 198.59 238.768C199.406 238.112 200.358 237.784 201.446 237.784C202.726 237.784 203.702 238.232 204.374 239.128C205.046 240.008 205.374 241.28 205.358 242.944L205.31 250H203.03L203.078 243.16C203.094 241 202.358 239.92 200.87 239.92C200.086 239.92 199.39 240.224 198.782 240.832C198.19 241.44 197.718 242.48 197.366 243.952C197.014 245.424 196.83 247.44 196.814 250H194.534ZM207.781 253.144C207.957 252.728 208.093 252.328 208.189 251.944C208.285 251.576 208.333 251.232 208.333 250.912C208.333 250.56 208.285 250.256 208.189 250C208.109 249.744 208.021 249.496 207.925 249.256C207.845 249 207.805 248.72 207.805 248.416C207.805 248 207.949 247.656 208.237 247.384C208.541 247.112 208.925 246.976 209.389 246.976C209.885 246.976 210.269 247.136 210.541 247.456C210.813 247.76 210.949 248.184 210.949 248.728C210.949 249.16 210.861 249.64 210.685 250.168C210.509 250.696 210.269 251.216 209.965 251.728C209.677 252.256 209.349 252.728 208.981 253.144H207.781ZM244.5 238V250H242.148L242.244 247.528C241.796 248.36 241.212 249.016 240.492 249.496C239.772 249.976 238.948 250.216 238.02 250.216C236.98 250.216 236.1 249.976 235.38 249.496C234.676 249 234.14 248.328 233.772 247.48C233.404 246.632 233.22 245.656 233.22 244.552C233.22 243.224 233.468 242.048 233.964 241.024C234.476 240 235.172 239.208 236.052 238.648C236.948 238.072 237.972 237.784 239.124 237.784C239.892 237.784 240.572 237.96 241.164 238.312C241.772 238.648 242.22 239.096 242.508 239.656L242.796 238H244.5ZM239.22 239.824C238.116 239.824 237.228 240.248 236.556 241.096C235.9 241.928 235.572 243.032 235.572 244.408C235.572 245.592 235.828 246.512 236.34 247.168C236.852 247.824 237.54 248.152 238.404 248.152C239.124 248.152 239.772 247.944 240.348 247.528C240.924 247.112 241.38 246.536 241.716 245.8C242.052 245.048 242.22 244.192 242.22 243.232C242.22 242.176 241.948 241.344 241.404 240.736C240.876 240.128 240.148 239.824 239.22 239.824ZM251.889 250.216C250.321 250.216 249.113 249.904 248.265 249.28C247.417 248.656 246.929 247.776 246.801 246.64L248.769 246.16C248.881 246.896 249.185 247.448 249.681 247.816C250.177 248.184 250.913 248.368 251.889 248.368C252.673 248.368 253.273 248.224 253.689 247.936C254.105 247.632 254.313 247.232 254.313 246.736C254.313 246.256 254.089 245.904 253.641 245.68C253.209 245.44 252.537 245.232 251.625 245.056C250.777 244.896 250.041 244.688 249.417 244.432C248.809 244.16 248.337 243.8 248.001 243.352C247.665 242.888 247.497 242.28 247.497 241.528C247.497 240.808 247.689 240.168 248.073 239.608C248.473 239.048 249.009 238.608 249.681 238.288C250.369 237.952 251.153 237.784 252.033 237.784C253.217 237.784 254.185 238.072 254.937 238.648C255.705 239.208 256.161 239.952 256.305 240.88L254.409 241.384C254.153 240.216 253.345 239.632 251.985 239.632C251.281 239.632 250.729 239.8 250.329 240.136C249.929 240.456 249.729 240.872 249.729 241.384C249.729 241.832 249.921 242.2 250.305 242.488C250.689 242.76 251.377 242.992 252.369 243.184C253.217 243.36 253.953 243.576 254.577 243.832C255.201 244.072 255.681 244.408 256.017 244.84C256.369 245.256 256.553 245.832 256.569 246.568C256.569 247.272 256.369 247.904 255.969 248.464C255.585 249.008 255.041 249.44 254.337 249.76C253.633 250.064 252.817 250.216 251.889 250.216ZM284.02 250.216C282.596 250.216 281.508 249.84 280.756 249.088C280.02 248.32 279.66 247.304 279.676 246.04L279.772 239.92H277.684V237.976H279.796L279.82 235.48H282.124L282.076 237.976H286.156V239.92H282.052L281.98 245.848C281.98 246.552 282.164 247.12 282.532 247.552C282.9 247.968 283.468 248.176 284.236 248.176C284.604 248.176 284.948 248.136 285.268 248.056C285.588 247.96 285.924 247.776 286.276 247.504L286.972 249.304C286.62 249.608 286.18 249.84 285.652 250C285.14 250.144 284.596 250.216 284.02 250.216ZM288.407 250V232.24H290.711L290.735 237.976L290.567 241.504C291.015 240.304 291.647 239.384 292.463 238.744C293.279 238.104 294.231 237.784 295.319 237.784C296.599 237.784 297.575 238.232 298.247 239.128C298.919 240.008 299.247 241.28 299.231 242.944L299.183 250H296.903L296.951 243.16C296.967 241 296.231 239.92 294.743 239.92C293.959 239.92 293.263 240.224 292.655 240.832C292.063 241.44 291.591 242.48 291.239 243.952C290.887 245.424 290.703 247.44 290.687 250H288.407ZM308.014 250.216C306.126 250.216 304.638 249.68 303.55 248.608C302.462 247.536 301.918 246.056 301.918 244.168C301.918 242.92 302.166 241.816 302.662 240.856C303.174 239.896 303.87 239.144 304.75 238.6C305.63 238.056 306.63 237.784 307.75 237.784C309.478 237.784 310.79 238.384 311.686 239.584C312.582 240.768 312.894 242.488 312.622 244.744H304.246C304.294 245.832 304.654 246.68 305.326 247.288C306.014 247.88 306.966 248.176 308.182 248.176C308.774 248.176 309.342 248.048 309.886 247.792C310.446 247.52 310.926 247.12 311.326 246.592L312.718 247.936C312.158 248.672 311.494 249.24 310.726 249.64C309.958 250.024 309.054 250.216 308.014 250.216ZM307.774 239.56C306.798 239.56 306.006 239.888 305.398 240.544C304.79 241.2 304.422 242.024 304.294 243.016H310.63C310.678 241.8 310.43 240.92 309.886 240.376C309.358 239.832 308.654 239.56 307.774 239.56ZM322.631 240.184C322.327 240.088 321.959 240.04 321.527 240.04C320.631 240.04 319.895 240.384 319.319 241.072C318.759 241.744 318.343 242.816 318.071 244.288C317.815 245.744 317.687 247.648 317.687 250H315.407V242.272L315.383 237.976H317.687L317.543 241.816C317.943 240.36 318.519 239.328 319.271 238.72C320.039 238.096 320.855 237.784 321.719 237.784C321.975 237.784 322.207 237.8 322.415 237.832C322.639 237.848 322.831 237.888 322.991 237.952L322.631 240.184ZM329.67 250.216C327.782 250.216 326.294 249.68 325.206 248.608C324.118 247.536 323.574 246.056 323.574 244.168C323.574 242.92 323.822 241.816 324.318 240.856C324.83 239.896 325.526 239.144 326.406 238.6C327.286 238.056 328.286 237.784 329.406 237.784C331.134 237.784 332.446 238.384 333.342 239.584C334.238 240.768 334.55 242.488 334.278 244.744H325.902C325.95 245.832 326.31 246.68 326.982 247.288C327.67 247.88 328.622 248.176 329.838 248.176C330.43 248.176 330.998 248.048 331.542 247.792C332.102 247.52 332.582 247.12 332.982 246.592L334.374 247.936C333.814 248.672 333.15 249.24 332.382 249.64C331.614 250.024 330.71 250.216 329.67 250.216ZM329.43 239.56C328.454 239.56 327.662 239.888 327.054 240.544C326.446 241.2 326.078 242.024 325.95 243.016H332.286C332.334 241.8 332.086 240.92 331.542 240.376C331.014 239.832 330.31 239.56 329.43 239.56ZM368.044 238V250H365.692L365.788 247.528C365.34 248.36 364.756 249.016 364.036 249.496C363.316 249.976 362.492 250.216 361.564 250.216C360.524 250.216 359.644 249.976 358.924 249.496C358.22 249 357.684 248.328 357.316 247.48C356.948 246.632 356.764 245.656 356.764 244.552C356.764 243.224 357.012 242.048 357.508 241.024C358.02 240 358.716 239.208 359.596 238.648C360.492 238.072 361.516 237.784 362.668 237.784C363.436 237.784 364.116 237.96 364.708 238.312C365.316 238.648 365.764 239.096 366.052 239.656L366.34 238H368.044ZM362.764 239.824C361.66 239.824 360.772 240.248 360.1 241.096C359.444 241.928 359.116 243.032 359.116 244.408C359.116 245.592 359.372 246.512 359.884 247.168C360.396 247.824 361.084 248.152 361.948 248.152C362.668 248.152 363.316 247.944 363.892 247.528C364.468 247.112 364.924 246.536 365.26 245.8C365.596 245.048 365.764 244.192 365.764 243.232C365.764 242.176 365.492 241.344 364.948 240.736C364.42 240.128 363.692 239.824 362.764 239.824ZM378.649 240.184C378.345 240.088 377.977 240.04 377.545 240.04C376.649 240.04 375.913 240.384 375.337 241.072C374.777 241.744 374.361 242.816 374.089 244.288C373.833 245.744 373.705 247.648 373.705 250H371.425V242.272L371.401 237.976H373.705L373.561 241.816C373.961 240.36 374.537 239.328 375.289 238.72C376.057 238.096 376.873 237.784 377.737 237.784C377.993 237.784 378.225 237.8 378.433 237.832C378.657 237.848 378.849 237.888 379.009 237.952L378.649 240.184ZM385.688 250.216C383.8 250.216 382.312 249.68 381.224 248.608C380.136 247.536 379.592 246.056 379.592 244.168C379.592 242.92 379.84 241.816 380.336 240.856C380.848 239.896 381.544 239.144 382.424 238.6C383.304 238.056 384.304 237.784 385.424 237.784C387.152 237.784 388.464 238.384 389.36 239.584C390.256 240.768 390.568 242.488 390.296 244.744H381.92C381.968 245.832 382.328 246.68 383 247.288C383.688 247.88 384.64 248.176 385.856 248.176C386.448 248.176 387.016 248.048 387.56 247.792C388.12 247.52 388.6 247.12 389 246.592L390.392 247.936C389.832 248.672 389.168 249.24 388.4 249.64C387.632 250.024 386.728 250.216 385.688 250.216ZM385.448 239.56C384.472 239.56 383.68 239.888 383.072 240.544C382.464 241.2 382.096 242.024 381.968 243.016H388.304C388.352 241.8 388.104 240.92 387.56 240.376C387.032 239.832 386.328 239.56 385.448 239.56ZM418.758 237.784C420.47 237.784 421.822 238.32 422.814 239.392C423.806 240.464 424.302 241.912 424.302 243.736C424.302 244.968 424.054 246.072 423.558 247.048C423.062 248.024 422.366 248.8 421.47 249.376C420.59 249.936 419.558 250.216 418.374 250.216C416.614 250.216 415.238 249.68 414.246 248.608C413.27 247.536 412.782 246.08 412.782 244.24C412.782 243.008 413.022 241.904 413.502 240.928C413.998 239.952 414.694 239.184 415.59 238.624C416.486 238.064 417.542 237.784 418.758 237.784ZM418.398 248.152C419.454 248.152 420.302 247.752 420.942 246.952C421.598 246.136 421.926 245.064 421.926 243.736C421.926 242.488 421.638 241.528 421.062 240.856C420.502 240.168 419.726 239.824 418.734 239.824C417.646 239.824 416.774 240.232 416.118 241.048C415.462 241.864 415.134 242.928 415.134 244.24C415.134 245.488 415.422 246.456 415.998 247.144C416.574 247.816 417.374 248.152 418.398 248.152ZM431.846 250.216C430.422 250.216 429.334 249.84 428.582 249.088C427.846 248.32 427.486 247.304 427.502 246.04L427.598 239.92H425.51V237.976H427.622L427.646 235.48H429.95L429.902 237.976H433.982V239.92H429.878L429.806 245.848C429.806 246.552 429.99 247.12 430.358 247.552C430.726 247.968 431.294 248.176 432.062 248.176C432.43 248.176 432.774 248.136 433.094 248.056C433.414 247.96 433.75 247.776 434.102 247.504L434.798 249.304C434.446 249.608 434.006 249.84 433.478 250C432.966 250.144 432.422 250.216 431.846 250.216ZM436.232 250V232.24H438.536L438.56 237.976L438.392 241.504C438.84 240.304 439.472 239.384 440.288 238.744C441.104 238.104 442.056 237.784 443.144 237.784C444.424 237.784 445.4 238.232 446.072 239.128C446.744 240.008 447.072 241.28 447.056 242.944L447.008 250H444.728L444.776 243.16C444.792 241 444.056 239.92 442.568 239.92C441.784 239.92 441.088 240.224 440.48 240.832C439.888 241.44 439.416 242.48 439.064 243.952C438.712 245.424 438.528 247.44 438.512 250H436.232ZM455.839 250.216C453.951 250.216 452.463 249.68 451.375 248.608C450.287 247.536 449.743 246.056 449.743 244.168C449.743 242.92 449.991 241.816 450.487 240.856C450.999 239.896 451.695 239.144 452.575 238.6C453.455 238.056 454.455 237.784 455.575 237.784C457.303 237.784 458.615 238.384 459.511 239.584C460.407 240.768 460.719 242.488 460.447 244.744H452.071C452.119 245.832 452.479 246.68 453.151 247.288C453.839 247.88 454.791 248.176 456.007 248.176C456.599 248.176 457.167 248.048 457.711 247.792C458.271 247.52 458.751 247.12 459.151 246.592L460.543 247.936C459.983 248.672 459.319 249.24 458.551 249.64C457.783 250.024 456.879 250.216 455.839 250.216ZM455.599 239.56C454.623 239.56 453.831 239.888 453.223 240.544C452.615 241.2 452.247 242.024 452.119 243.016H458.455C458.503 241.8 458.255 240.92 457.711 240.376C457.183 239.832 456.479 239.56 455.599 239.56ZM470.457 240.184C470.153 240.088 469.785 240.04 469.353 240.04C468.457 240.04 467.721 240.384 467.145 241.072C466.585 241.744 466.169 242.816 465.897 244.288C465.641 245.744 465.513 247.648 465.513 250H463.233V242.272L463.209 237.976H465.513L465.369 241.816C465.769 240.36 466.345 239.328 467.097 238.72C467.865 238.096 468.681 237.784 469.545 237.784C469.801 237.784 470.033 237.8 470.241 237.832C470.465 237.848 470.657 237.888 470.817 237.952L470.457 240.184ZM498.068 250.216C496.276 250.216 494.868 249.688 493.844 248.632C492.82 247.576 492.308 246.104 492.308 244.216C492.308 242.936 492.556 241.816 493.052 240.856C493.564 239.88 494.276 239.128 495.188 238.6C496.1 238.056 497.156 237.784 498.356 237.784C500.356 237.784 501.812 238.576 502.724 240.16L501.044 241.432C500.452 240.376 499.548 239.848 498.332 239.848C497.244 239.848 496.364 240.248 495.692 241.048C495.02 241.832 494.684 242.88 494.684 244.192C494.684 245.472 494.98 246.448 495.572 247.12C496.18 247.792 497.052 248.128 498.188 248.128C498.78 248.128 499.324 248 499.82 247.744C500.332 247.488 500.756 247.08 501.092 246.52L502.724 247.816C502.212 248.648 501.556 249.256 500.756 249.64C499.972 250.024 499.076 250.216 498.068 250.216ZM504.602 250V232.24H506.906L506.93 237.976L506.762 241.504C507.21 240.304 507.842 239.384 508.658 238.744C509.474 238.104 510.426 237.784 511.514 237.784C512.794 237.784 513.77 238.232 514.442 239.128C515.114 240.008 515.442 241.28 515.426 242.944L515.378 250H513.098L513.146 243.16C513.162 241 512.426 239.92 510.938 239.92C510.154 239.92 509.458 240.224 508.85 240.832C508.258 241.44 507.786 242.48 507.434 243.952C507.082 245.424 506.898 247.44 506.882 250H504.602ZM520.921 237.976V250H518.641V237.976H520.921ZM519.817 235.648C519.353 235.648 518.985 235.504 518.713 235.216C518.441 234.912 518.305 234.56 518.305 234.16C518.305 233.76 518.441 233.416 518.713 233.128C518.985 232.824 519.353 232.672 519.817 232.672C520.281 232.672 520.649 232.824 520.921 233.128C521.193 233.416 521.329 233.76 521.329 234.16C521.329 234.56 521.193 234.912 520.921 235.216C520.649 235.504 520.281 235.648 519.817 235.648ZM527.529 250.216C526.457 250.216 525.649 249.928 525.105 249.352C524.577 248.76 524.313 247.96 524.313 246.952V232.24H526.617V246.712C526.617 247.688 527.057 248.176 527.937 248.176C528.161 248.176 528.369 248.144 528.561 248.08C528.769 248.016 528.945 247.944 529.089 247.864L529.665 249.568C529.441 249.76 529.129 249.912 528.729 250.024C528.345 250.152 527.945 250.216 527.529 250.216ZM541.627 232.24V250H539.275L539.371 247.528C538.923 248.36 538.339 249.016 537.619 249.496C536.899 249.976 536.075 250.216 535.147 250.216C534.107 250.216 533.227 249.976 532.507 249.496C531.803 249 531.267 248.328 530.899 247.48C530.531 246.632 530.347 245.656 530.347 244.552C530.347 243.224 530.595 242.048 531.091 241.024C531.603 240 532.299 239.208 533.179 238.648C534.075 238.072 535.099 237.784 536.251 237.784C536.907 237.784 537.507 237.912 538.051 238.168C538.595 238.424 539.035 238.768 539.371 239.2L539.323 237.976V232.24H541.627ZM536.347 239.824C535.243 239.824 534.355 240.248 533.683 241.096C533.027 241.928 532.699 243.032 532.699 244.408C532.699 245.592 532.955 246.512 533.467 247.168C533.979 247.824 534.667 248.152 535.531 248.152C536.251 248.152 536.899 247.944 537.475 247.528C538.051 247.112 538.507 246.536 538.843 245.8C539.179 245.048 539.347 244.192 539.347 243.232C539.347 242.176 539.075 241.344 538.531 240.736C538.003 240.128 537.275 239.824 536.347 239.824ZM552.233 240.184C551.929 240.088 551.561 240.04 551.129 240.04C550.233 240.04 549.497 240.384 548.921 241.072C548.361 241.744 547.945 242.816 547.673 244.288C547.417 245.744 547.289 247.648 547.289 250H545.009V242.272L544.985 237.976H547.289L547.145 241.816C547.545 240.36 548.121 239.328 548.873 238.72C549.641 238.096 550.457 237.784 551.321 237.784C551.577 237.784 551.809 237.8 552.017 237.832C552.241 237.848 552.433 237.888 552.593 237.952L552.233 240.184ZM559.271 250.216C557.383 250.216 555.895 249.68 554.807 248.608C553.719 247.536 553.175 246.056 553.175 244.168C553.175 242.92 553.423 241.816 553.919 240.856C554.431 239.896 555.127 239.144 556.007 238.6C556.887 238.056 557.887 237.784 559.007 237.784C560.735 237.784 562.047 238.384 562.943 239.584C563.839 240.768 564.151 242.488 563.879 244.744H555.503C555.551 245.832 555.911 246.68 556.583 247.288C557.271 247.88 558.223 248.176 559.439 248.176C560.031 248.176 560.599 248.048 561.143 247.792C561.703 247.52 562.183 247.12 562.583 246.592L563.975 247.936C563.415 248.672 562.751 249.24 561.983 249.64C561.215 250.024 560.311 250.216 559.271 250.216ZM559.031 239.56C558.055 239.56 557.263 239.888 556.655 240.544C556.047 241.2 555.679 242.024 555.551 243.016H561.887C561.935 241.8 561.687 240.92 561.143 240.376C560.615 239.832 559.911 239.56 559.031 239.56ZM566.641 250V237.976H568.945L568.801 241.528C569.249 240.328 569.881 239.408 570.697 238.768C571.513 238.112 572.465 237.784 573.553 237.784C574.833 237.784 575.809 238.232 576.481 239.128C577.153 240.008 577.481 241.28 577.465 242.944L577.417 250H575.137L575.185 243.16C575.201 241 574.465 239.92 572.977 239.92C572.193 239.92 571.497 240.224 570.889 240.832C570.297 241.44 569.825 242.48 569.473 243.952C569.121 245.424 568.937 247.44 568.921 250H566.641ZM69.68 284.8V267.976H72.008L71.912 270.472C72.36 269.624 72.944 268.968 73.664 268.504C74.384 268.024 75.216 267.784 76.16 267.784C77.2 267.784 78.072 268.024 78.776 268.504C79.496 268.984 80.04 269.648 80.408 270.496C80.776 271.344 80.96 272.32 80.96 273.424C80.96 274.768 80.704 275.952 80.192 276.976C79.696 277.984 79 278.776 78.104 279.352C77.224 279.928 76.216 280.216 75.08 280.216C74.408 280.216 73.8 280.088 73.256 279.832C72.712 279.56 72.272 279.2 71.936 278.752L71.984 280V284.8H69.68ZM74.96 278.152C76.064 278.152 76.944 277.728 77.6 276.88C78.272 276.032 78.608 274.92 78.608 273.544C78.608 272.376 78.352 271.464 77.84 270.808C77.328 270.152 76.64 269.824 75.776 269.824C75.056 269.824 74.408 270.032 73.832 270.448C73.256 270.864 72.8 271.44 72.464 272.176C72.128 272.912 71.96 273.76 71.96 274.72C71.96 275.792 72.224 276.632 72.752 277.24C73.296 277.848 74.032 278.152 74.96 278.152ZM91.0374 270.184C90.7334 270.088 90.3654 270.04 89.9334 270.04C89.0374 270.04 88.3014 270.384 87.7254 271.072C87.1654 271.744 86.7494 272.816 86.4774 274.288C86.2214 275.744 86.0934 277.648 86.0934 280H83.8134V272.272L83.7894 267.976H86.0934L85.9494 271.816C86.3494 270.36 86.9254 269.328 87.6774 268.72C88.4454 268.096 89.2614 267.784 90.1254 267.784C90.3814 267.784 90.6134 267.8 90.8214 267.832C91.0454 267.848 91.2374 267.888 91.3974 267.952L91.0374 270.184ZM98.0761 280.216C96.1881 280.216 94.7001 279.68 93.6121 278.608C92.5241 277.536 91.9801 276.056 91.9801 274.168C91.9801 272.92 92.2281 271.816 92.7241 270.856C93.2361 269.896 93.9321 269.144 94.8121 268.6C95.6921 268.056 96.6921 267.784 97.8121 267.784C99.5401 267.784 100.852 268.384 101.748 269.584C102.644 270.768 102.956 272.488 102.684 274.744H94.3081C94.3561 275.832 94.7161 276.68 95.3881 277.288C96.0761 277.88 97.0281 278.176 98.2441 278.176C98.8361 278.176 99.4041 278.048 99.9481 277.792C100.508 277.52 100.988 277.12 101.388 276.592L102.78 277.936C102.22 278.672 101.556 279.24 100.788 279.64C100.02 280.024 99.1161 280.216 98.0761 280.216ZM97.8361 269.56C96.8601 269.56 96.0681 269.888 95.4601 270.544C94.8521 271.2 94.4841 272.024 94.3561 273.016H100.692C100.74 271.8 100.492 270.92 99.9481 270.376C99.4201 269.832 98.7161 269.56 97.8361 269.56ZM109.478 280.216C107.91 280.216 106.702 279.904 105.854 279.28C105.006 278.656 104.518 277.776 104.39 276.64L106.358 276.16C106.47 276.896 106.774 277.448 107.27 277.816C107.766 278.184 108.502 278.368 109.478 278.368C110.262 278.368 110.862 278.224 111.278 277.936C111.694 277.632 111.902 277.232 111.902 276.736C111.902 276.256 111.678 275.904 111.23 275.68C110.798 275.44 110.126 275.232 109.214 275.056C108.366 274.896 107.63 274.688 107.006 274.432C106.398 274.16 105.926 273.8 105.59 273.352C105.254 272.888 105.086 272.28 105.086 271.528C105.086 270.808 105.278 270.168 105.662 269.608C106.062 269.048 106.598 268.608 107.27 268.288C107.958 267.952 108.742 267.784 109.622 267.784C110.806 267.784 111.774 268.072 112.526 268.648C113.294 269.208 113.75 269.952 113.894 270.88L111.998 271.384C111.742 270.216 110.934 269.632 109.574 269.632C108.87 269.632 108.318 269.8 107.918 270.136C107.518 270.456 107.318 270.872 107.318 271.384C107.318 271.832 107.51 272.2 107.894 272.488C108.278 272.76 108.966 272.992 109.958 273.184C110.806 273.36 111.542 273.576 112.166 273.832C112.79 274.072 113.27 274.408 113.606 274.84C113.958 275.256 114.142 275.832 114.158 276.568C114.158 277.272 113.958 277.904 113.558 278.464C113.174 279.008 112.63 279.44 111.926 279.76C111.222 280.064 110.406 280.216 109.478 280.216ZM122.076 280.216C120.188 280.216 118.7 279.68 117.612 278.608C116.524 277.536 115.98 276.056 115.98 274.168C115.98 272.92 116.228 271.816 116.724 270.856C117.236 269.896 117.932 269.144 118.812 268.6C119.692 268.056 120.692 267.784 121.812 267.784C123.54 267.784 124.852 268.384 125.748 269.584C126.644 270.768 126.956 272.488 126.684 274.744H118.308C118.356 275.832 118.716 276.68 119.388 277.288C120.076 277.88 121.028 278.176 122.244 278.176C122.836 278.176 123.404 278.048 123.948 277.792C124.508 277.52 124.988 277.12 125.388 276.592L126.78 277.936C126.22 278.672 125.556 279.24 124.788 279.64C124.02 280.024 123.116 280.216 122.076 280.216ZM121.836 269.56C120.86 269.56 120.068 269.888 119.46 270.544C118.852 271.2 118.484 272.024 118.356 273.016H124.692C124.74 271.8 124.492 270.92 123.948 270.376C123.42 269.832 122.716 269.56 121.836 269.56ZM129.446 280V267.976H131.75L131.606 271.528C132.054 270.328 132.686 269.408 133.502 268.768C134.318 268.112 135.27 267.784 136.358 267.784C137.638 267.784 138.614 268.232 139.286 269.128C139.958 270.008 140.286 271.28 140.27 272.944L140.222 280H137.942L137.99 273.16C138.006 271 137.27 269.92 135.782 269.92C134.998 269.92 134.302 270.224 133.694 270.832C133.102 271.44 132.63 272.48 132.278 273.952C131.926 275.424 131.742 277.44 131.726 280H129.446ZM148.333 280.216C146.909 280.216 145.821 279.84 145.069 279.088C144.333 278.32 143.973 277.304 143.989 276.04L144.085 269.92H141.997V267.976H144.109L144.133 265.48H146.437L146.389 267.976H150.469V269.92H146.365L146.293 275.848C146.293 276.552 146.477 277.12 146.845 277.552C147.213 277.968 147.781 278.176 148.549 278.176C148.917 278.176 149.261 278.136 149.581 278.056C149.901 277.96 150.237 277.776 150.589 277.504L151.285 279.304C150.933 279.608 150.493 279.84 149.965 280C149.453 280.144 148.909 280.216 148.333 280.216ZM153.98 280.216C153.484 280.216 153.084 280.064 152.78 279.76C152.476 279.44 152.324 279.048 152.324 278.584C152.324 278.136 152.476 277.76 152.78 277.456C153.084 277.136 153.484 276.976 153.98 276.976C154.476 276.976 154.868 277.136 155.156 277.456C155.46 277.76 155.612 278.136 155.612 278.584C155.612 279.048 155.46 279.44 155.156 279.76C154.868 280.064 154.476 280.216 153.98 280.216Z" fill="#073404" fill-opacity="0.8"/>
<rect x="260" y="12" width="93" height="82" rx="41" fill="#AE956C"/>
<rect x="267.5" y="19.5" width="78" height="67" rx="33.5" stroke="#F8FDF5" stroke-width="3" stroke-dasharray="6 6"/>
<path d="M304.715 66.35C303.992 66.35 303.21 66.2917 302.37 66.175C301.53 66.0817 300.713 65.9183 299.92 65.685C299.127 65.4283 298.45 65.1017 297.89 64.705L299.185 59.875C299.978 60.365 300.865 60.7617 301.845 61.065C302.825 61.345 303.887 61.485 305.03 61.485C306.523 61.485 307.632 61.1817 308.355 60.575C309.078 59.9683 309.44 59.1517 309.44 58.125C309.44 57.5417 309.288 57.005 308.985 56.515C308.682 56.0017 308.098 55.5933 307.235 55.29C306.372 54.9633 305.112 54.765 303.455 54.695L299.36 54.555L300.445 41.15H313.675V45.595H305.45L305.065 50.18C308.308 50.32 310.77 51.055 312.45 52.385C314.13 53.715 314.97 55.605 314.97 58.055C314.97 59.665 314.55 61.1 313.71 62.36C312.87 63.5967 311.68 64.5767 310.14 65.3C308.6 66 306.792 66.35 304.715 66.35Z" fill="#F8FDF5"/>
</g>
<defs>
<filter id="filter0_ddd_1027_8558" x="0" y="0" width="611" height="343" filterUnits="userSpaceOnUse" color-interpolation-filters="sRGB">
<feFlood flood-opacity="0" result="BackgroundImageFix"/>
<feColorMatrix in="SourceAlpha" type="matrix" values="0 0 0 0 0 0 0 0 0 0 0 0 0 0 0 0 0 0 127 0" result="hardAlpha"/>
<feOffset dx="2" dy="2"/>
<feGaussianBlur stdDeviation="5"/>
<feComposite in2="hardAlpha" operator="out"/>
<feColorMatrix type="matrix" values="0 0 0 0 0 0 0 0 0 0 0 0 0 0 0 0 0 0 0.1 0"/>
<feBlend mode="normal" in2="BackgroundImageFix" result="effect1_dropShadow_1027_8558"/>
<feColorMatrix in="SourceAlpha" type="matrix" values="0 0 0 0 0 0 0 0 0 0 0 0 0 0 0 0 0 0 127 0" result="hardAlpha"/>
<feOffset dx="-2" dy="-2"/>
<feGaussianBlur stdDeviation="5"/>
<feComposite in2="hardAlpha" operator="out"/>
<feColorMatrix type="matrix" values="0 0 0 0 0 0 0 0 0 0 0 0 0 0 0 0 0 0 0.1 0"/>
<feBlend mode="normal" in2="effect1_dropShadow_1027_8558" result="effect2_dropShadow_1027_8558"/>
<feColorMatrix in="SourceAlpha" type="matrix" values="0 0 0 0 0 0 0 0 0 0 0 0 0 0 0 0 0 0 127 0" result="hardAlpha"/>
<feOffset dx="3" dy="3"/>
<feComposite in2="hardAlpha" operator="out"/>
<feColorMatrix type="matrix" values="0 0 0 0 0.682353 0 0 0 0 0.584314 0 0 0 0 0.423529 0 0 0 1 0"/>
<feBlend mode="normal" in2="effect2_dropShadow_1027_8558" result="effect3_dropShadow_1027_8558"/>
<feBlend mode="normal" in="SourceGraphic" in2="effect3_dropShadow_1027_8558" result="shape"/>
</filter>
</defs>
</svg>
